%TF.GenerationSoftware,KiCad,Pcbnew,9.0.7*%
%TF.CreationDate,2026-03-13T07:39:12-06:00*%
%TF.ProjectId,NASA_PCB,4e415341-5f50-4434-922e-6b696361645f,rev?*%
%TF.SameCoordinates,Original*%
%TF.FileFunction,Soldermask,Bot*%
%TF.FilePolarity,Negative*%
%FSLAX46Y46*%
G04 Gerber Fmt 4.6, Leading zero omitted, Abs format (unit mm)*
G04 Created by KiCad (PCBNEW 9.0.7) date 2026-03-13 07:39:12*
%MOMM*%
%LPD*%
G01*
G04 APERTURE LIST*
G04 Aperture macros list*
%AMRoundRect*
0 Rectangle with rounded corners*
0 $1 Rounding radius*
0 $2 $3 $4 $5 $6 $7 $8 $9 X,Y pos of 4 corners*
0 Add a 4 corners polygon primitive as box body*
4,1,4,$2,$3,$4,$5,$6,$7,$8,$9,$2,$3,0*
0 Add four circle primitives for the rounded corners*
1,1,$1+$1,$2,$3*
1,1,$1+$1,$4,$5*
1,1,$1+$1,$6,$7*
1,1,$1+$1,$8,$9*
0 Add four rect primitives between the rounded corners*
20,1,$1+$1,$2,$3,$4,$5,0*
20,1,$1+$1,$4,$5,$6,$7,0*
20,1,$1+$1,$6,$7,$8,$9,0*
20,1,$1+$1,$8,$9,$2,$3,0*%
G04 Aperture macros list end*
%ADD10O,1.727200X1.727200*%
%ADD11R,1.727200X1.727200*%
%ADD12C,3.200000*%
%ADD13C,1.700000*%
%ADD14R,1.700000X1.700000*%
%ADD15R,1.800000X1.800000*%
%ADD16C,1.800000*%
%ADD17RoundRect,0.250000X0.550000X0.550000X-0.550000X0.550000X-0.550000X-0.550000X0.550000X-0.550000X0*%
%ADD18C,1.600000*%
%ADD19RoundRect,0.102000X-0.939800X0.939800X-0.939800X-0.939800X0.939800X-0.939800X0.939800X0.939800X0*%
%ADD20C,2.083600*%
%ADD21O,2.404000X1.304000*%
%ADD22R,2.000000X1.905000*%
%ADD23O,2.000000X1.905000*%
G04 APERTURE END LIST*
D10*
%TO.C,A1*%
X98050000Y-92274237D03*
X73666000Y-44014237D03*
X71126000Y-44014237D03*
X115957000Y-66874237D03*
X115957000Y-69414237D03*
X85350000Y-92274237D03*
X118497000Y-66874237D03*
X115957000Y-64334237D03*
X82810000Y-92274237D03*
D11*
X118497000Y-69414237D03*
X95510000Y-92274237D03*
X92970000Y-92274237D03*
X78746000Y-44014237D03*
D10*
X81286000Y-44014237D03*
X83826000Y-44014237D03*
X86366000Y-44014237D03*
X88906000Y-44014237D03*
X91446000Y-44014237D03*
X93986000Y-44014237D03*
X98050000Y-44014237D03*
X100590000Y-44014237D03*
X103130000Y-44014237D03*
X105670000Y-44014237D03*
X108210000Y-44014237D03*
X110750000Y-44014237D03*
X113290000Y-44014237D03*
X115830000Y-44014237D03*
X76206000Y-44014237D03*
X115830000Y-92274237D03*
X113290000Y-92274237D03*
X110750000Y-92274237D03*
X108210000Y-92274237D03*
X105670000Y-92274237D03*
X103130000Y-92274237D03*
X118497000Y-64334237D03*
X90430000Y-92274237D03*
X87890000Y-92274237D03*
D12*
X118370000Y-87194237D03*
X118370000Y-59254237D03*
D10*
X80270000Y-92274237D03*
D12*
X67570000Y-44014237D03*
X66300000Y-92274237D03*
%TD*%
D13*
%TO.C,J1*%
X65436000Y-55830000D03*
X65436000Y-58370000D03*
X65436000Y-60910000D03*
X65436000Y-63450000D03*
D14*
X65436000Y-65990000D03*
%TD*%
D15*
%TO.C,D2*%
X107736000Y-61170000D03*
D16*
X107736000Y-58630000D03*
%TD*%
D15*
%TO.C,D3*%
X103136000Y-61140000D03*
D16*
X103136000Y-58600000D03*
%TD*%
D17*
%TO.C,C1*%
X84187000Y-81068000D03*
D18*
X82187000Y-81068000D03*
%TD*%
D14*
%TO.C,SW1*%
X99060000Y-84577000D03*
D13*
X99060000Y-87117000D03*
%TD*%
D15*
%TO.C,D4*%
X98536000Y-61070000D03*
D16*
X98536000Y-58530000D03*
%TD*%
D18*
%TO.C,C3*%
X77176000Y-88900000D03*
X74676000Y-88900000D03*
%TD*%
D17*
%TO.C,C2*%
X84431887Y-86868000D03*
D18*
X82431887Y-86868000D03*
%TD*%
%TO.C,R1*%
X114236000Y-55590000D03*
X114236000Y-47970000D03*
%TD*%
D19*
%TO.C,U1*%
X102736000Y-79430000D03*
D20*
X102736000Y-76890000D03*
X102736000Y-74350000D03*
X102736000Y-71810000D03*
X102736000Y-69270000D03*
X102736000Y-66730000D03*
%TD*%
D14*
%TO.C,J3*%
X84236000Y-53370000D03*
D13*
X84236000Y-55910000D03*
X84236000Y-58450000D03*
X84236000Y-60990000D03*
X84236000Y-63530000D03*
X84236000Y-66070000D03*
%TD*%
D18*
%TO.C,R4*%
X101736000Y-55890000D03*
X101736000Y-48270000D03*
%TD*%
%TO.C,R3*%
X105936000Y-55590000D03*
X105936000Y-47970000D03*
%TD*%
D14*
%TO.C,J4*%
X94136000Y-53290000D03*
D13*
X94136000Y-55830000D03*
X94136000Y-58370000D03*
X94136000Y-60910000D03*
X94136000Y-63450000D03*
X94136000Y-65990000D03*
%TD*%
D18*
%TO.C,R2*%
X110036000Y-55580000D03*
X110036000Y-47960000D03*
%TD*%
D21*
%TO.C,U6*%
X73914000Y-82550000D03*
X73914000Y-81280000D03*
X73914000Y-80010000D03*
%TD*%
D22*
%TO.C,U4*%
X92390000Y-86868000D03*
D23*
X92390000Y-84328000D03*
X92390000Y-81788000D03*
%TD*%
D15*
%TO.C,D1*%
X112336000Y-61170000D03*
D16*
X112336000Y-58630000D03*
%TD*%
D14*
%TO.C,BT1*%
X84836000Y-75184000D03*
D13*
X84836000Y-72644000D03*
%TD*%
M02*
