%TF.GenerationSoftware,KiCad,Pcbnew,9.0.7*%
%TF.CreationDate,2026-03-13T07:39:12-06:00*%
%TF.ProjectId,NASA_PCB,4e415341-5f50-4434-922e-6b696361645f,rev?*%
%TF.SameCoordinates,Original*%
%TF.FileFunction,Legend,Top*%
%TF.FilePolarity,Positive*%
%FSLAX46Y46*%
G04 Gerber Fmt 4.6, Leading zero omitted, Abs format (unit mm)*
G04 Created by KiCad (PCBNEW 9.0.7) date 2026-03-13 07:39:12*
%MOMM*%
%LPD*%
G01*
G04 APERTURE LIST*
%ADD10C,0.150000*%
%ADD11C,0.120000*%
%ADD12C,0.127000*%
%ADD13C,0.200000*%
G04 APERTURE END LIST*
D10*
X86649160Y-50622200D02*
X86792017Y-50669819D01*
X86792017Y-50669819D02*
X87030112Y-50669819D01*
X87030112Y-50669819D02*
X87125350Y-50622200D01*
X87125350Y-50622200D02*
X87172969Y-50574580D01*
X87172969Y-50574580D02*
X87220588Y-50479342D01*
X87220588Y-50479342D02*
X87220588Y-50384104D01*
X87220588Y-50384104D02*
X87172969Y-50288866D01*
X87172969Y-50288866D02*
X87125350Y-50241247D01*
X87125350Y-50241247D02*
X87030112Y-50193628D01*
X87030112Y-50193628D02*
X86839636Y-50146009D01*
X86839636Y-50146009D02*
X86744398Y-50098390D01*
X86744398Y-50098390D02*
X86696779Y-50050771D01*
X86696779Y-50050771D02*
X86649160Y-49955533D01*
X86649160Y-49955533D02*
X86649160Y-49860295D01*
X86649160Y-49860295D02*
X86696779Y-49765057D01*
X86696779Y-49765057D02*
X86744398Y-49717438D01*
X86744398Y-49717438D02*
X86839636Y-49669819D01*
X86839636Y-49669819D02*
X87077731Y-49669819D01*
X87077731Y-49669819D02*
X87220588Y-49717438D01*
X87982493Y-50146009D02*
X87649160Y-50146009D01*
X87649160Y-50669819D02*
X87649160Y-49669819D01*
X87649160Y-49669819D02*
X88125350Y-49669819D01*
X89744398Y-50669819D02*
X89268208Y-50669819D01*
X89268208Y-50669819D02*
X89268208Y-49669819D01*
X90077732Y-50669819D02*
X90077732Y-49669819D01*
X90506303Y-50622200D02*
X90649160Y-50669819D01*
X90649160Y-50669819D02*
X90887255Y-50669819D01*
X90887255Y-50669819D02*
X90982493Y-50622200D01*
X90982493Y-50622200D02*
X91030112Y-50574580D01*
X91030112Y-50574580D02*
X91077731Y-50479342D01*
X91077731Y-50479342D02*
X91077731Y-50384104D01*
X91077731Y-50384104D02*
X91030112Y-50288866D01*
X91030112Y-50288866D02*
X90982493Y-50241247D01*
X90982493Y-50241247D02*
X90887255Y-50193628D01*
X90887255Y-50193628D02*
X90696779Y-50146009D01*
X90696779Y-50146009D02*
X90601541Y-50098390D01*
X90601541Y-50098390D02*
X90553922Y-50050771D01*
X90553922Y-50050771D02*
X90506303Y-49955533D01*
X90506303Y-49955533D02*
X90506303Y-49860295D01*
X90506303Y-49860295D02*
X90553922Y-49765057D01*
X90553922Y-49765057D02*
X90601541Y-49717438D01*
X90601541Y-49717438D02*
X90696779Y-49669819D01*
X90696779Y-49669819D02*
X90934874Y-49669819D01*
X90934874Y-49669819D02*
X91077731Y-49717438D01*
X91411065Y-49669819D02*
X92030112Y-49669819D01*
X92030112Y-49669819D02*
X91696779Y-50050771D01*
X91696779Y-50050771D02*
X91839636Y-50050771D01*
X91839636Y-50050771D02*
X91934874Y-50098390D01*
X91934874Y-50098390D02*
X91982493Y-50146009D01*
X91982493Y-50146009D02*
X92030112Y-50241247D01*
X92030112Y-50241247D02*
X92030112Y-50479342D01*
X92030112Y-50479342D02*
X91982493Y-50574580D01*
X91982493Y-50574580D02*
X91934874Y-50622200D01*
X91934874Y-50622200D02*
X91839636Y-50669819D01*
X91839636Y-50669819D02*
X91553922Y-50669819D01*
X91553922Y-50669819D02*
X91458684Y-50622200D01*
X91458684Y-50622200D02*
X91411065Y-50574580D01*
X92458684Y-50669819D02*
X92458684Y-49669819D01*
X92458684Y-49669819D02*
X92696779Y-49669819D01*
X92696779Y-49669819D02*
X92839636Y-49717438D01*
X92839636Y-49717438D02*
X92934874Y-49812676D01*
X92934874Y-49812676D02*
X92982493Y-49907914D01*
X92982493Y-49907914D02*
X93030112Y-50098390D01*
X93030112Y-50098390D02*
X93030112Y-50241247D01*
X93030112Y-50241247D02*
X92982493Y-50431723D01*
X92982493Y-50431723D02*
X92934874Y-50526961D01*
X92934874Y-50526961D02*
X92839636Y-50622200D01*
X92839636Y-50622200D02*
X92696779Y-50669819D01*
X92696779Y-50669819D02*
X92458684Y-50669819D01*
X93458684Y-50669819D02*
X93458684Y-49669819D01*
X93458684Y-50146009D02*
X94030112Y-50146009D01*
X94030112Y-50669819D02*
X94030112Y-49669819D01*
X114814000Y-63169817D02*
X114861619Y-63217437D01*
X114861619Y-63217437D02*
X114814000Y-63265056D01*
X114814000Y-63265056D02*
X114766381Y-63217437D01*
X114766381Y-63217437D02*
X114814000Y-63169817D01*
X114814000Y-63169817D02*
X114814000Y-63265056D01*
X65580380Y-70273104D02*
X66056570Y-70273104D01*
X65485142Y-70558819D02*
X65818475Y-69558819D01*
X65818475Y-69558819D02*
X66151808Y-70558819D01*
X66913713Y-70558819D02*
X66913713Y-69558819D01*
X66913713Y-70511200D02*
X66818475Y-70558819D01*
X66818475Y-70558819D02*
X66627999Y-70558819D01*
X66627999Y-70558819D02*
X66532761Y-70511200D01*
X66532761Y-70511200D02*
X66485142Y-70463580D01*
X66485142Y-70463580D02*
X66437523Y-70368342D01*
X66437523Y-70368342D02*
X66437523Y-70082628D01*
X66437523Y-70082628D02*
X66485142Y-69987390D01*
X66485142Y-69987390D02*
X66532761Y-69939771D01*
X66532761Y-69939771D02*
X66627999Y-69892152D01*
X66627999Y-69892152D02*
X66818475Y-69892152D01*
X66818475Y-69892152D02*
X66913713Y-69939771D01*
X67818475Y-70558819D02*
X67818475Y-70035009D01*
X67818475Y-70035009D02*
X67770856Y-69939771D01*
X67770856Y-69939771D02*
X67675618Y-69892152D01*
X67675618Y-69892152D02*
X67485142Y-69892152D01*
X67485142Y-69892152D02*
X67389904Y-69939771D01*
X67818475Y-70511200D02*
X67723237Y-70558819D01*
X67723237Y-70558819D02*
X67485142Y-70558819D01*
X67485142Y-70558819D02*
X67389904Y-70511200D01*
X67389904Y-70511200D02*
X67342285Y-70415961D01*
X67342285Y-70415961D02*
X67342285Y-70320723D01*
X67342285Y-70320723D02*
X67389904Y-70225485D01*
X67389904Y-70225485D02*
X67485142Y-70177866D01*
X67485142Y-70177866D02*
X67723237Y-70177866D01*
X67723237Y-70177866D02*
X67818475Y-70130247D01*
X68151809Y-69892152D02*
X68532761Y-69892152D01*
X68294666Y-70558819D02*
X68294666Y-69701676D01*
X68294666Y-69701676D02*
X68342285Y-69606438D01*
X68342285Y-69606438D02*
X68437523Y-69558819D01*
X68437523Y-69558819D02*
X68532761Y-69558819D01*
X68866095Y-70558819D02*
X68866095Y-69892152D01*
X68866095Y-70082628D02*
X68913714Y-69987390D01*
X68913714Y-69987390D02*
X68961333Y-69939771D01*
X68961333Y-69939771D02*
X69056571Y-69892152D01*
X69056571Y-69892152D02*
X69151809Y-69892152D01*
X69913714Y-69892152D02*
X69913714Y-70558819D01*
X69485143Y-69892152D02*
X69485143Y-70415961D01*
X69485143Y-70415961D02*
X69532762Y-70511200D01*
X69532762Y-70511200D02*
X69628000Y-70558819D01*
X69628000Y-70558819D02*
X69770857Y-70558819D01*
X69770857Y-70558819D02*
X69866095Y-70511200D01*
X69866095Y-70511200D02*
X69913714Y-70463580D01*
X70389905Y-70558819D02*
X70389905Y-69892152D01*
X70389905Y-69558819D02*
X70342286Y-69606438D01*
X70342286Y-69606438D02*
X70389905Y-69654057D01*
X70389905Y-69654057D02*
X70437524Y-69606438D01*
X70437524Y-69606438D02*
X70389905Y-69558819D01*
X70389905Y-69558819D02*
X70389905Y-69654057D01*
X70723238Y-69892152D02*
X71104190Y-69892152D01*
X70866095Y-69558819D02*
X70866095Y-70415961D01*
X70866095Y-70415961D02*
X70913714Y-70511200D01*
X70913714Y-70511200D02*
X71008952Y-70558819D01*
X71008952Y-70558819D02*
X71104190Y-70558819D01*
X72199429Y-70558819D02*
X72199429Y-69558819D01*
X72199429Y-69558819D02*
X72532762Y-70273104D01*
X72532762Y-70273104D02*
X72866095Y-69558819D01*
X72866095Y-69558819D02*
X72866095Y-70558819D01*
X73294667Y-70511200D02*
X73437524Y-70558819D01*
X73437524Y-70558819D02*
X73675619Y-70558819D01*
X73675619Y-70558819D02*
X73770857Y-70511200D01*
X73770857Y-70511200D02*
X73818476Y-70463580D01*
X73818476Y-70463580D02*
X73866095Y-70368342D01*
X73866095Y-70368342D02*
X73866095Y-70273104D01*
X73866095Y-70273104D02*
X73818476Y-70177866D01*
X73818476Y-70177866D02*
X73770857Y-70130247D01*
X73770857Y-70130247D02*
X73675619Y-70082628D01*
X73675619Y-70082628D02*
X73485143Y-70035009D01*
X73485143Y-70035009D02*
X73389905Y-69987390D01*
X73389905Y-69987390D02*
X73342286Y-69939771D01*
X73342286Y-69939771D02*
X73294667Y-69844533D01*
X73294667Y-69844533D02*
X73294667Y-69749295D01*
X73294667Y-69749295D02*
X73342286Y-69654057D01*
X73342286Y-69654057D02*
X73389905Y-69606438D01*
X73389905Y-69606438D02*
X73485143Y-69558819D01*
X73485143Y-69558819D02*
X73723238Y-69558819D01*
X73723238Y-69558819D02*
X73866095Y-69606438D01*
X74437524Y-69987390D02*
X74342286Y-69939771D01*
X74342286Y-69939771D02*
X74294667Y-69892152D01*
X74294667Y-69892152D02*
X74247048Y-69796914D01*
X74247048Y-69796914D02*
X74247048Y-69749295D01*
X74247048Y-69749295D02*
X74294667Y-69654057D01*
X74294667Y-69654057D02*
X74342286Y-69606438D01*
X74342286Y-69606438D02*
X74437524Y-69558819D01*
X74437524Y-69558819D02*
X74628000Y-69558819D01*
X74628000Y-69558819D02*
X74723238Y-69606438D01*
X74723238Y-69606438D02*
X74770857Y-69654057D01*
X74770857Y-69654057D02*
X74818476Y-69749295D01*
X74818476Y-69749295D02*
X74818476Y-69796914D01*
X74818476Y-69796914D02*
X74770857Y-69892152D01*
X74770857Y-69892152D02*
X74723238Y-69939771D01*
X74723238Y-69939771D02*
X74628000Y-69987390D01*
X74628000Y-69987390D02*
X74437524Y-69987390D01*
X74437524Y-69987390D02*
X74342286Y-70035009D01*
X74342286Y-70035009D02*
X74294667Y-70082628D01*
X74294667Y-70082628D02*
X74247048Y-70177866D01*
X74247048Y-70177866D02*
X74247048Y-70368342D01*
X74247048Y-70368342D02*
X74294667Y-70463580D01*
X74294667Y-70463580D02*
X74342286Y-70511200D01*
X74342286Y-70511200D02*
X74437524Y-70558819D01*
X74437524Y-70558819D02*
X74628000Y-70558819D01*
X74628000Y-70558819D02*
X74723238Y-70511200D01*
X74723238Y-70511200D02*
X74770857Y-70463580D01*
X74770857Y-70463580D02*
X74818476Y-70368342D01*
X74818476Y-70368342D02*
X74818476Y-70177866D01*
X74818476Y-70177866D02*
X74770857Y-70082628D01*
X74770857Y-70082628D02*
X74723238Y-70035009D01*
X74723238Y-70035009D02*
X74628000Y-69987390D01*
X75675619Y-69558819D02*
X75485143Y-69558819D01*
X75485143Y-69558819D02*
X75389905Y-69606438D01*
X75389905Y-69606438D02*
X75342286Y-69654057D01*
X75342286Y-69654057D02*
X75247048Y-69796914D01*
X75247048Y-69796914D02*
X75199429Y-69987390D01*
X75199429Y-69987390D02*
X75199429Y-70368342D01*
X75199429Y-70368342D02*
X75247048Y-70463580D01*
X75247048Y-70463580D02*
X75294667Y-70511200D01*
X75294667Y-70511200D02*
X75389905Y-70558819D01*
X75389905Y-70558819D02*
X75580381Y-70558819D01*
X75580381Y-70558819D02*
X75675619Y-70511200D01*
X75675619Y-70511200D02*
X75723238Y-70463580D01*
X75723238Y-70463580D02*
X75770857Y-70368342D01*
X75770857Y-70368342D02*
X75770857Y-70130247D01*
X75770857Y-70130247D02*
X75723238Y-70035009D01*
X75723238Y-70035009D02*
X75675619Y-69987390D01*
X75675619Y-69987390D02*
X75580381Y-69939771D01*
X75580381Y-69939771D02*
X75389905Y-69939771D01*
X75389905Y-69939771D02*
X75294667Y-69987390D01*
X75294667Y-69987390D02*
X75247048Y-70035009D01*
X75247048Y-70035009D02*
X75199429Y-70130247D01*
X76389905Y-69558819D02*
X76485143Y-69558819D01*
X76485143Y-69558819D02*
X76580381Y-69606438D01*
X76580381Y-69606438D02*
X76628000Y-69654057D01*
X76628000Y-69654057D02*
X76675619Y-69749295D01*
X76675619Y-69749295D02*
X76723238Y-69939771D01*
X76723238Y-69939771D02*
X76723238Y-70177866D01*
X76723238Y-70177866D02*
X76675619Y-70368342D01*
X76675619Y-70368342D02*
X76628000Y-70463580D01*
X76628000Y-70463580D02*
X76580381Y-70511200D01*
X76580381Y-70511200D02*
X76485143Y-70558819D01*
X76485143Y-70558819D02*
X76389905Y-70558819D01*
X76389905Y-70558819D02*
X76294667Y-70511200D01*
X76294667Y-70511200D02*
X76247048Y-70463580D01*
X76247048Y-70463580D02*
X76199429Y-70368342D01*
X76199429Y-70368342D02*
X76151810Y-70177866D01*
X76151810Y-70177866D02*
X76151810Y-69939771D01*
X76151810Y-69939771D02*
X76199429Y-69749295D01*
X76199429Y-69749295D02*
X76247048Y-69654057D01*
X76247048Y-69654057D02*
X76294667Y-69606438D01*
X76294667Y-69606438D02*
X76389905Y-69558819D01*
X77056572Y-69558819D02*
X77723238Y-69558819D01*
X77723238Y-69558819D02*
X77294667Y-70558819D01*
X106646952Y-63884819D02*
X106170762Y-63884819D01*
X106170762Y-63884819D02*
X106170762Y-62884819D01*
X106980286Y-63361009D02*
X107313619Y-63361009D01*
X107456476Y-63884819D02*
X106980286Y-63884819D01*
X106980286Y-63884819D02*
X106980286Y-62884819D01*
X106980286Y-62884819D02*
X107456476Y-62884819D01*
X107885048Y-63884819D02*
X107885048Y-62884819D01*
X107885048Y-62884819D02*
X108123143Y-62884819D01*
X108123143Y-62884819D02*
X108266000Y-62932438D01*
X108266000Y-62932438D02*
X108361238Y-63027676D01*
X108361238Y-63027676D02*
X108408857Y-63122914D01*
X108408857Y-63122914D02*
X108456476Y-63313390D01*
X108456476Y-63313390D02*
X108456476Y-63456247D01*
X108456476Y-63456247D02*
X108408857Y-63646723D01*
X108408857Y-63646723D02*
X108361238Y-63741961D01*
X108361238Y-63741961D02*
X108266000Y-63837200D01*
X108266000Y-63837200D02*
X108123143Y-63884819D01*
X108123143Y-63884819D02*
X107885048Y-63884819D01*
X108837429Y-62980057D02*
X108885048Y-62932438D01*
X108885048Y-62932438D02*
X108980286Y-62884819D01*
X108980286Y-62884819D02*
X109218381Y-62884819D01*
X109218381Y-62884819D02*
X109313619Y-62932438D01*
X109313619Y-62932438D02*
X109361238Y-62980057D01*
X109361238Y-62980057D02*
X109408857Y-63075295D01*
X109408857Y-63075295D02*
X109408857Y-63170533D01*
X109408857Y-63170533D02*
X109361238Y-63313390D01*
X109361238Y-63313390D02*
X108789810Y-63884819D01*
X108789810Y-63884819D02*
X109408857Y-63884819D01*
X102126952Y-63854819D02*
X101650762Y-63854819D01*
X101650762Y-63854819D02*
X101650762Y-62854819D01*
X102460286Y-63331009D02*
X102793619Y-63331009D01*
X102936476Y-63854819D02*
X102460286Y-63854819D01*
X102460286Y-63854819D02*
X102460286Y-62854819D01*
X102460286Y-62854819D02*
X102936476Y-62854819D01*
X103365048Y-63854819D02*
X103365048Y-62854819D01*
X103365048Y-62854819D02*
X103603143Y-62854819D01*
X103603143Y-62854819D02*
X103746000Y-62902438D01*
X103746000Y-62902438D02*
X103841238Y-62997676D01*
X103841238Y-62997676D02*
X103888857Y-63092914D01*
X103888857Y-63092914D02*
X103936476Y-63283390D01*
X103936476Y-63283390D02*
X103936476Y-63426247D01*
X103936476Y-63426247D02*
X103888857Y-63616723D01*
X103888857Y-63616723D02*
X103841238Y-63711961D01*
X103841238Y-63711961D02*
X103746000Y-63807200D01*
X103746000Y-63807200D02*
X103603143Y-63854819D01*
X103603143Y-63854819D02*
X103365048Y-63854819D01*
X104269810Y-62854819D02*
X104888857Y-62854819D01*
X104888857Y-62854819D02*
X104555524Y-63235771D01*
X104555524Y-63235771D02*
X104698381Y-63235771D01*
X104698381Y-63235771D02*
X104793619Y-63283390D01*
X104793619Y-63283390D02*
X104841238Y-63331009D01*
X104841238Y-63331009D02*
X104888857Y-63426247D01*
X104888857Y-63426247D02*
X104888857Y-63664342D01*
X104888857Y-63664342D02*
X104841238Y-63759580D01*
X104841238Y-63759580D02*
X104793619Y-63807200D01*
X104793619Y-63807200D02*
X104698381Y-63854819D01*
X104698381Y-63854819D02*
X104412667Y-63854819D01*
X104412667Y-63854819D02*
X104317429Y-63807200D01*
X104317429Y-63807200D02*
X104269810Y-63759580D01*
X86193333Y-79099580D02*
X86145714Y-79147200D01*
X86145714Y-79147200D02*
X86002857Y-79194819D01*
X86002857Y-79194819D02*
X85907619Y-79194819D01*
X85907619Y-79194819D02*
X85764762Y-79147200D01*
X85764762Y-79147200D02*
X85669524Y-79051961D01*
X85669524Y-79051961D02*
X85621905Y-78956723D01*
X85621905Y-78956723D02*
X85574286Y-78766247D01*
X85574286Y-78766247D02*
X85574286Y-78623390D01*
X85574286Y-78623390D02*
X85621905Y-78432914D01*
X85621905Y-78432914D02*
X85669524Y-78337676D01*
X85669524Y-78337676D02*
X85764762Y-78242438D01*
X85764762Y-78242438D02*
X85907619Y-78194819D01*
X85907619Y-78194819D02*
X86002857Y-78194819D01*
X86002857Y-78194819D02*
X86145714Y-78242438D01*
X86145714Y-78242438D02*
X86193333Y-78290057D01*
X87145714Y-79194819D02*
X86574286Y-79194819D01*
X86860000Y-79194819D02*
X86860000Y-78194819D01*
X86860000Y-78194819D02*
X86764762Y-78337676D01*
X86764762Y-78337676D02*
X86669524Y-78432914D01*
X86669524Y-78432914D02*
X86574286Y-78480533D01*
X97726667Y-89684200D02*
X97869524Y-89731819D01*
X97869524Y-89731819D02*
X98107619Y-89731819D01*
X98107619Y-89731819D02*
X98202857Y-89684200D01*
X98202857Y-89684200D02*
X98250476Y-89636580D01*
X98250476Y-89636580D02*
X98298095Y-89541342D01*
X98298095Y-89541342D02*
X98298095Y-89446104D01*
X98298095Y-89446104D02*
X98250476Y-89350866D01*
X98250476Y-89350866D02*
X98202857Y-89303247D01*
X98202857Y-89303247D02*
X98107619Y-89255628D01*
X98107619Y-89255628D02*
X97917143Y-89208009D01*
X97917143Y-89208009D02*
X97821905Y-89160390D01*
X97821905Y-89160390D02*
X97774286Y-89112771D01*
X97774286Y-89112771D02*
X97726667Y-89017533D01*
X97726667Y-89017533D02*
X97726667Y-88922295D01*
X97726667Y-88922295D02*
X97774286Y-88827057D01*
X97774286Y-88827057D02*
X97821905Y-88779438D01*
X97821905Y-88779438D02*
X97917143Y-88731819D01*
X97917143Y-88731819D02*
X98155238Y-88731819D01*
X98155238Y-88731819D02*
X98298095Y-88779438D01*
X98631429Y-88731819D02*
X98869524Y-89731819D01*
X98869524Y-89731819D02*
X99060000Y-89017533D01*
X99060000Y-89017533D02*
X99250476Y-89731819D01*
X99250476Y-89731819D02*
X99488572Y-88731819D01*
X100393333Y-89731819D02*
X99821905Y-89731819D01*
X100107619Y-89731819D02*
X100107619Y-88731819D01*
X100107619Y-88731819D02*
X100012381Y-88874676D01*
X100012381Y-88874676D02*
X99917143Y-88969914D01*
X99917143Y-88969914D02*
X99821905Y-89017533D01*
X97606952Y-63784819D02*
X97130762Y-63784819D01*
X97130762Y-63784819D02*
X97130762Y-62784819D01*
X97940286Y-63261009D02*
X98273619Y-63261009D01*
X98416476Y-63784819D02*
X97940286Y-63784819D01*
X97940286Y-63784819D02*
X97940286Y-62784819D01*
X97940286Y-62784819D02*
X98416476Y-62784819D01*
X98845048Y-63784819D02*
X98845048Y-62784819D01*
X98845048Y-62784819D02*
X99083143Y-62784819D01*
X99083143Y-62784819D02*
X99226000Y-62832438D01*
X99226000Y-62832438D02*
X99321238Y-62927676D01*
X99321238Y-62927676D02*
X99368857Y-63022914D01*
X99368857Y-63022914D02*
X99416476Y-63213390D01*
X99416476Y-63213390D02*
X99416476Y-63356247D01*
X99416476Y-63356247D02*
X99368857Y-63546723D01*
X99368857Y-63546723D02*
X99321238Y-63641961D01*
X99321238Y-63641961D02*
X99226000Y-63737200D01*
X99226000Y-63737200D02*
X99083143Y-63784819D01*
X99083143Y-63784819D02*
X98845048Y-63784819D01*
X100273619Y-63118152D02*
X100273619Y-63784819D01*
X100035524Y-62737200D02*
X99797429Y-63451485D01*
X99797429Y-63451485D02*
X100416476Y-63451485D01*
X75017333Y-91799580D02*
X74969714Y-91847200D01*
X74969714Y-91847200D02*
X74826857Y-91894819D01*
X74826857Y-91894819D02*
X74731619Y-91894819D01*
X74731619Y-91894819D02*
X74588762Y-91847200D01*
X74588762Y-91847200D02*
X74493524Y-91751961D01*
X74493524Y-91751961D02*
X74445905Y-91656723D01*
X74445905Y-91656723D02*
X74398286Y-91466247D01*
X74398286Y-91466247D02*
X74398286Y-91323390D01*
X74398286Y-91323390D02*
X74445905Y-91132914D01*
X74445905Y-91132914D02*
X74493524Y-91037676D01*
X74493524Y-91037676D02*
X74588762Y-90942438D01*
X74588762Y-90942438D02*
X74731619Y-90894819D01*
X74731619Y-90894819D02*
X74826857Y-90894819D01*
X74826857Y-90894819D02*
X74969714Y-90942438D01*
X74969714Y-90942438D02*
X75017333Y-90990057D01*
X75350667Y-90894819D02*
X75969714Y-90894819D01*
X75969714Y-90894819D02*
X75636381Y-91275771D01*
X75636381Y-91275771D02*
X75779238Y-91275771D01*
X75779238Y-91275771D02*
X75874476Y-91323390D01*
X75874476Y-91323390D02*
X75922095Y-91371009D01*
X75922095Y-91371009D02*
X75969714Y-91466247D01*
X75969714Y-91466247D02*
X75969714Y-91704342D01*
X75969714Y-91704342D02*
X75922095Y-91799580D01*
X75922095Y-91799580D02*
X75874476Y-91847200D01*
X75874476Y-91847200D02*
X75779238Y-91894819D01*
X75779238Y-91894819D02*
X75493524Y-91894819D01*
X75493524Y-91894819D02*
X75398286Y-91847200D01*
X75398286Y-91847200D02*
X75350667Y-91799580D01*
X86193333Y-84687580D02*
X86145714Y-84735200D01*
X86145714Y-84735200D02*
X86002857Y-84782819D01*
X86002857Y-84782819D02*
X85907619Y-84782819D01*
X85907619Y-84782819D02*
X85764762Y-84735200D01*
X85764762Y-84735200D02*
X85669524Y-84639961D01*
X85669524Y-84639961D02*
X85621905Y-84544723D01*
X85621905Y-84544723D02*
X85574286Y-84354247D01*
X85574286Y-84354247D02*
X85574286Y-84211390D01*
X85574286Y-84211390D02*
X85621905Y-84020914D01*
X85621905Y-84020914D02*
X85669524Y-83925676D01*
X85669524Y-83925676D02*
X85764762Y-83830438D01*
X85764762Y-83830438D02*
X85907619Y-83782819D01*
X85907619Y-83782819D02*
X86002857Y-83782819D01*
X86002857Y-83782819D02*
X86145714Y-83830438D01*
X86145714Y-83830438D02*
X86193333Y-83878057D01*
X86574286Y-83878057D02*
X86621905Y-83830438D01*
X86621905Y-83830438D02*
X86717143Y-83782819D01*
X86717143Y-83782819D02*
X86955238Y-83782819D01*
X86955238Y-83782819D02*
X87050476Y-83830438D01*
X87050476Y-83830438D02*
X87098095Y-83878057D01*
X87098095Y-83878057D02*
X87145714Y-83973295D01*
X87145714Y-83973295D02*
X87145714Y-84068533D01*
X87145714Y-84068533D02*
X87098095Y-84211390D01*
X87098095Y-84211390D02*
X86526667Y-84782819D01*
X86526667Y-84782819D02*
X87145714Y-84782819D01*
X114069333Y-51762819D02*
X113736000Y-51286628D01*
X113497905Y-51762819D02*
X113497905Y-50762819D01*
X113497905Y-50762819D02*
X113878857Y-50762819D01*
X113878857Y-50762819D02*
X113974095Y-50810438D01*
X113974095Y-50810438D02*
X114021714Y-50858057D01*
X114021714Y-50858057D02*
X114069333Y-50953295D01*
X114069333Y-50953295D02*
X114069333Y-51096152D01*
X114069333Y-51096152D02*
X114021714Y-51191390D01*
X114021714Y-51191390D02*
X113974095Y-51239009D01*
X113974095Y-51239009D02*
X113878857Y-51286628D01*
X113878857Y-51286628D02*
X113497905Y-51286628D01*
X115021714Y-51762819D02*
X114450286Y-51762819D01*
X114736000Y-51762819D02*
X114736000Y-50762819D01*
X114736000Y-50762819D02*
X114640762Y-50905676D01*
X114640762Y-50905676D02*
X114545524Y-51000914D01*
X114545524Y-51000914D02*
X114450286Y-51048533D01*
X115570095Y-74638819D02*
X115570095Y-75448342D01*
X115570095Y-75448342D02*
X115617714Y-75543580D01*
X115617714Y-75543580D02*
X115665333Y-75591200D01*
X115665333Y-75591200D02*
X115760571Y-75638819D01*
X115760571Y-75638819D02*
X115951047Y-75638819D01*
X115951047Y-75638819D02*
X116046285Y-75591200D01*
X116046285Y-75591200D02*
X116093904Y-75543580D01*
X116093904Y-75543580D02*
X116141523Y-75448342D01*
X116141523Y-75448342D02*
X116141523Y-74638819D01*
X117141523Y-75638819D02*
X116570095Y-75638819D01*
X116855809Y-75638819D02*
X116855809Y-74638819D01*
X116855809Y-74638819D02*
X116760571Y-74781676D01*
X116760571Y-74781676D02*
X116665333Y-74876914D01*
X116665333Y-74876914D02*
X116570095Y-74924533D01*
X107274095Y-82277200D02*
X107416952Y-82324819D01*
X107416952Y-82324819D02*
X107655047Y-82324819D01*
X107655047Y-82324819D02*
X107750285Y-82277200D01*
X107750285Y-82277200D02*
X107797904Y-82229580D01*
X107797904Y-82229580D02*
X107845523Y-82134342D01*
X107845523Y-82134342D02*
X107845523Y-82039104D01*
X107845523Y-82039104D02*
X107797904Y-81943866D01*
X107797904Y-81943866D02*
X107750285Y-81896247D01*
X107750285Y-81896247D02*
X107655047Y-81848628D01*
X107655047Y-81848628D02*
X107464571Y-81801009D01*
X107464571Y-81801009D02*
X107369333Y-81753390D01*
X107369333Y-81753390D02*
X107321714Y-81705771D01*
X107321714Y-81705771D02*
X107274095Y-81610533D01*
X107274095Y-81610533D02*
X107274095Y-81515295D01*
X107274095Y-81515295D02*
X107321714Y-81420057D01*
X107321714Y-81420057D02*
X107369333Y-81372438D01*
X107369333Y-81372438D02*
X107464571Y-81324819D01*
X107464571Y-81324819D02*
X107702666Y-81324819D01*
X107702666Y-81324819D02*
X107845523Y-81372438D01*
X108607428Y-81801009D02*
X108274095Y-81801009D01*
X108274095Y-82324819D02*
X108274095Y-81324819D01*
X108274095Y-81324819D02*
X108750285Y-81324819D01*
X110083619Y-81324819D02*
X110274095Y-81324819D01*
X110274095Y-81324819D02*
X110369333Y-81372438D01*
X110369333Y-81372438D02*
X110464571Y-81467676D01*
X110464571Y-81467676D02*
X110512190Y-81658152D01*
X110512190Y-81658152D02*
X110512190Y-81991485D01*
X110512190Y-81991485D02*
X110464571Y-82181961D01*
X110464571Y-82181961D02*
X110369333Y-82277200D01*
X110369333Y-82277200D02*
X110274095Y-82324819D01*
X110274095Y-82324819D02*
X110083619Y-82324819D01*
X110083619Y-82324819D02*
X109988381Y-82277200D01*
X109988381Y-82277200D02*
X109893143Y-82181961D01*
X109893143Y-82181961D02*
X109845524Y-81991485D01*
X109845524Y-81991485D02*
X109845524Y-81658152D01*
X109845524Y-81658152D02*
X109893143Y-81467676D01*
X109893143Y-81467676D02*
X109988381Y-81372438D01*
X109988381Y-81372438D02*
X110083619Y-81324819D01*
X110940762Y-81658152D02*
X110940762Y-82658152D01*
X110940762Y-81705771D02*
X111036000Y-81658152D01*
X111036000Y-81658152D02*
X111226476Y-81658152D01*
X111226476Y-81658152D02*
X111321714Y-81705771D01*
X111321714Y-81705771D02*
X111369333Y-81753390D01*
X111369333Y-81753390D02*
X111416952Y-81848628D01*
X111416952Y-81848628D02*
X111416952Y-82134342D01*
X111416952Y-82134342D02*
X111369333Y-82229580D01*
X111369333Y-82229580D02*
X111321714Y-82277200D01*
X111321714Y-82277200D02*
X111226476Y-82324819D01*
X111226476Y-82324819D02*
X111036000Y-82324819D01*
X111036000Y-82324819D02*
X110940762Y-82277200D01*
X112226476Y-82277200D02*
X112131238Y-82324819D01*
X112131238Y-82324819D02*
X111940762Y-82324819D01*
X111940762Y-82324819D02*
X111845524Y-82277200D01*
X111845524Y-82277200D02*
X111797905Y-82181961D01*
X111797905Y-82181961D02*
X111797905Y-81801009D01*
X111797905Y-81801009D02*
X111845524Y-81705771D01*
X111845524Y-81705771D02*
X111940762Y-81658152D01*
X111940762Y-81658152D02*
X112131238Y-81658152D01*
X112131238Y-81658152D02*
X112226476Y-81705771D01*
X112226476Y-81705771D02*
X112274095Y-81801009D01*
X112274095Y-81801009D02*
X112274095Y-81896247D01*
X112274095Y-81896247D02*
X111797905Y-81991485D01*
X112702667Y-81658152D02*
X112702667Y-82324819D01*
X112702667Y-81753390D02*
X112750286Y-81705771D01*
X112750286Y-81705771D02*
X112845524Y-81658152D01*
X112845524Y-81658152D02*
X112988381Y-81658152D01*
X112988381Y-81658152D02*
X113083619Y-81705771D01*
X113083619Y-81705771D02*
X113131238Y-81801009D01*
X113131238Y-81801009D02*
X113131238Y-82324819D01*
X114083619Y-82324819D02*
X113607429Y-82324819D01*
X113607429Y-82324819D02*
X113607429Y-81324819D01*
X114559810Y-82324819D02*
X114464572Y-82277200D01*
X114464572Y-82277200D02*
X114416953Y-82229580D01*
X114416953Y-82229580D02*
X114369334Y-82134342D01*
X114369334Y-82134342D02*
X114369334Y-81848628D01*
X114369334Y-81848628D02*
X114416953Y-81753390D01*
X114416953Y-81753390D02*
X114464572Y-81705771D01*
X114464572Y-81705771D02*
X114559810Y-81658152D01*
X114559810Y-81658152D02*
X114702667Y-81658152D01*
X114702667Y-81658152D02*
X114797905Y-81705771D01*
X114797905Y-81705771D02*
X114845524Y-81753390D01*
X114845524Y-81753390D02*
X114893143Y-81848628D01*
X114893143Y-81848628D02*
X114893143Y-82134342D01*
X114893143Y-82134342D02*
X114845524Y-82229580D01*
X114845524Y-82229580D02*
X114797905Y-82277200D01*
X114797905Y-82277200D02*
X114702667Y-82324819D01*
X114702667Y-82324819D02*
X114559810Y-82324819D01*
X115750286Y-81658152D02*
X115750286Y-82467676D01*
X115750286Y-82467676D02*
X115702667Y-82562914D01*
X115702667Y-82562914D02*
X115655048Y-82610533D01*
X115655048Y-82610533D02*
X115559810Y-82658152D01*
X115559810Y-82658152D02*
X115416953Y-82658152D01*
X115416953Y-82658152D02*
X115321715Y-82610533D01*
X115750286Y-82277200D02*
X115655048Y-82324819D01*
X115655048Y-82324819D02*
X115464572Y-82324819D01*
X115464572Y-82324819D02*
X115369334Y-82277200D01*
X115369334Y-82277200D02*
X115321715Y-82229580D01*
X115321715Y-82229580D02*
X115274096Y-82134342D01*
X115274096Y-82134342D02*
X115274096Y-81848628D01*
X115274096Y-81848628D02*
X115321715Y-81753390D01*
X115321715Y-81753390D02*
X115369334Y-81705771D01*
X115369334Y-81705771D02*
X115464572Y-81658152D01*
X115464572Y-81658152D02*
X115655048Y-81658152D01*
X115655048Y-81658152D02*
X115750286Y-81705771D01*
X83902666Y-68124819D02*
X83902666Y-68839104D01*
X83902666Y-68839104D02*
X83855047Y-68981961D01*
X83855047Y-68981961D02*
X83759809Y-69077200D01*
X83759809Y-69077200D02*
X83616952Y-69124819D01*
X83616952Y-69124819D02*
X83521714Y-69124819D01*
X84283619Y-68124819D02*
X84902666Y-68124819D01*
X84902666Y-68124819D02*
X84569333Y-68505771D01*
X84569333Y-68505771D02*
X84712190Y-68505771D01*
X84712190Y-68505771D02*
X84807428Y-68553390D01*
X84807428Y-68553390D02*
X84855047Y-68601009D01*
X84855047Y-68601009D02*
X84902666Y-68696247D01*
X84902666Y-68696247D02*
X84902666Y-68934342D01*
X84902666Y-68934342D02*
X84855047Y-69029580D01*
X84855047Y-69029580D02*
X84807428Y-69077200D01*
X84807428Y-69077200D02*
X84712190Y-69124819D01*
X84712190Y-69124819D02*
X84426476Y-69124819D01*
X84426476Y-69124819D02*
X84331238Y-69077200D01*
X84331238Y-69077200D02*
X84283619Y-69029580D01*
X101569333Y-51762819D02*
X101236000Y-51286628D01*
X100997905Y-51762819D02*
X100997905Y-50762819D01*
X100997905Y-50762819D02*
X101378857Y-50762819D01*
X101378857Y-50762819D02*
X101474095Y-50810438D01*
X101474095Y-50810438D02*
X101521714Y-50858057D01*
X101521714Y-50858057D02*
X101569333Y-50953295D01*
X101569333Y-50953295D02*
X101569333Y-51096152D01*
X101569333Y-51096152D02*
X101521714Y-51191390D01*
X101521714Y-51191390D02*
X101474095Y-51239009D01*
X101474095Y-51239009D02*
X101378857Y-51286628D01*
X101378857Y-51286628D02*
X100997905Y-51286628D01*
X102426476Y-51096152D02*
X102426476Y-51762819D01*
X102188381Y-50715200D02*
X101950286Y-51429485D01*
X101950286Y-51429485D02*
X102569333Y-51429485D01*
X105869333Y-51762819D02*
X105536000Y-51286628D01*
X105297905Y-51762819D02*
X105297905Y-50762819D01*
X105297905Y-50762819D02*
X105678857Y-50762819D01*
X105678857Y-50762819D02*
X105774095Y-50810438D01*
X105774095Y-50810438D02*
X105821714Y-50858057D01*
X105821714Y-50858057D02*
X105869333Y-50953295D01*
X105869333Y-50953295D02*
X105869333Y-51096152D01*
X105869333Y-51096152D02*
X105821714Y-51191390D01*
X105821714Y-51191390D02*
X105774095Y-51239009D01*
X105774095Y-51239009D02*
X105678857Y-51286628D01*
X105678857Y-51286628D02*
X105297905Y-51286628D01*
X106202667Y-50762819D02*
X106821714Y-50762819D01*
X106821714Y-50762819D02*
X106488381Y-51143771D01*
X106488381Y-51143771D02*
X106631238Y-51143771D01*
X106631238Y-51143771D02*
X106726476Y-51191390D01*
X106726476Y-51191390D02*
X106774095Y-51239009D01*
X106774095Y-51239009D02*
X106821714Y-51334247D01*
X106821714Y-51334247D02*
X106821714Y-51572342D01*
X106821714Y-51572342D02*
X106774095Y-51667580D01*
X106774095Y-51667580D02*
X106726476Y-51715200D01*
X106726476Y-51715200D02*
X106631238Y-51762819D01*
X106631238Y-51762819D02*
X106345524Y-51762819D01*
X106345524Y-51762819D02*
X106250286Y-51715200D01*
X106250286Y-51715200D02*
X106202667Y-51667580D01*
X93702666Y-67824819D02*
X93702666Y-68539104D01*
X93702666Y-68539104D02*
X93655047Y-68681961D01*
X93655047Y-68681961D02*
X93559809Y-68777200D01*
X93559809Y-68777200D02*
X93416952Y-68824819D01*
X93416952Y-68824819D02*
X93321714Y-68824819D01*
X94607428Y-68158152D02*
X94607428Y-68824819D01*
X94369333Y-67777200D02*
X94131238Y-68491485D01*
X94131238Y-68491485D02*
X94750285Y-68491485D01*
X109769333Y-51762819D02*
X109436000Y-51286628D01*
X109197905Y-51762819D02*
X109197905Y-50762819D01*
X109197905Y-50762819D02*
X109578857Y-50762819D01*
X109578857Y-50762819D02*
X109674095Y-50810438D01*
X109674095Y-50810438D02*
X109721714Y-50858057D01*
X109721714Y-50858057D02*
X109769333Y-50953295D01*
X109769333Y-50953295D02*
X109769333Y-51096152D01*
X109769333Y-51096152D02*
X109721714Y-51191390D01*
X109721714Y-51191390D02*
X109674095Y-51239009D01*
X109674095Y-51239009D02*
X109578857Y-51286628D01*
X109578857Y-51286628D02*
X109197905Y-51286628D01*
X110150286Y-50858057D02*
X110197905Y-50810438D01*
X110197905Y-50810438D02*
X110293143Y-50762819D01*
X110293143Y-50762819D02*
X110531238Y-50762819D01*
X110531238Y-50762819D02*
X110626476Y-50810438D01*
X110626476Y-50810438D02*
X110674095Y-50858057D01*
X110674095Y-50858057D02*
X110721714Y-50953295D01*
X110721714Y-50953295D02*
X110721714Y-51048533D01*
X110721714Y-51048533D02*
X110674095Y-51191390D01*
X110674095Y-51191390D02*
X110102667Y-51762819D01*
X110102667Y-51762819D02*
X110721714Y-51762819D01*
X71348674Y-77178400D02*
X71920548Y-77178400D01*
X71634611Y-78179180D02*
X71634611Y-77178400D01*
X72254141Y-78179180D02*
X72254141Y-77178400D01*
X72254141Y-77178400D02*
X72587735Y-77893243D01*
X72587735Y-77893243D02*
X72921328Y-77178400D01*
X72921328Y-77178400D02*
X72921328Y-78179180D01*
X73397890Y-78179180D02*
X73397890Y-77178400D01*
X73397890Y-77178400D02*
X73779140Y-77178400D01*
X73779140Y-77178400D02*
X73874452Y-77226056D01*
X73874452Y-77226056D02*
X73922109Y-77273712D01*
X73922109Y-77273712D02*
X73969765Y-77369024D01*
X73969765Y-77369024D02*
X73969765Y-77511993D01*
X73969765Y-77511993D02*
X73922109Y-77607305D01*
X73922109Y-77607305D02*
X73874452Y-77654962D01*
X73874452Y-77654962D02*
X73779140Y-77702618D01*
X73779140Y-77702618D02*
X73397890Y-77702618D01*
X74303358Y-77178400D02*
X74922889Y-77178400D01*
X74922889Y-77178400D02*
X74589295Y-77559649D01*
X74589295Y-77559649D02*
X74732264Y-77559649D01*
X74732264Y-77559649D02*
X74827576Y-77607305D01*
X74827576Y-77607305D02*
X74875232Y-77654962D01*
X74875232Y-77654962D02*
X74922889Y-77750274D01*
X74922889Y-77750274D02*
X74922889Y-77988555D01*
X74922889Y-77988555D02*
X74875232Y-78083867D01*
X74875232Y-78083867D02*
X74827576Y-78131524D01*
X74827576Y-78131524D02*
X74732264Y-78179180D01*
X74732264Y-78179180D02*
X74446327Y-78179180D01*
X74446327Y-78179180D02*
X74351014Y-78131524D01*
X74351014Y-78131524D02*
X74303358Y-78083867D01*
X75780700Y-77178400D02*
X75590075Y-77178400D01*
X75590075Y-77178400D02*
X75494763Y-77226056D01*
X75494763Y-77226056D02*
X75447107Y-77273712D01*
X75447107Y-77273712D02*
X75351794Y-77416681D01*
X75351794Y-77416681D02*
X75304138Y-77607305D01*
X75304138Y-77607305D02*
X75304138Y-77988555D01*
X75304138Y-77988555D02*
X75351794Y-78083867D01*
X75351794Y-78083867D02*
X75399451Y-78131524D01*
X75399451Y-78131524D02*
X75494763Y-78179180D01*
X75494763Y-78179180D02*
X75685388Y-78179180D01*
X75685388Y-78179180D02*
X75780700Y-78131524D01*
X75780700Y-78131524D02*
X75828356Y-78083867D01*
X75828356Y-78083867D02*
X75876013Y-77988555D01*
X75876013Y-77988555D02*
X75876013Y-77750274D01*
X75876013Y-77750274D02*
X75828356Y-77654962D01*
X75828356Y-77654962D02*
X75780700Y-77607305D01*
X75780700Y-77607305D02*
X75685388Y-77559649D01*
X75685388Y-77559649D02*
X75494763Y-77559649D01*
X75494763Y-77559649D02*
X75399451Y-77607305D01*
X75399451Y-77607305D02*
X75351794Y-77654962D01*
X75351794Y-77654962D02*
X75304138Y-77750274D01*
X95044819Y-87644190D02*
X95044819Y-88120380D01*
X95044819Y-88120380D02*
X94044819Y-88120380D01*
X95044819Y-87310856D02*
X94044819Y-87310856D01*
X94044819Y-87310856D02*
X94044819Y-87072761D01*
X94044819Y-87072761D02*
X94092438Y-86929904D01*
X94092438Y-86929904D02*
X94187676Y-86834666D01*
X94187676Y-86834666D02*
X94282914Y-86787047D01*
X94282914Y-86787047D02*
X94473390Y-86739428D01*
X94473390Y-86739428D02*
X94616247Y-86739428D01*
X94616247Y-86739428D02*
X94806723Y-86787047D01*
X94806723Y-86787047D02*
X94901961Y-86834666D01*
X94901961Y-86834666D02*
X94997200Y-86929904D01*
X94997200Y-86929904D02*
X95044819Y-87072761D01*
X95044819Y-87072761D02*
X95044819Y-87310856D01*
X95044819Y-85787047D02*
X95044819Y-86358475D01*
X95044819Y-86072761D02*
X94044819Y-86072761D01*
X94044819Y-86072761D02*
X94187676Y-86167999D01*
X94187676Y-86167999D02*
X94282914Y-86263237D01*
X94282914Y-86263237D02*
X94330533Y-86358475D01*
X95044819Y-84834666D02*
X95044819Y-85406094D01*
X95044819Y-85120380D02*
X94044819Y-85120380D01*
X94044819Y-85120380D02*
X94187676Y-85215618D01*
X94187676Y-85215618D02*
X94282914Y-85310856D01*
X94282914Y-85310856D02*
X94330533Y-85406094D01*
X95044819Y-83882285D02*
X95044819Y-84453713D01*
X95044819Y-84167999D02*
X94044819Y-84167999D01*
X94044819Y-84167999D02*
X94187676Y-84263237D01*
X94187676Y-84263237D02*
X94282914Y-84358475D01*
X94282914Y-84358475D02*
X94330533Y-84453713D01*
X94044819Y-83548951D02*
X94044819Y-82882285D01*
X94044819Y-82882285D02*
X95044819Y-83310856D01*
X94044819Y-82644189D02*
X95044819Y-82310856D01*
X95044819Y-82310856D02*
X94044819Y-81977523D01*
X94044819Y-81739427D02*
X94044819Y-81120380D01*
X94044819Y-81120380D02*
X94425771Y-81453713D01*
X94425771Y-81453713D02*
X94425771Y-81310856D01*
X94425771Y-81310856D02*
X94473390Y-81215618D01*
X94473390Y-81215618D02*
X94521009Y-81167999D01*
X94521009Y-81167999D02*
X94616247Y-81120380D01*
X94616247Y-81120380D02*
X94854342Y-81120380D01*
X94854342Y-81120380D02*
X94949580Y-81167999D01*
X94949580Y-81167999D02*
X94997200Y-81215618D01*
X94997200Y-81215618D02*
X95044819Y-81310856D01*
X95044819Y-81310856D02*
X95044819Y-81596570D01*
X95044819Y-81596570D02*
X94997200Y-81691808D01*
X94997200Y-81691808D02*
X94949580Y-81739427D01*
X94044819Y-80787046D02*
X94044819Y-80167999D01*
X94044819Y-80167999D02*
X94425771Y-80501332D01*
X94425771Y-80501332D02*
X94425771Y-80358475D01*
X94425771Y-80358475D02*
X94473390Y-80263237D01*
X94473390Y-80263237D02*
X94521009Y-80215618D01*
X94521009Y-80215618D02*
X94616247Y-80167999D01*
X94616247Y-80167999D02*
X94854342Y-80167999D01*
X94854342Y-80167999D02*
X94949580Y-80215618D01*
X94949580Y-80215618D02*
X94997200Y-80263237D01*
X94997200Y-80263237D02*
X95044819Y-80358475D01*
X95044819Y-80358475D02*
X95044819Y-80644189D01*
X95044819Y-80644189D02*
X94997200Y-80739427D01*
X94997200Y-80739427D02*
X94949580Y-80787046D01*
X111266952Y-63784819D02*
X110790762Y-63784819D01*
X110790762Y-63784819D02*
X110790762Y-62784819D01*
X111600286Y-63261009D02*
X111933619Y-63261009D01*
X112076476Y-63784819D02*
X111600286Y-63784819D01*
X111600286Y-63784819D02*
X111600286Y-62784819D01*
X111600286Y-62784819D02*
X112076476Y-62784819D01*
X112505048Y-63784819D02*
X112505048Y-62784819D01*
X112505048Y-62784819D02*
X112743143Y-62784819D01*
X112743143Y-62784819D02*
X112886000Y-62832438D01*
X112886000Y-62832438D02*
X112981238Y-62927676D01*
X112981238Y-62927676D02*
X113028857Y-63022914D01*
X113028857Y-63022914D02*
X113076476Y-63213390D01*
X113076476Y-63213390D02*
X113076476Y-63356247D01*
X113076476Y-63356247D02*
X113028857Y-63546723D01*
X113028857Y-63546723D02*
X112981238Y-63641961D01*
X112981238Y-63641961D02*
X112886000Y-63737200D01*
X112886000Y-63737200D02*
X112743143Y-63784819D01*
X112743143Y-63784819D02*
X112505048Y-63784819D01*
X114028857Y-63784819D02*
X113457429Y-63784819D01*
X113743143Y-63784819D02*
X113743143Y-62784819D01*
X113743143Y-62784819D02*
X113647905Y-62927676D01*
X113647905Y-62927676D02*
X113552667Y-63022914D01*
X113552667Y-63022914D02*
X113457429Y-63070533D01*
X82164570Y-69815009D02*
X82307427Y-69862628D01*
X82307427Y-69862628D02*
X82355046Y-69910247D01*
X82355046Y-69910247D02*
X82402665Y-70005485D01*
X82402665Y-70005485D02*
X82402665Y-70148342D01*
X82402665Y-70148342D02*
X82355046Y-70243580D01*
X82355046Y-70243580D02*
X82307427Y-70291200D01*
X82307427Y-70291200D02*
X82212189Y-70338819D01*
X82212189Y-70338819D02*
X81831237Y-70338819D01*
X81831237Y-70338819D02*
X81831237Y-69338819D01*
X81831237Y-69338819D02*
X82164570Y-69338819D01*
X82164570Y-69338819D02*
X82259808Y-69386438D01*
X82259808Y-69386438D02*
X82307427Y-69434057D01*
X82307427Y-69434057D02*
X82355046Y-69529295D01*
X82355046Y-69529295D02*
X82355046Y-69624533D01*
X82355046Y-69624533D02*
X82307427Y-69719771D01*
X82307427Y-69719771D02*
X82259808Y-69767390D01*
X82259808Y-69767390D02*
X82164570Y-69815009D01*
X82164570Y-69815009D02*
X81831237Y-69815009D01*
X83259808Y-70338819D02*
X83259808Y-69815009D01*
X83259808Y-69815009D02*
X83212189Y-69719771D01*
X83212189Y-69719771D02*
X83116951Y-69672152D01*
X83116951Y-69672152D02*
X82926475Y-69672152D01*
X82926475Y-69672152D02*
X82831237Y-69719771D01*
X83259808Y-70291200D02*
X83164570Y-70338819D01*
X83164570Y-70338819D02*
X82926475Y-70338819D01*
X82926475Y-70338819D02*
X82831237Y-70291200D01*
X82831237Y-70291200D02*
X82783618Y-70195961D01*
X82783618Y-70195961D02*
X82783618Y-70100723D01*
X82783618Y-70100723D02*
X82831237Y-70005485D01*
X82831237Y-70005485D02*
X82926475Y-69957866D01*
X82926475Y-69957866D02*
X83164570Y-69957866D01*
X83164570Y-69957866D02*
X83259808Y-69910247D01*
X83593142Y-69672152D02*
X83974094Y-69672152D01*
X83735999Y-69338819D02*
X83735999Y-70195961D01*
X83735999Y-70195961D02*
X83783618Y-70291200D01*
X83783618Y-70291200D02*
X83878856Y-70338819D01*
X83878856Y-70338819D02*
X83974094Y-70338819D01*
X84164571Y-69672152D02*
X84545523Y-69672152D01*
X84307428Y-69338819D02*
X84307428Y-70195961D01*
X84307428Y-70195961D02*
X84355047Y-70291200D01*
X84355047Y-70291200D02*
X84450285Y-70338819D01*
X84450285Y-70338819D02*
X84545523Y-70338819D01*
X85259809Y-70291200D02*
X85164571Y-70338819D01*
X85164571Y-70338819D02*
X84974095Y-70338819D01*
X84974095Y-70338819D02*
X84878857Y-70291200D01*
X84878857Y-70291200D02*
X84831238Y-70195961D01*
X84831238Y-70195961D02*
X84831238Y-69815009D01*
X84831238Y-69815009D02*
X84878857Y-69719771D01*
X84878857Y-69719771D02*
X84974095Y-69672152D01*
X84974095Y-69672152D02*
X85164571Y-69672152D01*
X85164571Y-69672152D02*
X85259809Y-69719771D01*
X85259809Y-69719771D02*
X85307428Y-69815009D01*
X85307428Y-69815009D02*
X85307428Y-69910247D01*
X85307428Y-69910247D02*
X84831238Y-70005485D01*
X85736000Y-70338819D02*
X85736000Y-69672152D01*
X85736000Y-69862628D02*
X85783619Y-69767390D01*
X85783619Y-69767390D02*
X85831238Y-69719771D01*
X85831238Y-69719771D02*
X85926476Y-69672152D01*
X85926476Y-69672152D02*
X86021714Y-69672152D01*
X86259810Y-69672152D02*
X86497905Y-70338819D01*
X86736000Y-69672152D02*
X86497905Y-70338819D01*
X86497905Y-70338819D02*
X86402667Y-70576914D01*
X86402667Y-70576914D02*
X86355048Y-70624533D01*
X86355048Y-70624533D02*
X86259810Y-70672152D01*
D11*
%TO.C,J1*%
X64056000Y-64720000D02*
X64056000Y-54450000D01*
X66816000Y-54450000D02*
X64056000Y-54450000D01*
X66816000Y-64720000D02*
X64056000Y-64720000D01*
X66816000Y-64720000D02*
X66816000Y-54450000D01*
X66816000Y-65990000D02*
X66816000Y-67370000D01*
X66816000Y-67370000D02*
X65436000Y-67370000D01*
%TO.C,D2*%
X106500000Y-61460000D02*
X106656000Y-61460000D01*
X108816000Y-61460000D02*
X108972000Y-61460000D01*
X106500484Y-61460000D02*
G75*
G02*
X106656000Y-58228563I1235516J1560000D01*
G01*
X106656000Y-60940961D02*
G75*
G02*
X106656000Y-58859039I1080000J1040961D01*
G01*
X108816000Y-58228563D02*
G75*
G02*
X108971516Y-61460000I-1080000J-1671437D01*
G01*
X108816000Y-58859039D02*
G75*
G02*
X108816000Y-60940961I-1080000J-1040961D01*
G01*
%TO.C,D3*%
X101900000Y-61430000D02*
X102056000Y-61430000D01*
X104216000Y-61430000D02*
X104372000Y-61430000D01*
X101900484Y-61430000D02*
G75*
G02*
X102056000Y-58198563I1235516J1560000D01*
G01*
X102056000Y-60910961D02*
G75*
G02*
X102056000Y-58829039I1080000J1040961D01*
G01*
X104216000Y-58198563D02*
G75*
G02*
X104371516Y-61430000I-1080000J-1671437D01*
G01*
X104216000Y-58829039D02*
G75*
G02*
X104216000Y-60910961I-1080000J-1040961D01*
G01*
%TO.C,C1*%
X83147000Y-83648000D02*
X83147000Y-82108000D01*
X83187000Y-83648000D02*
X83187000Y-82108000D01*
X83107000Y-83647000D02*
X83107000Y-82108000D01*
X83067000Y-83645000D02*
X83067000Y-82108000D01*
X83027000Y-83643000D02*
X83027000Y-82108000D01*
X82987000Y-83640000D02*
X82987000Y-82108000D01*
X82947000Y-83637000D02*
X82947000Y-82108000D01*
X82907000Y-83633000D02*
X82907000Y-82108000D01*
X82867000Y-83628000D02*
X82867000Y-82108000D01*
X82827000Y-83623000D02*
X82827000Y-82108000D01*
X82787000Y-83617000D02*
X82787000Y-82108000D01*
X82747000Y-83611000D02*
X82747000Y-82108000D01*
X82707000Y-83604000D02*
X82707000Y-82108000D01*
X82667000Y-83596000D02*
X82667000Y-82108000D01*
X82627000Y-83587000D02*
X82627000Y-82108000D01*
X82587000Y-83578000D02*
X82587000Y-82108000D01*
X82547000Y-83569000D02*
X82547000Y-82108000D01*
X82507000Y-83558000D02*
X82507000Y-82108000D01*
X82467000Y-83547000D02*
X82467000Y-82108000D01*
X82427000Y-83535000D02*
X82427000Y-82108000D01*
X82387000Y-83523000D02*
X82387000Y-82108000D01*
X82347000Y-83510000D02*
X82347000Y-82108000D01*
X82307000Y-83496000D02*
X82307000Y-82108000D01*
X82267000Y-83481000D02*
X82267000Y-82108000D01*
X82227000Y-83466000D02*
X82227000Y-82108000D01*
X82187000Y-83450000D02*
X82187000Y-82108000D01*
X82147000Y-83433000D02*
X82147000Y-82108000D01*
X82107000Y-83415000D02*
X82107000Y-82108000D01*
X82067000Y-83397000D02*
X82067000Y-82108000D01*
X82027000Y-83377000D02*
X82027000Y-82108000D01*
X81987000Y-83357000D02*
X81987000Y-82108000D01*
X81947000Y-83336000D02*
X81947000Y-82108000D01*
X81907000Y-83314000D02*
X81907000Y-82108000D01*
X81867000Y-83291000D02*
X81867000Y-82108000D01*
X81827000Y-83267000D02*
X81827000Y-82108000D01*
X81787000Y-83243000D02*
X81787000Y-82108000D01*
X81747000Y-83217000D02*
X81747000Y-82108000D01*
X81707000Y-83190000D02*
X81707000Y-82108000D01*
X81667000Y-83162000D02*
X81667000Y-82108000D01*
X81627000Y-83133000D02*
X81627000Y-82108000D01*
X81587000Y-83103000D02*
X81587000Y-82108000D01*
X81547000Y-83071000D02*
X81547000Y-82108000D01*
X81507000Y-83038000D02*
X81507000Y-82108000D01*
X81467000Y-83004000D02*
X81467000Y-82108000D01*
X81427000Y-82969000D02*
X81427000Y-82108000D01*
X81387000Y-82932000D02*
X81387000Y-82108000D01*
X81347000Y-82893000D02*
X81347000Y-82108000D01*
X81307000Y-82853000D02*
X81307000Y-82108000D01*
X81267000Y-82811000D02*
X81267000Y-82108000D01*
X85741775Y-82793000D02*
X85741775Y-82293000D01*
X81227000Y-82767000D02*
X81227000Y-82108000D01*
X81187000Y-82720000D02*
X81187000Y-82108000D01*
X81147000Y-82672000D02*
X81147000Y-79464000D01*
X81107000Y-82621000D02*
X81107000Y-79515000D01*
X81067000Y-82567000D02*
X81067000Y-79569000D01*
X85991775Y-82543000D02*
X85491775Y-82543000D01*
X81027000Y-82511000D02*
X81027000Y-79625000D01*
X80987000Y-82451000D02*
X80987000Y-79685000D01*
X80947000Y-82387000D02*
X80947000Y-79749000D01*
X80907000Y-82319000D02*
X80907000Y-79817000D01*
X80867000Y-82245000D02*
X80867000Y-79891000D01*
X80827000Y-82166000D02*
X80827000Y-79970000D01*
X80787000Y-82079000D02*
X80787000Y-80057000D01*
X80747000Y-81982000D02*
X80747000Y-80154000D01*
X80707000Y-81873000D02*
X80707000Y-80263000D01*
X80667000Y-81745000D02*
X80667000Y-80391000D01*
X80627000Y-81585000D02*
X80627000Y-80551000D01*
X80587000Y-81351000D02*
X80587000Y-80785000D01*
X81187000Y-80028000D02*
X81187000Y-79416000D01*
X81227000Y-80028000D02*
X81227000Y-79369000D01*
X81267000Y-80028000D02*
X81267000Y-79325000D01*
X81307000Y-80028000D02*
X81307000Y-79283000D01*
X81347000Y-80028000D02*
X81347000Y-79243000D01*
X81387000Y-80028000D02*
X81387000Y-79204000D01*
X81427000Y-80028000D02*
X81427000Y-79167000D01*
X81467000Y-80028000D02*
X81467000Y-79132000D01*
X81507000Y-80028000D02*
X81507000Y-79098000D01*
X81547000Y-80028000D02*
X81547000Y-79065000D01*
X81587000Y-80028000D02*
X81587000Y-79033000D01*
X81627000Y-80028000D02*
X81627000Y-79003000D01*
X81667000Y-80028000D02*
X81667000Y-78974000D01*
X81707000Y-80028000D02*
X81707000Y-78946000D01*
X81747000Y-80028000D02*
X81747000Y-78919000D01*
X81787000Y-80028000D02*
X81787000Y-78893000D01*
X81827000Y-80028000D02*
X81827000Y-78869000D01*
X81867000Y-80028000D02*
X81867000Y-78845000D01*
X81907000Y-80028000D02*
X81907000Y-78822000D01*
X81947000Y-80028000D02*
X81947000Y-78800000D01*
X81987000Y-80028000D02*
X81987000Y-78779000D01*
X82027000Y-80028000D02*
X82027000Y-78759000D01*
X82067000Y-80028000D02*
X82067000Y-78739000D01*
X82107000Y-80028000D02*
X82107000Y-78721000D01*
X82147000Y-80028000D02*
X82147000Y-78703000D01*
X82187000Y-80028000D02*
X82187000Y-78686000D01*
X82227000Y-80028000D02*
X82227000Y-78670000D01*
X82267000Y-80028000D02*
X82267000Y-78655000D01*
X82307000Y-80028000D02*
X82307000Y-78640000D01*
X82347000Y-80028000D02*
X82347000Y-78626000D01*
X82387000Y-80028000D02*
X82387000Y-78613000D01*
X82427000Y-80028000D02*
X82427000Y-78601000D01*
X82467000Y-80028000D02*
X82467000Y-78589000D01*
X82507000Y-80028000D02*
X82507000Y-78578000D01*
X82547000Y-80028000D02*
X82547000Y-78567000D01*
X82587000Y-80028000D02*
X82587000Y-78558000D01*
X82627000Y-80028000D02*
X82627000Y-78549000D01*
X82667000Y-80028000D02*
X82667000Y-78540000D01*
X82707000Y-80028000D02*
X82707000Y-78532000D01*
X82747000Y-80028000D02*
X82747000Y-78525000D01*
X82787000Y-80028000D02*
X82787000Y-78519000D01*
X82827000Y-80028000D02*
X82827000Y-78513000D01*
X82867000Y-80028000D02*
X82867000Y-78508000D01*
X82907000Y-80028000D02*
X82907000Y-78503000D01*
X82947000Y-80028000D02*
X82947000Y-78499000D01*
X82987000Y-80028000D02*
X82987000Y-78496000D01*
X83027000Y-80028000D02*
X83027000Y-78493000D01*
X83067000Y-80028000D02*
X83067000Y-78491000D01*
X83107000Y-80028000D02*
X83107000Y-78489000D01*
X83147000Y-80028000D02*
X83147000Y-78488000D01*
X83187000Y-80028000D02*
X83187000Y-78488000D01*
X85807000Y-81068000D02*
G75*
G02*
X80567000Y-81068000I-2620000J0D01*
G01*
X80567000Y-81068000D02*
G75*
G02*
X85807000Y-81068000I2620000J0D01*
G01*
%TO.C,SW1*%
X97680000Y-83197000D02*
X99060000Y-83197000D01*
X97680000Y-84577000D02*
X97680000Y-83197000D01*
X97680000Y-85847000D02*
X97680000Y-88497000D01*
X97680000Y-85847000D02*
X100440000Y-85847000D01*
X97680000Y-88497000D02*
X100440000Y-88497000D01*
X100440000Y-85847000D02*
X100440000Y-88497000D01*
%TO.C,D4*%
X97300000Y-61360000D02*
X97456000Y-61360000D01*
X99616000Y-61360000D02*
X99772000Y-61360000D01*
X97300484Y-61360000D02*
G75*
G02*
X97456000Y-58128563I1235516J1560000D01*
G01*
X97456000Y-60840961D02*
G75*
G02*
X97456000Y-58759039I1080000J1040961D01*
G01*
X99616000Y-58128563D02*
G75*
G02*
X99771516Y-61360000I-1080000J-1671437D01*
G01*
X99616000Y-58759039D02*
G75*
G02*
X99616000Y-60840961I-1080000J-1040961D01*
G01*
%TO.C,C3*%
X75161000Y-87980000D02*
X76691000Y-87980000D01*
X76691000Y-89820000D02*
X75161000Y-89820000D01*
%TO.C,C2*%
X83391887Y-89448000D02*
X83391887Y-87908000D01*
X83431887Y-89448000D02*
X83431887Y-87908000D01*
X83351887Y-89447000D02*
X83351887Y-87908000D01*
X83311887Y-89445000D02*
X83311887Y-87908000D01*
X83271887Y-89443000D02*
X83271887Y-87908000D01*
X83231887Y-89440000D02*
X83231887Y-87908000D01*
X83191887Y-89437000D02*
X83191887Y-87908000D01*
X83151887Y-89433000D02*
X83151887Y-87908000D01*
X83111887Y-89428000D02*
X83111887Y-87908000D01*
X83071887Y-89423000D02*
X83071887Y-87908000D01*
X83031887Y-89417000D02*
X83031887Y-87908000D01*
X82991887Y-89411000D02*
X82991887Y-87908000D01*
X82951887Y-89404000D02*
X82951887Y-87908000D01*
X82911887Y-89396000D02*
X82911887Y-87908000D01*
X82871887Y-89387000D02*
X82871887Y-87908000D01*
X82831887Y-89378000D02*
X82831887Y-87908000D01*
X82791887Y-89369000D02*
X82791887Y-87908000D01*
X82751887Y-89358000D02*
X82751887Y-87908000D01*
X82711887Y-89347000D02*
X82711887Y-87908000D01*
X82671887Y-89335000D02*
X82671887Y-87908000D01*
X82631887Y-89323000D02*
X82631887Y-87908000D01*
X82591887Y-89310000D02*
X82591887Y-87908000D01*
X82551887Y-89296000D02*
X82551887Y-87908000D01*
X82511887Y-89281000D02*
X82511887Y-87908000D01*
X82471887Y-89266000D02*
X82471887Y-87908000D01*
X82431887Y-89250000D02*
X82431887Y-87908000D01*
X82391887Y-89233000D02*
X82391887Y-87908000D01*
X82351887Y-89215000D02*
X82351887Y-87908000D01*
X82311887Y-89197000D02*
X82311887Y-87908000D01*
X82271887Y-89177000D02*
X82271887Y-87908000D01*
X82231887Y-89157000D02*
X82231887Y-87908000D01*
X82191887Y-89136000D02*
X82191887Y-87908000D01*
X82151887Y-89114000D02*
X82151887Y-87908000D01*
X82111887Y-89091000D02*
X82111887Y-87908000D01*
X82071887Y-89067000D02*
X82071887Y-87908000D01*
X82031887Y-89043000D02*
X82031887Y-87908000D01*
X81991887Y-89017000D02*
X81991887Y-87908000D01*
X81951887Y-88990000D02*
X81951887Y-87908000D01*
X81911887Y-88962000D02*
X81911887Y-87908000D01*
X81871887Y-88933000D02*
X81871887Y-87908000D01*
X81831887Y-88903000D02*
X81831887Y-87908000D01*
X81791887Y-88871000D02*
X81791887Y-87908000D01*
X81751887Y-88838000D02*
X81751887Y-87908000D01*
X81711887Y-88804000D02*
X81711887Y-87908000D01*
X81671887Y-88769000D02*
X81671887Y-87908000D01*
X81631887Y-88732000D02*
X81631887Y-87908000D01*
X81591887Y-88693000D02*
X81591887Y-87908000D01*
X81551887Y-88653000D02*
X81551887Y-87908000D01*
X81511887Y-88611000D02*
X81511887Y-87908000D01*
X85986662Y-88593000D02*
X85986662Y-88093000D01*
X81471887Y-88567000D02*
X81471887Y-87908000D01*
X81431887Y-88520000D02*
X81431887Y-87908000D01*
X81391887Y-88472000D02*
X81391887Y-85264000D01*
X81351887Y-88421000D02*
X81351887Y-85315000D01*
X81311887Y-88367000D02*
X81311887Y-85369000D01*
X86236662Y-88343000D02*
X85736662Y-88343000D01*
X81271887Y-88311000D02*
X81271887Y-85425000D01*
X81231887Y-88251000D02*
X81231887Y-85485000D01*
X81191887Y-88187000D02*
X81191887Y-85549000D01*
X81151887Y-88119000D02*
X81151887Y-85617000D01*
X81111887Y-88045000D02*
X81111887Y-85691000D01*
X81071887Y-87966000D02*
X81071887Y-85770000D01*
X81031887Y-87879000D02*
X81031887Y-85857000D01*
X80991887Y-87782000D02*
X80991887Y-85954000D01*
X80951887Y-87673000D02*
X80951887Y-86063000D01*
X80911887Y-87545000D02*
X80911887Y-86191000D01*
X80871887Y-87385000D02*
X80871887Y-86351000D01*
X80831887Y-87151000D02*
X80831887Y-86585000D01*
X81431887Y-85828000D02*
X81431887Y-85216000D01*
X81471887Y-85828000D02*
X81471887Y-85169000D01*
X81511887Y-85828000D02*
X81511887Y-85125000D01*
X81551887Y-85828000D02*
X81551887Y-85083000D01*
X81591887Y-85828000D02*
X81591887Y-85043000D01*
X81631887Y-85828000D02*
X81631887Y-85004000D01*
X81671887Y-85828000D02*
X81671887Y-84967000D01*
X81711887Y-85828000D02*
X81711887Y-84932000D01*
X81751887Y-85828000D02*
X81751887Y-84898000D01*
X81791887Y-85828000D02*
X81791887Y-84865000D01*
X81831887Y-85828000D02*
X81831887Y-84833000D01*
X81871887Y-85828000D02*
X81871887Y-84803000D01*
X81911887Y-85828000D02*
X81911887Y-84774000D01*
X81951887Y-85828000D02*
X81951887Y-84746000D01*
X81991887Y-85828000D02*
X81991887Y-84719000D01*
X82031887Y-85828000D02*
X82031887Y-84693000D01*
X82071887Y-85828000D02*
X82071887Y-84669000D01*
X82111887Y-85828000D02*
X82111887Y-84645000D01*
X82151887Y-85828000D02*
X82151887Y-84622000D01*
X82191887Y-85828000D02*
X82191887Y-84600000D01*
X82231887Y-85828000D02*
X82231887Y-84579000D01*
X82271887Y-85828000D02*
X82271887Y-84559000D01*
X82311887Y-85828000D02*
X82311887Y-84539000D01*
X82351887Y-85828000D02*
X82351887Y-84521000D01*
X82391887Y-85828000D02*
X82391887Y-84503000D01*
X82431887Y-85828000D02*
X82431887Y-84486000D01*
X82471887Y-85828000D02*
X82471887Y-84470000D01*
X82511887Y-85828000D02*
X82511887Y-84455000D01*
X82551887Y-85828000D02*
X82551887Y-84440000D01*
X82591887Y-85828000D02*
X82591887Y-84426000D01*
X82631887Y-85828000D02*
X82631887Y-84413000D01*
X82671887Y-85828000D02*
X82671887Y-84401000D01*
X82711887Y-85828000D02*
X82711887Y-84389000D01*
X82751887Y-85828000D02*
X82751887Y-84378000D01*
X82791887Y-85828000D02*
X82791887Y-84367000D01*
X82831887Y-85828000D02*
X82831887Y-84358000D01*
X82871887Y-85828000D02*
X82871887Y-84349000D01*
X82911887Y-85828000D02*
X82911887Y-84340000D01*
X82951887Y-85828000D02*
X82951887Y-84332000D01*
X82991887Y-85828000D02*
X82991887Y-84325000D01*
X83031887Y-85828000D02*
X83031887Y-84319000D01*
X83071887Y-85828000D02*
X83071887Y-84313000D01*
X83111887Y-85828000D02*
X83111887Y-84308000D01*
X83151887Y-85828000D02*
X83151887Y-84303000D01*
X83191887Y-85828000D02*
X83191887Y-84299000D01*
X83231887Y-85828000D02*
X83231887Y-84296000D01*
X83271887Y-85828000D02*
X83271887Y-84293000D01*
X83311887Y-85828000D02*
X83311887Y-84291000D01*
X83351887Y-85828000D02*
X83351887Y-84289000D01*
X83391887Y-85828000D02*
X83391887Y-84288000D01*
X83431887Y-85828000D02*
X83431887Y-84288000D01*
X86051887Y-86868000D02*
G75*
G02*
X80811887Y-86868000I-2620000J0D01*
G01*
X80811887Y-86868000D02*
G75*
G02*
X86051887Y-86868000I2620000J0D01*
G01*
%TO.C,R1*%
X112866000Y-48510000D02*
X113196000Y-48510000D01*
X112866000Y-55050000D02*
X112866000Y-48510000D01*
X113196000Y-55050000D02*
X112866000Y-55050000D01*
X115276000Y-55050000D02*
X115606000Y-55050000D01*
X115606000Y-48510000D02*
X115276000Y-48510000D01*
X115606000Y-55050000D02*
X115606000Y-48510000D01*
D12*
%TO.C,U1*%
X101466000Y-65460000D02*
X120516000Y-65460000D01*
X101466000Y-80700000D02*
X101466000Y-65460000D01*
X120516000Y-65460000D02*
X120516000Y-80700000D01*
X120516000Y-80700000D02*
X101466000Y-80700000D01*
D13*
X102836000Y-81450000D02*
G75*
G02*
X102636000Y-81450000I-100000J0D01*
G01*
X102636000Y-81450000D02*
G75*
G02*
X102836000Y-81450000I100000J0D01*
G01*
D11*
%TO.C,J3*%
X82856000Y-51990000D02*
X84236000Y-51990000D01*
X82856000Y-53370000D02*
X82856000Y-51990000D01*
X82856000Y-54640000D02*
X82856000Y-67450000D01*
X82856000Y-54640000D02*
X85616000Y-54640000D01*
X82856000Y-67450000D02*
X85616000Y-67450000D01*
X85616000Y-54640000D02*
X85616000Y-67450000D01*
%TO.C,R4*%
X100366000Y-48810000D02*
X100696000Y-48810000D01*
X100366000Y-55350000D02*
X100366000Y-48810000D01*
X100696000Y-55350000D02*
X100366000Y-55350000D01*
X102776000Y-55350000D02*
X103106000Y-55350000D01*
X103106000Y-48810000D02*
X102776000Y-48810000D01*
X103106000Y-55350000D02*
X103106000Y-48810000D01*
%TO.C,R3*%
X104566000Y-48510000D02*
X104896000Y-48510000D01*
X104566000Y-55050000D02*
X104566000Y-48510000D01*
X104896000Y-55050000D02*
X104566000Y-55050000D01*
X106976000Y-55050000D02*
X107306000Y-55050000D01*
X107306000Y-48510000D02*
X106976000Y-48510000D01*
X107306000Y-55050000D02*
X107306000Y-48510000D01*
%TO.C,J4*%
X92756000Y-51910000D02*
X94136000Y-51910000D01*
X92756000Y-53290000D02*
X92756000Y-51910000D01*
X92756000Y-54560000D02*
X92756000Y-67370000D01*
X92756000Y-54560000D02*
X95516000Y-54560000D01*
X92756000Y-67370000D02*
X95516000Y-67370000D01*
X95516000Y-54560000D02*
X95516000Y-67370000D01*
%TO.C,R2*%
X108666000Y-48500000D02*
X108996000Y-48500000D01*
X108666000Y-55040000D02*
X108666000Y-48500000D01*
X108996000Y-55040000D02*
X108666000Y-55040000D01*
X111076000Y-55040000D02*
X111406000Y-55040000D01*
X111406000Y-48500000D02*
X111076000Y-48500000D01*
X111406000Y-55040000D02*
X111406000Y-48500000D01*
D12*
%TO.C,U6*%
X73614000Y-83880000D02*
X75214000Y-83380000D01*
X75214000Y-79180000D02*
X73614000Y-78680000D01*
X75214000Y-83380000D02*
X75214000Y-79180000D01*
X73552000Y-83880000D02*
G75*
G02*
X73552000Y-78680000I-45383J2600000D01*
G01*
D13*
X74314000Y-84480000D02*
G75*
G02*
X73914000Y-84480000I-200000J0D01*
G01*
X73914000Y-84480000D02*
G75*
G02*
X74314000Y-84480000I200000J0D01*
G01*
D11*
%TO.C,U4*%
X89130000Y-89438000D02*
X89130000Y-79218000D01*
X90510000Y-89438000D02*
X90510000Y-79218000D01*
X93750000Y-89438000D02*
X89130000Y-89438000D01*
X89130000Y-86178000D02*
X90510000Y-86178000D01*
X89130000Y-82478000D02*
X90510000Y-82478000D01*
X89130000Y-79218000D02*
X93750000Y-79218000D01*
X93750000Y-79218000D02*
X93750000Y-89438000D01*
%TO.C,D1*%
X111100000Y-61460000D02*
X111256000Y-61460000D01*
X113416000Y-61460000D02*
X113572000Y-61460000D01*
X111100484Y-61460000D02*
G75*
G02*
X111256000Y-58228563I1235516J1560000D01*
G01*
X111256000Y-60940961D02*
G75*
G02*
X111256000Y-58859039I1080000J1040961D01*
G01*
X113416000Y-58228563D02*
G75*
G02*
X113571516Y-61460000I-1080000J-1671437D01*
G01*
X113416000Y-58859039D02*
G75*
G02*
X113416000Y-60940961I-1080000J-1040961D01*
G01*
%TO.C,BT1*%
X83456000Y-73914000D02*
X83456000Y-71264000D01*
X86216000Y-71264000D02*
X83456000Y-71264000D01*
X86216000Y-73914000D02*
X83456000Y-73914000D01*
X86216000Y-73914000D02*
X86216000Y-71264000D01*
X86216000Y-75184000D02*
X86216000Y-76564000D01*
X86216000Y-76564000D02*
X84836000Y-76564000D01*
%TD*%
M02*
