M48
; DRILL file {KiCad 9.0.7} date 2026-02-15T19:23:25-0700
; FORMAT={-:-/ absolute / metric / decimal}
; #@! TF.CreationDate,2026-02-15T19:23:25-07:00
; #@! TF.GenerationSoftware,Kicad,Pcbnew,9.0.7
; #@! TF.FileFunction,Plated,1,2,PTH
FMAT,2
METRIC
; #@! TA.AperFunction,Plated,PTH,ViaDrill
T1C0.400
; #@! TA.AperFunction,Plated,PTH,ComponentDrill
T2C0.400
; #@! TA.AperFunction,Plated,PTH,ComponentDrill
T3C0.800
; #@! TA.AperFunction,Plated,PTH,ComponentDrill
T4C1.000
; #@! TA.AperFunction,Plated,PTH,ComponentDrill
T5C1.100
%
G90
G05
T1
X142.672Y-69.012
X144.704Y-70.536
X155.88Y-53.772
T3
X111.88Y-62.68
X111.88Y-65.22
X111.92Y-55.95
X111.92Y-58.49
X115.24Y-72.568
X115.87Y-62.68
X115.87Y-65.22
X115.88Y-55.97
X115.88Y-58.51
X116.256Y-86.792
X117.78Y-72.568
X117.78Y-78.156
X117.78Y-95.428
X118.796Y-84.252
X118.796Y-89.332
X119.82Y-62.64
X119.82Y-65.18
X119.84Y-55.97
X119.84Y-58.51
X120.32Y-78.156
X120.32Y-95.428
X123.368Y-71.698
X123.368Y-74.238
X123.86Y-55.95
X123.86Y-58.49
X123.86Y-62.65
X123.86Y-65.19
X126.924Y-79.68
X126.924Y-82.18
X127.92Y-55.92
X127.92Y-58.46
X127.94Y-62.66
X127.94Y-65.2
X127.94Y-71.552
X127.94Y-74.092
X131.97Y-55.92
X131.97Y-58.46
X131.97Y-62.61
X131.97Y-65.15
X133.09Y-74.01
X133.09Y-76.55
X133.09Y-79.09
X133.09Y-81.63
X134.544Y-87.3
X134.544Y-92.38
X136.06Y-55.95
X136.06Y-58.49
X136.14Y-62.65
X136.14Y-65.19
X137.084Y-89.84
X140.14Y-62.66
X140.14Y-65.2
X140.16Y-55.99
X140.16Y-58.53
X140.71Y-74.01
X140.71Y-76.55
X140.71Y-79.09
X140.71Y-81.63
X144.1Y-55.98
X144.1Y-58.52
X144.16Y-62.69
X144.16Y-65.23
X145.046Y-78.156
X145.6Y-87.3
X145.6Y-92.38
X147.546Y-78.156
X148.11Y-55.99
X148.11Y-58.53
X148.13Y-61.91
X148.13Y-64.45
X148.14Y-89.84
X152.832Y-55.804
X152.832Y-58.344
X153.05Y-62.65
X153.05Y-65.19
T4
X87.519Y-66.142
X90.059Y-66.142
X92.599Y-66.142
X95.139Y-66.142
X95.69Y-72.08
X97.679Y-66.142
X98.23Y-72.08
X100.219Y-66.142
X100.77Y-72.08
X102.759Y-66.142
X103.31Y-72.08
X105.299Y-66.142
X118.796Y-49.2
X121.336Y-49.2
X123.876Y-49.2
X126.416Y-49.2
X126.924Y-86.792
X126.924Y-89.332
X126.924Y-91.872
X127.94Y-97.46
X128.956Y-49.2
X130.48Y-97.46
X131.496Y-49.2
X133.02Y-97.46
X134.036Y-49.2
X135.56Y-97.46
X136.576Y-49.2
X138.1Y-97.46
X139.116Y-49.2
X140.64Y-97.46
X141.656Y-49.2
X143.18Y-97.46
X145.72Y-49.2
X145.72Y-97.46
X147.244Y-71.76
X148.26Y-49.2
X149.784Y-71.76
X150.8Y-49.2
X150.8Y-97.46
X152.324Y-71.76
X153.34Y-49.2
X153.34Y-97.46
X154.356Y-84.76
X154.356Y-87.3
X154.356Y-89.84
X155.88Y-49.2
X155.88Y-97.46
X158.42Y-49.2
X158.42Y-97.46
X160.96Y-49.2
X160.96Y-97.46
X163.5Y-49.2
X163.5Y-97.46
T5
X159.032Y-53.21
X159.032Y-57.71
X159.234Y-61.39
X159.234Y-65.89
X165.532Y-53.21
X165.532Y-57.71
X165.734Y-61.39
X165.734Y-65.89
T2
G00X160.016Y-69.52
M15
G01X159.016Y-69.52
M16
G05
G00X159.016Y-79.52
M15
G01X160.016Y-79.52
M16
G05
G00X160.016Y-82.728
M15
G01X159.016Y-82.728
M16
G05
G00X159.016Y-92.728
M15
G01X160.016Y-92.728
M16
G05
G00X164.516Y-75.02
M15
G01X164.516Y-74.02
M16
G05
G00X164.516Y-88.228
M15
G01X164.516Y-87.228
M16
G05
T3
G00X159.866Y-72.02
M15
G01X159.166Y-72.02
M16
G05
G00X159.166Y-77.02
M15
G01X159.866Y-77.02
M16
G05
G00X159.866Y-85.228
M15
G01X159.166Y-85.228
M16
G05
G00X159.166Y-90.228
M15
G01X159.866Y-90.228
M16
G05
M30
