%TF.GenerationSoftware,KiCad,Pcbnew,9.0.7*%
%TF.CreationDate,2026-02-04T13:13:08-07:00*%
%TF.ProjectId,Uno_Shield_DSP_Class_v1,556e6f5f-5368-4696-956c-645f4453505f,rev?*%
%TF.SameCoordinates,Original*%
%TF.FileFunction,Soldermask,Bot*%
%TF.FilePolarity,Negative*%
%FSLAX46Y46*%
G04 Gerber Fmt 4.6, Leading zero omitted, Abs format (unit mm)*
G04 Created by KiCad (PCBNEW 9.0.7) date 2026-02-04 13:13:08*
%MOMM*%
%LPD*%
G01*
G04 APERTURE LIST*
G04 Aperture macros list*
%AMRoundRect*
0 Rectangle with rounded corners*
0 $1 Rounding radius*
0 $2 $3 $4 $5 $6 $7 $8 $9 X,Y pos of 4 corners*
0 Add a 4 corners polygon primitive as box body*
4,1,4,$2,$3,$4,$5,$6,$7,$8,$9,$2,$3,0*
0 Add four circle primitives for the rounded corners*
1,1,$1+$1,$2,$3*
1,1,$1+$1,$4,$5*
1,1,$1+$1,$6,$7*
1,1,$1+$1,$8,$9*
0 Add four rect primitives between the rounded corners*
20,1,$1+$1,$2,$3,$4,$5,0*
20,1,$1+$1,$4,$5,$6,$7,0*
20,1,$1+$1,$6,$7,$8,$9,0*
20,1,$1+$1,$8,$9,$2,$3,0*%
G04 Aperture macros list end*
%ADD10R,1.700000X1.700000*%
%ADD11O,1.700000X1.700000*%
%ADD12C,1.600000*%
%ADD13C,2.000000*%
%ADD14C,1.700000*%
%ADD15C,1.200000*%
%ADD16O,1.200000X2.200000*%
%ADD17O,1.600000X2.300000*%
%ADD18O,2.200000X1.200000*%
%ADD19O,1.600000X2.500000*%
%ADD20RoundRect,0.250000X-0.550000X-0.550000X0.550000X-0.550000X0.550000X0.550000X-0.550000X0.550000X0*%
%ADD21C,3.200000*%
%ADD22C,1.440000*%
%ADD23RoundRect,0.250000X-0.950000X-0.550000X0.950000X-0.550000X0.950000X0.550000X-0.950000X0.550000X0*%
%ADD24O,2.400000X1.600000*%
G04 APERTURE END LIST*
D10*
%TO.C,J1*%
X127940000Y-97460000D03*
D11*
X130480000Y-97460000D03*
X133020000Y-97460000D03*
X135560000Y-97460000D03*
X138100000Y-97460000D03*
X140640000Y-97460000D03*
X143180000Y-97460000D03*
X145720000Y-97460000D03*
%TD*%
D10*
%TO.C,J3*%
X150800000Y-97460000D03*
D11*
X153340000Y-97460000D03*
X155880000Y-97460000D03*
X158420000Y-97460000D03*
X160960000Y-97460000D03*
X163500000Y-97460000D03*
%TD*%
D10*
%TO.C,J2*%
X118796000Y-49200000D03*
D11*
X121336000Y-49200000D03*
X123876000Y-49200000D03*
X126416000Y-49200000D03*
X128956000Y-49200000D03*
X131496000Y-49200000D03*
X134036000Y-49200000D03*
X136576000Y-49200000D03*
X139116000Y-49200000D03*
X141656000Y-49200000D03*
%TD*%
D10*
%TO.C,J4*%
X145720000Y-49200000D03*
D11*
X148260000Y-49200000D03*
X150800000Y-49200000D03*
X153340000Y-49200000D03*
X155880000Y-49200000D03*
X158420000Y-49200000D03*
X160960000Y-49200000D03*
X163500000Y-49200000D03*
%TD*%
D12*
%TO.C,R9*%
X130920000Y-63200000D03*
X133460000Y-63200000D03*
%TD*%
%TO.C,R13*%
X137410000Y-58450000D03*
X139950000Y-58450000D03*
%TD*%
%TO.C,R14*%
X137410000Y-63200000D03*
X139950000Y-63200000D03*
%TD*%
%TO.C,R18*%
X143900000Y-58450000D03*
X146440000Y-58450000D03*
%TD*%
%TO.C,R4*%
X124430000Y-63200000D03*
X126970000Y-63200000D03*
%TD*%
%TO.C,R15*%
X137410000Y-67950000D03*
X139950000Y-67950000D03*
%TD*%
%TO.C,R19*%
X143900000Y-63200000D03*
X146440000Y-63200000D03*
%TD*%
%TO.C,C2*%
X156530000Y-67650000D03*
X159030000Y-67650000D03*
%TD*%
%TO.C,R7*%
X124430000Y-77450000D03*
X126970000Y-77450000D03*
%TD*%
%TO.C,R21*%
X143900000Y-72700000D03*
X146440000Y-72700000D03*
%TD*%
D13*
%TO.C,SW2*%
X102280000Y-80560000D03*
X108780000Y-80560000D03*
X102280000Y-85060000D03*
X108780000Y-85060000D03*
%TD*%
D12*
%TO.C,R20*%
X143900000Y-67950000D03*
X146440000Y-67950000D03*
%TD*%
%TO.C,R6*%
X124430000Y-72700000D03*
X126970000Y-72700000D03*
%TD*%
D10*
%TO.C,J7*%
X128940000Y-82120000D03*
D14*
X128940000Y-84660000D03*
X128940000Y-87200000D03*
%TD*%
D12*
%TO.C,R10*%
X130920000Y-67950000D03*
X133460000Y-67950000D03*
%TD*%
D10*
%TO.C,J5*%
X127080000Y-53720000D03*
D14*
X129620000Y-53720000D03*
X132160000Y-53720000D03*
X134700000Y-53720000D03*
X137240000Y-53720000D03*
X139780000Y-53720000D03*
X142320000Y-53720000D03*
X144860000Y-53720000D03*
%TD*%
D12*
%TO.C,R26*%
X150390000Y-72700000D03*
X152930000Y-72700000D03*
%TD*%
D15*
%TO.C,J11*%
X186550000Y-73220000D03*
X186550000Y-75720000D03*
X191550000Y-68220000D03*
X196550000Y-73220000D03*
X196550000Y-75720000D03*
D16*
X186550000Y-68220000D03*
D17*
X189050000Y-68220000D03*
D18*
X191550000Y-73220000D03*
D16*
X196550000Y-68220000D03*
D19*
X194050000Y-68220000D03*
%TD*%
D12*
%TO.C,R5*%
X124430000Y-67950000D03*
X126970000Y-67950000D03*
%TD*%
D20*
%TO.C,C1*%
X158224698Y-60850000D03*
D12*
X160724698Y-60850000D03*
%TD*%
D21*
%TO.C,MH1*%
X115240000Y-49200000D03*
%TD*%
D12*
%TO.C,R24*%
X150390000Y-63200000D03*
X152930000Y-63200000D03*
%TD*%
%TO.C,R12*%
X130920000Y-77450000D03*
X133460000Y-77450000D03*
%TD*%
D13*
%TO.C,SW1*%
X102280000Y-71210000D03*
X108780000Y-71210000D03*
X102280000Y-75710000D03*
X108780000Y-75710000D03*
%TD*%
D12*
%TO.C,R11*%
X130920000Y-72700000D03*
X133460000Y-72700000D03*
%TD*%
%TO.C,R22*%
X143900000Y-77450000D03*
X146440000Y-77450000D03*
%TD*%
D10*
%TO.C,J12*%
X133260000Y-86170000D03*
D14*
X133260000Y-88710000D03*
X133260000Y-91250000D03*
%TD*%
D12*
%TO.C,R1*%
X115440000Y-82870000D03*
X117980000Y-82870000D03*
%TD*%
%TO.C,R27*%
X150390000Y-77450000D03*
X152930000Y-77450000D03*
%TD*%
%TO.C,R17*%
X137410000Y-77450000D03*
X139950000Y-77450000D03*
%TD*%
%TO.C,R25*%
X150390000Y-67950000D03*
X152930000Y-67950000D03*
%TD*%
%TO.C,R16*%
X137410000Y-72700000D03*
X139950000Y-72700000D03*
%TD*%
D22*
%TO.C,RV1*%
X108320000Y-60190000D03*
X110860000Y-57650000D03*
X108320000Y-55110000D03*
%TD*%
D12*
%TO.C,R2*%
X115440000Y-87620000D03*
X117980000Y-87620000D03*
%TD*%
D23*
%TO.C,U1*%
X137870000Y-81930000D03*
D24*
X137870000Y-84470000D03*
X137870000Y-87010000D03*
X137870000Y-89550000D03*
X145490000Y-89550000D03*
X145490000Y-87010000D03*
X145490000Y-84470000D03*
X145490000Y-81930000D03*
%TD*%
D10*
%TO.C,J9*%
X160910000Y-82120000D03*
D14*
X160910000Y-84660000D03*
X160910000Y-87200000D03*
%TD*%
D12*
%TO.C,R3*%
X124430000Y-58450000D03*
X126970000Y-58450000D03*
%TD*%
D15*
%TO.C,J10*%
X172430000Y-73220000D03*
X172430000Y-75720000D03*
X177430000Y-68220000D03*
X182430000Y-73220000D03*
X182430000Y-75720000D03*
D16*
X172430000Y-68220000D03*
D17*
X174930000Y-68220000D03*
D18*
X177430000Y-73220000D03*
D16*
X182430000Y-68220000D03*
D19*
X179930000Y-68220000D03*
%TD*%
D22*
%TO.C,RV3*%
X153090000Y-87910000D03*
X155630000Y-85370000D03*
X153090000Y-82830000D03*
%TD*%
%TO.C,RV2*%
X116335000Y-74040000D03*
X118875000Y-71500000D03*
X116335000Y-68960000D03*
%TD*%
D21*
%TO.C,MH2*%
X113970000Y-97460000D03*
%TD*%
%TO.C,MH3*%
X166040000Y-64440000D03*
%TD*%
%TO.C,MH4*%
X166040000Y-92380000D03*
%TD*%
D12*
%TO.C,R8*%
X130960000Y-58450000D03*
X133500000Y-58450000D03*
%TD*%
D10*
%TO.C,J6*%
X124350000Y-82120000D03*
D14*
X124350000Y-84660000D03*
X124350000Y-87200000D03*
X124350000Y-89740000D03*
%TD*%
D12*
%TO.C,R23*%
X150390000Y-58450000D03*
X152930000Y-58450000D03*
%TD*%
M02*
