%TF.GenerationSoftware,KiCad,Pcbnew,9.0.7*%
%TF.CreationDate,2026-02-04T13:13:08-07:00*%
%TF.ProjectId,Uno_Shield_DSP_Class_v1,556e6f5f-5368-4696-956c-645f4453505f,rev?*%
%TF.SameCoordinates,Original*%
%TF.FileFunction,Profile,NP*%
%FSLAX46Y46*%
G04 Gerber Fmt 4.6, Leading zero omitted, Abs format (unit mm)*
G04 Created by KiCad (PCBNEW 9.0.7) date 2026-02-04 13:13:08*
%MOMM*%
%LPD*%
G01*
G04 APERTURE LIST*
%TA.AperFunction,Profile*%
%ADD10C,0.150000*%
%TD*%
%TA.AperFunction,Profile*%
%ADD11C,0.120000*%
%TD*%
G04 APERTURE END LIST*
D10*
X166040000Y-59360000D02*
X168580000Y-61900000D01*
X100000000Y-99238000D02*
X100000000Y-47422000D01*
X168580000Y-61900000D02*
X168580000Y-96190000D01*
X165278000Y-100000000D02*
X100762000Y-100000000D01*
X100762000Y-46660000D02*
X163500000Y-46660000D01*
X100762000Y-100000000D02*
G75*
G02*
X100000000Y-99238000I0J762000D01*
G01*
X168580000Y-96190000D02*
X166040000Y-98730000D01*
X163500000Y-46660000D02*
X166040000Y-49200000D01*
X166040000Y-99238000D02*
G75*
G02*
X165278000Y-100000000I-762000J0D01*
G01*
X166040000Y-49200000D02*
X166040000Y-59360000D01*
X166040000Y-98730000D02*
X166040000Y-99238000D01*
X100000000Y-47422000D02*
G75*
G02*
X100762000Y-46660000I762000J0D01*
G01*
D11*
%TO.C,J11*%
X189350000Y-76720000D02*
X189350000Y-77720000D01*
X189350000Y-77720000D02*
X185050000Y-77720000D01*
X193350000Y-76320000D02*
X189750000Y-76320000D01*
X193750000Y-76720000D02*
X193750000Y-77720000D01*
X193750000Y-77720000D02*
X198050000Y-77720000D01*
X189350000Y-76720000D02*
G75*
G02*
X189750000Y-76320000I400002J-2D01*
G01*
X193350000Y-76320000D02*
G75*
G02*
X193750000Y-76720000I0J-400000D01*
G01*
%TO.C,J10*%
X175230000Y-76720000D02*
X175230000Y-77720000D01*
X175230000Y-77720000D02*
X170930000Y-77720000D01*
X179230000Y-76320000D02*
X175630000Y-76320000D01*
X179630000Y-76720000D02*
X179630000Y-77720000D01*
X179630000Y-77720000D02*
X183930000Y-77720000D01*
X175230000Y-76720000D02*
G75*
G02*
X175630000Y-76320000I400002J-2D01*
G01*
X179230000Y-76320000D02*
G75*
G02*
X179630000Y-76720000I0J-400000D01*
G01*
%TD*%
M02*
