%TF.GenerationSoftware,KiCad,Pcbnew,9.0.7*%
%TF.CreationDate,2026-02-04T13:13:08-07:00*%
%TF.ProjectId,Uno_Shield_DSP_Class_v1,556e6f5f-5368-4696-956c-645f4453505f,rev?*%
%TF.SameCoordinates,Original*%
%TF.FileFunction,AssemblyDrawing,Top*%
%FSLAX46Y46*%
G04 Gerber Fmt 4.6, Leading zero omitted, Abs format (unit mm)*
G04 Created by KiCad (PCBNEW 9.0.7) date 2026-02-04 13:13:08*
%MOMM*%
%LPD*%
G01*
G04 APERTURE LIST*
%ADD10C,0.150000*%
%ADD11C,0.100000*%
G04 APERTURE END LIST*
D10*
X134853809Y-101724819D02*
X134853809Y-100724819D01*
X134853809Y-100724819D02*
X135234761Y-100724819D01*
X135234761Y-100724819D02*
X135329999Y-100772438D01*
X135329999Y-100772438D02*
X135377618Y-100820057D01*
X135377618Y-100820057D02*
X135425237Y-100915295D01*
X135425237Y-100915295D02*
X135425237Y-101058152D01*
X135425237Y-101058152D02*
X135377618Y-101153390D01*
X135377618Y-101153390D02*
X135329999Y-101201009D01*
X135329999Y-101201009D02*
X135234761Y-101248628D01*
X135234761Y-101248628D02*
X134853809Y-101248628D01*
X135996666Y-101724819D02*
X135901428Y-101677200D01*
X135901428Y-101677200D02*
X135853809Y-101629580D01*
X135853809Y-101629580D02*
X135806190Y-101534342D01*
X135806190Y-101534342D02*
X135806190Y-101248628D01*
X135806190Y-101248628D02*
X135853809Y-101153390D01*
X135853809Y-101153390D02*
X135901428Y-101105771D01*
X135901428Y-101105771D02*
X135996666Y-101058152D01*
X135996666Y-101058152D02*
X136139523Y-101058152D01*
X136139523Y-101058152D02*
X136234761Y-101105771D01*
X136234761Y-101105771D02*
X136282380Y-101153390D01*
X136282380Y-101153390D02*
X136329999Y-101248628D01*
X136329999Y-101248628D02*
X136329999Y-101534342D01*
X136329999Y-101534342D02*
X136282380Y-101629580D01*
X136282380Y-101629580D02*
X136234761Y-101677200D01*
X136234761Y-101677200D02*
X136139523Y-101724819D01*
X136139523Y-101724819D02*
X135996666Y-101724819D01*
X136663333Y-101058152D02*
X136853809Y-101724819D01*
X136853809Y-101724819D02*
X137044285Y-101248628D01*
X137044285Y-101248628D02*
X137234761Y-101724819D01*
X137234761Y-101724819D02*
X137425237Y-101058152D01*
X138187142Y-101677200D02*
X138091904Y-101724819D01*
X138091904Y-101724819D02*
X137901428Y-101724819D01*
X137901428Y-101724819D02*
X137806190Y-101677200D01*
X137806190Y-101677200D02*
X137758571Y-101581961D01*
X137758571Y-101581961D02*
X137758571Y-101201009D01*
X137758571Y-101201009D02*
X137806190Y-101105771D01*
X137806190Y-101105771D02*
X137901428Y-101058152D01*
X137901428Y-101058152D02*
X138091904Y-101058152D01*
X138091904Y-101058152D02*
X138187142Y-101105771D01*
X138187142Y-101105771D02*
X138234761Y-101201009D01*
X138234761Y-101201009D02*
X138234761Y-101296247D01*
X138234761Y-101296247D02*
X137758571Y-101391485D01*
X138663333Y-101724819D02*
X138663333Y-101058152D01*
X138663333Y-101248628D02*
X138710952Y-101153390D01*
X138710952Y-101153390D02*
X138758571Y-101105771D01*
X138758571Y-101105771D02*
X138853809Y-101058152D01*
X138853809Y-101058152D02*
X138949047Y-101058152D01*
X127606666Y-100724819D02*
X127606666Y-101439104D01*
X127606666Y-101439104D02*
X127559047Y-101581961D01*
X127559047Y-101581961D02*
X127463809Y-101677200D01*
X127463809Y-101677200D02*
X127320952Y-101724819D01*
X127320952Y-101724819D02*
X127225714Y-101724819D01*
X128606666Y-101724819D02*
X128035238Y-101724819D01*
X128320952Y-101724819D02*
X128320952Y-100724819D01*
X128320952Y-100724819D02*
X128225714Y-100867676D01*
X128225714Y-100867676D02*
X128130476Y-100962914D01*
X128130476Y-100962914D02*
X128035238Y-101010533D01*
X154840476Y-101439104D02*
X155316666Y-101439104D01*
X154745238Y-101724819D02*
X155078571Y-100724819D01*
X155078571Y-100724819D02*
X155411904Y-101724819D01*
X155745238Y-101058152D02*
X155745238Y-101724819D01*
X155745238Y-101153390D02*
X155792857Y-101105771D01*
X155792857Y-101105771D02*
X155888095Y-101058152D01*
X155888095Y-101058152D02*
X156030952Y-101058152D01*
X156030952Y-101058152D02*
X156126190Y-101105771D01*
X156126190Y-101105771D02*
X156173809Y-101201009D01*
X156173809Y-101201009D02*
X156173809Y-101724819D01*
X157078571Y-101724819D02*
X157078571Y-101201009D01*
X157078571Y-101201009D02*
X157030952Y-101105771D01*
X157030952Y-101105771D02*
X156935714Y-101058152D01*
X156935714Y-101058152D02*
X156745238Y-101058152D01*
X156745238Y-101058152D02*
X156650000Y-101105771D01*
X157078571Y-101677200D02*
X156983333Y-101724819D01*
X156983333Y-101724819D02*
X156745238Y-101724819D01*
X156745238Y-101724819D02*
X156650000Y-101677200D01*
X156650000Y-101677200D02*
X156602381Y-101581961D01*
X156602381Y-101581961D02*
X156602381Y-101486723D01*
X156602381Y-101486723D02*
X156650000Y-101391485D01*
X156650000Y-101391485D02*
X156745238Y-101343866D01*
X156745238Y-101343866D02*
X156983333Y-101343866D01*
X156983333Y-101343866D02*
X157078571Y-101296247D01*
X157697619Y-101724819D02*
X157602381Y-101677200D01*
X157602381Y-101677200D02*
X157554762Y-101581961D01*
X157554762Y-101581961D02*
X157554762Y-100724819D01*
X158221429Y-101724819D02*
X158126191Y-101677200D01*
X158126191Y-101677200D02*
X158078572Y-101629580D01*
X158078572Y-101629580D02*
X158030953Y-101534342D01*
X158030953Y-101534342D02*
X158030953Y-101248628D01*
X158030953Y-101248628D02*
X158078572Y-101153390D01*
X158078572Y-101153390D02*
X158126191Y-101105771D01*
X158126191Y-101105771D02*
X158221429Y-101058152D01*
X158221429Y-101058152D02*
X158364286Y-101058152D01*
X158364286Y-101058152D02*
X158459524Y-101105771D01*
X158459524Y-101105771D02*
X158507143Y-101153390D01*
X158507143Y-101153390D02*
X158554762Y-101248628D01*
X158554762Y-101248628D02*
X158554762Y-101534342D01*
X158554762Y-101534342D02*
X158507143Y-101629580D01*
X158507143Y-101629580D02*
X158459524Y-101677200D01*
X158459524Y-101677200D02*
X158364286Y-101724819D01*
X158364286Y-101724819D02*
X158221429Y-101724819D01*
X159411905Y-101058152D02*
X159411905Y-101867676D01*
X159411905Y-101867676D02*
X159364286Y-101962914D01*
X159364286Y-101962914D02*
X159316667Y-102010533D01*
X159316667Y-102010533D02*
X159221429Y-102058152D01*
X159221429Y-102058152D02*
X159078572Y-102058152D01*
X159078572Y-102058152D02*
X158983334Y-102010533D01*
X159411905Y-101677200D02*
X159316667Y-101724819D01*
X159316667Y-101724819D02*
X159126191Y-101724819D01*
X159126191Y-101724819D02*
X159030953Y-101677200D01*
X159030953Y-101677200D02*
X158983334Y-101629580D01*
X158983334Y-101629580D02*
X158935715Y-101534342D01*
X158935715Y-101534342D02*
X158935715Y-101248628D01*
X158935715Y-101248628D02*
X158983334Y-101153390D01*
X158983334Y-101153390D02*
X159030953Y-101105771D01*
X159030953Y-101105771D02*
X159126191Y-101058152D01*
X159126191Y-101058152D02*
X159316667Y-101058152D01*
X159316667Y-101058152D02*
X159411905Y-101105771D01*
X150466666Y-100724819D02*
X150466666Y-101439104D01*
X150466666Y-101439104D02*
X150419047Y-101581961D01*
X150419047Y-101581961D02*
X150323809Y-101677200D01*
X150323809Y-101677200D02*
X150180952Y-101724819D01*
X150180952Y-101724819D02*
X150085714Y-101724819D01*
X150847619Y-100724819D02*
X151466666Y-100724819D01*
X151466666Y-100724819D02*
X151133333Y-101105771D01*
X151133333Y-101105771D02*
X151276190Y-101105771D01*
X151276190Y-101105771D02*
X151371428Y-101153390D01*
X151371428Y-101153390D02*
X151419047Y-101201009D01*
X151419047Y-101201009D02*
X151466666Y-101296247D01*
X151466666Y-101296247D02*
X151466666Y-101534342D01*
X151466666Y-101534342D02*
X151419047Y-101629580D01*
X151419047Y-101629580D02*
X151371428Y-101677200D01*
X151371428Y-101677200D02*
X151276190Y-101724819D01*
X151276190Y-101724819D02*
X150990476Y-101724819D01*
X150990476Y-101724819D02*
X150895238Y-101677200D01*
X150895238Y-101677200D02*
X150847619Y-101629580D01*
X125868857Y-45844819D02*
X125868857Y-44844819D01*
X125868857Y-44844819D02*
X126106952Y-44844819D01*
X126106952Y-44844819D02*
X126249809Y-44892438D01*
X126249809Y-44892438D02*
X126345047Y-44987676D01*
X126345047Y-44987676D02*
X126392666Y-45082914D01*
X126392666Y-45082914D02*
X126440285Y-45273390D01*
X126440285Y-45273390D02*
X126440285Y-45416247D01*
X126440285Y-45416247D02*
X126392666Y-45606723D01*
X126392666Y-45606723D02*
X126345047Y-45701961D01*
X126345047Y-45701961D02*
X126249809Y-45797200D01*
X126249809Y-45797200D02*
X126106952Y-45844819D01*
X126106952Y-45844819D02*
X125868857Y-45844819D01*
X126868857Y-45844819D02*
X126868857Y-45178152D01*
X126868857Y-44844819D02*
X126821238Y-44892438D01*
X126821238Y-44892438D02*
X126868857Y-44940057D01*
X126868857Y-44940057D02*
X126916476Y-44892438D01*
X126916476Y-44892438D02*
X126868857Y-44844819D01*
X126868857Y-44844819D02*
X126868857Y-44940057D01*
X127773618Y-45178152D02*
X127773618Y-45987676D01*
X127773618Y-45987676D02*
X127725999Y-46082914D01*
X127725999Y-46082914D02*
X127678380Y-46130533D01*
X127678380Y-46130533D02*
X127583142Y-46178152D01*
X127583142Y-46178152D02*
X127440285Y-46178152D01*
X127440285Y-46178152D02*
X127345047Y-46130533D01*
X127773618Y-45797200D02*
X127678380Y-45844819D01*
X127678380Y-45844819D02*
X127487904Y-45844819D01*
X127487904Y-45844819D02*
X127392666Y-45797200D01*
X127392666Y-45797200D02*
X127345047Y-45749580D01*
X127345047Y-45749580D02*
X127297428Y-45654342D01*
X127297428Y-45654342D02*
X127297428Y-45368628D01*
X127297428Y-45368628D02*
X127345047Y-45273390D01*
X127345047Y-45273390D02*
X127392666Y-45225771D01*
X127392666Y-45225771D02*
X127487904Y-45178152D01*
X127487904Y-45178152D02*
X127678380Y-45178152D01*
X127678380Y-45178152D02*
X127773618Y-45225771D01*
X128249809Y-45844819D02*
X128249809Y-45178152D01*
X128249809Y-44844819D02*
X128202190Y-44892438D01*
X128202190Y-44892438D02*
X128249809Y-44940057D01*
X128249809Y-44940057D02*
X128297428Y-44892438D01*
X128297428Y-44892438D02*
X128249809Y-44844819D01*
X128249809Y-44844819D02*
X128249809Y-44940057D01*
X128583142Y-45178152D02*
X128964094Y-45178152D01*
X128725999Y-44844819D02*
X128725999Y-45701961D01*
X128725999Y-45701961D02*
X128773618Y-45797200D01*
X128773618Y-45797200D02*
X128868856Y-45844819D01*
X128868856Y-45844819D02*
X128964094Y-45844819D01*
X129725999Y-45844819D02*
X129725999Y-45321009D01*
X129725999Y-45321009D02*
X129678380Y-45225771D01*
X129678380Y-45225771D02*
X129583142Y-45178152D01*
X129583142Y-45178152D02*
X129392666Y-45178152D01*
X129392666Y-45178152D02*
X129297428Y-45225771D01*
X129725999Y-45797200D02*
X129630761Y-45844819D01*
X129630761Y-45844819D02*
X129392666Y-45844819D01*
X129392666Y-45844819D02*
X129297428Y-45797200D01*
X129297428Y-45797200D02*
X129249809Y-45701961D01*
X129249809Y-45701961D02*
X129249809Y-45606723D01*
X129249809Y-45606723D02*
X129297428Y-45511485D01*
X129297428Y-45511485D02*
X129392666Y-45463866D01*
X129392666Y-45463866D02*
X129630761Y-45463866D01*
X129630761Y-45463866D02*
X129725999Y-45416247D01*
X130345047Y-45844819D02*
X130249809Y-45797200D01*
X130249809Y-45797200D02*
X130202190Y-45701961D01*
X130202190Y-45701961D02*
X130202190Y-44844819D01*
X131440285Y-44797200D02*
X130583143Y-46082914D01*
X131773619Y-45844819D02*
X131773619Y-44844819D01*
X131773619Y-44844819D02*
X132154571Y-44844819D01*
X132154571Y-44844819D02*
X132249809Y-44892438D01*
X132249809Y-44892438D02*
X132297428Y-44940057D01*
X132297428Y-44940057D02*
X132345047Y-45035295D01*
X132345047Y-45035295D02*
X132345047Y-45178152D01*
X132345047Y-45178152D02*
X132297428Y-45273390D01*
X132297428Y-45273390D02*
X132249809Y-45321009D01*
X132249809Y-45321009D02*
X132154571Y-45368628D01*
X132154571Y-45368628D02*
X131773619Y-45368628D01*
X132678381Y-44844819D02*
X132916476Y-45844819D01*
X132916476Y-45844819D02*
X133106952Y-45130533D01*
X133106952Y-45130533D02*
X133297428Y-45844819D01*
X133297428Y-45844819D02*
X133535524Y-44844819D01*
X133916476Y-45844819D02*
X133916476Y-44844819D01*
X133916476Y-44844819D02*
X134249809Y-45559104D01*
X134249809Y-45559104D02*
X134583142Y-44844819D01*
X134583142Y-44844819D02*
X134583142Y-45844819D01*
X118462666Y-44844819D02*
X118462666Y-45559104D01*
X118462666Y-45559104D02*
X118415047Y-45701961D01*
X118415047Y-45701961D02*
X118319809Y-45797200D01*
X118319809Y-45797200D02*
X118176952Y-45844819D01*
X118176952Y-45844819D02*
X118081714Y-45844819D01*
X118891238Y-44940057D02*
X118938857Y-44892438D01*
X118938857Y-44892438D02*
X119034095Y-44844819D01*
X119034095Y-44844819D02*
X119272190Y-44844819D01*
X119272190Y-44844819D02*
X119367428Y-44892438D01*
X119367428Y-44892438D02*
X119415047Y-44940057D01*
X119415047Y-44940057D02*
X119462666Y-45035295D01*
X119462666Y-45035295D02*
X119462666Y-45130533D01*
X119462666Y-45130533D02*
X119415047Y-45273390D01*
X119415047Y-45273390D02*
X118843619Y-45844819D01*
X118843619Y-45844819D02*
X119462666Y-45844819D01*
X150252857Y-45844819D02*
X150252857Y-44844819D01*
X150252857Y-44844819D02*
X150490952Y-44844819D01*
X150490952Y-44844819D02*
X150633809Y-44892438D01*
X150633809Y-44892438D02*
X150729047Y-44987676D01*
X150729047Y-44987676D02*
X150776666Y-45082914D01*
X150776666Y-45082914D02*
X150824285Y-45273390D01*
X150824285Y-45273390D02*
X150824285Y-45416247D01*
X150824285Y-45416247D02*
X150776666Y-45606723D01*
X150776666Y-45606723D02*
X150729047Y-45701961D01*
X150729047Y-45701961D02*
X150633809Y-45797200D01*
X150633809Y-45797200D02*
X150490952Y-45844819D01*
X150490952Y-45844819D02*
X150252857Y-45844819D01*
X151252857Y-45844819D02*
X151252857Y-45178152D01*
X151252857Y-44844819D02*
X151205238Y-44892438D01*
X151205238Y-44892438D02*
X151252857Y-44940057D01*
X151252857Y-44940057D02*
X151300476Y-44892438D01*
X151300476Y-44892438D02*
X151252857Y-44844819D01*
X151252857Y-44844819D02*
X151252857Y-44940057D01*
X152157618Y-45178152D02*
X152157618Y-45987676D01*
X152157618Y-45987676D02*
X152109999Y-46082914D01*
X152109999Y-46082914D02*
X152062380Y-46130533D01*
X152062380Y-46130533D02*
X151967142Y-46178152D01*
X151967142Y-46178152D02*
X151824285Y-46178152D01*
X151824285Y-46178152D02*
X151729047Y-46130533D01*
X152157618Y-45797200D02*
X152062380Y-45844819D01*
X152062380Y-45844819D02*
X151871904Y-45844819D01*
X151871904Y-45844819D02*
X151776666Y-45797200D01*
X151776666Y-45797200D02*
X151729047Y-45749580D01*
X151729047Y-45749580D02*
X151681428Y-45654342D01*
X151681428Y-45654342D02*
X151681428Y-45368628D01*
X151681428Y-45368628D02*
X151729047Y-45273390D01*
X151729047Y-45273390D02*
X151776666Y-45225771D01*
X151776666Y-45225771D02*
X151871904Y-45178152D01*
X151871904Y-45178152D02*
X152062380Y-45178152D01*
X152062380Y-45178152D02*
X152157618Y-45225771D01*
X152633809Y-45844819D02*
X152633809Y-45178152D01*
X152633809Y-44844819D02*
X152586190Y-44892438D01*
X152586190Y-44892438D02*
X152633809Y-44940057D01*
X152633809Y-44940057D02*
X152681428Y-44892438D01*
X152681428Y-44892438D02*
X152633809Y-44844819D01*
X152633809Y-44844819D02*
X152633809Y-44940057D01*
X152967142Y-45178152D02*
X153348094Y-45178152D01*
X153109999Y-44844819D02*
X153109999Y-45701961D01*
X153109999Y-45701961D02*
X153157618Y-45797200D01*
X153157618Y-45797200D02*
X153252856Y-45844819D01*
X153252856Y-45844819D02*
X153348094Y-45844819D01*
X154109999Y-45844819D02*
X154109999Y-45321009D01*
X154109999Y-45321009D02*
X154062380Y-45225771D01*
X154062380Y-45225771D02*
X153967142Y-45178152D01*
X153967142Y-45178152D02*
X153776666Y-45178152D01*
X153776666Y-45178152D02*
X153681428Y-45225771D01*
X154109999Y-45797200D02*
X154014761Y-45844819D01*
X154014761Y-45844819D02*
X153776666Y-45844819D01*
X153776666Y-45844819D02*
X153681428Y-45797200D01*
X153681428Y-45797200D02*
X153633809Y-45701961D01*
X153633809Y-45701961D02*
X153633809Y-45606723D01*
X153633809Y-45606723D02*
X153681428Y-45511485D01*
X153681428Y-45511485D02*
X153776666Y-45463866D01*
X153776666Y-45463866D02*
X154014761Y-45463866D01*
X154014761Y-45463866D02*
X154109999Y-45416247D01*
X154729047Y-45844819D02*
X154633809Y-45797200D01*
X154633809Y-45797200D02*
X154586190Y-45701961D01*
X154586190Y-45701961D02*
X154586190Y-44844819D01*
X155824285Y-44797200D02*
X154967143Y-46082914D01*
X156157619Y-45844819D02*
X156157619Y-44844819D01*
X156157619Y-44844819D02*
X156538571Y-44844819D01*
X156538571Y-44844819D02*
X156633809Y-44892438D01*
X156633809Y-44892438D02*
X156681428Y-44940057D01*
X156681428Y-44940057D02*
X156729047Y-45035295D01*
X156729047Y-45035295D02*
X156729047Y-45178152D01*
X156729047Y-45178152D02*
X156681428Y-45273390D01*
X156681428Y-45273390D02*
X156633809Y-45321009D01*
X156633809Y-45321009D02*
X156538571Y-45368628D01*
X156538571Y-45368628D02*
X156157619Y-45368628D01*
X157062381Y-44844819D02*
X157300476Y-45844819D01*
X157300476Y-45844819D02*
X157490952Y-45130533D01*
X157490952Y-45130533D02*
X157681428Y-45844819D01*
X157681428Y-45844819D02*
X157919524Y-44844819D01*
X158300476Y-45844819D02*
X158300476Y-44844819D01*
X158300476Y-44844819D02*
X158633809Y-45559104D01*
X158633809Y-45559104D02*
X158967142Y-44844819D01*
X158967142Y-44844819D02*
X158967142Y-45844819D01*
X145386666Y-44844819D02*
X145386666Y-45559104D01*
X145386666Y-45559104D02*
X145339047Y-45701961D01*
X145339047Y-45701961D02*
X145243809Y-45797200D01*
X145243809Y-45797200D02*
X145100952Y-45844819D01*
X145100952Y-45844819D02*
X145005714Y-45844819D01*
X146291428Y-45178152D02*
X146291428Y-45844819D01*
X146053333Y-44797200D02*
X145815238Y-45511485D01*
X145815238Y-45511485D02*
X146434285Y-45511485D01*
X131594761Y-66374819D02*
X131023333Y-66374819D01*
X131309047Y-66374819D02*
X131309047Y-65374819D01*
X131309047Y-65374819D02*
X131213809Y-65517676D01*
X131213809Y-65517676D02*
X131118571Y-65612914D01*
X131118571Y-65612914D02*
X131023333Y-65660533D01*
X132213809Y-65374819D02*
X132309047Y-65374819D01*
X132309047Y-65374819D02*
X132404285Y-65422438D01*
X132404285Y-65422438D02*
X132451904Y-65470057D01*
X132451904Y-65470057D02*
X132499523Y-65565295D01*
X132499523Y-65565295D02*
X132547142Y-65755771D01*
X132547142Y-65755771D02*
X132547142Y-65993866D01*
X132547142Y-65993866D02*
X132499523Y-66184342D01*
X132499523Y-66184342D02*
X132451904Y-66279580D01*
X132451904Y-66279580D02*
X132404285Y-66327200D01*
X132404285Y-66327200D02*
X132309047Y-66374819D01*
X132309047Y-66374819D02*
X132213809Y-66374819D01*
X132213809Y-66374819D02*
X132118571Y-66327200D01*
X132118571Y-66327200D02*
X132070952Y-66279580D01*
X132070952Y-66279580D02*
X132023333Y-66184342D01*
X132023333Y-66184342D02*
X131975714Y-65993866D01*
X131975714Y-65993866D02*
X131975714Y-65755771D01*
X131975714Y-65755771D02*
X132023333Y-65565295D01*
X132023333Y-65565295D02*
X132070952Y-65470057D01*
X132070952Y-65470057D02*
X132118571Y-65422438D01*
X132118571Y-65422438D02*
X132213809Y-65374819D01*
X132975714Y-66374819D02*
X132975714Y-65374819D01*
X133070952Y-65993866D02*
X133356666Y-66374819D01*
X133356666Y-65708152D02*
X132975714Y-66089104D01*
X132023333Y-60934819D02*
X131690000Y-60458628D01*
X131451905Y-60934819D02*
X131451905Y-59934819D01*
X131451905Y-59934819D02*
X131832857Y-59934819D01*
X131832857Y-59934819D02*
X131928095Y-59982438D01*
X131928095Y-59982438D02*
X131975714Y-60030057D01*
X131975714Y-60030057D02*
X132023333Y-60125295D01*
X132023333Y-60125295D02*
X132023333Y-60268152D01*
X132023333Y-60268152D02*
X131975714Y-60363390D01*
X131975714Y-60363390D02*
X131928095Y-60411009D01*
X131928095Y-60411009D02*
X131832857Y-60458628D01*
X131832857Y-60458628D02*
X131451905Y-60458628D01*
X132499524Y-60934819D02*
X132690000Y-60934819D01*
X132690000Y-60934819D02*
X132785238Y-60887200D01*
X132785238Y-60887200D02*
X132832857Y-60839580D01*
X132832857Y-60839580D02*
X132928095Y-60696723D01*
X132928095Y-60696723D02*
X132975714Y-60506247D01*
X132975714Y-60506247D02*
X132975714Y-60125295D01*
X132975714Y-60125295D02*
X132928095Y-60030057D01*
X132928095Y-60030057D02*
X132880476Y-59982438D01*
X132880476Y-59982438D02*
X132785238Y-59934819D01*
X132785238Y-59934819D02*
X132594762Y-59934819D01*
X132594762Y-59934819D02*
X132499524Y-59982438D01*
X132499524Y-59982438D02*
X132451905Y-60030057D01*
X132451905Y-60030057D02*
X132404286Y-60125295D01*
X132404286Y-60125295D02*
X132404286Y-60363390D01*
X132404286Y-60363390D02*
X132451905Y-60458628D01*
X132451905Y-60458628D02*
X132499524Y-60506247D01*
X132499524Y-60506247D02*
X132594762Y-60553866D01*
X132594762Y-60553866D02*
X132785238Y-60553866D01*
X132785238Y-60553866D02*
X132880476Y-60506247D01*
X132880476Y-60506247D02*
X132928095Y-60458628D01*
X132928095Y-60458628D02*
X132975714Y-60363390D01*
X138084761Y-61624819D02*
X137513333Y-61624819D01*
X137799047Y-61624819D02*
X137799047Y-60624819D01*
X137799047Y-60624819D02*
X137703809Y-60767676D01*
X137703809Y-60767676D02*
X137608571Y-60862914D01*
X137608571Y-60862914D02*
X137513333Y-60910533D01*
X138703809Y-60624819D02*
X138799047Y-60624819D01*
X138799047Y-60624819D02*
X138894285Y-60672438D01*
X138894285Y-60672438D02*
X138941904Y-60720057D01*
X138941904Y-60720057D02*
X138989523Y-60815295D01*
X138989523Y-60815295D02*
X139037142Y-61005771D01*
X139037142Y-61005771D02*
X139037142Y-61243866D01*
X139037142Y-61243866D02*
X138989523Y-61434342D01*
X138989523Y-61434342D02*
X138941904Y-61529580D01*
X138941904Y-61529580D02*
X138894285Y-61577200D01*
X138894285Y-61577200D02*
X138799047Y-61624819D01*
X138799047Y-61624819D02*
X138703809Y-61624819D01*
X138703809Y-61624819D02*
X138608571Y-61577200D01*
X138608571Y-61577200D02*
X138560952Y-61529580D01*
X138560952Y-61529580D02*
X138513333Y-61434342D01*
X138513333Y-61434342D02*
X138465714Y-61243866D01*
X138465714Y-61243866D02*
X138465714Y-61005771D01*
X138465714Y-61005771D02*
X138513333Y-60815295D01*
X138513333Y-60815295D02*
X138560952Y-60720057D01*
X138560952Y-60720057D02*
X138608571Y-60672438D01*
X138608571Y-60672438D02*
X138703809Y-60624819D01*
X139465714Y-61624819D02*
X139465714Y-60624819D01*
X139560952Y-61243866D02*
X139846666Y-61624819D01*
X139846666Y-60958152D02*
X139465714Y-61339104D01*
X138037142Y-56184819D02*
X137703809Y-55708628D01*
X137465714Y-56184819D02*
X137465714Y-55184819D01*
X137465714Y-55184819D02*
X137846666Y-55184819D01*
X137846666Y-55184819D02*
X137941904Y-55232438D01*
X137941904Y-55232438D02*
X137989523Y-55280057D01*
X137989523Y-55280057D02*
X138037142Y-55375295D01*
X138037142Y-55375295D02*
X138037142Y-55518152D01*
X138037142Y-55518152D02*
X137989523Y-55613390D01*
X137989523Y-55613390D02*
X137941904Y-55661009D01*
X137941904Y-55661009D02*
X137846666Y-55708628D01*
X137846666Y-55708628D02*
X137465714Y-55708628D01*
X138989523Y-56184819D02*
X138418095Y-56184819D01*
X138703809Y-56184819D02*
X138703809Y-55184819D01*
X138703809Y-55184819D02*
X138608571Y-55327676D01*
X138608571Y-55327676D02*
X138513333Y-55422914D01*
X138513333Y-55422914D02*
X138418095Y-55470533D01*
X139322857Y-55184819D02*
X139941904Y-55184819D01*
X139941904Y-55184819D02*
X139608571Y-55565771D01*
X139608571Y-55565771D02*
X139751428Y-55565771D01*
X139751428Y-55565771D02*
X139846666Y-55613390D01*
X139846666Y-55613390D02*
X139894285Y-55661009D01*
X139894285Y-55661009D02*
X139941904Y-55756247D01*
X139941904Y-55756247D02*
X139941904Y-55994342D01*
X139941904Y-55994342D02*
X139894285Y-56089580D01*
X139894285Y-56089580D02*
X139846666Y-56137200D01*
X139846666Y-56137200D02*
X139751428Y-56184819D01*
X139751428Y-56184819D02*
X139465714Y-56184819D01*
X139465714Y-56184819D02*
X139370476Y-56137200D01*
X139370476Y-56137200D02*
X139322857Y-56089580D01*
X137513333Y-65470057D02*
X137560952Y-65422438D01*
X137560952Y-65422438D02*
X137656190Y-65374819D01*
X137656190Y-65374819D02*
X137894285Y-65374819D01*
X137894285Y-65374819D02*
X137989523Y-65422438D01*
X137989523Y-65422438D02*
X138037142Y-65470057D01*
X138037142Y-65470057D02*
X138084761Y-65565295D01*
X138084761Y-65565295D02*
X138084761Y-65660533D01*
X138084761Y-65660533D02*
X138037142Y-65803390D01*
X138037142Y-65803390D02*
X137465714Y-66374819D01*
X137465714Y-66374819D02*
X138084761Y-66374819D01*
X138703809Y-65374819D02*
X138799047Y-65374819D01*
X138799047Y-65374819D02*
X138894285Y-65422438D01*
X138894285Y-65422438D02*
X138941904Y-65470057D01*
X138941904Y-65470057D02*
X138989523Y-65565295D01*
X138989523Y-65565295D02*
X139037142Y-65755771D01*
X139037142Y-65755771D02*
X139037142Y-65993866D01*
X139037142Y-65993866D02*
X138989523Y-66184342D01*
X138989523Y-66184342D02*
X138941904Y-66279580D01*
X138941904Y-66279580D02*
X138894285Y-66327200D01*
X138894285Y-66327200D02*
X138799047Y-66374819D01*
X138799047Y-66374819D02*
X138703809Y-66374819D01*
X138703809Y-66374819D02*
X138608571Y-66327200D01*
X138608571Y-66327200D02*
X138560952Y-66279580D01*
X138560952Y-66279580D02*
X138513333Y-66184342D01*
X138513333Y-66184342D02*
X138465714Y-65993866D01*
X138465714Y-65993866D02*
X138465714Y-65755771D01*
X138465714Y-65755771D02*
X138513333Y-65565295D01*
X138513333Y-65565295D02*
X138560952Y-65470057D01*
X138560952Y-65470057D02*
X138608571Y-65422438D01*
X138608571Y-65422438D02*
X138703809Y-65374819D01*
X139465714Y-66374819D02*
X139465714Y-65374819D01*
X139560952Y-65993866D02*
X139846666Y-66374819D01*
X139846666Y-65708152D02*
X139465714Y-66089104D01*
X138037142Y-60934819D02*
X137703809Y-60458628D01*
X137465714Y-60934819D02*
X137465714Y-59934819D01*
X137465714Y-59934819D02*
X137846666Y-59934819D01*
X137846666Y-59934819D02*
X137941904Y-59982438D01*
X137941904Y-59982438D02*
X137989523Y-60030057D01*
X137989523Y-60030057D02*
X138037142Y-60125295D01*
X138037142Y-60125295D02*
X138037142Y-60268152D01*
X138037142Y-60268152D02*
X137989523Y-60363390D01*
X137989523Y-60363390D02*
X137941904Y-60411009D01*
X137941904Y-60411009D02*
X137846666Y-60458628D01*
X137846666Y-60458628D02*
X137465714Y-60458628D01*
X138989523Y-60934819D02*
X138418095Y-60934819D01*
X138703809Y-60934819D02*
X138703809Y-59934819D01*
X138703809Y-59934819D02*
X138608571Y-60077676D01*
X138608571Y-60077676D02*
X138513333Y-60172914D01*
X138513333Y-60172914D02*
X138418095Y-60220533D01*
X139846666Y-60268152D02*
X139846666Y-60934819D01*
X139608571Y-59887200D02*
X139370476Y-60601485D01*
X139370476Y-60601485D02*
X139989523Y-60601485D01*
X144003333Y-60720057D02*
X144050952Y-60672438D01*
X144050952Y-60672438D02*
X144146190Y-60624819D01*
X144146190Y-60624819D02*
X144384285Y-60624819D01*
X144384285Y-60624819D02*
X144479523Y-60672438D01*
X144479523Y-60672438D02*
X144527142Y-60720057D01*
X144527142Y-60720057D02*
X144574761Y-60815295D01*
X144574761Y-60815295D02*
X144574761Y-60910533D01*
X144574761Y-60910533D02*
X144527142Y-61053390D01*
X144527142Y-61053390D02*
X143955714Y-61624819D01*
X143955714Y-61624819D02*
X144574761Y-61624819D01*
X145193809Y-60624819D02*
X145289047Y-60624819D01*
X145289047Y-60624819D02*
X145384285Y-60672438D01*
X145384285Y-60672438D02*
X145431904Y-60720057D01*
X145431904Y-60720057D02*
X145479523Y-60815295D01*
X145479523Y-60815295D02*
X145527142Y-61005771D01*
X145527142Y-61005771D02*
X145527142Y-61243866D01*
X145527142Y-61243866D02*
X145479523Y-61434342D01*
X145479523Y-61434342D02*
X145431904Y-61529580D01*
X145431904Y-61529580D02*
X145384285Y-61577200D01*
X145384285Y-61577200D02*
X145289047Y-61624819D01*
X145289047Y-61624819D02*
X145193809Y-61624819D01*
X145193809Y-61624819D02*
X145098571Y-61577200D01*
X145098571Y-61577200D02*
X145050952Y-61529580D01*
X145050952Y-61529580D02*
X145003333Y-61434342D01*
X145003333Y-61434342D02*
X144955714Y-61243866D01*
X144955714Y-61243866D02*
X144955714Y-61005771D01*
X144955714Y-61005771D02*
X145003333Y-60815295D01*
X145003333Y-60815295D02*
X145050952Y-60720057D01*
X145050952Y-60720057D02*
X145098571Y-60672438D01*
X145098571Y-60672438D02*
X145193809Y-60624819D01*
X145955714Y-61624819D02*
X145955714Y-60624819D01*
X146050952Y-61243866D02*
X146336666Y-61624819D01*
X146336666Y-60958152D02*
X145955714Y-61339104D01*
X144527142Y-56184819D02*
X144193809Y-55708628D01*
X143955714Y-56184819D02*
X143955714Y-55184819D01*
X143955714Y-55184819D02*
X144336666Y-55184819D01*
X144336666Y-55184819D02*
X144431904Y-55232438D01*
X144431904Y-55232438D02*
X144479523Y-55280057D01*
X144479523Y-55280057D02*
X144527142Y-55375295D01*
X144527142Y-55375295D02*
X144527142Y-55518152D01*
X144527142Y-55518152D02*
X144479523Y-55613390D01*
X144479523Y-55613390D02*
X144431904Y-55661009D01*
X144431904Y-55661009D02*
X144336666Y-55708628D01*
X144336666Y-55708628D02*
X143955714Y-55708628D01*
X145479523Y-56184819D02*
X144908095Y-56184819D01*
X145193809Y-56184819D02*
X145193809Y-55184819D01*
X145193809Y-55184819D02*
X145098571Y-55327676D01*
X145098571Y-55327676D02*
X145003333Y-55422914D01*
X145003333Y-55422914D02*
X144908095Y-55470533D01*
X146050952Y-55613390D02*
X145955714Y-55565771D01*
X145955714Y-55565771D02*
X145908095Y-55518152D01*
X145908095Y-55518152D02*
X145860476Y-55422914D01*
X145860476Y-55422914D02*
X145860476Y-55375295D01*
X145860476Y-55375295D02*
X145908095Y-55280057D01*
X145908095Y-55280057D02*
X145955714Y-55232438D01*
X145955714Y-55232438D02*
X146050952Y-55184819D01*
X146050952Y-55184819D02*
X146241428Y-55184819D01*
X146241428Y-55184819D02*
X146336666Y-55232438D01*
X146336666Y-55232438D02*
X146384285Y-55280057D01*
X146384285Y-55280057D02*
X146431904Y-55375295D01*
X146431904Y-55375295D02*
X146431904Y-55422914D01*
X146431904Y-55422914D02*
X146384285Y-55518152D01*
X146384285Y-55518152D02*
X146336666Y-55565771D01*
X146336666Y-55565771D02*
X146241428Y-55613390D01*
X146241428Y-55613390D02*
X146050952Y-55613390D01*
X146050952Y-55613390D02*
X145955714Y-55661009D01*
X145955714Y-55661009D02*
X145908095Y-55708628D01*
X145908095Y-55708628D02*
X145860476Y-55803866D01*
X145860476Y-55803866D02*
X145860476Y-55994342D01*
X145860476Y-55994342D02*
X145908095Y-56089580D01*
X145908095Y-56089580D02*
X145955714Y-56137200D01*
X145955714Y-56137200D02*
X146050952Y-56184819D01*
X146050952Y-56184819D02*
X146241428Y-56184819D01*
X146241428Y-56184819D02*
X146336666Y-56137200D01*
X146336666Y-56137200D02*
X146384285Y-56089580D01*
X146384285Y-56089580D02*
X146431904Y-55994342D01*
X146431904Y-55994342D02*
X146431904Y-55803866D01*
X146431904Y-55803866D02*
X146384285Y-55708628D01*
X146384285Y-55708628D02*
X146336666Y-55661009D01*
X146336666Y-55661009D02*
X146241428Y-55613390D01*
X124533333Y-65470057D02*
X124580952Y-65422438D01*
X124580952Y-65422438D02*
X124676190Y-65374819D01*
X124676190Y-65374819D02*
X124914285Y-65374819D01*
X124914285Y-65374819D02*
X125009523Y-65422438D01*
X125009523Y-65422438D02*
X125057142Y-65470057D01*
X125057142Y-65470057D02*
X125104761Y-65565295D01*
X125104761Y-65565295D02*
X125104761Y-65660533D01*
X125104761Y-65660533D02*
X125057142Y-65803390D01*
X125057142Y-65803390D02*
X124485714Y-66374819D01*
X124485714Y-66374819D02*
X125104761Y-66374819D01*
X125723809Y-65374819D02*
X125819047Y-65374819D01*
X125819047Y-65374819D02*
X125914285Y-65422438D01*
X125914285Y-65422438D02*
X125961904Y-65470057D01*
X125961904Y-65470057D02*
X126009523Y-65565295D01*
X126009523Y-65565295D02*
X126057142Y-65755771D01*
X126057142Y-65755771D02*
X126057142Y-65993866D01*
X126057142Y-65993866D02*
X126009523Y-66184342D01*
X126009523Y-66184342D02*
X125961904Y-66279580D01*
X125961904Y-66279580D02*
X125914285Y-66327200D01*
X125914285Y-66327200D02*
X125819047Y-66374819D01*
X125819047Y-66374819D02*
X125723809Y-66374819D01*
X125723809Y-66374819D02*
X125628571Y-66327200D01*
X125628571Y-66327200D02*
X125580952Y-66279580D01*
X125580952Y-66279580D02*
X125533333Y-66184342D01*
X125533333Y-66184342D02*
X125485714Y-65993866D01*
X125485714Y-65993866D02*
X125485714Y-65755771D01*
X125485714Y-65755771D02*
X125533333Y-65565295D01*
X125533333Y-65565295D02*
X125580952Y-65470057D01*
X125580952Y-65470057D02*
X125628571Y-65422438D01*
X125628571Y-65422438D02*
X125723809Y-65374819D01*
X126485714Y-66374819D02*
X126485714Y-65374819D01*
X126580952Y-65993866D02*
X126866666Y-66374819D01*
X126866666Y-65708152D02*
X126485714Y-66089104D01*
X125533333Y-60934819D02*
X125200000Y-60458628D01*
X124961905Y-60934819D02*
X124961905Y-59934819D01*
X124961905Y-59934819D02*
X125342857Y-59934819D01*
X125342857Y-59934819D02*
X125438095Y-59982438D01*
X125438095Y-59982438D02*
X125485714Y-60030057D01*
X125485714Y-60030057D02*
X125533333Y-60125295D01*
X125533333Y-60125295D02*
X125533333Y-60268152D01*
X125533333Y-60268152D02*
X125485714Y-60363390D01*
X125485714Y-60363390D02*
X125438095Y-60411009D01*
X125438095Y-60411009D02*
X125342857Y-60458628D01*
X125342857Y-60458628D02*
X124961905Y-60458628D01*
X126390476Y-60268152D02*
X126390476Y-60934819D01*
X126152381Y-59887200D02*
X125914286Y-60601485D01*
X125914286Y-60601485D02*
X126533333Y-60601485D01*
X138084761Y-71124819D02*
X137513333Y-71124819D01*
X137799047Y-71124819D02*
X137799047Y-70124819D01*
X137799047Y-70124819D02*
X137703809Y-70267676D01*
X137703809Y-70267676D02*
X137608571Y-70362914D01*
X137608571Y-70362914D02*
X137513333Y-70410533D01*
X138703809Y-70124819D02*
X138799047Y-70124819D01*
X138799047Y-70124819D02*
X138894285Y-70172438D01*
X138894285Y-70172438D02*
X138941904Y-70220057D01*
X138941904Y-70220057D02*
X138989523Y-70315295D01*
X138989523Y-70315295D02*
X139037142Y-70505771D01*
X139037142Y-70505771D02*
X139037142Y-70743866D01*
X139037142Y-70743866D02*
X138989523Y-70934342D01*
X138989523Y-70934342D02*
X138941904Y-71029580D01*
X138941904Y-71029580D02*
X138894285Y-71077200D01*
X138894285Y-71077200D02*
X138799047Y-71124819D01*
X138799047Y-71124819D02*
X138703809Y-71124819D01*
X138703809Y-71124819D02*
X138608571Y-71077200D01*
X138608571Y-71077200D02*
X138560952Y-71029580D01*
X138560952Y-71029580D02*
X138513333Y-70934342D01*
X138513333Y-70934342D02*
X138465714Y-70743866D01*
X138465714Y-70743866D02*
X138465714Y-70505771D01*
X138465714Y-70505771D02*
X138513333Y-70315295D01*
X138513333Y-70315295D02*
X138560952Y-70220057D01*
X138560952Y-70220057D02*
X138608571Y-70172438D01*
X138608571Y-70172438D02*
X138703809Y-70124819D01*
X139465714Y-71124819D02*
X139465714Y-70124819D01*
X139560952Y-70743866D02*
X139846666Y-71124819D01*
X139846666Y-70458152D02*
X139465714Y-70839104D01*
X138037142Y-65684819D02*
X137703809Y-65208628D01*
X137465714Y-65684819D02*
X137465714Y-64684819D01*
X137465714Y-64684819D02*
X137846666Y-64684819D01*
X137846666Y-64684819D02*
X137941904Y-64732438D01*
X137941904Y-64732438D02*
X137989523Y-64780057D01*
X137989523Y-64780057D02*
X138037142Y-64875295D01*
X138037142Y-64875295D02*
X138037142Y-65018152D01*
X138037142Y-65018152D02*
X137989523Y-65113390D01*
X137989523Y-65113390D02*
X137941904Y-65161009D01*
X137941904Y-65161009D02*
X137846666Y-65208628D01*
X137846666Y-65208628D02*
X137465714Y-65208628D01*
X138989523Y-65684819D02*
X138418095Y-65684819D01*
X138703809Y-65684819D02*
X138703809Y-64684819D01*
X138703809Y-64684819D02*
X138608571Y-64827676D01*
X138608571Y-64827676D02*
X138513333Y-64922914D01*
X138513333Y-64922914D02*
X138418095Y-64970533D01*
X139894285Y-64684819D02*
X139418095Y-64684819D01*
X139418095Y-64684819D02*
X139370476Y-65161009D01*
X139370476Y-65161009D02*
X139418095Y-65113390D01*
X139418095Y-65113390D02*
X139513333Y-65065771D01*
X139513333Y-65065771D02*
X139751428Y-65065771D01*
X139751428Y-65065771D02*
X139846666Y-65113390D01*
X139846666Y-65113390D02*
X139894285Y-65161009D01*
X139894285Y-65161009D02*
X139941904Y-65256247D01*
X139941904Y-65256247D02*
X139941904Y-65494342D01*
X139941904Y-65494342D02*
X139894285Y-65589580D01*
X139894285Y-65589580D02*
X139846666Y-65637200D01*
X139846666Y-65637200D02*
X139751428Y-65684819D01*
X139751428Y-65684819D02*
X139513333Y-65684819D01*
X139513333Y-65684819D02*
X139418095Y-65637200D01*
X139418095Y-65637200D02*
X139370476Y-65589580D01*
X144574761Y-66374819D02*
X144003333Y-66374819D01*
X144289047Y-66374819D02*
X144289047Y-65374819D01*
X144289047Y-65374819D02*
X144193809Y-65517676D01*
X144193809Y-65517676D02*
X144098571Y-65612914D01*
X144098571Y-65612914D02*
X144003333Y-65660533D01*
X145193809Y-65374819D02*
X145289047Y-65374819D01*
X145289047Y-65374819D02*
X145384285Y-65422438D01*
X145384285Y-65422438D02*
X145431904Y-65470057D01*
X145431904Y-65470057D02*
X145479523Y-65565295D01*
X145479523Y-65565295D02*
X145527142Y-65755771D01*
X145527142Y-65755771D02*
X145527142Y-65993866D01*
X145527142Y-65993866D02*
X145479523Y-66184342D01*
X145479523Y-66184342D02*
X145431904Y-66279580D01*
X145431904Y-66279580D02*
X145384285Y-66327200D01*
X145384285Y-66327200D02*
X145289047Y-66374819D01*
X145289047Y-66374819D02*
X145193809Y-66374819D01*
X145193809Y-66374819D02*
X145098571Y-66327200D01*
X145098571Y-66327200D02*
X145050952Y-66279580D01*
X145050952Y-66279580D02*
X145003333Y-66184342D01*
X145003333Y-66184342D02*
X144955714Y-65993866D01*
X144955714Y-65993866D02*
X144955714Y-65755771D01*
X144955714Y-65755771D02*
X145003333Y-65565295D01*
X145003333Y-65565295D02*
X145050952Y-65470057D01*
X145050952Y-65470057D02*
X145098571Y-65422438D01*
X145098571Y-65422438D02*
X145193809Y-65374819D01*
X145955714Y-66374819D02*
X145955714Y-65374819D01*
X146050952Y-65993866D02*
X146336666Y-66374819D01*
X146336666Y-65708152D02*
X145955714Y-66089104D01*
X144527142Y-60934819D02*
X144193809Y-60458628D01*
X143955714Y-60934819D02*
X143955714Y-59934819D01*
X143955714Y-59934819D02*
X144336666Y-59934819D01*
X144336666Y-59934819D02*
X144431904Y-59982438D01*
X144431904Y-59982438D02*
X144479523Y-60030057D01*
X144479523Y-60030057D02*
X144527142Y-60125295D01*
X144527142Y-60125295D02*
X144527142Y-60268152D01*
X144527142Y-60268152D02*
X144479523Y-60363390D01*
X144479523Y-60363390D02*
X144431904Y-60411009D01*
X144431904Y-60411009D02*
X144336666Y-60458628D01*
X144336666Y-60458628D02*
X143955714Y-60458628D01*
X145479523Y-60934819D02*
X144908095Y-60934819D01*
X145193809Y-60934819D02*
X145193809Y-59934819D01*
X145193809Y-59934819D02*
X145098571Y-60077676D01*
X145098571Y-60077676D02*
X145003333Y-60172914D01*
X145003333Y-60172914D02*
X144908095Y-60220533D01*
X145955714Y-60934819D02*
X146146190Y-60934819D01*
X146146190Y-60934819D02*
X146241428Y-60887200D01*
X146241428Y-60887200D02*
X146289047Y-60839580D01*
X146289047Y-60839580D02*
X146384285Y-60696723D01*
X146384285Y-60696723D02*
X146431904Y-60506247D01*
X146431904Y-60506247D02*
X146431904Y-60125295D01*
X146431904Y-60125295D02*
X146384285Y-60030057D01*
X146384285Y-60030057D02*
X146336666Y-59982438D01*
X146336666Y-59982438D02*
X146241428Y-59934819D01*
X146241428Y-59934819D02*
X146050952Y-59934819D01*
X146050952Y-59934819D02*
X145955714Y-59982438D01*
X145955714Y-59982438D02*
X145908095Y-60030057D01*
X145908095Y-60030057D02*
X145860476Y-60125295D01*
X145860476Y-60125295D02*
X145860476Y-60363390D01*
X145860476Y-60363390D02*
X145908095Y-60458628D01*
X145908095Y-60458628D02*
X145955714Y-60506247D01*
X145955714Y-60506247D02*
X146050952Y-60553866D01*
X146050952Y-60553866D02*
X146241428Y-60553866D01*
X146241428Y-60553866D02*
X146336666Y-60506247D01*
X146336666Y-60506247D02*
X146384285Y-60458628D01*
X146384285Y-60458628D02*
X146431904Y-60363390D01*
X156232380Y-70604819D02*
X155660952Y-70604819D01*
X155946666Y-70604819D02*
X155946666Y-69604819D01*
X155946666Y-69604819D02*
X155851428Y-69747676D01*
X155851428Y-69747676D02*
X155756190Y-69842914D01*
X155756190Y-69842914D02*
X155660952Y-69890533D01*
X156851428Y-69604819D02*
X156946666Y-69604819D01*
X156946666Y-69604819D02*
X157041904Y-69652438D01*
X157041904Y-69652438D02*
X157089523Y-69700057D01*
X157089523Y-69700057D02*
X157137142Y-69795295D01*
X157137142Y-69795295D02*
X157184761Y-69985771D01*
X157184761Y-69985771D02*
X157184761Y-70223866D01*
X157184761Y-70223866D02*
X157137142Y-70414342D01*
X157137142Y-70414342D02*
X157089523Y-70509580D01*
X157089523Y-70509580D02*
X157041904Y-70557200D01*
X157041904Y-70557200D02*
X156946666Y-70604819D01*
X156946666Y-70604819D02*
X156851428Y-70604819D01*
X156851428Y-70604819D02*
X156756190Y-70557200D01*
X156756190Y-70557200D02*
X156708571Y-70509580D01*
X156708571Y-70509580D02*
X156660952Y-70414342D01*
X156660952Y-70414342D02*
X156613333Y-70223866D01*
X156613333Y-70223866D02*
X156613333Y-69985771D01*
X156613333Y-69985771D02*
X156660952Y-69795295D01*
X156660952Y-69795295D02*
X156708571Y-69700057D01*
X156708571Y-69700057D02*
X156756190Y-69652438D01*
X156756190Y-69652438D02*
X156851428Y-69604819D01*
X157803809Y-69604819D02*
X157899047Y-69604819D01*
X157899047Y-69604819D02*
X157994285Y-69652438D01*
X157994285Y-69652438D02*
X158041904Y-69700057D01*
X158041904Y-69700057D02*
X158089523Y-69795295D01*
X158089523Y-69795295D02*
X158137142Y-69985771D01*
X158137142Y-69985771D02*
X158137142Y-70223866D01*
X158137142Y-70223866D02*
X158089523Y-70414342D01*
X158089523Y-70414342D02*
X158041904Y-70509580D01*
X158041904Y-70509580D02*
X157994285Y-70557200D01*
X157994285Y-70557200D02*
X157899047Y-70604819D01*
X157899047Y-70604819D02*
X157803809Y-70604819D01*
X157803809Y-70604819D02*
X157708571Y-70557200D01*
X157708571Y-70557200D02*
X157660952Y-70509580D01*
X157660952Y-70509580D02*
X157613333Y-70414342D01*
X157613333Y-70414342D02*
X157565714Y-70223866D01*
X157565714Y-70223866D02*
X157565714Y-69985771D01*
X157565714Y-69985771D02*
X157613333Y-69795295D01*
X157613333Y-69795295D02*
X157660952Y-69700057D01*
X157660952Y-69700057D02*
X157708571Y-69652438D01*
X157708571Y-69652438D02*
X157803809Y-69604819D01*
X158565714Y-69938152D02*
X158565714Y-70938152D01*
X158565714Y-69985771D02*
X158660952Y-69938152D01*
X158660952Y-69938152D02*
X158851428Y-69938152D01*
X158851428Y-69938152D02*
X158946666Y-69985771D01*
X158946666Y-69985771D02*
X158994285Y-70033390D01*
X158994285Y-70033390D02*
X159041904Y-70128628D01*
X159041904Y-70128628D02*
X159041904Y-70414342D01*
X159041904Y-70414342D02*
X158994285Y-70509580D01*
X158994285Y-70509580D02*
X158946666Y-70557200D01*
X158946666Y-70557200D02*
X158851428Y-70604819D01*
X158851428Y-70604819D02*
X158660952Y-70604819D01*
X158660952Y-70604819D02*
X158565714Y-70557200D01*
X159803809Y-70081009D02*
X159470476Y-70081009D01*
X159470476Y-70604819D02*
X159470476Y-69604819D01*
X159470476Y-69604819D02*
X159946666Y-69604819D01*
X157613333Y-68009580D02*
X157565714Y-68057200D01*
X157565714Y-68057200D02*
X157422857Y-68104819D01*
X157422857Y-68104819D02*
X157327619Y-68104819D01*
X157327619Y-68104819D02*
X157184762Y-68057200D01*
X157184762Y-68057200D02*
X157089524Y-67961961D01*
X157089524Y-67961961D02*
X157041905Y-67866723D01*
X157041905Y-67866723D02*
X156994286Y-67676247D01*
X156994286Y-67676247D02*
X156994286Y-67533390D01*
X156994286Y-67533390D02*
X157041905Y-67342914D01*
X157041905Y-67342914D02*
X157089524Y-67247676D01*
X157089524Y-67247676D02*
X157184762Y-67152438D01*
X157184762Y-67152438D02*
X157327619Y-67104819D01*
X157327619Y-67104819D02*
X157422857Y-67104819D01*
X157422857Y-67104819D02*
X157565714Y-67152438D01*
X157565714Y-67152438D02*
X157613333Y-67200057D01*
X157994286Y-67200057D02*
X158041905Y-67152438D01*
X158041905Y-67152438D02*
X158137143Y-67104819D01*
X158137143Y-67104819D02*
X158375238Y-67104819D01*
X158375238Y-67104819D02*
X158470476Y-67152438D01*
X158470476Y-67152438D02*
X158518095Y-67200057D01*
X158518095Y-67200057D02*
X158565714Y-67295295D01*
X158565714Y-67295295D02*
X158565714Y-67390533D01*
X158565714Y-67390533D02*
X158518095Y-67533390D01*
X158518095Y-67533390D02*
X157946667Y-68104819D01*
X157946667Y-68104819D02*
X158565714Y-68104819D01*
X125104761Y-80624819D02*
X124533333Y-80624819D01*
X124819047Y-80624819D02*
X124819047Y-79624819D01*
X124819047Y-79624819D02*
X124723809Y-79767676D01*
X124723809Y-79767676D02*
X124628571Y-79862914D01*
X124628571Y-79862914D02*
X124533333Y-79910533D01*
X125723809Y-79624819D02*
X125819047Y-79624819D01*
X125819047Y-79624819D02*
X125914285Y-79672438D01*
X125914285Y-79672438D02*
X125961904Y-79720057D01*
X125961904Y-79720057D02*
X126009523Y-79815295D01*
X126009523Y-79815295D02*
X126057142Y-80005771D01*
X126057142Y-80005771D02*
X126057142Y-80243866D01*
X126057142Y-80243866D02*
X126009523Y-80434342D01*
X126009523Y-80434342D02*
X125961904Y-80529580D01*
X125961904Y-80529580D02*
X125914285Y-80577200D01*
X125914285Y-80577200D02*
X125819047Y-80624819D01*
X125819047Y-80624819D02*
X125723809Y-80624819D01*
X125723809Y-80624819D02*
X125628571Y-80577200D01*
X125628571Y-80577200D02*
X125580952Y-80529580D01*
X125580952Y-80529580D02*
X125533333Y-80434342D01*
X125533333Y-80434342D02*
X125485714Y-80243866D01*
X125485714Y-80243866D02*
X125485714Y-80005771D01*
X125485714Y-80005771D02*
X125533333Y-79815295D01*
X125533333Y-79815295D02*
X125580952Y-79720057D01*
X125580952Y-79720057D02*
X125628571Y-79672438D01*
X125628571Y-79672438D02*
X125723809Y-79624819D01*
X126485714Y-80624819D02*
X126485714Y-79624819D01*
X126580952Y-80243866D02*
X126866666Y-80624819D01*
X126866666Y-79958152D02*
X126485714Y-80339104D01*
X125533333Y-75184819D02*
X125200000Y-74708628D01*
X124961905Y-75184819D02*
X124961905Y-74184819D01*
X124961905Y-74184819D02*
X125342857Y-74184819D01*
X125342857Y-74184819D02*
X125438095Y-74232438D01*
X125438095Y-74232438D02*
X125485714Y-74280057D01*
X125485714Y-74280057D02*
X125533333Y-74375295D01*
X125533333Y-74375295D02*
X125533333Y-74518152D01*
X125533333Y-74518152D02*
X125485714Y-74613390D01*
X125485714Y-74613390D02*
X125438095Y-74661009D01*
X125438095Y-74661009D02*
X125342857Y-74708628D01*
X125342857Y-74708628D02*
X124961905Y-74708628D01*
X125866667Y-74184819D02*
X126533333Y-74184819D01*
X126533333Y-74184819D02*
X126104762Y-75184819D01*
X144574761Y-75874819D02*
X144003333Y-75874819D01*
X144289047Y-75874819D02*
X144289047Y-74874819D01*
X144289047Y-74874819D02*
X144193809Y-75017676D01*
X144193809Y-75017676D02*
X144098571Y-75112914D01*
X144098571Y-75112914D02*
X144003333Y-75160533D01*
X145193809Y-74874819D02*
X145289047Y-74874819D01*
X145289047Y-74874819D02*
X145384285Y-74922438D01*
X145384285Y-74922438D02*
X145431904Y-74970057D01*
X145431904Y-74970057D02*
X145479523Y-75065295D01*
X145479523Y-75065295D02*
X145527142Y-75255771D01*
X145527142Y-75255771D02*
X145527142Y-75493866D01*
X145527142Y-75493866D02*
X145479523Y-75684342D01*
X145479523Y-75684342D02*
X145431904Y-75779580D01*
X145431904Y-75779580D02*
X145384285Y-75827200D01*
X145384285Y-75827200D02*
X145289047Y-75874819D01*
X145289047Y-75874819D02*
X145193809Y-75874819D01*
X145193809Y-75874819D02*
X145098571Y-75827200D01*
X145098571Y-75827200D02*
X145050952Y-75779580D01*
X145050952Y-75779580D02*
X145003333Y-75684342D01*
X145003333Y-75684342D02*
X144955714Y-75493866D01*
X144955714Y-75493866D02*
X144955714Y-75255771D01*
X144955714Y-75255771D02*
X145003333Y-75065295D01*
X145003333Y-75065295D02*
X145050952Y-74970057D01*
X145050952Y-74970057D02*
X145098571Y-74922438D01*
X145098571Y-74922438D02*
X145193809Y-74874819D01*
X145955714Y-75874819D02*
X145955714Y-74874819D01*
X146050952Y-75493866D02*
X146336666Y-75874819D01*
X146336666Y-75208152D02*
X145955714Y-75589104D01*
X144527142Y-70434819D02*
X144193809Y-69958628D01*
X143955714Y-70434819D02*
X143955714Y-69434819D01*
X143955714Y-69434819D02*
X144336666Y-69434819D01*
X144336666Y-69434819D02*
X144431904Y-69482438D01*
X144431904Y-69482438D02*
X144479523Y-69530057D01*
X144479523Y-69530057D02*
X144527142Y-69625295D01*
X144527142Y-69625295D02*
X144527142Y-69768152D01*
X144527142Y-69768152D02*
X144479523Y-69863390D01*
X144479523Y-69863390D02*
X144431904Y-69911009D01*
X144431904Y-69911009D02*
X144336666Y-69958628D01*
X144336666Y-69958628D02*
X143955714Y-69958628D01*
X144908095Y-69530057D02*
X144955714Y-69482438D01*
X144955714Y-69482438D02*
X145050952Y-69434819D01*
X145050952Y-69434819D02*
X145289047Y-69434819D01*
X145289047Y-69434819D02*
X145384285Y-69482438D01*
X145384285Y-69482438D02*
X145431904Y-69530057D01*
X145431904Y-69530057D02*
X145479523Y-69625295D01*
X145479523Y-69625295D02*
X145479523Y-69720533D01*
X145479523Y-69720533D02*
X145431904Y-69863390D01*
X145431904Y-69863390D02*
X144860476Y-70434819D01*
X144860476Y-70434819D02*
X145479523Y-70434819D01*
X146431904Y-70434819D02*
X145860476Y-70434819D01*
X146146190Y-70434819D02*
X146146190Y-69434819D01*
X146146190Y-69434819D02*
X146050952Y-69577676D01*
X146050952Y-69577676D02*
X145955714Y-69672914D01*
X145955714Y-69672914D02*
X145860476Y-69720533D01*
X104863333Y-87191009D02*
X105006190Y-87238628D01*
X105006190Y-87238628D02*
X105053809Y-87286247D01*
X105053809Y-87286247D02*
X105101428Y-87381485D01*
X105101428Y-87381485D02*
X105101428Y-87524342D01*
X105101428Y-87524342D02*
X105053809Y-87619580D01*
X105053809Y-87619580D02*
X105006190Y-87667200D01*
X105006190Y-87667200D02*
X104910952Y-87714819D01*
X104910952Y-87714819D02*
X104530000Y-87714819D01*
X104530000Y-87714819D02*
X104530000Y-86714819D01*
X104530000Y-86714819D02*
X104863333Y-86714819D01*
X104863333Y-86714819D02*
X104958571Y-86762438D01*
X104958571Y-86762438D02*
X105006190Y-86810057D01*
X105006190Y-86810057D02*
X105053809Y-86905295D01*
X105053809Y-86905295D02*
X105053809Y-87000533D01*
X105053809Y-87000533D02*
X105006190Y-87095771D01*
X105006190Y-87095771D02*
X104958571Y-87143390D01*
X104958571Y-87143390D02*
X104863333Y-87191009D01*
X104863333Y-87191009D02*
X104530000Y-87191009D01*
X105387143Y-86714819D02*
X105958571Y-86714819D01*
X105672857Y-87714819D02*
X105672857Y-86714819D01*
X106053810Y-87810057D02*
X106815714Y-87810057D01*
X107006191Y-86810057D02*
X107053810Y-86762438D01*
X107053810Y-86762438D02*
X107149048Y-86714819D01*
X107149048Y-86714819D02*
X107387143Y-86714819D01*
X107387143Y-86714819D02*
X107482381Y-86762438D01*
X107482381Y-86762438D02*
X107530000Y-86810057D01*
X107530000Y-86810057D02*
X107577619Y-86905295D01*
X107577619Y-86905295D02*
X107577619Y-87000533D01*
X107577619Y-87000533D02*
X107530000Y-87143390D01*
X107530000Y-87143390D02*
X106958572Y-87714819D01*
X106958572Y-87714819D02*
X107577619Y-87714819D01*
X104196667Y-83217200D02*
X104339524Y-83264819D01*
X104339524Y-83264819D02*
X104577619Y-83264819D01*
X104577619Y-83264819D02*
X104672857Y-83217200D01*
X104672857Y-83217200D02*
X104720476Y-83169580D01*
X104720476Y-83169580D02*
X104768095Y-83074342D01*
X104768095Y-83074342D02*
X104768095Y-82979104D01*
X104768095Y-82979104D02*
X104720476Y-82883866D01*
X104720476Y-82883866D02*
X104672857Y-82836247D01*
X104672857Y-82836247D02*
X104577619Y-82788628D01*
X104577619Y-82788628D02*
X104387143Y-82741009D01*
X104387143Y-82741009D02*
X104291905Y-82693390D01*
X104291905Y-82693390D02*
X104244286Y-82645771D01*
X104244286Y-82645771D02*
X104196667Y-82550533D01*
X104196667Y-82550533D02*
X104196667Y-82455295D01*
X104196667Y-82455295D02*
X104244286Y-82360057D01*
X104244286Y-82360057D02*
X104291905Y-82312438D01*
X104291905Y-82312438D02*
X104387143Y-82264819D01*
X104387143Y-82264819D02*
X104625238Y-82264819D01*
X104625238Y-82264819D02*
X104768095Y-82312438D01*
X105101429Y-82264819D02*
X105339524Y-83264819D01*
X105339524Y-83264819D02*
X105530000Y-82550533D01*
X105530000Y-82550533D02*
X105720476Y-83264819D01*
X105720476Y-83264819D02*
X105958572Y-82264819D01*
X106291905Y-82360057D02*
X106339524Y-82312438D01*
X106339524Y-82312438D02*
X106434762Y-82264819D01*
X106434762Y-82264819D02*
X106672857Y-82264819D01*
X106672857Y-82264819D02*
X106768095Y-82312438D01*
X106768095Y-82312438D02*
X106815714Y-82360057D01*
X106815714Y-82360057D02*
X106863333Y-82455295D01*
X106863333Y-82455295D02*
X106863333Y-82550533D01*
X106863333Y-82550533D02*
X106815714Y-82693390D01*
X106815714Y-82693390D02*
X106244286Y-83264819D01*
X106244286Y-83264819D02*
X106863333Y-83264819D01*
X144003333Y-70220057D02*
X144050952Y-70172438D01*
X144050952Y-70172438D02*
X144146190Y-70124819D01*
X144146190Y-70124819D02*
X144384285Y-70124819D01*
X144384285Y-70124819D02*
X144479523Y-70172438D01*
X144479523Y-70172438D02*
X144527142Y-70220057D01*
X144527142Y-70220057D02*
X144574761Y-70315295D01*
X144574761Y-70315295D02*
X144574761Y-70410533D01*
X144574761Y-70410533D02*
X144527142Y-70553390D01*
X144527142Y-70553390D02*
X143955714Y-71124819D01*
X143955714Y-71124819D02*
X144574761Y-71124819D01*
X145193809Y-70124819D02*
X145289047Y-70124819D01*
X145289047Y-70124819D02*
X145384285Y-70172438D01*
X145384285Y-70172438D02*
X145431904Y-70220057D01*
X145431904Y-70220057D02*
X145479523Y-70315295D01*
X145479523Y-70315295D02*
X145527142Y-70505771D01*
X145527142Y-70505771D02*
X145527142Y-70743866D01*
X145527142Y-70743866D02*
X145479523Y-70934342D01*
X145479523Y-70934342D02*
X145431904Y-71029580D01*
X145431904Y-71029580D02*
X145384285Y-71077200D01*
X145384285Y-71077200D02*
X145289047Y-71124819D01*
X145289047Y-71124819D02*
X145193809Y-71124819D01*
X145193809Y-71124819D02*
X145098571Y-71077200D01*
X145098571Y-71077200D02*
X145050952Y-71029580D01*
X145050952Y-71029580D02*
X145003333Y-70934342D01*
X145003333Y-70934342D02*
X144955714Y-70743866D01*
X144955714Y-70743866D02*
X144955714Y-70505771D01*
X144955714Y-70505771D02*
X145003333Y-70315295D01*
X145003333Y-70315295D02*
X145050952Y-70220057D01*
X145050952Y-70220057D02*
X145098571Y-70172438D01*
X145098571Y-70172438D02*
X145193809Y-70124819D01*
X145955714Y-71124819D02*
X145955714Y-70124819D01*
X146050952Y-70743866D02*
X146336666Y-71124819D01*
X146336666Y-70458152D02*
X145955714Y-70839104D01*
X144527142Y-65684819D02*
X144193809Y-65208628D01*
X143955714Y-65684819D02*
X143955714Y-64684819D01*
X143955714Y-64684819D02*
X144336666Y-64684819D01*
X144336666Y-64684819D02*
X144431904Y-64732438D01*
X144431904Y-64732438D02*
X144479523Y-64780057D01*
X144479523Y-64780057D02*
X144527142Y-64875295D01*
X144527142Y-64875295D02*
X144527142Y-65018152D01*
X144527142Y-65018152D02*
X144479523Y-65113390D01*
X144479523Y-65113390D02*
X144431904Y-65161009D01*
X144431904Y-65161009D02*
X144336666Y-65208628D01*
X144336666Y-65208628D02*
X143955714Y-65208628D01*
X144908095Y-64780057D02*
X144955714Y-64732438D01*
X144955714Y-64732438D02*
X145050952Y-64684819D01*
X145050952Y-64684819D02*
X145289047Y-64684819D01*
X145289047Y-64684819D02*
X145384285Y-64732438D01*
X145384285Y-64732438D02*
X145431904Y-64780057D01*
X145431904Y-64780057D02*
X145479523Y-64875295D01*
X145479523Y-64875295D02*
X145479523Y-64970533D01*
X145479523Y-64970533D02*
X145431904Y-65113390D01*
X145431904Y-65113390D02*
X144860476Y-65684819D01*
X144860476Y-65684819D02*
X145479523Y-65684819D01*
X146098571Y-64684819D02*
X146193809Y-64684819D01*
X146193809Y-64684819D02*
X146289047Y-64732438D01*
X146289047Y-64732438D02*
X146336666Y-64780057D01*
X146336666Y-64780057D02*
X146384285Y-64875295D01*
X146384285Y-64875295D02*
X146431904Y-65065771D01*
X146431904Y-65065771D02*
X146431904Y-65303866D01*
X146431904Y-65303866D02*
X146384285Y-65494342D01*
X146384285Y-65494342D02*
X146336666Y-65589580D01*
X146336666Y-65589580D02*
X146289047Y-65637200D01*
X146289047Y-65637200D02*
X146193809Y-65684819D01*
X146193809Y-65684819D02*
X146098571Y-65684819D01*
X146098571Y-65684819D02*
X146003333Y-65637200D01*
X146003333Y-65637200D02*
X145955714Y-65589580D01*
X145955714Y-65589580D02*
X145908095Y-65494342D01*
X145908095Y-65494342D02*
X145860476Y-65303866D01*
X145860476Y-65303866D02*
X145860476Y-65065771D01*
X145860476Y-65065771D02*
X145908095Y-64875295D01*
X145908095Y-64875295D02*
X145955714Y-64780057D01*
X145955714Y-64780057D02*
X146003333Y-64732438D01*
X146003333Y-64732438D02*
X146098571Y-64684819D01*
X124533333Y-74970057D02*
X124580952Y-74922438D01*
X124580952Y-74922438D02*
X124676190Y-74874819D01*
X124676190Y-74874819D02*
X124914285Y-74874819D01*
X124914285Y-74874819D02*
X125009523Y-74922438D01*
X125009523Y-74922438D02*
X125057142Y-74970057D01*
X125057142Y-74970057D02*
X125104761Y-75065295D01*
X125104761Y-75065295D02*
X125104761Y-75160533D01*
X125104761Y-75160533D02*
X125057142Y-75303390D01*
X125057142Y-75303390D02*
X124485714Y-75874819D01*
X124485714Y-75874819D02*
X125104761Y-75874819D01*
X125723809Y-74874819D02*
X125819047Y-74874819D01*
X125819047Y-74874819D02*
X125914285Y-74922438D01*
X125914285Y-74922438D02*
X125961904Y-74970057D01*
X125961904Y-74970057D02*
X126009523Y-75065295D01*
X126009523Y-75065295D02*
X126057142Y-75255771D01*
X126057142Y-75255771D02*
X126057142Y-75493866D01*
X126057142Y-75493866D02*
X126009523Y-75684342D01*
X126009523Y-75684342D02*
X125961904Y-75779580D01*
X125961904Y-75779580D02*
X125914285Y-75827200D01*
X125914285Y-75827200D02*
X125819047Y-75874819D01*
X125819047Y-75874819D02*
X125723809Y-75874819D01*
X125723809Y-75874819D02*
X125628571Y-75827200D01*
X125628571Y-75827200D02*
X125580952Y-75779580D01*
X125580952Y-75779580D02*
X125533333Y-75684342D01*
X125533333Y-75684342D02*
X125485714Y-75493866D01*
X125485714Y-75493866D02*
X125485714Y-75255771D01*
X125485714Y-75255771D02*
X125533333Y-75065295D01*
X125533333Y-75065295D02*
X125580952Y-74970057D01*
X125580952Y-74970057D02*
X125628571Y-74922438D01*
X125628571Y-74922438D02*
X125723809Y-74874819D01*
X126485714Y-75874819D02*
X126485714Y-74874819D01*
X126580952Y-75493866D02*
X126866666Y-75874819D01*
X126866666Y-75208152D02*
X126485714Y-75589104D01*
X125533333Y-70434819D02*
X125200000Y-69958628D01*
X124961905Y-70434819D02*
X124961905Y-69434819D01*
X124961905Y-69434819D02*
X125342857Y-69434819D01*
X125342857Y-69434819D02*
X125438095Y-69482438D01*
X125438095Y-69482438D02*
X125485714Y-69530057D01*
X125485714Y-69530057D02*
X125533333Y-69625295D01*
X125533333Y-69625295D02*
X125533333Y-69768152D01*
X125533333Y-69768152D02*
X125485714Y-69863390D01*
X125485714Y-69863390D02*
X125438095Y-69911009D01*
X125438095Y-69911009D02*
X125342857Y-69958628D01*
X125342857Y-69958628D02*
X124961905Y-69958628D01*
X126390476Y-69434819D02*
X126200000Y-69434819D01*
X126200000Y-69434819D02*
X126104762Y-69482438D01*
X126104762Y-69482438D02*
X126057143Y-69530057D01*
X126057143Y-69530057D02*
X125961905Y-69672914D01*
X125961905Y-69672914D02*
X125914286Y-69863390D01*
X125914286Y-69863390D02*
X125914286Y-70244342D01*
X125914286Y-70244342D02*
X125961905Y-70339580D01*
X125961905Y-70339580D02*
X126009524Y-70387200D01*
X126009524Y-70387200D02*
X126104762Y-70434819D01*
X126104762Y-70434819D02*
X126295238Y-70434819D01*
X126295238Y-70434819D02*
X126390476Y-70387200D01*
X126390476Y-70387200D02*
X126438095Y-70339580D01*
X126438095Y-70339580D02*
X126485714Y-70244342D01*
X126485714Y-70244342D02*
X126485714Y-70006247D01*
X126485714Y-70006247D02*
X126438095Y-69911009D01*
X126438095Y-69911009D02*
X126390476Y-69863390D01*
X126390476Y-69863390D02*
X126295238Y-69815771D01*
X126295238Y-69815771D02*
X126104762Y-69815771D01*
X126104762Y-69815771D02*
X126009524Y-69863390D01*
X126009524Y-69863390D02*
X125961905Y-69911009D01*
X125961905Y-69911009D02*
X125914286Y-70006247D01*
X125106667Y-89749104D02*
X125582857Y-89749104D01*
X125011429Y-90034819D02*
X125344762Y-89034819D01*
X125344762Y-89034819D02*
X125678095Y-90034819D01*
X126011429Y-89034819D02*
X126011429Y-89844342D01*
X126011429Y-89844342D02*
X126059048Y-89939580D01*
X126059048Y-89939580D02*
X126106667Y-89987200D01*
X126106667Y-89987200D02*
X126201905Y-90034819D01*
X126201905Y-90034819D02*
X126392381Y-90034819D01*
X126392381Y-90034819D02*
X126487619Y-89987200D01*
X126487619Y-89987200D02*
X126535238Y-89939580D01*
X126535238Y-89939580D02*
X126582857Y-89844342D01*
X126582857Y-89844342D02*
X126582857Y-89034819D01*
X127059048Y-90034819D02*
X127059048Y-89034819D01*
X127059048Y-89034819D02*
X127297143Y-89034819D01*
X127297143Y-89034819D02*
X127440000Y-89082438D01*
X127440000Y-89082438D02*
X127535238Y-89177676D01*
X127535238Y-89177676D02*
X127582857Y-89272914D01*
X127582857Y-89272914D02*
X127630476Y-89463390D01*
X127630476Y-89463390D02*
X127630476Y-89606247D01*
X127630476Y-89606247D02*
X127582857Y-89796723D01*
X127582857Y-89796723D02*
X127535238Y-89891961D01*
X127535238Y-89891961D02*
X127440000Y-89987200D01*
X127440000Y-89987200D02*
X127297143Y-90034819D01*
X127297143Y-90034819D02*
X127059048Y-90034819D01*
X128059048Y-90034819D02*
X128059048Y-89034819D01*
X128725714Y-89034819D02*
X128916190Y-89034819D01*
X128916190Y-89034819D02*
X129011428Y-89082438D01*
X129011428Y-89082438D02*
X129106666Y-89177676D01*
X129106666Y-89177676D02*
X129154285Y-89368152D01*
X129154285Y-89368152D02*
X129154285Y-89701485D01*
X129154285Y-89701485D02*
X129106666Y-89891961D01*
X129106666Y-89891961D02*
X129011428Y-89987200D01*
X129011428Y-89987200D02*
X128916190Y-90034819D01*
X128916190Y-90034819D02*
X128725714Y-90034819D01*
X128725714Y-90034819D02*
X128630476Y-89987200D01*
X128630476Y-89987200D02*
X128535238Y-89891961D01*
X128535238Y-89891961D02*
X128487619Y-89701485D01*
X128487619Y-89701485D02*
X128487619Y-89368152D01*
X128487619Y-89368152D02*
X128535238Y-89177676D01*
X128535238Y-89177676D02*
X128630476Y-89082438D01*
X128630476Y-89082438D02*
X128725714Y-89034819D01*
X129344762Y-90130057D02*
X130106666Y-90130057D01*
X130535238Y-89034819D02*
X130725714Y-89034819D01*
X130725714Y-89034819D02*
X130820952Y-89082438D01*
X130820952Y-89082438D02*
X130916190Y-89177676D01*
X130916190Y-89177676D02*
X130963809Y-89368152D01*
X130963809Y-89368152D02*
X130963809Y-89701485D01*
X130963809Y-89701485D02*
X130916190Y-89891961D01*
X130916190Y-89891961D02*
X130820952Y-89987200D01*
X130820952Y-89987200D02*
X130725714Y-90034819D01*
X130725714Y-90034819D02*
X130535238Y-90034819D01*
X130535238Y-90034819D02*
X130440000Y-89987200D01*
X130440000Y-89987200D02*
X130344762Y-89891961D01*
X130344762Y-89891961D02*
X130297143Y-89701485D01*
X130297143Y-89701485D02*
X130297143Y-89368152D01*
X130297143Y-89368152D02*
X130344762Y-89177676D01*
X130344762Y-89177676D02*
X130440000Y-89082438D01*
X130440000Y-89082438D02*
X130535238Y-89034819D01*
X131392381Y-89034819D02*
X131392381Y-89844342D01*
X131392381Y-89844342D02*
X131440000Y-89939580D01*
X131440000Y-89939580D02*
X131487619Y-89987200D01*
X131487619Y-89987200D02*
X131582857Y-90034819D01*
X131582857Y-90034819D02*
X131773333Y-90034819D01*
X131773333Y-90034819D02*
X131868571Y-89987200D01*
X131868571Y-89987200D02*
X131916190Y-89939580D01*
X131916190Y-89939580D02*
X131963809Y-89844342D01*
X131963809Y-89844342D02*
X131963809Y-89034819D01*
X132297143Y-89034819D02*
X132868571Y-89034819D01*
X132582857Y-90034819D02*
X132582857Y-89034819D01*
X128394819Y-84993333D02*
X129109104Y-84993333D01*
X129109104Y-84993333D02*
X129251961Y-85040952D01*
X129251961Y-85040952D02*
X129347200Y-85136190D01*
X129347200Y-85136190D02*
X129394819Y-85279047D01*
X129394819Y-85279047D02*
X129394819Y-85374285D01*
X128394819Y-84612380D02*
X128394819Y-83945714D01*
X128394819Y-83945714D02*
X129394819Y-84374285D01*
X131023333Y-70220057D02*
X131070952Y-70172438D01*
X131070952Y-70172438D02*
X131166190Y-70124819D01*
X131166190Y-70124819D02*
X131404285Y-70124819D01*
X131404285Y-70124819D02*
X131499523Y-70172438D01*
X131499523Y-70172438D02*
X131547142Y-70220057D01*
X131547142Y-70220057D02*
X131594761Y-70315295D01*
X131594761Y-70315295D02*
X131594761Y-70410533D01*
X131594761Y-70410533D02*
X131547142Y-70553390D01*
X131547142Y-70553390D02*
X130975714Y-71124819D01*
X130975714Y-71124819D02*
X131594761Y-71124819D01*
X132213809Y-70124819D02*
X132309047Y-70124819D01*
X132309047Y-70124819D02*
X132404285Y-70172438D01*
X132404285Y-70172438D02*
X132451904Y-70220057D01*
X132451904Y-70220057D02*
X132499523Y-70315295D01*
X132499523Y-70315295D02*
X132547142Y-70505771D01*
X132547142Y-70505771D02*
X132547142Y-70743866D01*
X132547142Y-70743866D02*
X132499523Y-70934342D01*
X132499523Y-70934342D02*
X132451904Y-71029580D01*
X132451904Y-71029580D02*
X132404285Y-71077200D01*
X132404285Y-71077200D02*
X132309047Y-71124819D01*
X132309047Y-71124819D02*
X132213809Y-71124819D01*
X132213809Y-71124819D02*
X132118571Y-71077200D01*
X132118571Y-71077200D02*
X132070952Y-71029580D01*
X132070952Y-71029580D02*
X132023333Y-70934342D01*
X132023333Y-70934342D02*
X131975714Y-70743866D01*
X131975714Y-70743866D02*
X131975714Y-70505771D01*
X131975714Y-70505771D02*
X132023333Y-70315295D01*
X132023333Y-70315295D02*
X132070952Y-70220057D01*
X132070952Y-70220057D02*
X132118571Y-70172438D01*
X132118571Y-70172438D02*
X132213809Y-70124819D01*
X132975714Y-71124819D02*
X132975714Y-70124819D01*
X133070952Y-70743866D02*
X133356666Y-71124819D01*
X133356666Y-70458152D02*
X132975714Y-70839104D01*
X131547142Y-65684819D02*
X131213809Y-65208628D01*
X130975714Y-65684819D02*
X130975714Y-64684819D01*
X130975714Y-64684819D02*
X131356666Y-64684819D01*
X131356666Y-64684819D02*
X131451904Y-64732438D01*
X131451904Y-64732438D02*
X131499523Y-64780057D01*
X131499523Y-64780057D02*
X131547142Y-64875295D01*
X131547142Y-64875295D02*
X131547142Y-65018152D01*
X131547142Y-65018152D02*
X131499523Y-65113390D01*
X131499523Y-65113390D02*
X131451904Y-65161009D01*
X131451904Y-65161009D02*
X131356666Y-65208628D01*
X131356666Y-65208628D02*
X130975714Y-65208628D01*
X132499523Y-65684819D02*
X131928095Y-65684819D01*
X132213809Y-65684819D02*
X132213809Y-64684819D01*
X132213809Y-64684819D02*
X132118571Y-64827676D01*
X132118571Y-64827676D02*
X132023333Y-64922914D01*
X132023333Y-64922914D02*
X131928095Y-64970533D01*
X133118571Y-64684819D02*
X133213809Y-64684819D01*
X133213809Y-64684819D02*
X133309047Y-64732438D01*
X133309047Y-64732438D02*
X133356666Y-64780057D01*
X133356666Y-64780057D02*
X133404285Y-64875295D01*
X133404285Y-64875295D02*
X133451904Y-65065771D01*
X133451904Y-65065771D02*
X133451904Y-65303866D01*
X133451904Y-65303866D02*
X133404285Y-65494342D01*
X133404285Y-65494342D02*
X133356666Y-65589580D01*
X133356666Y-65589580D02*
X133309047Y-65637200D01*
X133309047Y-65637200D02*
X133213809Y-65684819D01*
X133213809Y-65684819D02*
X133118571Y-65684819D01*
X133118571Y-65684819D02*
X133023333Y-65637200D01*
X133023333Y-65637200D02*
X132975714Y-65589580D01*
X132975714Y-65589580D02*
X132928095Y-65494342D01*
X132928095Y-65494342D02*
X132880476Y-65303866D01*
X132880476Y-65303866D02*
X132880476Y-65065771D01*
X132880476Y-65065771D02*
X132928095Y-64875295D01*
X132928095Y-64875295D02*
X132975714Y-64780057D01*
X132975714Y-64780057D02*
X133023333Y-64732438D01*
X133023333Y-64732438D02*
X133118571Y-64684819D01*
X148084819Y-57267618D02*
X147084819Y-57267618D01*
X148084819Y-56791428D02*
X147084819Y-56791428D01*
X147084819Y-56791428D02*
X147799104Y-56458095D01*
X147799104Y-56458095D02*
X147084819Y-56124762D01*
X147084819Y-56124762D02*
X148084819Y-56124762D01*
X147084819Y-55648571D02*
X147894342Y-55648571D01*
X147894342Y-55648571D02*
X147989580Y-55600952D01*
X147989580Y-55600952D02*
X148037200Y-55553333D01*
X148037200Y-55553333D02*
X148084819Y-55458095D01*
X148084819Y-55458095D02*
X148084819Y-55267619D01*
X148084819Y-55267619D02*
X148037200Y-55172381D01*
X148037200Y-55172381D02*
X147989580Y-55124762D01*
X147989580Y-55124762D02*
X147894342Y-55077143D01*
X147894342Y-55077143D02*
X147084819Y-55077143D01*
X148180057Y-54839048D02*
X148180057Y-54077143D01*
X147989580Y-53267619D02*
X148037200Y-53315238D01*
X148037200Y-53315238D02*
X148084819Y-53458095D01*
X148084819Y-53458095D02*
X148084819Y-53553333D01*
X148084819Y-53553333D02*
X148037200Y-53696190D01*
X148037200Y-53696190D02*
X147941961Y-53791428D01*
X147941961Y-53791428D02*
X147846723Y-53839047D01*
X147846723Y-53839047D02*
X147656247Y-53886666D01*
X147656247Y-53886666D02*
X147513390Y-53886666D01*
X147513390Y-53886666D02*
X147322914Y-53839047D01*
X147322914Y-53839047D02*
X147227676Y-53791428D01*
X147227676Y-53791428D02*
X147132438Y-53696190D01*
X147132438Y-53696190D02*
X147084819Y-53553333D01*
X147084819Y-53553333D02*
X147084819Y-53458095D01*
X147084819Y-53458095D02*
X147132438Y-53315238D01*
X147132438Y-53315238D02*
X147180057Y-53267619D01*
X147084819Y-52648571D02*
X147084819Y-52458095D01*
X147084819Y-52458095D02*
X147132438Y-52362857D01*
X147132438Y-52362857D02*
X147227676Y-52267619D01*
X147227676Y-52267619D02*
X147418152Y-52220000D01*
X147418152Y-52220000D02*
X147751485Y-52220000D01*
X147751485Y-52220000D02*
X147941961Y-52267619D01*
X147941961Y-52267619D02*
X148037200Y-52362857D01*
X148037200Y-52362857D02*
X148084819Y-52458095D01*
X148084819Y-52458095D02*
X148084819Y-52648571D01*
X148084819Y-52648571D02*
X148037200Y-52743809D01*
X148037200Y-52743809D02*
X147941961Y-52839047D01*
X147941961Y-52839047D02*
X147751485Y-52886666D01*
X147751485Y-52886666D02*
X147418152Y-52886666D01*
X147418152Y-52886666D02*
X147227676Y-52839047D01*
X147227676Y-52839047D02*
X147132438Y-52743809D01*
X147132438Y-52743809D02*
X147084819Y-52648571D01*
X148084819Y-51791428D02*
X147084819Y-51791428D01*
X147084819Y-51791428D02*
X148084819Y-51220000D01*
X148084819Y-51220000D02*
X147084819Y-51220000D01*
X148084819Y-50743809D02*
X147084819Y-50743809D01*
X147084819Y-50743809D02*
X148084819Y-50172381D01*
X148084819Y-50172381D02*
X147084819Y-50172381D01*
X135636666Y-53174819D02*
X135636666Y-53889104D01*
X135636666Y-53889104D02*
X135589047Y-54031961D01*
X135589047Y-54031961D02*
X135493809Y-54127200D01*
X135493809Y-54127200D02*
X135350952Y-54174819D01*
X135350952Y-54174819D02*
X135255714Y-54174819D01*
X136589047Y-53174819D02*
X136112857Y-53174819D01*
X136112857Y-53174819D02*
X136065238Y-53651009D01*
X136065238Y-53651009D02*
X136112857Y-53603390D01*
X136112857Y-53603390D02*
X136208095Y-53555771D01*
X136208095Y-53555771D02*
X136446190Y-53555771D01*
X136446190Y-53555771D02*
X136541428Y-53603390D01*
X136541428Y-53603390D02*
X136589047Y-53651009D01*
X136589047Y-53651009D02*
X136636666Y-53746247D01*
X136636666Y-53746247D02*
X136636666Y-53984342D01*
X136636666Y-53984342D02*
X136589047Y-54079580D01*
X136589047Y-54079580D02*
X136541428Y-54127200D01*
X136541428Y-54127200D02*
X136446190Y-54174819D01*
X136446190Y-54174819D02*
X136208095Y-54174819D01*
X136208095Y-54174819D02*
X136112857Y-54127200D01*
X136112857Y-54127200D02*
X136065238Y-54079580D01*
X150493333Y-74970057D02*
X150540952Y-74922438D01*
X150540952Y-74922438D02*
X150636190Y-74874819D01*
X150636190Y-74874819D02*
X150874285Y-74874819D01*
X150874285Y-74874819D02*
X150969523Y-74922438D01*
X150969523Y-74922438D02*
X151017142Y-74970057D01*
X151017142Y-74970057D02*
X151064761Y-75065295D01*
X151064761Y-75065295D02*
X151064761Y-75160533D01*
X151064761Y-75160533D02*
X151017142Y-75303390D01*
X151017142Y-75303390D02*
X150445714Y-75874819D01*
X150445714Y-75874819D02*
X151064761Y-75874819D01*
X151683809Y-74874819D02*
X151779047Y-74874819D01*
X151779047Y-74874819D02*
X151874285Y-74922438D01*
X151874285Y-74922438D02*
X151921904Y-74970057D01*
X151921904Y-74970057D02*
X151969523Y-75065295D01*
X151969523Y-75065295D02*
X152017142Y-75255771D01*
X152017142Y-75255771D02*
X152017142Y-75493866D01*
X152017142Y-75493866D02*
X151969523Y-75684342D01*
X151969523Y-75684342D02*
X151921904Y-75779580D01*
X151921904Y-75779580D02*
X151874285Y-75827200D01*
X151874285Y-75827200D02*
X151779047Y-75874819D01*
X151779047Y-75874819D02*
X151683809Y-75874819D01*
X151683809Y-75874819D02*
X151588571Y-75827200D01*
X151588571Y-75827200D02*
X151540952Y-75779580D01*
X151540952Y-75779580D02*
X151493333Y-75684342D01*
X151493333Y-75684342D02*
X151445714Y-75493866D01*
X151445714Y-75493866D02*
X151445714Y-75255771D01*
X151445714Y-75255771D02*
X151493333Y-75065295D01*
X151493333Y-75065295D02*
X151540952Y-74970057D01*
X151540952Y-74970057D02*
X151588571Y-74922438D01*
X151588571Y-74922438D02*
X151683809Y-74874819D01*
X152445714Y-75874819D02*
X152445714Y-74874819D01*
X152540952Y-75493866D02*
X152826666Y-75874819D01*
X152826666Y-75208152D02*
X152445714Y-75589104D01*
X151017142Y-70434819D02*
X150683809Y-69958628D01*
X150445714Y-70434819D02*
X150445714Y-69434819D01*
X150445714Y-69434819D02*
X150826666Y-69434819D01*
X150826666Y-69434819D02*
X150921904Y-69482438D01*
X150921904Y-69482438D02*
X150969523Y-69530057D01*
X150969523Y-69530057D02*
X151017142Y-69625295D01*
X151017142Y-69625295D02*
X151017142Y-69768152D01*
X151017142Y-69768152D02*
X150969523Y-69863390D01*
X150969523Y-69863390D02*
X150921904Y-69911009D01*
X150921904Y-69911009D02*
X150826666Y-69958628D01*
X150826666Y-69958628D02*
X150445714Y-69958628D01*
X151398095Y-69530057D02*
X151445714Y-69482438D01*
X151445714Y-69482438D02*
X151540952Y-69434819D01*
X151540952Y-69434819D02*
X151779047Y-69434819D01*
X151779047Y-69434819D02*
X151874285Y-69482438D01*
X151874285Y-69482438D02*
X151921904Y-69530057D01*
X151921904Y-69530057D02*
X151969523Y-69625295D01*
X151969523Y-69625295D02*
X151969523Y-69720533D01*
X151969523Y-69720533D02*
X151921904Y-69863390D01*
X151921904Y-69863390D02*
X151350476Y-70434819D01*
X151350476Y-70434819D02*
X151969523Y-70434819D01*
X152826666Y-69434819D02*
X152636190Y-69434819D01*
X152636190Y-69434819D02*
X152540952Y-69482438D01*
X152540952Y-69482438D02*
X152493333Y-69530057D01*
X152493333Y-69530057D02*
X152398095Y-69672914D01*
X152398095Y-69672914D02*
X152350476Y-69863390D01*
X152350476Y-69863390D02*
X152350476Y-70244342D01*
X152350476Y-70244342D02*
X152398095Y-70339580D01*
X152398095Y-70339580D02*
X152445714Y-70387200D01*
X152445714Y-70387200D02*
X152540952Y-70434819D01*
X152540952Y-70434819D02*
X152731428Y-70434819D01*
X152731428Y-70434819D02*
X152826666Y-70387200D01*
X152826666Y-70387200D02*
X152874285Y-70339580D01*
X152874285Y-70339580D02*
X152921904Y-70244342D01*
X152921904Y-70244342D02*
X152921904Y-70006247D01*
X152921904Y-70006247D02*
X152874285Y-69911009D01*
X152874285Y-69911009D02*
X152826666Y-69863390D01*
X152826666Y-69863390D02*
X152731428Y-69815771D01*
X152731428Y-69815771D02*
X152540952Y-69815771D01*
X152540952Y-69815771D02*
X152445714Y-69863390D01*
X152445714Y-69863390D02*
X152398095Y-69911009D01*
X152398095Y-69911009D02*
X152350476Y-70006247D01*
X187573809Y-63389104D02*
X188049999Y-63389104D01*
X187478571Y-63674819D02*
X187811904Y-62674819D01*
X187811904Y-62674819D02*
X188145237Y-63674819D01*
X188907142Y-63008152D02*
X188907142Y-63674819D01*
X188478571Y-63008152D02*
X188478571Y-63531961D01*
X188478571Y-63531961D02*
X188526190Y-63627200D01*
X188526190Y-63627200D02*
X188621428Y-63674819D01*
X188621428Y-63674819D02*
X188764285Y-63674819D01*
X188764285Y-63674819D02*
X188859523Y-63627200D01*
X188859523Y-63627200D02*
X188907142Y-63579580D01*
X189811904Y-63674819D02*
X189811904Y-62674819D01*
X189811904Y-63627200D02*
X189716666Y-63674819D01*
X189716666Y-63674819D02*
X189526190Y-63674819D01*
X189526190Y-63674819D02*
X189430952Y-63627200D01*
X189430952Y-63627200D02*
X189383333Y-63579580D01*
X189383333Y-63579580D02*
X189335714Y-63484342D01*
X189335714Y-63484342D02*
X189335714Y-63198628D01*
X189335714Y-63198628D02*
X189383333Y-63103390D01*
X189383333Y-63103390D02*
X189430952Y-63055771D01*
X189430952Y-63055771D02*
X189526190Y-63008152D01*
X189526190Y-63008152D02*
X189716666Y-63008152D01*
X189716666Y-63008152D02*
X189811904Y-63055771D01*
X190288095Y-63674819D02*
X190288095Y-63008152D01*
X190288095Y-62674819D02*
X190240476Y-62722438D01*
X190240476Y-62722438D02*
X190288095Y-62770057D01*
X190288095Y-62770057D02*
X190335714Y-62722438D01*
X190335714Y-62722438D02*
X190288095Y-62674819D01*
X190288095Y-62674819D02*
X190288095Y-62770057D01*
X190907142Y-63674819D02*
X190811904Y-63627200D01*
X190811904Y-63627200D02*
X190764285Y-63579580D01*
X190764285Y-63579580D02*
X190716666Y-63484342D01*
X190716666Y-63484342D02*
X190716666Y-63198628D01*
X190716666Y-63198628D02*
X190764285Y-63103390D01*
X190764285Y-63103390D02*
X190811904Y-63055771D01*
X190811904Y-63055771D02*
X190907142Y-63008152D01*
X190907142Y-63008152D02*
X191049999Y-63008152D01*
X191049999Y-63008152D02*
X191145237Y-63055771D01*
X191145237Y-63055771D02*
X191192856Y-63103390D01*
X191192856Y-63103390D02*
X191240475Y-63198628D01*
X191240475Y-63198628D02*
X191240475Y-63484342D01*
X191240475Y-63484342D02*
X191192856Y-63579580D01*
X191192856Y-63579580D02*
X191145237Y-63627200D01*
X191145237Y-63627200D02*
X191049999Y-63674819D01*
X191049999Y-63674819D02*
X190907142Y-63674819D01*
X191954761Y-62674819D02*
X191954761Y-63389104D01*
X191954761Y-63389104D02*
X191907142Y-63531961D01*
X191907142Y-63531961D02*
X191811904Y-63627200D01*
X191811904Y-63627200D02*
X191669047Y-63674819D01*
X191669047Y-63674819D02*
X191573809Y-63674819D01*
X192859523Y-63674819D02*
X192859523Y-63151009D01*
X192859523Y-63151009D02*
X192811904Y-63055771D01*
X192811904Y-63055771D02*
X192716666Y-63008152D01*
X192716666Y-63008152D02*
X192526190Y-63008152D01*
X192526190Y-63008152D02*
X192430952Y-63055771D01*
X192859523Y-63627200D02*
X192764285Y-63674819D01*
X192764285Y-63674819D02*
X192526190Y-63674819D01*
X192526190Y-63674819D02*
X192430952Y-63627200D01*
X192430952Y-63627200D02*
X192383333Y-63531961D01*
X192383333Y-63531961D02*
X192383333Y-63436723D01*
X192383333Y-63436723D02*
X192430952Y-63341485D01*
X192430952Y-63341485D02*
X192526190Y-63293866D01*
X192526190Y-63293866D02*
X192764285Y-63293866D01*
X192764285Y-63293866D02*
X192859523Y-63246247D01*
X193764285Y-63627200D02*
X193669047Y-63674819D01*
X193669047Y-63674819D02*
X193478571Y-63674819D01*
X193478571Y-63674819D02*
X193383333Y-63627200D01*
X193383333Y-63627200D02*
X193335714Y-63579580D01*
X193335714Y-63579580D02*
X193288095Y-63484342D01*
X193288095Y-63484342D02*
X193288095Y-63198628D01*
X193288095Y-63198628D02*
X193335714Y-63103390D01*
X193335714Y-63103390D02*
X193383333Y-63055771D01*
X193383333Y-63055771D02*
X193478571Y-63008152D01*
X193478571Y-63008152D02*
X193669047Y-63008152D01*
X193669047Y-63008152D02*
X193764285Y-63055771D01*
X194192857Y-63674819D02*
X194192857Y-62674819D01*
X194288095Y-63293866D02*
X194573809Y-63674819D01*
X194573809Y-63008152D02*
X194192857Y-63389104D01*
X195478571Y-62674819D02*
X195002381Y-62674819D01*
X195002381Y-62674819D02*
X194954762Y-63151009D01*
X194954762Y-63151009D02*
X195002381Y-63103390D01*
X195002381Y-63103390D02*
X195097619Y-63055771D01*
X195097619Y-63055771D02*
X195335714Y-63055771D01*
X195335714Y-63055771D02*
X195430952Y-63103390D01*
X195430952Y-63103390D02*
X195478571Y-63151009D01*
X195478571Y-63151009D02*
X195526190Y-63246247D01*
X195526190Y-63246247D02*
X195526190Y-63484342D01*
X195526190Y-63484342D02*
X195478571Y-63579580D01*
X195478571Y-63579580D02*
X195430952Y-63627200D01*
X195430952Y-63627200D02*
X195335714Y-63674819D01*
X195335714Y-63674819D02*
X195097619Y-63674819D01*
X195097619Y-63674819D02*
X195002381Y-63627200D01*
X195002381Y-63627200D02*
X194954762Y-63579580D01*
X190740476Y-71174819D02*
X190740476Y-71889104D01*
X190740476Y-71889104D02*
X190692857Y-72031961D01*
X190692857Y-72031961D02*
X190597619Y-72127200D01*
X190597619Y-72127200D02*
X190454762Y-72174819D01*
X190454762Y-72174819D02*
X190359524Y-72174819D01*
X191740476Y-72174819D02*
X191169048Y-72174819D01*
X191454762Y-72174819D02*
X191454762Y-71174819D01*
X191454762Y-71174819D02*
X191359524Y-71317676D01*
X191359524Y-71317676D02*
X191264286Y-71412914D01*
X191264286Y-71412914D02*
X191169048Y-71460533D01*
X192692857Y-72174819D02*
X192121429Y-72174819D01*
X192407143Y-72174819D02*
X192407143Y-71174819D01*
X192407143Y-71174819D02*
X192311905Y-71317676D01*
X192311905Y-71317676D02*
X192216667Y-71412914D01*
X192216667Y-71412914D02*
X192121429Y-71460533D01*
X125104761Y-71124819D02*
X124533333Y-71124819D01*
X124819047Y-71124819D02*
X124819047Y-70124819D01*
X124819047Y-70124819D02*
X124723809Y-70267676D01*
X124723809Y-70267676D02*
X124628571Y-70362914D01*
X124628571Y-70362914D02*
X124533333Y-70410533D01*
X125723809Y-70124819D02*
X125819047Y-70124819D01*
X125819047Y-70124819D02*
X125914285Y-70172438D01*
X125914285Y-70172438D02*
X125961904Y-70220057D01*
X125961904Y-70220057D02*
X126009523Y-70315295D01*
X126009523Y-70315295D02*
X126057142Y-70505771D01*
X126057142Y-70505771D02*
X126057142Y-70743866D01*
X126057142Y-70743866D02*
X126009523Y-70934342D01*
X126009523Y-70934342D02*
X125961904Y-71029580D01*
X125961904Y-71029580D02*
X125914285Y-71077200D01*
X125914285Y-71077200D02*
X125819047Y-71124819D01*
X125819047Y-71124819D02*
X125723809Y-71124819D01*
X125723809Y-71124819D02*
X125628571Y-71077200D01*
X125628571Y-71077200D02*
X125580952Y-71029580D01*
X125580952Y-71029580D02*
X125533333Y-70934342D01*
X125533333Y-70934342D02*
X125485714Y-70743866D01*
X125485714Y-70743866D02*
X125485714Y-70505771D01*
X125485714Y-70505771D02*
X125533333Y-70315295D01*
X125533333Y-70315295D02*
X125580952Y-70220057D01*
X125580952Y-70220057D02*
X125628571Y-70172438D01*
X125628571Y-70172438D02*
X125723809Y-70124819D01*
X126485714Y-71124819D02*
X126485714Y-70124819D01*
X126580952Y-70743866D02*
X126866666Y-71124819D01*
X126866666Y-70458152D02*
X126485714Y-70839104D01*
X125533333Y-65684819D02*
X125200000Y-65208628D01*
X124961905Y-65684819D02*
X124961905Y-64684819D01*
X124961905Y-64684819D02*
X125342857Y-64684819D01*
X125342857Y-64684819D02*
X125438095Y-64732438D01*
X125438095Y-64732438D02*
X125485714Y-64780057D01*
X125485714Y-64780057D02*
X125533333Y-64875295D01*
X125533333Y-64875295D02*
X125533333Y-65018152D01*
X125533333Y-65018152D02*
X125485714Y-65113390D01*
X125485714Y-65113390D02*
X125438095Y-65161009D01*
X125438095Y-65161009D02*
X125342857Y-65208628D01*
X125342857Y-65208628D02*
X124961905Y-65208628D01*
X126438095Y-64684819D02*
X125961905Y-64684819D01*
X125961905Y-64684819D02*
X125914286Y-65161009D01*
X125914286Y-65161009D02*
X125961905Y-65113390D01*
X125961905Y-65113390D02*
X126057143Y-65065771D01*
X126057143Y-65065771D02*
X126295238Y-65065771D01*
X126295238Y-65065771D02*
X126390476Y-65113390D01*
X126390476Y-65113390D02*
X126438095Y-65161009D01*
X126438095Y-65161009D02*
X126485714Y-65256247D01*
X126485714Y-65256247D02*
X126485714Y-65494342D01*
X126485714Y-65494342D02*
X126438095Y-65589580D01*
X126438095Y-65589580D02*
X126390476Y-65637200D01*
X126390476Y-65637200D02*
X126295238Y-65684819D01*
X126295238Y-65684819D02*
X126057143Y-65684819D01*
X126057143Y-65684819D02*
X125961905Y-65637200D01*
X125961905Y-65637200D02*
X125914286Y-65589580D01*
X158308031Y-65888152D02*
X158308031Y-66554819D01*
X158069936Y-65507200D02*
X157831841Y-66221485D01*
X157831841Y-66221485D02*
X158450888Y-66221485D01*
X158736603Y-65554819D02*
X159403269Y-65554819D01*
X159403269Y-65554819D02*
X158974698Y-66554819D01*
X160212793Y-65888152D02*
X160212793Y-66554819D01*
X159784222Y-65888152D02*
X159784222Y-66411961D01*
X159784222Y-66411961D02*
X159831841Y-66507200D01*
X159831841Y-66507200D02*
X159927079Y-66554819D01*
X159927079Y-66554819D02*
X160069936Y-66554819D01*
X160069936Y-66554819D02*
X160165174Y-66507200D01*
X160165174Y-66507200D02*
X160212793Y-66459580D01*
X161022317Y-66031009D02*
X160688984Y-66031009D01*
X160688984Y-66554819D02*
X160688984Y-65554819D01*
X160688984Y-65554819D02*
X161165174Y-65554819D01*
X159308031Y-61209580D02*
X159260412Y-61257200D01*
X159260412Y-61257200D02*
X159117555Y-61304819D01*
X159117555Y-61304819D02*
X159022317Y-61304819D01*
X159022317Y-61304819D02*
X158879460Y-61257200D01*
X158879460Y-61257200D02*
X158784222Y-61161961D01*
X158784222Y-61161961D02*
X158736603Y-61066723D01*
X158736603Y-61066723D02*
X158688984Y-60876247D01*
X158688984Y-60876247D02*
X158688984Y-60733390D01*
X158688984Y-60733390D02*
X158736603Y-60542914D01*
X158736603Y-60542914D02*
X158784222Y-60447676D01*
X158784222Y-60447676D02*
X158879460Y-60352438D01*
X158879460Y-60352438D02*
X159022317Y-60304819D01*
X159022317Y-60304819D02*
X159117555Y-60304819D01*
X159117555Y-60304819D02*
X159260412Y-60352438D01*
X159260412Y-60352438D02*
X159308031Y-60400057D01*
X160260412Y-61304819D02*
X159688984Y-61304819D01*
X159974698Y-61304819D02*
X159974698Y-60304819D01*
X159974698Y-60304819D02*
X159879460Y-60447676D01*
X159879460Y-60447676D02*
X159784222Y-60542914D01*
X159784222Y-60542914D02*
X159688984Y-60590533D01*
X150493333Y-65470057D02*
X150540952Y-65422438D01*
X150540952Y-65422438D02*
X150636190Y-65374819D01*
X150636190Y-65374819D02*
X150874285Y-65374819D01*
X150874285Y-65374819D02*
X150969523Y-65422438D01*
X150969523Y-65422438D02*
X151017142Y-65470057D01*
X151017142Y-65470057D02*
X151064761Y-65565295D01*
X151064761Y-65565295D02*
X151064761Y-65660533D01*
X151064761Y-65660533D02*
X151017142Y-65803390D01*
X151017142Y-65803390D02*
X150445714Y-66374819D01*
X150445714Y-66374819D02*
X151064761Y-66374819D01*
X151683809Y-65374819D02*
X151779047Y-65374819D01*
X151779047Y-65374819D02*
X151874285Y-65422438D01*
X151874285Y-65422438D02*
X151921904Y-65470057D01*
X151921904Y-65470057D02*
X151969523Y-65565295D01*
X151969523Y-65565295D02*
X152017142Y-65755771D01*
X152017142Y-65755771D02*
X152017142Y-65993866D01*
X152017142Y-65993866D02*
X151969523Y-66184342D01*
X151969523Y-66184342D02*
X151921904Y-66279580D01*
X151921904Y-66279580D02*
X151874285Y-66327200D01*
X151874285Y-66327200D02*
X151779047Y-66374819D01*
X151779047Y-66374819D02*
X151683809Y-66374819D01*
X151683809Y-66374819D02*
X151588571Y-66327200D01*
X151588571Y-66327200D02*
X151540952Y-66279580D01*
X151540952Y-66279580D02*
X151493333Y-66184342D01*
X151493333Y-66184342D02*
X151445714Y-65993866D01*
X151445714Y-65993866D02*
X151445714Y-65755771D01*
X151445714Y-65755771D02*
X151493333Y-65565295D01*
X151493333Y-65565295D02*
X151540952Y-65470057D01*
X151540952Y-65470057D02*
X151588571Y-65422438D01*
X151588571Y-65422438D02*
X151683809Y-65374819D01*
X152445714Y-66374819D02*
X152445714Y-65374819D01*
X152540952Y-65993866D02*
X152826666Y-66374819D01*
X152826666Y-65708152D02*
X152445714Y-66089104D01*
X151017142Y-60934819D02*
X150683809Y-60458628D01*
X150445714Y-60934819D02*
X150445714Y-59934819D01*
X150445714Y-59934819D02*
X150826666Y-59934819D01*
X150826666Y-59934819D02*
X150921904Y-59982438D01*
X150921904Y-59982438D02*
X150969523Y-60030057D01*
X150969523Y-60030057D02*
X151017142Y-60125295D01*
X151017142Y-60125295D02*
X151017142Y-60268152D01*
X151017142Y-60268152D02*
X150969523Y-60363390D01*
X150969523Y-60363390D02*
X150921904Y-60411009D01*
X150921904Y-60411009D02*
X150826666Y-60458628D01*
X150826666Y-60458628D02*
X150445714Y-60458628D01*
X151398095Y-60030057D02*
X151445714Y-59982438D01*
X151445714Y-59982438D02*
X151540952Y-59934819D01*
X151540952Y-59934819D02*
X151779047Y-59934819D01*
X151779047Y-59934819D02*
X151874285Y-59982438D01*
X151874285Y-59982438D02*
X151921904Y-60030057D01*
X151921904Y-60030057D02*
X151969523Y-60125295D01*
X151969523Y-60125295D02*
X151969523Y-60220533D01*
X151969523Y-60220533D02*
X151921904Y-60363390D01*
X151921904Y-60363390D02*
X151350476Y-60934819D01*
X151350476Y-60934819D02*
X151969523Y-60934819D01*
X152826666Y-60268152D02*
X152826666Y-60934819D01*
X152588571Y-59887200D02*
X152350476Y-60601485D01*
X152350476Y-60601485D02*
X152969523Y-60601485D01*
X131023333Y-79720057D02*
X131070952Y-79672438D01*
X131070952Y-79672438D02*
X131166190Y-79624819D01*
X131166190Y-79624819D02*
X131404285Y-79624819D01*
X131404285Y-79624819D02*
X131499523Y-79672438D01*
X131499523Y-79672438D02*
X131547142Y-79720057D01*
X131547142Y-79720057D02*
X131594761Y-79815295D01*
X131594761Y-79815295D02*
X131594761Y-79910533D01*
X131594761Y-79910533D02*
X131547142Y-80053390D01*
X131547142Y-80053390D02*
X130975714Y-80624819D01*
X130975714Y-80624819D02*
X131594761Y-80624819D01*
X132213809Y-79624819D02*
X132309047Y-79624819D01*
X132309047Y-79624819D02*
X132404285Y-79672438D01*
X132404285Y-79672438D02*
X132451904Y-79720057D01*
X132451904Y-79720057D02*
X132499523Y-79815295D01*
X132499523Y-79815295D02*
X132547142Y-80005771D01*
X132547142Y-80005771D02*
X132547142Y-80243866D01*
X132547142Y-80243866D02*
X132499523Y-80434342D01*
X132499523Y-80434342D02*
X132451904Y-80529580D01*
X132451904Y-80529580D02*
X132404285Y-80577200D01*
X132404285Y-80577200D02*
X132309047Y-80624819D01*
X132309047Y-80624819D02*
X132213809Y-80624819D01*
X132213809Y-80624819D02*
X132118571Y-80577200D01*
X132118571Y-80577200D02*
X132070952Y-80529580D01*
X132070952Y-80529580D02*
X132023333Y-80434342D01*
X132023333Y-80434342D02*
X131975714Y-80243866D01*
X131975714Y-80243866D02*
X131975714Y-80005771D01*
X131975714Y-80005771D02*
X132023333Y-79815295D01*
X132023333Y-79815295D02*
X132070952Y-79720057D01*
X132070952Y-79720057D02*
X132118571Y-79672438D01*
X132118571Y-79672438D02*
X132213809Y-79624819D01*
X132975714Y-80624819D02*
X132975714Y-79624819D01*
X133070952Y-80243866D02*
X133356666Y-80624819D01*
X133356666Y-79958152D02*
X132975714Y-80339104D01*
X131547142Y-75184819D02*
X131213809Y-74708628D01*
X130975714Y-75184819D02*
X130975714Y-74184819D01*
X130975714Y-74184819D02*
X131356666Y-74184819D01*
X131356666Y-74184819D02*
X131451904Y-74232438D01*
X131451904Y-74232438D02*
X131499523Y-74280057D01*
X131499523Y-74280057D02*
X131547142Y-74375295D01*
X131547142Y-74375295D02*
X131547142Y-74518152D01*
X131547142Y-74518152D02*
X131499523Y-74613390D01*
X131499523Y-74613390D02*
X131451904Y-74661009D01*
X131451904Y-74661009D02*
X131356666Y-74708628D01*
X131356666Y-74708628D02*
X130975714Y-74708628D01*
X132499523Y-75184819D02*
X131928095Y-75184819D01*
X132213809Y-75184819D02*
X132213809Y-74184819D01*
X132213809Y-74184819D02*
X132118571Y-74327676D01*
X132118571Y-74327676D02*
X132023333Y-74422914D01*
X132023333Y-74422914D02*
X131928095Y-74470533D01*
X132880476Y-74280057D02*
X132928095Y-74232438D01*
X132928095Y-74232438D02*
X133023333Y-74184819D01*
X133023333Y-74184819D02*
X133261428Y-74184819D01*
X133261428Y-74184819D02*
X133356666Y-74232438D01*
X133356666Y-74232438D02*
X133404285Y-74280057D01*
X133404285Y-74280057D02*
X133451904Y-74375295D01*
X133451904Y-74375295D02*
X133451904Y-74470533D01*
X133451904Y-74470533D02*
X133404285Y-74613390D01*
X133404285Y-74613390D02*
X132832857Y-75184819D01*
X132832857Y-75184819D02*
X133451904Y-75184819D01*
X104863333Y-77841009D02*
X105006190Y-77888628D01*
X105006190Y-77888628D02*
X105053809Y-77936247D01*
X105053809Y-77936247D02*
X105101428Y-78031485D01*
X105101428Y-78031485D02*
X105101428Y-78174342D01*
X105101428Y-78174342D02*
X105053809Y-78269580D01*
X105053809Y-78269580D02*
X105006190Y-78317200D01*
X105006190Y-78317200D02*
X104910952Y-78364819D01*
X104910952Y-78364819D02*
X104530000Y-78364819D01*
X104530000Y-78364819D02*
X104530000Y-77364819D01*
X104530000Y-77364819D02*
X104863333Y-77364819D01*
X104863333Y-77364819D02*
X104958571Y-77412438D01*
X104958571Y-77412438D02*
X105006190Y-77460057D01*
X105006190Y-77460057D02*
X105053809Y-77555295D01*
X105053809Y-77555295D02*
X105053809Y-77650533D01*
X105053809Y-77650533D02*
X105006190Y-77745771D01*
X105006190Y-77745771D02*
X104958571Y-77793390D01*
X104958571Y-77793390D02*
X104863333Y-77841009D01*
X104863333Y-77841009D02*
X104530000Y-77841009D01*
X105387143Y-77364819D02*
X105958571Y-77364819D01*
X105672857Y-78364819D02*
X105672857Y-77364819D01*
X106053810Y-78460057D02*
X106815714Y-78460057D01*
X107577619Y-78364819D02*
X107006191Y-78364819D01*
X107291905Y-78364819D02*
X107291905Y-77364819D01*
X107291905Y-77364819D02*
X107196667Y-77507676D01*
X107196667Y-77507676D02*
X107101429Y-77602914D01*
X107101429Y-77602914D02*
X107006191Y-77650533D01*
X104196667Y-73867200D02*
X104339524Y-73914819D01*
X104339524Y-73914819D02*
X104577619Y-73914819D01*
X104577619Y-73914819D02*
X104672857Y-73867200D01*
X104672857Y-73867200D02*
X104720476Y-73819580D01*
X104720476Y-73819580D02*
X104768095Y-73724342D01*
X104768095Y-73724342D02*
X104768095Y-73629104D01*
X104768095Y-73629104D02*
X104720476Y-73533866D01*
X104720476Y-73533866D02*
X104672857Y-73486247D01*
X104672857Y-73486247D02*
X104577619Y-73438628D01*
X104577619Y-73438628D02*
X104387143Y-73391009D01*
X104387143Y-73391009D02*
X104291905Y-73343390D01*
X104291905Y-73343390D02*
X104244286Y-73295771D01*
X104244286Y-73295771D02*
X104196667Y-73200533D01*
X104196667Y-73200533D02*
X104196667Y-73105295D01*
X104196667Y-73105295D02*
X104244286Y-73010057D01*
X104244286Y-73010057D02*
X104291905Y-72962438D01*
X104291905Y-72962438D02*
X104387143Y-72914819D01*
X104387143Y-72914819D02*
X104625238Y-72914819D01*
X104625238Y-72914819D02*
X104768095Y-72962438D01*
X105101429Y-72914819D02*
X105339524Y-73914819D01*
X105339524Y-73914819D02*
X105530000Y-73200533D01*
X105530000Y-73200533D02*
X105720476Y-73914819D01*
X105720476Y-73914819D02*
X105958572Y-72914819D01*
X106863333Y-73914819D02*
X106291905Y-73914819D01*
X106577619Y-73914819D02*
X106577619Y-72914819D01*
X106577619Y-72914819D02*
X106482381Y-73057676D01*
X106482381Y-73057676D02*
X106387143Y-73152914D01*
X106387143Y-73152914D02*
X106291905Y-73200533D01*
X131594761Y-75874819D02*
X131023333Y-75874819D01*
X131309047Y-75874819D02*
X131309047Y-74874819D01*
X131309047Y-74874819D02*
X131213809Y-75017676D01*
X131213809Y-75017676D02*
X131118571Y-75112914D01*
X131118571Y-75112914D02*
X131023333Y-75160533D01*
X132213809Y-74874819D02*
X132309047Y-74874819D01*
X132309047Y-74874819D02*
X132404285Y-74922438D01*
X132404285Y-74922438D02*
X132451904Y-74970057D01*
X132451904Y-74970057D02*
X132499523Y-75065295D01*
X132499523Y-75065295D02*
X132547142Y-75255771D01*
X132547142Y-75255771D02*
X132547142Y-75493866D01*
X132547142Y-75493866D02*
X132499523Y-75684342D01*
X132499523Y-75684342D02*
X132451904Y-75779580D01*
X132451904Y-75779580D02*
X132404285Y-75827200D01*
X132404285Y-75827200D02*
X132309047Y-75874819D01*
X132309047Y-75874819D02*
X132213809Y-75874819D01*
X132213809Y-75874819D02*
X132118571Y-75827200D01*
X132118571Y-75827200D02*
X132070952Y-75779580D01*
X132070952Y-75779580D02*
X132023333Y-75684342D01*
X132023333Y-75684342D02*
X131975714Y-75493866D01*
X131975714Y-75493866D02*
X131975714Y-75255771D01*
X131975714Y-75255771D02*
X132023333Y-75065295D01*
X132023333Y-75065295D02*
X132070952Y-74970057D01*
X132070952Y-74970057D02*
X132118571Y-74922438D01*
X132118571Y-74922438D02*
X132213809Y-74874819D01*
X132975714Y-75874819D02*
X132975714Y-74874819D01*
X133070952Y-75493866D02*
X133356666Y-75874819D01*
X133356666Y-75208152D02*
X132975714Y-75589104D01*
X131547142Y-70434819D02*
X131213809Y-69958628D01*
X130975714Y-70434819D02*
X130975714Y-69434819D01*
X130975714Y-69434819D02*
X131356666Y-69434819D01*
X131356666Y-69434819D02*
X131451904Y-69482438D01*
X131451904Y-69482438D02*
X131499523Y-69530057D01*
X131499523Y-69530057D02*
X131547142Y-69625295D01*
X131547142Y-69625295D02*
X131547142Y-69768152D01*
X131547142Y-69768152D02*
X131499523Y-69863390D01*
X131499523Y-69863390D02*
X131451904Y-69911009D01*
X131451904Y-69911009D02*
X131356666Y-69958628D01*
X131356666Y-69958628D02*
X130975714Y-69958628D01*
X132499523Y-70434819D02*
X131928095Y-70434819D01*
X132213809Y-70434819D02*
X132213809Y-69434819D01*
X132213809Y-69434819D02*
X132118571Y-69577676D01*
X132118571Y-69577676D02*
X132023333Y-69672914D01*
X132023333Y-69672914D02*
X131928095Y-69720533D01*
X133451904Y-70434819D02*
X132880476Y-70434819D01*
X133166190Y-70434819D02*
X133166190Y-69434819D01*
X133166190Y-69434819D02*
X133070952Y-69577676D01*
X133070952Y-69577676D02*
X132975714Y-69672914D01*
X132975714Y-69672914D02*
X132880476Y-69720533D01*
X144003333Y-79720057D02*
X144050952Y-79672438D01*
X144050952Y-79672438D02*
X144146190Y-79624819D01*
X144146190Y-79624819D02*
X144384285Y-79624819D01*
X144384285Y-79624819D02*
X144479523Y-79672438D01*
X144479523Y-79672438D02*
X144527142Y-79720057D01*
X144527142Y-79720057D02*
X144574761Y-79815295D01*
X144574761Y-79815295D02*
X144574761Y-79910533D01*
X144574761Y-79910533D02*
X144527142Y-80053390D01*
X144527142Y-80053390D02*
X143955714Y-80624819D01*
X143955714Y-80624819D02*
X144574761Y-80624819D01*
X145193809Y-79624819D02*
X145289047Y-79624819D01*
X145289047Y-79624819D02*
X145384285Y-79672438D01*
X145384285Y-79672438D02*
X145431904Y-79720057D01*
X145431904Y-79720057D02*
X145479523Y-79815295D01*
X145479523Y-79815295D02*
X145527142Y-80005771D01*
X145527142Y-80005771D02*
X145527142Y-80243866D01*
X145527142Y-80243866D02*
X145479523Y-80434342D01*
X145479523Y-80434342D02*
X145431904Y-80529580D01*
X145431904Y-80529580D02*
X145384285Y-80577200D01*
X145384285Y-80577200D02*
X145289047Y-80624819D01*
X145289047Y-80624819D02*
X145193809Y-80624819D01*
X145193809Y-80624819D02*
X145098571Y-80577200D01*
X145098571Y-80577200D02*
X145050952Y-80529580D01*
X145050952Y-80529580D02*
X145003333Y-80434342D01*
X145003333Y-80434342D02*
X144955714Y-80243866D01*
X144955714Y-80243866D02*
X144955714Y-80005771D01*
X144955714Y-80005771D02*
X145003333Y-79815295D01*
X145003333Y-79815295D02*
X145050952Y-79720057D01*
X145050952Y-79720057D02*
X145098571Y-79672438D01*
X145098571Y-79672438D02*
X145193809Y-79624819D01*
X145955714Y-80624819D02*
X145955714Y-79624819D01*
X146050952Y-80243866D02*
X146336666Y-80624819D01*
X146336666Y-79958152D02*
X145955714Y-80339104D01*
X144527142Y-75184819D02*
X144193809Y-74708628D01*
X143955714Y-75184819D02*
X143955714Y-74184819D01*
X143955714Y-74184819D02*
X144336666Y-74184819D01*
X144336666Y-74184819D02*
X144431904Y-74232438D01*
X144431904Y-74232438D02*
X144479523Y-74280057D01*
X144479523Y-74280057D02*
X144527142Y-74375295D01*
X144527142Y-74375295D02*
X144527142Y-74518152D01*
X144527142Y-74518152D02*
X144479523Y-74613390D01*
X144479523Y-74613390D02*
X144431904Y-74661009D01*
X144431904Y-74661009D02*
X144336666Y-74708628D01*
X144336666Y-74708628D02*
X143955714Y-74708628D01*
X144908095Y-74280057D02*
X144955714Y-74232438D01*
X144955714Y-74232438D02*
X145050952Y-74184819D01*
X145050952Y-74184819D02*
X145289047Y-74184819D01*
X145289047Y-74184819D02*
X145384285Y-74232438D01*
X145384285Y-74232438D02*
X145431904Y-74280057D01*
X145431904Y-74280057D02*
X145479523Y-74375295D01*
X145479523Y-74375295D02*
X145479523Y-74470533D01*
X145479523Y-74470533D02*
X145431904Y-74613390D01*
X145431904Y-74613390D02*
X144860476Y-75184819D01*
X144860476Y-75184819D02*
X145479523Y-75184819D01*
X145860476Y-74280057D02*
X145908095Y-74232438D01*
X145908095Y-74232438D02*
X146003333Y-74184819D01*
X146003333Y-74184819D02*
X146241428Y-74184819D01*
X146241428Y-74184819D02*
X146336666Y-74232438D01*
X146336666Y-74232438D02*
X146384285Y-74280057D01*
X146384285Y-74280057D02*
X146431904Y-74375295D01*
X146431904Y-74375295D02*
X146431904Y-74470533D01*
X146431904Y-74470533D02*
X146384285Y-74613390D01*
X146384285Y-74613390D02*
X145812857Y-75184819D01*
X145812857Y-75184819D02*
X146431904Y-75184819D01*
X130093334Y-93799104D02*
X130569524Y-93799104D01*
X129998096Y-94084819D02*
X130331429Y-93084819D01*
X130331429Y-93084819D02*
X130664762Y-94084819D01*
X130998096Y-93084819D02*
X130998096Y-93894342D01*
X130998096Y-93894342D02*
X131045715Y-93989580D01*
X131045715Y-93989580D02*
X131093334Y-94037200D01*
X131093334Y-94037200D02*
X131188572Y-94084819D01*
X131188572Y-94084819D02*
X131379048Y-94084819D01*
X131379048Y-94084819D02*
X131474286Y-94037200D01*
X131474286Y-94037200D02*
X131521905Y-93989580D01*
X131521905Y-93989580D02*
X131569524Y-93894342D01*
X131569524Y-93894342D02*
X131569524Y-93084819D01*
X132045715Y-94084819D02*
X132045715Y-93084819D01*
X132045715Y-93084819D02*
X132283810Y-93084819D01*
X132283810Y-93084819D02*
X132426667Y-93132438D01*
X132426667Y-93132438D02*
X132521905Y-93227676D01*
X132521905Y-93227676D02*
X132569524Y-93322914D01*
X132569524Y-93322914D02*
X132617143Y-93513390D01*
X132617143Y-93513390D02*
X132617143Y-93656247D01*
X132617143Y-93656247D02*
X132569524Y-93846723D01*
X132569524Y-93846723D02*
X132521905Y-93941961D01*
X132521905Y-93941961D02*
X132426667Y-94037200D01*
X132426667Y-94037200D02*
X132283810Y-94084819D01*
X132283810Y-94084819D02*
X132045715Y-94084819D01*
X133045715Y-94084819D02*
X133045715Y-93084819D01*
X133712381Y-93084819D02*
X133902857Y-93084819D01*
X133902857Y-93084819D02*
X133998095Y-93132438D01*
X133998095Y-93132438D02*
X134093333Y-93227676D01*
X134093333Y-93227676D02*
X134140952Y-93418152D01*
X134140952Y-93418152D02*
X134140952Y-93751485D01*
X134140952Y-93751485D02*
X134093333Y-93941961D01*
X134093333Y-93941961D02*
X133998095Y-94037200D01*
X133998095Y-94037200D02*
X133902857Y-94084819D01*
X133902857Y-94084819D02*
X133712381Y-94084819D01*
X133712381Y-94084819D02*
X133617143Y-94037200D01*
X133617143Y-94037200D02*
X133521905Y-93941961D01*
X133521905Y-93941961D02*
X133474286Y-93751485D01*
X133474286Y-93751485D02*
X133474286Y-93418152D01*
X133474286Y-93418152D02*
X133521905Y-93227676D01*
X133521905Y-93227676D02*
X133617143Y-93132438D01*
X133617143Y-93132438D02*
X133712381Y-93084819D01*
X134331429Y-94180057D02*
X135093333Y-94180057D01*
X135331429Y-94084819D02*
X135331429Y-93084819D01*
X135807619Y-94084819D02*
X135807619Y-93084819D01*
X135807619Y-93084819D02*
X136379047Y-94084819D01*
X136379047Y-94084819D02*
X136379047Y-93084819D01*
X132714819Y-89519523D02*
X133429104Y-89519523D01*
X133429104Y-89519523D02*
X133571961Y-89567142D01*
X133571961Y-89567142D02*
X133667200Y-89662380D01*
X133667200Y-89662380D02*
X133714819Y-89805237D01*
X133714819Y-89805237D02*
X133714819Y-89900475D01*
X133714819Y-88519523D02*
X133714819Y-89090951D01*
X133714819Y-88805237D02*
X132714819Y-88805237D01*
X132714819Y-88805237D02*
X132857676Y-88900475D01*
X132857676Y-88900475D02*
X132952914Y-88995713D01*
X132952914Y-88995713D02*
X133000533Y-89090951D01*
X132810057Y-88138570D02*
X132762438Y-88090951D01*
X132762438Y-88090951D02*
X132714819Y-87995713D01*
X132714819Y-87995713D02*
X132714819Y-87757618D01*
X132714819Y-87757618D02*
X132762438Y-87662380D01*
X132762438Y-87662380D02*
X132810057Y-87614761D01*
X132810057Y-87614761D02*
X132905295Y-87567142D01*
X132905295Y-87567142D02*
X133000533Y-87567142D01*
X133000533Y-87567142D02*
X133143390Y-87614761D01*
X133143390Y-87614761D02*
X133714819Y-88186189D01*
X133714819Y-88186189D02*
X133714819Y-87567142D01*
X115638571Y-86044819D02*
X115067143Y-86044819D01*
X115352857Y-86044819D02*
X115352857Y-85044819D01*
X115352857Y-85044819D02*
X115257619Y-85187676D01*
X115257619Y-85187676D02*
X115162381Y-85282914D01*
X115162381Y-85282914D02*
X115067143Y-85330533D01*
X116257619Y-85044819D02*
X116352857Y-85044819D01*
X116352857Y-85044819D02*
X116448095Y-85092438D01*
X116448095Y-85092438D02*
X116495714Y-85140057D01*
X116495714Y-85140057D02*
X116543333Y-85235295D01*
X116543333Y-85235295D02*
X116590952Y-85425771D01*
X116590952Y-85425771D02*
X116590952Y-85663866D01*
X116590952Y-85663866D02*
X116543333Y-85854342D01*
X116543333Y-85854342D02*
X116495714Y-85949580D01*
X116495714Y-85949580D02*
X116448095Y-85997200D01*
X116448095Y-85997200D02*
X116352857Y-86044819D01*
X116352857Y-86044819D02*
X116257619Y-86044819D01*
X116257619Y-86044819D02*
X116162381Y-85997200D01*
X116162381Y-85997200D02*
X116114762Y-85949580D01*
X116114762Y-85949580D02*
X116067143Y-85854342D01*
X116067143Y-85854342D02*
X116019524Y-85663866D01*
X116019524Y-85663866D02*
X116019524Y-85425771D01*
X116019524Y-85425771D02*
X116067143Y-85235295D01*
X116067143Y-85235295D02*
X116114762Y-85140057D01*
X116114762Y-85140057D02*
X116162381Y-85092438D01*
X116162381Y-85092438D02*
X116257619Y-85044819D01*
X117210000Y-85044819D02*
X117305238Y-85044819D01*
X117305238Y-85044819D02*
X117400476Y-85092438D01*
X117400476Y-85092438D02*
X117448095Y-85140057D01*
X117448095Y-85140057D02*
X117495714Y-85235295D01*
X117495714Y-85235295D02*
X117543333Y-85425771D01*
X117543333Y-85425771D02*
X117543333Y-85663866D01*
X117543333Y-85663866D02*
X117495714Y-85854342D01*
X117495714Y-85854342D02*
X117448095Y-85949580D01*
X117448095Y-85949580D02*
X117400476Y-85997200D01*
X117400476Y-85997200D02*
X117305238Y-86044819D01*
X117305238Y-86044819D02*
X117210000Y-86044819D01*
X117210000Y-86044819D02*
X117114762Y-85997200D01*
X117114762Y-85997200D02*
X117067143Y-85949580D01*
X117067143Y-85949580D02*
X117019524Y-85854342D01*
X117019524Y-85854342D02*
X116971905Y-85663866D01*
X116971905Y-85663866D02*
X116971905Y-85425771D01*
X116971905Y-85425771D02*
X117019524Y-85235295D01*
X117019524Y-85235295D02*
X117067143Y-85140057D01*
X117067143Y-85140057D02*
X117114762Y-85092438D01*
X117114762Y-85092438D02*
X117210000Y-85044819D01*
X117971905Y-86044819D02*
X117971905Y-85044819D01*
X118067143Y-85663866D02*
X118352857Y-86044819D01*
X118352857Y-85378152D02*
X117971905Y-85759104D01*
X116543333Y-80604819D02*
X116210000Y-80128628D01*
X115971905Y-80604819D02*
X115971905Y-79604819D01*
X115971905Y-79604819D02*
X116352857Y-79604819D01*
X116352857Y-79604819D02*
X116448095Y-79652438D01*
X116448095Y-79652438D02*
X116495714Y-79700057D01*
X116495714Y-79700057D02*
X116543333Y-79795295D01*
X116543333Y-79795295D02*
X116543333Y-79938152D01*
X116543333Y-79938152D02*
X116495714Y-80033390D01*
X116495714Y-80033390D02*
X116448095Y-80081009D01*
X116448095Y-80081009D02*
X116352857Y-80128628D01*
X116352857Y-80128628D02*
X115971905Y-80128628D01*
X117495714Y-80604819D02*
X116924286Y-80604819D01*
X117210000Y-80604819D02*
X117210000Y-79604819D01*
X117210000Y-79604819D02*
X117114762Y-79747676D01*
X117114762Y-79747676D02*
X117019524Y-79842914D01*
X117019524Y-79842914D02*
X116924286Y-79890533D01*
X151540952Y-80624819D02*
X150969524Y-80624819D01*
X151255238Y-80624819D02*
X151255238Y-79624819D01*
X151255238Y-79624819D02*
X151160000Y-79767676D01*
X151160000Y-79767676D02*
X151064762Y-79862914D01*
X151064762Y-79862914D02*
X150969524Y-79910533D01*
X151969524Y-80624819D02*
X151969524Y-79624819D01*
X152064762Y-80243866D02*
X152350476Y-80624819D01*
X152350476Y-79958152D02*
X151969524Y-80339104D01*
X151017142Y-75184819D02*
X150683809Y-74708628D01*
X150445714Y-75184819D02*
X150445714Y-74184819D01*
X150445714Y-74184819D02*
X150826666Y-74184819D01*
X150826666Y-74184819D02*
X150921904Y-74232438D01*
X150921904Y-74232438D02*
X150969523Y-74280057D01*
X150969523Y-74280057D02*
X151017142Y-74375295D01*
X151017142Y-74375295D02*
X151017142Y-74518152D01*
X151017142Y-74518152D02*
X150969523Y-74613390D01*
X150969523Y-74613390D02*
X150921904Y-74661009D01*
X150921904Y-74661009D02*
X150826666Y-74708628D01*
X150826666Y-74708628D02*
X150445714Y-74708628D01*
X151398095Y-74280057D02*
X151445714Y-74232438D01*
X151445714Y-74232438D02*
X151540952Y-74184819D01*
X151540952Y-74184819D02*
X151779047Y-74184819D01*
X151779047Y-74184819D02*
X151874285Y-74232438D01*
X151874285Y-74232438D02*
X151921904Y-74280057D01*
X151921904Y-74280057D02*
X151969523Y-74375295D01*
X151969523Y-74375295D02*
X151969523Y-74470533D01*
X151969523Y-74470533D02*
X151921904Y-74613390D01*
X151921904Y-74613390D02*
X151350476Y-75184819D01*
X151350476Y-75184819D02*
X151969523Y-75184819D01*
X152302857Y-74184819D02*
X152969523Y-74184819D01*
X152969523Y-74184819D02*
X152540952Y-75184819D01*
X138084761Y-80624819D02*
X137513333Y-80624819D01*
X137799047Y-80624819D02*
X137799047Y-79624819D01*
X137799047Y-79624819D02*
X137703809Y-79767676D01*
X137703809Y-79767676D02*
X137608571Y-79862914D01*
X137608571Y-79862914D02*
X137513333Y-79910533D01*
X138703809Y-79624819D02*
X138799047Y-79624819D01*
X138799047Y-79624819D02*
X138894285Y-79672438D01*
X138894285Y-79672438D02*
X138941904Y-79720057D01*
X138941904Y-79720057D02*
X138989523Y-79815295D01*
X138989523Y-79815295D02*
X139037142Y-80005771D01*
X139037142Y-80005771D02*
X139037142Y-80243866D01*
X139037142Y-80243866D02*
X138989523Y-80434342D01*
X138989523Y-80434342D02*
X138941904Y-80529580D01*
X138941904Y-80529580D02*
X138894285Y-80577200D01*
X138894285Y-80577200D02*
X138799047Y-80624819D01*
X138799047Y-80624819D02*
X138703809Y-80624819D01*
X138703809Y-80624819D02*
X138608571Y-80577200D01*
X138608571Y-80577200D02*
X138560952Y-80529580D01*
X138560952Y-80529580D02*
X138513333Y-80434342D01*
X138513333Y-80434342D02*
X138465714Y-80243866D01*
X138465714Y-80243866D02*
X138465714Y-80005771D01*
X138465714Y-80005771D02*
X138513333Y-79815295D01*
X138513333Y-79815295D02*
X138560952Y-79720057D01*
X138560952Y-79720057D02*
X138608571Y-79672438D01*
X138608571Y-79672438D02*
X138703809Y-79624819D01*
X139465714Y-80624819D02*
X139465714Y-79624819D01*
X139560952Y-80243866D02*
X139846666Y-80624819D01*
X139846666Y-79958152D02*
X139465714Y-80339104D01*
X138037142Y-75184819D02*
X137703809Y-74708628D01*
X137465714Y-75184819D02*
X137465714Y-74184819D01*
X137465714Y-74184819D02*
X137846666Y-74184819D01*
X137846666Y-74184819D02*
X137941904Y-74232438D01*
X137941904Y-74232438D02*
X137989523Y-74280057D01*
X137989523Y-74280057D02*
X138037142Y-74375295D01*
X138037142Y-74375295D02*
X138037142Y-74518152D01*
X138037142Y-74518152D02*
X137989523Y-74613390D01*
X137989523Y-74613390D02*
X137941904Y-74661009D01*
X137941904Y-74661009D02*
X137846666Y-74708628D01*
X137846666Y-74708628D02*
X137465714Y-74708628D01*
X138989523Y-75184819D02*
X138418095Y-75184819D01*
X138703809Y-75184819D02*
X138703809Y-74184819D01*
X138703809Y-74184819D02*
X138608571Y-74327676D01*
X138608571Y-74327676D02*
X138513333Y-74422914D01*
X138513333Y-74422914D02*
X138418095Y-74470533D01*
X139322857Y-74184819D02*
X139989523Y-74184819D01*
X139989523Y-74184819D02*
X139560952Y-75184819D01*
X150493333Y-70220057D02*
X150540952Y-70172438D01*
X150540952Y-70172438D02*
X150636190Y-70124819D01*
X150636190Y-70124819D02*
X150874285Y-70124819D01*
X150874285Y-70124819D02*
X150969523Y-70172438D01*
X150969523Y-70172438D02*
X151017142Y-70220057D01*
X151017142Y-70220057D02*
X151064761Y-70315295D01*
X151064761Y-70315295D02*
X151064761Y-70410533D01*
X151064761Y-70410533D02*
X151017142Y-70553390D01*
X151017142Y-70553390D02*
X150445714Y-71124819D01*
X150445714Y-71124819D02*
X151064761Y-71124819D01*
X151683809Y-70124819D02*
X151779047Y-70124819D01*
X151779047Y-70124819D02*
X151874285Y-70172438D01*
X151874285Y-70172438D02*
X151921904Y-70220057D01*
X151921904Y-70220057D02*
X151969523Y-70315295D01*
X151969523Y-70315295D02*
X152017142Y-70505771D01*
X152017142Y-70505771D02*
X152017142Y-70743866D01*
X152017142Y-70743866D02*
X151969523Y-70934342D01*
X151969523Y-70934342D02*
X151921904Y-71029580D01*
X151921904Y-71029580D02*
X151874285Y-71077200D01*
X151874285Y-71077200D02*
X151779047Y-71124819D01*
X151779047Y-71124819D02*
X151683809Y-71124819D01*
X151683809Y-71124819D02*
X151588571Y-71077200D01*
X151588571Y-71077200D02*
X151540952Y-71029580D01*
X151540952Y-71029580D02*
X151493333Y-70934342D01*
X151493333Y-70934342D02*
X151445714Y-70743866D01*
X151445714Y-70743866D02*
X151445714Y-70505771D01*
X151445714Y-70505771D02*
X151493333Y-70315295D01*
X151493333Y-70315295D02*
X151540952Y-70220057D01*
X151540952Y-70220057D02*
X151588571Y-70172438D01*
X151588571Y-70172438D02*
X151683809Y-70124819D01*
X152445714Y-71124819D02*
X152445714Y-70124819D01*
X152540952Y-70743866D02*
X152826666Y-71124819D01*
X152826666Y-70458152D02*
X152445714Y-70839104D01*
X151017142Y-65684819D02*
X150683809Y-65208628D01*
X150445714Y-65684819D02*
X150445714Y-64684819D01*
X150445714Y-64684819D02*
X150826666Y-64684819D01*
X150826666Y-64684819D02*
X150921904Y-64732438D01*
X150921904Y-64732438D02*
X150969523Y-64780057D01*
X150969523Y-64780057D02*
X151017142Y-64875295D01*
X151017142Y-64875295D02*
X151017142Y-65018152D01*
X151017142Y-65018152D02*
X150969523Y-65113390D01*
X150969523Y-65113390D02*
X150921904Y-65161009D01*
X150921904Y-65161009D02*
X150826666Y-65208628D01*
X150826666Y-65208628D02*
X150445714Y-65208628D01*
X151398095Y-64780057D02*
X151445714Y-64732438D01*
X151445714Y-64732438D02*
X151540952Y-64684819D01*
X151540952Y-64684819D02*
X151779047Y-64684819D01*
X151779047Y-64684819D02*
X151874285Y-64732438D01*
X151874285Y-64732438D02*
X151921904Y-64780057D01*
X151921904Y-64780057D02*
X151969523Y-64875295D01*
X151969523Y-64875295D02*
X151969523Y-64970533D01*
X151969523Y-64970533D02*
X151921904Y-65113390D01*
X151921904Y-65113390D02*
X151350476Y-65684819D01*
X151350476Y-65684819D02*
X151969523Y-65684819D01*
X152874285Y-64684819D02*
X152398095Y-64684819D01*
X152398095Y-64684819D02*
X152350476Y-65161009D01*
X152350476Y-65161009D02*
X152398095Y-65113390D01*
X152398095Y-65113390D02*
X152493333Y-65065771D01*
X152493333Y-65065771D02*
X152731428Y-65065771D01*
X152731428Y-65065771D02*
X152826666Y-65113390D01*
X152826666Y-65113390D02*
X152874285Y-65161009D01*
X152874285Y-65161009D02*
X152921904Y-65256247D01*
X152921904Y-65256247D02*
X152921904Y-65494342D01*
X152921904Y-65494342D02*
X152874285Y-65589580D01*
X152874285Y-65589580D02*
X152826666Y-65637200D01*
X152826666Y-65637200D02*
X152731428Y-65684819D01*
X152731428Y-65684819D02*
X152493333Y-65684819D01*
X152493333Y-65684819D02*
X152398095Y-65637200D01*
X152398095Y-65637200D02*
X152350476Y-65589580D01*
X137513333Y-74970057D02*
X137560952Y-74922438D01*
X137560952Y-74922438D02*
X137656190Y-74874819D01*
X137656190Y-74874819D02*
X137894285Y-74874819D01*
X137894285Y-74874819D02*
X137989523Y-74922438D01*
X137989523Y-74922438D02*
X138037142Y-74970057D01*
X138037142Y-74970057D02*
X138084761Y-75065295D01*
X138084761Y-75065295D02*
X138084761Y-75160533D01*
X138084761Y-75160533D02*
X138037142Y-75303390D01*
X138037142Y-75303390D02*
X137465714Y-75874819D01*
X137465714Y-75874819D02*
X138084761Y-75874819D01*
X138703809Y-74874819D02*
X138799047Y-74874819D01*
X138799047Y-74874819D02*
X138894285Y-74922438D01*
X138894285Y-74922438D02*
X138941904Y-74970057D01*
X138941904Y-74970057D02*
X138989523Y-75065295D01*
X138989523Y-75065295D02*
X139037142Y-75255771D01*
X139037142Y-75255771D02*
X139037142Y-75493866D01*
X139037142Y-75493866D02*
X138989523Y-75684342D01*
X138989523Y-75684342D02*
X138941904Y-75779580D01*
X138941904Y-75779580D02*
X138894285Y-75827200D01*
X138894285Y-75827200D02*
X138799047Y-75874819D01*
X138799047Y-75874819D02*
X138703809Y-75874819D01*
X138703809Y-75874819D02*
X138608571Y-75827200D01*
X138608571Y-75827200D02*
X138560952Y-75779580D01*
X138560952Y-75779580D02*
X138513333Y-75684342D01*
X138513333Y-75684342D02*
X138465714Y-75493866D01*
X138465714Y-75493866D02*
X138465714Y-75255771D01*
X138465714Y-75255771D02*
X138513333Y-75065295D01*
X138513333Y-75065295D02*
X138560952Y-74970057D01*
X138560952Y-74970057D02*
X138608571Y-74922438D01*
X138608571Y-74922438D02*
X138703809Y-74874819D01*
X139465714Y-75874819D02*
X139465714Y-74874819D01*
X139560952Y-75493866D02*
X139846666Y-75874819D01*
X139846666Y-75208152D02*
X139465714Y-75589104D01*
X138037142Y-70434819D02*
X137703809Y-69958628D01*
X137465714Y-70434819D02*
X137465714Y-69434819D01*
X137465714Y-69434819D02*
X137846666Y-69434819D01*
X137846666Y-69434819D02*
X137941904Y-69482438D01*
X137941904Y-69482438D02*
X137989523Y-69530057D01*
X137989523Y-69530057D02*
X138037142Y-69625295D01*
X138037142Y-69625295D02*
X138037142Y-69768152D01*
X138037142Y-69768152D02*
X137989523Y-69863390D01*
X137989523Y-69863390D02*
X137941904Y-69911009D01*
X137941904Y-69911009D02*
X137846666Y-69958628D01*
X137846666Y-69958628D02*
X137465714Y-69958628D01*
X138989523Y-70434819D02*
X138418095Y-70434819D01*
X138703809Y-70434819D02*
X138703809Y-69434819D01*
X138703809Y-69434819D02*
X138608571Y-69577676D01*
X138608571Y-69577676D02*
X138513333Y-69672914D01*
X138513333Y-69672914D02*
X138418095Y-69720533D01*
X139846666Y-69434819D02*
X139656190Y-69434819D01*
X139656190Y-69434819D02*
X139560952Y-69482438D01*
X139560952Y-69482438D02*
X139513333Y-69530057D01*
X139513333Y-69530057D02*
X139418095Y-69672914D01*
X139418095Y-69672914D02*
X139370476Y-69863390D01*
X139370476Y-69863390D02*
X139370476Y-70244342D01*
X139370476Y-70244342D02*
X139418095Y-70339580D01*
X139418095Y-70339580D02*
X139465714Y-70387200D01*
X139465714Y-70387200D02*
X139560952Y-70434819D01*
X139560952Y-70434819D02*
X139751428Y-70434819D01*
X139751428Y-70434819D02*
X139846666Y-70387200D01*
X139846666Y-70387200D02*
X139894285Y-70339580D01*
X139894285Y-70339580D02*
X139941904Y-70244342D01*
X139941904Y-70244342D02*
X139941904Y-70006247D01*
X139941904Y-70006247D02*
X139894285Y-69911009D01*
X139894285Y-69911009D02*
X139846666Y-69863390D01*
X139846666Y-69863390D02*
X139751428Y-69815771D01*
X139751428Y-69815771D02*
X139560952Y-69815771D01*
X139560952Y-69815771D02*
X139465714Y-69863390D01*
X139465714Y-69863390D02*
X139418095Y-69911009D01*
X139418095Y-69911009D02*
X139370476Y-70006247D01*
X107233571Y-64119819D02*
X106662143Y-64119819D01*
X106947857Y-64119819D02*
X106947857Y-63119819D01*
X106947857Y-63119819D02*
X106852619Y-63262676D01*
X106852619Y-63262676D02*
X106757381Y-63357914D01*
X106757381Y-63357914D02*
X106662143Y-63405533D01*
X107852619Y-63119819D02*
X107947857Y-63119819D01*
X107947857Y-63119819D02*
X108043095Y-63167438D01*
X108043095Y-63167438D02*
X108090714Y-63215057D01*
X108090714Y-63215057D02*
X108138333Y-63310295D01*
X108138333Y-63310295D02*
X108185952Y-63500771D01*
X108185952Y-63500771D02*
X108185952Y-63738866D01*
X108185952Y-63738866D02*
X108138333Y-63929342D01*
X108138333Y-63929342D02*
X108090714Y-64024580D01*
X108090714Y-64024580D02*
X108043095Y-64072200D01*
X108043095Y-64072200D02*
X107947857Y-64119819D01*
X107947857Y-64119819D02*
X107852619Y-64119819D01*
X107852619Y-64119819D02*
X107757381Y-64072200D01*
X107757381Y-64072200D02*
X107709762Y-64024580D01*
X107709762Y-64024580D02*
X107662143Y-63929342D01*
X107662143Y-63929342D02*
X107614524Y-63738866D01*
X107614524Y-63738866D02*
X107614524Y-63500771D01*
X107614524Y-63500771D02*
X107662143Y-63310295D01*
X107662143Y-63310295D02*
X107709762Y-63215057D01*
X107709762Y-63215057D02*
X107757381Y-63167438D01*
X107757381Y-63167438D02*
X107852619Y-63119819D01*
X108805000Y-63119819D02*
X108900238Y-63119819D01*
X108900238Y-63119819D02*
X108995476Y-63167438D01*
X108995476Y-63167438D02*
X109043095Y-63215057D01*
X109043095Y-63215057D02*
X109090714Y-63310295D01*
X109090714Y-63310295D02*
X109138333Y-63500771D01*
X109138333Y-63500771D02*
X109138333Y-63738866D01*
X109138333Y-63738866D02*
X109090714Y-63929342D01*
X109090714Y-63929342D02*
X109043095Y-64024580D01*
X109043095Y-64024580D02*
X108995476Y-64072200D01*
X108995476Y-64072200D02*
X108900238Y-64119819D01*
X108900238Y-64119819D02*
X108805000Y-64119819D01*
X108805000Y-64119819D02*
X108709762Y-64072200D01*
X108709762Y-64072200D02*
X108662143Y-64024580D01*
X108662143Y-64024580D02*
X108614524Y-63929342D01*
X108614524Y-63929342D02*
X108566905Y-63738866D01*
X108566905Y-63738866D02*
X108566905Y-63500771D01*
X108566905Y-63500771D02*
X108614524Y-63310295D01*
X108614524Y-63310295D02*
X108662143Y-63215057D01*
X108662143Y-63215057D02*
X108709762Y-63167438D01*
X108709762Y-63167438D02*
X108805000Y-63119819D01*
X109566905Y-64119819D02*
X109566905Y-63119819D01*
X109662143Y-63738866D02*
X109947857Y-64119819D01*
X109947857Y-63453152D02*
X109566905Y-63834104D01*
X104994819Y-58245238D02*
X104518628Y-58578571D01*
X104994819Y-58816666D02*
X103994819Y-58816666D01*
X103994819Y-58816666D02*
X103994819Y-58435714D01*
X103994819Y-58435714D02*
X104042438Y-58340476D01*
X104042438Y-58340476D02*
X104090057Y-58292857D01*
X104090057Y-58292857D02*
X104185295Y-58245238D01*
X104185295Y-58245238D02*
X104328152Y-58245238D01*
X104328152Y-58245238D02*
X104423390Y-58292857D01*
X104423390Y-58292857D02*
X104471009Y-58340476D01*
X104471009Y-58340476D02*
X104518628Y-58435714D01*
X104518628Y-58435714D02*
X104518628Y-58816666D01*
X103994819Y-57959523D02*
X104994819Y-57626190D01*
X104994819Y-57626190D02*
X103994819Y-57292857D01*
X104994819Y-56435714D02*
X104994819Y-57007142D01*
X104994819Y-56721428D02*
X103994819Y-56721428D01*
X103994819Y-56721428D02*
X104137676Y-56816666D01*
X104137676Y-56816666D02*
X104232914Y-56911904D01*
X104232914Y-56911904D02*
X104280533Y-57007142D01*
X115638571Y-90794819D02*
X115067143Y-90794819D01*
X115352857Y-90794819D02*
X115352857Y-89794819D01*
X115352857Y-89794819D02*
X115257619Y-89937676D01*
X115257619Y-89937676D02*
X115162381Y-90032914D01*
X115162381Y-90032914D02*
X115067143Y-90080533D01*
X116257619Y-89794819D02*
X116352857Y-89794819D01*
X116352857Y-89794819D02*
X116448095Y-89842438D01*
X116448095Y-89842438D02*
X116495714Y-89890057D01*
X116495714Y-89890057D02*
X116543333Y-89985295D01*
X116543333Y-89985295D02*
X116590952Y-90175771D01*
X116590952Y-90175771D02*
X116590952Y-90413866D01*
X116590952Y-90413866D02*
X116543333Y-90604342D01*
X116543333Y-90604342D02*
X116495714Y-90699580D01*
X116495714Y-90699580D02*
X116448095Y-90747200D01*
X116448095Y-90747200D02*
X116352857Y-90794819D01*
X116352857Y-90794819D02*
X116257619Y-90794819D01*
X116257619Y-90794819D02*
X116162381Y-90747200D01*
X116162381Y-90747200D02*
X116114762Y-90699580D01*
X116114762Y-90699580D02*
X116067143Y-90604342D01*
X116067143Y-90604342D02*
X116019524Y-90413866D01*
X116019524Y-90413866D02*
X116019524Y-90175771D01*
X116019524Y-90175771D02*
X116067143Y-89985295D01*
X116067143Y-89985295D02*
X116114762Y-89890057D01*
X116114762Y-89890057D02*
X116162381Y-89842438D01*
X116162381Y-89842438D02*
X116257619Y-89794819D01*
X117210000Y-89794819D02*
X117305238Y-89794819D01*
X117305238Y-89794819D02*
X117400476Y-89842438D01*
X117400476Y-89842438D02*
X117448095Y-89890057D01*
X117448095Y-89890057D02*
X117495714Y-89985295D01*
X117495714Y-89985295D02*
X117543333Y-90175771D01*
X117543333Y-90175771D02*
X117543333Y-90413866D01*
X117543333Y-90413866D02*
X117495714Y-90604342D01*
X117495714Y-90604342D02*
X117448095Y-90699580D01*
X117448095Y-90699580D02*
X117400476Y-90747200D01*
X117400476Y-90747200D02*
X117305238Y-90794819D01*
X117305238Y-90794819D02*
X117210000Y-90794819D01*
X117210000Y-90794819D02*
X117114762Y-90747200D01*
X117114762Y-90747200D02*
X117067143Y-90699580D01*
X117067143Y-90699580D02*
X117019524Y-90604342D01*
X117019524Y-90604342D02*
X116971905Y-90413866D01*
X116971905Y-90413866D02*
X116971905Y-90175771D01*
X116971905Y-90175771D02*
X117019524Y-89985295D01*
X117019524Y-89985295D02*
X117067143Y-89890057D01*
X117067143Y-89890057D02*
X117114762Y-89842438D01*
X117114762Y-89842438D02*
X117210000Y-89794819D01*
X117971905Y-90794819D02*
X117971905Y-89794819D01*
X118067143Y-90413866D02*
X118352857Y-90794819D01*
X118352857Y-90128152D02*
X117971905Y-90509104D01*
X116543333Y-85354819D02*
X116210000Y-84878628D01*
X115971905Y-85354819D02*
X115971905Y-84354819D01*
X115971905Y-84354819D02*
X116352857Y-84354819D01*
X116352857Y-84354819D02*
X116448095Y-84402438D01*
X116448095Y-84402438D02*
X116495714Y-84450057D01*
X116495714Y-84450057D02*
X116543333Y-84545295D01*
X116543333Y-84545295D02*
X116543333Y-84688152D01*
X116543333Y-84688152D02*
X116495714Y-84783390D01*
X116495714Y-84783390D02*
X116448095Y-84831009D01*
X116448095Y-84831009D02*
X116352857Y-84878628D01*
X116352857Y-84878628D02*
X115971905Y-84878628D01*
X116924286Y-84450057D02*
X116971905Y-84402438D01*
X116971905Y-84402438D02*
X117067143Y-84354819D01*
X117067143Y-84354819D02*
X117305238Y-84354819D01*
X117305238Y-84354819D02*
X117400476Y-84402438D01*
X117400476Y-84402438D02*
X117448095Y-84450057D01*
X117448095Y-84450057D02*
X117495714Y-84545295D01*
X117495714Y-84545295D02*
X117495714Y-84640533D01*
X117495714Y-84640533D02*
X117448095Y-84783390D01*
X117448095Y-84783390D02*
X116876667Y-85354819D01*
X116876667Y-85354819D02*
X117495714Y-85354819D01*
X136918095Y-92334819D02*
X136918095Y-91334819D01*
X136918095Y-91334819D02*
X137251428Y-92049104D01*
X137251428Y-92049104D02*
X137584761Y-91334819D01*
X137584761Y-91334819D02*
X137584761Y-92334819D01*
X138632380Y-92239580D02*
X138584761Y-92287200D01*
X138584761Y-92287200D02*
X138441904Y-92334819D01*
X138441904Y-92334819D02*
X138346666Y-92334819D01*
X138346666Y-92334819D02*
X138203809Y-92287200D01*
X138203809Y-92287200D02*
X138108571Y-92191961D01*
X138108571Y-92191961D02*
X138060952Y-92096723D01*
X138060952Y-92096723D02*
X138013333Y-91906247D01*
X138013333Y-91906247D02*
X138013333Y-91763390D01*
X138013333Y-91763390D02*
X138060952Y-91572914D01*
X138060952Y-91572914D02*
X138108571Y-91477676D01*
X138108571Y-91477676D02*
X138203809Y-91382438D01*
X138203809Y-91382438D02*
X138346666Y-91334819D01*
X138346666Y-91334819D02*
X138441904Y-91334819D01*
X138441904Y-91334819D02*
X138584761Y-91382438D01*
X138584761Y-91382438D02*
X138632380Y-91430057D01*
X139060952Y-92334819D02*
X139060952Y-91334819D01*
X139060952Y-91334819D02*
X139441904Y-91334819D01*
X139441904Y-91334819D02*
X139537142Y-91382438D01*
X139537142Y-91382438D02*
X139584761Y-91430057D01*
X139584761Y-91430057D02*
X139632380Y-91525295D01*
X139632380Y-91525295D02*
X139632380Y-91668152D01*
X139632380Y-91668152D02*
X139584761Y-91763390D01*
X139584761Y-91763390D02*
X139537142Y-91811009D01*
X139537142Y-91811009D02*
X139441904Y-91858628D01*
X139441904Y-91858628D02*
X139060952Y-91858628D01*
X140489523Y-91334819D02*
X140299047Y-91334819D01*
X140299047Y-91334819D02*
X140203809Y-91382438D01*
X140203809Y-91382438D02*
X140156190Y-91430057D01*
X140156190Y-91430057D02*
X140060952Y-91572914D01*
X140060952Y-91572914D02*
X140013333Y-91763390D01*
X140013333Y-91763390D02*
X140013333Y-92144342D01*
X140013333Y-92144342D02*
X140060952Y-92239580D01*
X140060952Y-92239580D02*
X140108571Y-92287200D01*
X140108571Y-92287200D02*
X140203809Y-92334819D01*
X140203809Y-92334819D02*
X140394285Y-92334819D01*
X140394285Y-92334819D02*
X140489523Y-92287200D01*
X140489523Y-92287200D02*
X140537142Y-92239580D01*
X140537142Y-92239580D02*
X140584761Y-92144342D01*
X140584761Y-92144342D02*
X140584761Y-91906247D01*
X140584761Y-91906247D02*
X140537142Y-91811009D01*
X140537142Y-91811009D02*
X140489523Y-91763390D01*
X140489523Y-91763390D02*
X140394285Y-91715771D01*
X140394285Y-91715771D02*
X140203809Y-91715771D01*
X140203809Y-91715771D02*
X140108571Y-91763390D01*
X140108571Y-91763390D02*
X140060952Y-91811009D01*
X140060952Y-91811009D02*
X140013333Y-91906247D01*
X141203809Y-91334819D02*
X141299047Y-91334819D01*
X141299047Y-91334819D02*
X141394285Y-91382438D01*
X141394285Y-91382438D02*
X141441904Y-91430057D01*
X141441904Y-91430057D02*
X141489523Y-91525295D01*
X141489523Y-91525295D02*
X141537142Y-91715771D01*
X141537142Y-91715771D02*
X141537142Y-91953866D01*
X141537142Y-91953866D02*
X141489523Y-92144342D01*
X141489523Y-92144342D02*
X141441904Y-92239580D01*
X141441904Y-92239580D02*
X141394285Y-92287200D01*
X141394285Y-92287200D02*
X141299047Y-92334819D01*
X141299047Y-92334819D02*
X141203809Y-92334819D01*
X141203809Y-92334819D02*
X141108571Y-92287200D01*
X141108571Y-92287200D02*
X141060952Y-92239580D01*
X141060952Y-92239580D02*
X141013333Y-92144342D01*
X141013333Y-92144342D02*
X140965714Y-91953866D01*
X140965714Y-91953866D02*
X140965714Y-91715771D01*
X140965714Y-91715771D02*
X141013333Y-91525295D01*
X141013333Y-91525295D02*
X141060952Y-91430057D01*
X141060952Y-91430057D02*
X141108571Y-91382438D01*
X141108571Y-91382438D02*
X141203809Y-91334819D01*
X142156190Y-91334819D02*
X142251428Y-91334819D01*
X142251428Y-91334819D02*
X142346666Y-91382438D01*
X142346666Y-91382438D02*
X142394285Y-91430057D01*
X142394285Y-91430057D02*
X142441904Y-91525295D01*
X142441904Y-91525295D02*
X142489523Y-91715771D01*
X142489523Y-91715771D02*
X142489523Y-91953866D01*
X142489523Y-91953866D02*
X142441904Y-92144342D01*
X142441904Y-92144342D02*
X142394285Y-92239580D01*
X142394285Y-92239580D02*
X142346666Y-92287200D01*
X142346666Y-92287200D02*
X142251428Y-92334819D01*
X142251428Y-92334819D02*
X142156190Y-92334819D01*
X142156190Y-92334819D02*
X142060952Y-92287200D01*
X142060952Y-92287200D02*
X142013333Y-92239580D01*
X142013333Y-92239580D02*
X141965714Y-92144342D01*
X141965714Y-92144342D02*
X141918095Y-91953866D01*
X141918095Y-91953866D02*
X141918095Y-91715771D01*
X141918095Y-91715771D02*
X141965714Y-91525295D01*
X141965714Y-91525295D02*
X142013333Y-91430057D01*
X142013333Y-91430057D02*
X142060952Y-91382438D01*
X142060952Y-91382438D02*
X142156190Y-91334819D01*
X142870476Y-91430057D02*
X142918095Y-91382438D01*
X142918095Y-91382438D02*
X143013333Y-91334819D01*
X143013333Y-91334819D02*
X143251428Y-91334819D01*
X143251428Y-91334819D02*
X143346666Y-91382438D01*
X143346666Y-91382438D02*
X143394285Y-91430057D01*
X143394285Y-91430057D02*
X143441904Y-91525295D01*
X143441904Y-91525295D02*
X143441904Y-91620533D01*
X143441904Y-91620533D02*
X143394285Y-91763390D01*
X143394285Y-91763390D02*
X142822857Y-92334819D01*
X142822857Y-92334819D02*
X143441904Y-92334819D01*
X143870476Y-91953866D02*
X144632381Y-91953866D01*
X145013333Y-92334819D02*
X145537142Y-91668152D01*
X145013333Y-91668152D02*
X145537142Y-92334819D01*
X145918095Y-92334819D02*
X145918095Y-91334819D01*
X145918095Y-91334819D02*
X146299047Y-91334819D01*
X146299047Y-91334819D02*
X146394285Y-91382438D01*
X146394285Y-91382438D02*
X146441904Y-91430057D01*
X146441904Y-91430057D02*
X146489523Y-91525295D01*
X146489523Y-91525295D02*
X146489523Y-91668152D01*
X146489523Y-91668152D02*
X146441904Y-91763390D01*
X146441904Y-91763390D02*
X146394285Y-91811009D01*
X146394285Y-91811009D02*
X146299047Y-91858628D01*
X146299047Y-91858628D02*
X145918095Y-91858628D01*
X141134819Y-86501904D02*
X141944342Y-86501904D01*
X141944342Y-86501904D02*
X142039580Y-86454285D01*
X142039580Y-86454285D02*
X142087200Y-86406666D01*
X142087200Y-86406666D02*
X142134819Y-86311428D01*
X142134819Y-86311428D02*
X142134819Y-86120952D01*
X142134819Y-86120952D02*
X142087200Y-86025714D01*
X142087200Y-86025714D02*
X142039580Y-85978095D01*
X142039580Y-85978095D02*
X141944342Y-85930476D01*
X141944342Y-85930476D02*
X141134819Y-85930476D01*
X142134819Y-84930476D02*
X142134819Y-85501904D01*
X142134819Y-85216190D02*
X141134819Y-85216190D01*
X141134819Y-85216190D02*
X141277676Y-85311428D01*
X141277676Y-85311428D02*
X141372914Y-85406666D01*
X141372914Y-85406666D02*
X141420533Y-85501904D01*
X158505238Y-89034819D02*
X158505238Y-89749104D01*
X158505238Y-89749104D02*
X158457619Y-89891961D01*
X158457619Y-89891961D02*
X158362381Y-89987200D01*
X158362381Y-89987200D02*
X158219524Y-90034819D01*
X158219524Y-90034819D02*
X158124286Y-90034819D01*
X158981429Y-89034819D02*
X158981429Y-89844342D01*
X158981429Y-89844342D02*
X159029048Y-89939580D01*
X159029048Y-89939580D02*
X159076667Y-89987200D01*
X159076667Y-89987200D02*
X159171905Y-90034819D01*
X159171905Y-90034819D02*
X159362381Y-90034819D01*
X159362381Y-90034819D02*
X159457619Y-89987200D01*
X159457619Y-89987200D02*
X159505238Y-89939580D01*
X159505238Y-89939580D02*
X159552857Y-89844342D01*
X159552857Y-89844342D02*
X159552857Y-89034819D01*
X160029048Y-90034819D02*
X160029048Y-89034819D01*
X160029048Y-89034819D02*
X160362381Y-89749104D01*
X160362381Y-89749104D02*
X160695714Y-89034819D01*
X160695714Y-89034819D02*
X160695714Y-90034819D01*
X161171905Y-90034819D02*
X161171905Y-89034819D01*
X161171905Y-89034819D02*
X161552857Y-89034819D01*
X161552857Y-89034819D02*
X161648095Y-89082438D01*
X161648095Y-89082438D02*
X161695714Y-89130057D01*
X161695714Y-89130057D02*
X161743333Y-89225295D01*
X161743333Y-89225295D02*
X161743333Y-89368152D01*
X161743333Y-89368152D02*
X161695714Y-89463390D01*
X161695714Y-89463390D02*
X161648095Y-89511009D01*
X161648095Y-89511009D02*
X161552857Y-89558628D01*
X161552857Y-89558628D02*
X161171905Y-89558628D01*
X162171905Y-89511009D02*
X162505238Y-89511009D01*
X162648095Y-90034819D02*
X162171905Y-90034819D01*
X162171905Y-90034819D02*
X162171905Y-89034819D01*
X162171905Y-89034819D02*
X162648095Y-89034819D01*
X163648095Y-90034819D02*
X163314762Y-89558628D01*
X163076667Y-90034819D02*
X163076667Y-89034819D01*
X163076667Y-89034819D02*
X163457619Y-89034819D01*
X163457619Y-89034819D02*
X163552857Y-89082438D01*
X163552857Y-89082438D02*
X163600476Y-89130057D01*
X163600476Y-89130057D02*
X163648095Y-89225295D01*
X163648095Y-89225295D02*
X163648095Y-89368152D01*
X163648095Y-89368152D02*
X163600476Y-89463390D01*
X163600476Y-89463390D02*
X163552857Y-89511009D01*
X163552857Y-89511009D02*
X163457619Y-89558628D01*
X163457619Y-89558628D02*
X163076667Y-89558628D01*
X160364819Y-84993333D02*
X161079104Y-84993333D01*
X161079104Y-84993333D02*
X161221961Y-85040952D01*
X161221961Y-85040952D02*
X161317200Y-85136190D01*
X161317200Y-85136190D02*
X161364819Y-85279047D01*
X161364819Y-85279047D02*
X161364819Y-85374285D01*
X161364819Y-84469523D02*
X161364819Y-84279047D01*
X161364819Y-84279047D02*
X161317200Y-84183809D01*
X161317200Y-84183809D02*
X161269580Y-84136190D01*
X161269580Y-84136190D02*
X161126723Y-84040952D01*
X161126723Y-84040952D02*
X160936247Y-83993333D01*
X160936247Y-83993333D02*
X160555295Y-83993333D01*
X160555295Y-83993333D02*
X160460057Y-84040952D01*
X160460057Y-84040952D02*
X160412438Y-84088571D01*
X160412438Y-84088571D02*
X160364819Y-84183809D01*
X160364819Y-84183809D02*
X160364819Y-84374285D01*
X160364819Y-84374285D02*
X160412438Y-84469523D01*
X160412438Y-84469523D02*
X160460057Y-84517142D01*
X160460057Y-84517142D02*
X160555295Y-84564761D01*
X160555295Y-84564761D02*
X160793390Y-84564761D01*
X160793390Y-84564761D02*
X160888628Y-84517142D01*
X160888628Y-84517142D02*
X160936247Y-84469523D01*
X160936247Y-84469523D02*
X160983866Y-84374285D01*
X160983866Y-84374285D02*
X160983866Y-84183809D01*
X160983866Y-84183809D02*
X160936247Y-84088571D01*
X160936247Y-84088571D02*
X160888628Y-84040952D01*
X160888628Y-84040952D02*
X160793390Y-83993333D01*
X124533333Y-60720057D02*
X124580952Y-60672438D01*
X124580952Y-60672438D02*
X124676190Y-60624819D01*
X124676190Y-60624819D02*
X124914285Y-60624819D01*
X124914285Y-60624819D02*
X125009523Y-60672438D01*
X125009523Y-60672438D02*
X125057142Y-60720057D01*
X125057142Y-60720057D02*
X125104761Y-60815295D01*
X125104761Y-60815295D02*
X125104761Y-60910533D01*
X125104761Y-60910533D02*
X125057142Y-61053390D01*
X125057142Y-61053390D02*
X124485714Y-61624819D01*
X124485714Y-61624819D02*
X125104761Y-61624819D01*
X125723809Y-60624819D02*
X125819047Y-60624819D01*
X125819047Y-60624819D02*
X125914285Y-60672438D01*
X125914285Y-60672438D02*
X125961904Y-60720057D01*
X125961904Y-60720057D02*
X126009523Y-60815295D01*
X126009523Y-60815295D02*
X126057142Y-61005771D01*
X126057142Y-61005771D02*
X126057142Y-61243866D01*
X126057142Y-61243866D02*
X126009523Y-61434342D01*
X126009523Y-61434342D02*
X125961904Y-61529580D01*
X125961904Y-61529580D02*
X125914285Y-61577200D01*
X125914285Y-61577200D02*
X125819047Y-61624819D01*
X125819047Y-61624819D02*
X125723809Y-61624819D01*
X125723809Y-61624819D02*
X125628571Y-61577200D01*
X125628571Y-61577200D02*
X125580952Y-61529580D01*
X125580952Y-61529580D02*
X125533333Y-61434342D01*
X125533333Y-61434342D02*
X125485714Y-61243866D01*
X125485714Y-61243866D02*
X125485714Y-61005771D01*
X125485714Y-61005771D02*
X125533333Y-60815295D01*
X125533333Y-60815295D02*
X125580952Y-60720057D01*
X125580952Y-60720057D02*
X125628571Y-60672438D01*
X125628571Y-60672438D02*
X125723809Y-60624819D01*
X126485714Y-61624819D02*
X126485714Y-60624819D01*
X126580952Y-61243866D02*
X126866666Y-61624819D01*
X126866666Y-60958152D02*
X126485714Y-61339104D01*
X125533333Y-56184819D02*
X125200000Y-55708628D01*
X124961905Y-56184819D02*
X124961905Y-55184819D01*
X124961905Y-55184819D02*
X125342857Y-55184819D01*
X125342857Y-55184819D02*
X125438095Y-55232438D01*
X125438095Y-55232438D02*
X125485714Y-55280057D01*
X125485714Y-55280057D02*
X125533333Y-55375295D01*
X125533333Y-55375295D02*
X125533333Y-55518152D01*
X125533333Y-55518152D02*
X125485714Y-55613390D01*
X125485714Y-55613390D02*
X125438095Y-55661009D01*
X125438095Y-55661009D02*
X125342857Y-55708628D01*
X125342857Y-55708628D02*
X124961905Y-55708628D01*
X125866667Y-55184819D02*
X126485714Y-55184819D01*
X126485714Y-55184819D02*
X126152381Y-55565771D01*
X126152381Y-55565771D02*
X126295238Y-55565771D01*
X126295238Y-55565771D02*
X126390476Y-55613390D01*
X126390476Y-55613390D02*
X126438095Y-55661009D01*
X126438095Y-55661009D02*
X126485714Y-55756247D01*
X126485714Y-55756247D02*
X126485714Y-55994342D01*
X126485714Y-55994342D02*
X126438095Y-56089580D01*
X126438095Y-56089580D02*
X126390476Y-56137200D01*
X126390476Y-56137200D02*
X126295238Y-56184819D01*
X126295238Y-56184819D02*
X126009524Y-56184819D01*
X126009524Y-56184819D02*
X125914286Y-56137200D01*
X125914286Y-56137200D02*
X125866667Y-56089580D01*
X173453809Y-63389104D02*
X173929999Y-63389104D01*
X173358571Y-63674819D02*
X173691904Y-62674819D01*
X173691904Y-62674819D02*
X174025237Y-63674819D01*
X174787142Y-63008152D02*
X174787142Y-63674819D01*
X174358571Y-63008152D02*
X174358571Y-63531961D01*
X174358571Y-63531961D02*
X174406190Y-63627200D01*
X174406190Y-63627200D02*
X174501428Y-63674819D01*
X174501428Y-63674819D02*
X174644285Y-63674819D01*
X174644285Y-63674819D02*
X174739523Y-63627200D01*
X174739523Y-63627200D02*
X174787142Y-63579580D01*
X175691904Y-63674819D02*
X175691904Y-62674819D01*
X175691904Y-63627200D02*
X175596666Y-63674819D01*
X175596666Y-63674819D02*
X175406190Y-63674819D01*
X175406190Y-63674819D02*
X175310952Y-63627200D01*
X175310952Y-63627200D02*
X175263333Y-63579580D01*
X175263333Y-63579580D02*
X175215714Y-63484342D01*
X175215714Y-63484342D02*
X175215714Y-63198628D01*
X175215714Y-63198628D02*
X175263333Y-63103390D01*
X175263333Y-63103390D02*
X175310952Y-63055771D01*
X175310952Y-63055771D02*
X175406190Y-63008152D01*
X175406190Y-63008152D02*
X175596666Y-63008152D01*
X175596666Y-63008152D02*
X175691904Y-63055771D01*
X176168095Y-63674819D02*
X176168095Y-63008152D01*
X176168095Y-62674819D02*
X176120476Y-62722438D01*
X176120476Y-62722438D02*
X176168095Y-62770057D01*
X176168095Y-62770057D02*
X176215714Y-62722438D01*
X176215714Y-62722438D02*
X176168095Y-62674819D01*
X176168095Y-62674819D02*
X176168095Y-62770057D01*
X176787142Y-63674819D02*
X176691904Y-63627200D01*
X176691904Y-63627200D02*
X176644285Y-63579580D01*
X176644285Y-63579580D02*
X176596666Y-63484342D01*
X176596666Y-63484342D02*
X176596666Y-63198628D01*
X176596666Y-63198628D02*
X176644285Y-63103390D01*
X176644285Y-63103390D02*
X176691904Y-63055771D01*
X176691904Y-63055771D02*
X176787142Y-63008152D01*
X176787142Y-63008152D02*
X176929999Y-63008152D01*
X176929999Y-63008152D02*
X177025237Y-63055771D01*
X177025237Y-63055771D02*
X177072856Y-63103390D01*
X177072856Y-63103390D02*
X177120475Y-63198628D01*
X177120475Y-63198628D02*
X177120475Y-63484342D01*
X177120475Y-63484342D02*
X177072856Y-63579580D01*
X177072856Y-63579580D02*
X177025237Y-63627200D01*
X177025237Y-63627200D02*
X176929999Y-63674819D01*
X176929999Y-63674819D02*
X176787142Y-63674819D01*
X177834761Y-62674819D02*
X177834761Y-63389104D01*
X177834761Y-63389104D02*
X177787142Y-63531961D01*
X177787142Y-63531961D02*
X177691904Y-63627200D01*
X177691904Y-63627200D02*
X177549047Y-63674819D01*
X177549047Y-63674819D02*
X177453809Y-63674819D01*
X178739523Y-63674819D02*
X178739523Y-63151009D01*
X178739523Y-63151009D02*
X178691904Y-63055771D01*
X178691904Y-63055771D02*
X178596666Y-63008152D01*
X178596666Y-63008152D02*
X178406190Y-63008152D01*
X178406190Y-63008152D02*
X178310952Y-63055771D01*
X178739523Y-63627200D02*
X178644285Y-63674819D01*
X178644285Y-63674819D02*
X178406190Y-63674819D01*
X178406190Y-63674819D02*
X178310952Y-63627200D01*
X178310952Y-63627200D02*
X178263333Y-63531961D01*
X178263333Y-63531961D02*
X178263333Y-63436723D01*
X178263333Y-63436723D02*
X178310952Y-63341485D01*
X178310952Y-63341485D02*
X178406190Y-63293866D01*
X178406190Y-63293866D02*
X178644285Y-63293866D01*
X178644285Y-63293866D02*
X178739523Y-63246247D01*
X179644285Y-63627200D02*
X179549047Y-63674819D01*
X179549047Y-63674819D02*
X179358571Y-63674819D01*
X179358571Y-63674819D02*
X179263333Y-63627200D01*
X179263333Y-63627200D02*
X179215714Y-63579580D01*
X179215714Y-63579580D02*
X179168095Y-63484342D01*
X179168095Y-63484342D02*
X179168095Y-63198628D01*
X179168095Y-63198628D02*
X179215714Y-63103390D01*
X179215714Y-63103390D02*
X179263333Y-63055771D01*
X179263333Y-63055771D02*
X179358571Y-63008152D01*
X179358571Y-63008152D02*
X179549047Y-63008152D01*
X179549047Y-63008152D02*
X179644285Y-63055771D01*
X180072857Y-63674819D02*
X180072857Y-62674819D01*
X180168095Y-63293866D02*
X180453809Y-63674819D01*
X180453809Y-63008152D02*
X180072857Y-63389104D01*
X181358571Y-62674819D02*
X180882381Y-62674819D01*
X180882381Y-62674819D02*
X180834762Y-63151009D01*
X180834762Y-63151009D02*
X180882381Y-63103390D01*
X180882381Y-63103390D02*
X180977619Y-63055771D01*
X180977619Y-63055771D02*
X181215714Y-63055771D01*
X181215714Y-63055771D02*
X181310952Y-63103390D01*
X181310952Y-63103390D02*
X181358571Y-63151009D01*
X181358571Y-63151009D02*
X181406190Y-63246247D01*
X181406190Y-63246247D02*
X181406190Y-63484342D01*
X181406190Y-63484342D02*
X181358571Y-63579580D01*
X181358571Y-63579580D02*
X181310952Y-63627200D01*
X181310952Y-63627200D02*
X181215714Y-63674819D01*
X181215714Y-63674819D02*
X180977619Y-63674819D01*
X180977619Y-63674819D02*
X180882381Y-63627200D01*
X180882381Y-63627200D02*
X180834762Y-63579580D01*
X176620476Y-71174819D02*
X176620476Y-71889104D01*
X176620476Y-71889104D02*
X176572857Y-72031961D01*
X176572857Y-72031961D02*
X176477619Y-72127200D01*
X176477619Y-72127200D02*
X176334762Y-72174819D01*
X176334762Y-72174819D02*
X176239524Y-72174819D01*
X177620476Y-72174819D02*
X177049048Y-72174819D01*
X177334762Y-72174819D02*
X177334762Y-71174819D01*
X177334762Y-71174819D02*
X177239524Y-71317676D01*
X177239524Y-71317676D02*
X177144286Y-71412914D01*
X177144286Y-71412914D02*
X177049048Y-71460533D01*
X178239524Y-71174819D02*
X178334762Y-71174819D01*
X178334762Y-71174819D02*
X178430000Y-71222438D01*
X178430000Y-71222438D02*
X178477619Y-71270057D01*
X178477619Y-71270057D02*
X178525238Y-71365295D01*
X178525238Y-71365295D02*
X178572857Y-71555771D01*
X178572857Y-71555771D02*
X178572857Y-71793866D01*
X178572857Y-71793866D02*
X178525238Y-71984342D01*
X178525238Y-71984342D02*
X178477619Y-72079580D01*
X178477619Y-72079580D02*
X178430000Y-72127200D01*
X178430000Y-72127200D02*
X178334762Y-72174819D01*
X178334762Y-72174819D02*
X178239524Y-72174819D01*
X178239524Y-72174819D02*
X178144286Y-72127200D01*
X178144286Y-72127200D02*
X178096667Y-72079580D01*
X178096667Y-72079580D02*
X178049048Y-71984342D01*
X178049048Y-71984342D02*
X178001429Y-71793866D01*
X178001429Y-71793866D02*
X178001429Y-71555771D01*
X178001429Y-71555771D02*
X178049048Y-71365295D01*
X178049048Y-71365295D02*
X178096667Y-71270057D01*
X178096667Y-71270057D02*
X178144286Y-71222438D01*
X178144286Y-71222438D02*
X178239524Y-71174819D01*
X152003571Y-91839819D02*
X151432143Y-91839819D01*
X151717857Y-91839819D02*
X151717857Y-90839819D01*
X151717857Y-90839819D02*
X151622619Y-90982676D01*
X151622619Y-90982676D02*
X151527381Y-91077914D01*
X151527381Y-91077914D02*
X151432143Y-91125533D01*
X152622619Y-90839819D02*
X152717857Y-90839819D01*
X152717857Y-90839819D02*
X152813095Y-90887438D01*
X152813095Y-90887438D02*
X152860714Y-90935057D01*
X152860714Y-90935057D02*
X152908333Y-91030295D01*
X152908333Y-91030295D02*
X152955952Y-91220771D01*
X152955952Y-91220771D02*
X152955952Y-91458866D01*
X152955952Y-91458866D02*
X152908333Y-91649342D01*
X152908333Y-91649342D02*
X152860714Y-91744580D01*
X152860714Y-91744580D02*
X152813095Y-91792200D01*
X152813095Y-91792200D02*
X152717857Y-91839819D01*
X152717857Y-91839819D02*
X152622619Y-91839819D01*
X152622619Y-91839819D02*
X152527381Y-91792200D01*
X152527381Y-91792200D02*
X152479762Y-91744580D01*
X152479762Y-91744580D02*
X152432143Y-91649342D01*
X152432143Y-91649342D02*
X152384524Y-91458866D01*
X152384524Y-91458866D02*
X152384524Y-91220771D01*
X152384524Y-91220771D02*
X152432143Y-91030295D01*
X152432143Y-91030295D02*
X152479762Y-90935057D01*
X152479762Y-90935057D02*
X152527381Y-90887438D01*
X152527381Y-90887438D02*
X152622619Y-90839819D01*
X153575000Y-90839819D02*
X153670238Y-90839819D01*
X153670238Y-90839819D02*
X153765476Y-90887438D01*
X153765476Y-90887438D02*
X153813095Y-90935057D01*
X153813095Y-90935057D02*
X153860714Y-91030295D01*
X153860714Y-91030295D02*
X153908333Y-91220771D01*
X153908333Y-91220771D02*
X153908333Y-91458866D01*
X153908333Y-91458866D02*
X153860714Y-91649342D01*
X153860714Y-91649342D02*
X153813095Y-91744580D01*
X153813095Y-91744580D02*
X153765476Y-91792200D01*
X153765476Y-91792200D02*
X153670238Y-91839819D01*
X153670238Y-91839819D02*
X153575000Y-91839819D01*
X153575000Y-91839819D02*
X153479762Y-91792200D01*
X153479762Y-91792200D02*
X153432143Y-91744580D01*
X153432143Y-91744580D02*
X153384524Y-91649342D01*
X153384524Y-91649342D02*
X153336905Y-91458866D01*
X153336905Y-91458866D02*
X153336905Y-91220771D01*
X153336905Y-91220771D02*
X153384524Y-91030295D01*
X153384524Y-91030295D02*
X153432143Y-90935057D01*
X153432143Y-90935057D02*
X153479762Y-90887438D01*
X153479762Y-90887438D02*
X153575000Y-90839819D01*
X154336905Y-91839819D02*
X154336905Y-90839819D01*
X154432143Y-91458866D02*
X154717857Y-91839819D01*
X154717857Y-91173152D02*
X154336905Y-91554104D01*
X149764819Y-85965238D02*
X149288628Y-86298571D01*
X149764819Y-86536666D02*
X148764819Y-86536666D01*
X148764819Y-86536666D02*
X148764819Y-86155714D01*
X148764819Y-86155714D02*
X148812438Y-86060476D01*
X148812438Y-86060476D02*
X148860057Y-86012857D01*
X148860057Y-86012857D02*
X148955295Y-85965238D01*
X148955295Y-85965238D02*
X149098152Y-85965238D01*
X149098152Y-85965238D02*
X149193390Y-86012857D01*
X149193390Y-86012857D02*
X149241009Y-86060476D01*
X149241009Y-86060476D02*
X149288628Y-86155714D01*
X149288628Y-86155714D02*
X149288628Y-86536666D01*
X148764819Y-85679523D02*
X149764819Y-85346190D01*
X149764819Y-85346190D02*
X148764819Y-85012857D01*
X148764819Y-84774761D02*
X148764819Y-84155714D01*
X148764819Y-84155714D02*
X149145771Y-84489047D01*
X149145771Y-84489047D02*
X149145771Y-84346190D01*
X149145771Y-84346190D02*
X149193390Y-84250952D01*
X149193390Y-84250952D02*
X149241009Y-84203333D01*
X149241009Y-84203333D02*
X149336247Y-84155714D01*
X149336247Y-84155714D02*
X149574342Y-84155714D01*
X149574342Y-84155714D02*
X149669580Y-84203333D01*
X149669580Y-84203333D02*
X149717200Y-84250952D01*
X149717200Y-84250952D02*
X149764819Y-84346190D01*
X149764819Y-84346190D02*
X149764819Y-84631904D01*
X149764819Y-84631904D02*
X149717200Y-84727142D01*
X149717200Y-84727142D02*
X149669580Y-84774761D01*
X115248571Y-77969819D02*
X114677143Y-77969819D01*
X114962857Y-77969819D02*
X114962857Y-76969819D01*
X114962857Y-76969819D02*
X114867619Y-77112676D01*
X114867619Y-77112676D02*
X114772381Y-77207914D01*
X114772381Y-77207914D02*
X114677143Y-77255533D01*
X115867619Y-76969819D02*
X115962857Y-76969819D01*
X115962857Y-76969819D02*
X116058095Y-77017438D01*
X116058095Y-77017438D02*
X116105714Y-77065057D01*
X116105714Y-77065057D02*
X116153333Y-77160295D01*
X116153333Y-77160295D02*
X116200952Y-77350771D01*
X116200952Y-77350771D02*
X116200952Y-77588866D01*
X116200952Y-77588866D02*
X116153333Y-77779342D01*
X116153333Y-77779342D02*
X116105714Y-77874580D01*
X116105714Y-77874580D02*
X116058095Y-77922200D01*
X116058095Y-77922200D02*
X115962857Y-77969819D01*
X115962857Y-77969819D02*
X115867619Y-77969819D01*
X115867619Y-77969819D02*
X115772381Y-77922200D01*
X115772381Y-77922200D02*
X115724762Y-77874580D01*
X115724762Y-77874580D02*
X115677143Y-77779342D01*
X115677143Y-77779342D02*
X115629524Y-77588866D01*
X115629524Y-77588866D02*
X115629524Y-77350771D01*
X115629524Y-77350771D02*
X115677143Y-77160295D01*
X115677143Y-77160295D02*
X115724762Y-77065057D01*
X115724762Y-77065057D02*
X115772381Y-77017438D01*
X115772381Y-77017438D02*
X115867619Y-76969819D01*
X116820000Y-76969819D02*
X116915238Y-76969819D01*
X116915238Y-76969819D02*
X117010476Y-77017438D01*
X117010476Y-77017438D02*
X117058095Y-77065057D01*
X117058095Y-77065057D02*
X117105714Y-77160295D01*
X117105714Y-77160295D02*
X117153333Y-77350771D01*
X117153333Y-77350771D02*
X117153333Y-77588866D01*
X117153333Y-77588866D02*
X117105714Y-77779342D01*
X117105714Y-77779342D02*
X117058095Y-77874580D01*
X117058095Y-77874580D02*
X117010476Y-77922200D01*
X117010476Y-77922200D02*
X116915238Y-77969819D01*
X116915238Y-77969819D02*
X116820000Y-77969819D01*
X116820000Y-77969819D02*
X116724762Y-77922200D01*
X116724762Y-77922200D02*
X116677143Y-77874580D01*
X116677143Y-77874580D02*
X116629524Y-77779342D01*
X116629524Y-77779342D02*
X116581905Y-77588866D01*
X116581905Y-77588866D02*
X116581905Y-77350771D01*
X116581905Y-77350771D02*
X116629524Y-77160295D01*
X116629524Y-77160295D02*
X116677143Y-77065057D01*
X116677143Y-77065057D02*
X116724762Y-77017438D01*
X116724762Y-77017438D02*
X116820000Y-76969819D01*
X117581905Y-77969819D02*
X117581905Y-76969819D01*
X117677143Y-77588866D02*
X117962857Y-77969819D01*
X117962857Y-77303152D02*
X117581905Y-77684104D01*
X113009819Y-72095238D02*
X112533628Y-72428571D01*
X113009819Y-72666666D02*
X112009819Y-72666666D01*
X112009819Y-72666666D02*
X112009819Y-72285714D01*
X112009819Y-72285714D02*
X112057438Y-72190476D01*
X112057438Y-72190476D02*
X112105057Y-72142857D01*
X112105057Y-72142857D02*
X112200295Y-72095238D01*
X112200295Y-72095238D02*
X112343152Y-72095238D01*
X112343152Y-72095238D02*
X112438390Y-72142857D01*
X112438390Y-72142857D02*
X112486009Y-72190476D01*
X112486009Y-72190476D02*
X112533628Y-72285714D01*
X112533628Y-72285714D02*
X112533628Y-72666666D01*
X112009819Y-71809523D02*
X113009819Y-71476190D01*
X113009819Y-71476190D02*
X112009819Y-71142857D01*
X112105057Y-70857142D02*
X112057438Y-70809523D01*
X112057438Y-70809523D02*
X112009819Y-70714285D01*
X112009819Y-70714285D02*
X112009819Y-70476190D01*
X112009819Y-70476190D02*
X112057438Y-70380952D01*
X112057438Y-70380952D02*
X112105057Y-70333333D01*
X112105057Y-70333333D02*
X112200295Y-70285714D01*
X112200295Y-70285714D02*
X112295533Y-70285714D01*
X112295533Y-70285714D02*
X112438390Y-70333333D01*
X112438390Y-70333333D02*
X113009819Y-70904761D01*
X113009819Y-70904761D02*
X113009819Y-70285714D01*
X131063333Y-60720057D02*
X131110952Y-60672438D01*
X131110952Y-60672438D02*
X131206190Y-60624819D01*
X131206190Y-60624819D02*
X131444285Y-60624819D01*
X131444285Y-60624819D02*
X131539523Y-60672438D01*
X131539523Y-60672438D02*
X131587142Y-60720057D01*
X131587142Y-60720057D02*
X131634761Y-60815295D01*
X131634761Y-60815295D02*
X131634761Y-60910533D01*
X131634761Y-60910533D02*
X131587142Y-61053390D01*
X131587142Y-61053390D02*
X131015714Y-61624819D01*
X131015714Y-61624819D02*
X131634761Y-61624819D01*
X132253809Y-60624819D02*
X132349047Y-60624819D01*
X132349047Y-60624819D02*
X132444285Y-60672438D01*
X132444285Y-60672438D02*
X132491904Y-60720057D01*
X132491904Y-60720057D02*
X132539523Y-60815295D01*
X132539523Y-60815295D02*
X132587142Y-61005771D01*
X132587142Y-61005771D02*
X132587142Y-61243866D01*
X132587142Y-61243866D02*
X132539523Y-61434342D01*
X132539523Y-61434342D02*
X132491904Y-61529580D01*
X132491904Y-61529580D02*
X132444285Y-61577200D01*
X132444285Y-61577200D02*
X132349047Y-61624819D01*
X132349047Y-61624819D02*
X132253809Y-61624819D01*
X132253809Y-61624819D02*
X132158571Y-61577200D01*
X132158571Y-61577200D02*
X132110952Y-61529580D01*
X132110952Y-61529580D02*
X132063333Y-61434342D01*
X132063333Y-61434342D02*
X132015714Y-61243866D01*
X132015714Y-61243866D02*
X132015714Y-61005771D01*
X132015714Y-61005771D02*
X132063333Y-60815295D01*
X132063333Y-60815295D02*
X132110952Y-60720057D01*
X132110952Y-60720057D02*
X132158571Y-60672438D01*
X132158571Y-60672438D02*
X132253809Y-60624819D01*
X133015714Y-61624819D02*
X133015714Y-60624819D01*
X133110952Y-61243866D02*
X133396666Y-61624819D01*
X133396666Y-60958152D02*
X133015714Y-61339104D01*
X132063333Y-56184819D02*
X131730000Y-55708628D01*
X131491905Y-56184819D02*
X131491905Y-55184819D01*
X131491905Y-55184819D02*
X131872857Y-55184819D01*
X131872857Y-55184819D02*
X131968095Y-55232438D01*
X131968095Y-55232438D02*
X132015714Y-55280057D01*
X132015714Y-55280057D02*
X132063333Y-55375295D01*
X132063333Y-55375295D02*
X132063333Y-55518152D01*
X132063333Y-55518152D02*
X132015714Y-55613390D01*
X132015714Y-55613390D02*
X131968095Y-55661009D01*
X131968095Y-55661009D02*
X131872857Y-55708628D01*
X131872857Y-55708628D02*
X131491905Y-55708628D01*
X132634762Y-55613390D02*
X132539524Y-55565771D01*
X132539524Y-55565771D02*
X132491905Y-55518152D01*
X132491905Y-55518152D02*
X132444286Y-55422914D01*
X132444286Y-55422914D02*
X132444286Y-55375295D01*
X132444286Y-55375295D02*
X132491905Y-55280057D01*
X132491905Y-55280057D02*
X132539524Y-55232438D01*
X132539524Y-55232438D02*
X132634762Y-55184819D01*
X132634762Y-55184819D02*
X132825238Y-55184819D01*
X132825238Y-55184819D02*
X132920476Y-55232438D01*
X132920476Y-55232438D02*
X132968095Y-55280057D01*
X132968095Y-55280057D02*
X133015714Y-55375295D01*
X133015714Y-55375295D02*
X133015714Y-55422914D01*
X133015714Y-55422914D02*
X132968095Y-55518152D01*
X132968095Y-55518152D02*
X132920476Y-55565771D01*
X132920476Y-55565771D02*
X132825238Y-55613390D01*
X132825238Y-55613390D02*
X132634762Y-55613390D01*
X132634762Y-55613390D02*
X132539524Y-55661009D01*
X132539524Y-55661009D02*
X132491905Y-55708628D01*
X132491905Y-55708628D02*
X132444286Y-55803866D01*
X132444286Y-55803866D02*
X132444286Y-55994342D01*
X132444286Y-55994342D02*
X132491905Y-56089580D01*
X132491905Y-56089580D02*
X132539524Y-56137200D01*
X132539524Y-56137200D02*
X132634762Y-56184819D01*
X132634762Y-56184819D02*
X132825238Y-56184819D01*
X132825238Y-56184819D02*
X132920476Y-56137200D01*
X132920476Y-56137200D02*
X132968095Y-56089580D01*
X132968095Y-56089580D02*
X133015714Y-55994342D01*
X133015714Y-55994342D02*
X133015714Y-55803866D01*
X133015714Y-55803866D02*
X132968095Y-55708628D01*
X132968095Y-55708628D02*
X132920476Y-55661009D01*
X132920476Y-55661009D02*
X132825238Y-55613390D01*
X119183333Y-92527200D02*
X119326190Y-92574819D01*
X119326190Y-92574819D02*
X119564285Y-92574819D01*
X119564285Y-92574819D02*
X119659523Y-92527200D01*
X119659523Y-92527200D02*
X119707142Y-92479580D01*
X119707142Y-92479580D02*
X119754761Y-92384342D01*
X119754761Y-92384342D02*
X119754761Y-92289104D01*
X119754761Y-92289104D02*
X119707142Y-92193866D01*
X119707142Y-92193866D02*
X119659523Y-92146247D01*
X119659523Y-92146247D02*
X119564285Y-92098628D01*
X119564285Y-92098628D02*
X119373809Y-92051009D01*
X119373809Y-92051009D02*
X119278571Y-92003390D01*
X119278571Y-92003390D02*
X119230952Y-91955771D01*
X119230952Y-91955771D02*
X119183333Y-91860533D01*
X119183333Y-91860533D02*
X119183333Y-91765295D01*
X119183333Y-91765295D02*
X119230952Y-91670057D01*
X119230952Y-91670057D02*
X119278571Y-91622438D01*
X119278571Y-91622438D02*
X119373809Y-91574819D01*
X119373809Y-91574819D02*
X119611904Y-91574819D01*
X119611904Y-91574819D02*
X119754761Y-91622438D01*
X120754761Y-92479580D02*
X120707142Y-92527200D01*
X120707142Y-92527200D02*
X120564285Y-92574819D01*
X120564285Y-92574819D02*
X120469047Y-92574819D01*
X120469047Y-92574819D02*
X120326190Y-92527200D01*
X120326190Y-92527200D02*
X120230952Y-92431961D01*
X120230952Y-92431961D02*
X120183333Y-92336723D01*
X120183333Y-92336723D02*
X120135714Y-92146247D01*
X120135714Y-92146247D02*
X120135714Y-92003390D01*
X120135714Y-92003390D02*
X120183333Y-91812914D01*
X120183333Y-91812914D02*
X120230952Y-91717676D01*
X120230952Y-91717676D02*
X120326190Y-91622438D01*
X120326190Y-91622438D02*
X120469047Y-91574819D01*
X120469047Y-91574819D02*
X120564285Y-91574819D01*
X120564285Y-91574819D02*
X120707142Y-91622438D01*
X120707142Y-91622438D02*
X120754761Y-91670057D01*
X121754761Y-92574819D02*
X121421428Y-92098628D01*
X121183333Y-92574819D02*
X121183333Y-91574819D01*
X121183333Y-91574819D02*
X121564285Y-91574819D01*
X121564285Y-91574819D02*
X121659523Y-91622438D01*
X121659523Y-91622438D02*
X121707142Y-91670057D01*
X121707142Y-91670057D02*
X121754761Y-91765295D01*
X121754761Y-91765295D02*
X121754761Y-91908152D01*
X121754761Y-91908152D02*
X121707142Y-92003390D01*
X121707142Y-92003390D02*
X121659523Y-92051009D01*
X121659523Y-92051009D02*
X121564285Y-92098628D01*
X121564285Y-92098628D02*
X121183333Y-92098628D01*
X122183333Y-92051009D02*
X122516666Y-92051009D01*
X122659523Y-92574819D02*
X122183333Y-92574819D01*
X122183333Y-92574819D02*
X122183333Y-91574819D01*
X122183333Y-91574819D02*
X122659523Y-91574819D01*
X123088095Y-92051009D02*
X123421428Y-92051009D01*
X123564285Y-92574819D02*
X123088095Y-92574819D01*
X123088095Y-92574819D02*
X123088095Y-91574819D01*
X123088095Y-91574819D02*
X123564285Y-91574819D01*
X123992857Y-92574819D02*
X123992857Y-91574819D01*
X123992857Y-91574819D02*
X124564285Y-92574819D01*
X124564285Y-92574819D02*
X124564285Y-91574819D01*
X124802381Y-92670057D02*
X125564285Y-92670057D01*
X126373809Y-92479580D02*
X126326190Y-92527200D01*
X126326190Y-92527200D02*
X126183333Y-92574819D01*
X126183333Y-92574819D02*
X126088095Y-92574819D01*
X126088095Y-92574819D02*
X125945238Y-92527200D01*
X125945238Y-92527200D02*
X125850000Y-92431961D01*
X125850000Y-92431961D02*
X125802381Y-92336723D01*
X125802381Y-92336723D02*
X125754762Y-92146247D01*
X125754762Y-92146247D02*
X125754762Y-92003390D01*
X125754762Y-92003390D02*
X125802381Y-91812914D01*
X125802381Y-91812914D02*
X125850000Y-91717676D01*
X125850000Y-91717676D02*
X125945238Y-91622438D01*
X125945238Y-91622438D02*
X126088095Y-91574819D01*
X126088095Y-91574819D02*
X126183333Y-91574819D01*
X126183333Y-91574819D02*
X126326190Y-91622438D01*
X126326190Y-91622438D02*
X126373809Y-91670057D01*
X126992857Y-91574819D02*
X127183333Y-91574819D01*
X127183333Y-91574819D02*
X127278571Y-91622438D01*
X127278571Y-91622438D02*
X127373809Y-91717676D01*
X127373809Y-91717676D02*
X127421428Y-91908152D01*
X127421428Y-91908152D02*
X127421428Y-92241485D01*
X127421428Y-92241485D02*
X127373809Y-92431961D01*
X127373809Y-92431961D02*
X127278571Y-92527200D01*
X127278571Y-92527200D02*
X127183333Y-92574819D01*
X127183333Y-92574819D02*
X126992857Y-92574819D01*
X126992857Y-92574819D02*
X126897619Y-92527200D01*
X126897619Y-92527200D02*
X126802381Y-92431961D01*
X126802381Y-92431961D02*
X126754762Y-92241485D01*
X126754762Y-92241485D02*
X126754762Y-91908152D01*
X126754762Y-91908152D02*
X126802381Y-91717676D01*
X126802381Y-91717676D02*
X126897619Y-91622438D01*
X126897619Y-91622438D02*
X126992857Y-91574819D01*
X127850000Y-92574819D02*
X127850000Y-91574819D01*
X127850000Y-91574819D02*
X128421428Y-92574819D01*
X128421428Y-92574819D02*
X128421428Y-91574819D01*
X128897619Y-92574819D02*
X128897619Y-91574819D01*
X128897619Y-91574819D02*
X129469047Y-92574819D01*
X129469047Y-92574819D02*
X129469047Y-91574819D01*
X123804819Y-86263333D02*
X124519104Y-86263333D01*
X124519104Y-86263333D02*
X124661961Y-86310952D01*
X124661961Y-86310952D02*
X124757200Y-86406190D01*
X124757200Y-86406190D02*
X124804819Y-86549047D01*
X124804819Y-86549047D02*
X124804819Y-86644285D01*
X123804819Y-85358571D02*
X123804819Y-85549047D01*
X123804819Y-85549047D02*
X123852438Y-85644285D01*
X123852438Y-85644285D02*
X123900057Y-85691904D01*
X123900057Y-85691904D02*
X124042914Y-85787142D01*
X124042914Y-85787142D02*
X124233390Y-85834761D01*
X124233390Y-85834761D02*
X124614342Y-85834761D01*
X124614342Y-85834761D02*
X124709580Y-85787142D01*
X124709580Y-85787142D02*
X124757200Y-85739523D01*
X124757200Y-85739523D02*
X124804819Y-85644285D01*
X124804819Y-85644285D02*
X124804819Y-85453809D01*
X124804819Y-85453809D02*
X124757200Y-85358571D01*
X124757200Y-85358571D02*
X124709580Y-85310952D01*
X124709580Y-85310952D02*
X124614342Y-85263333D01*
X124614342Y-85263333D02*
X124376247Y-85263333D01*
X124376247Y-85263333D02*
X124281009Y-85310952D01*
X124281009Y-85310952D02*
X124233390Y-85358571D01*
X124233390Y-85358571D02*
X124185771Y-85453809D01*
X124185771Y-85453809D02*
X124185771Y-85644285D01*
X124185771Y-85644285D02*
X124233390Y-85739523D01*
X124233390Y-85739523D02*
X124281009Y-85787142D01*
X124281009Y-85787142D02*
X124376247Y-85834761D01*
X150493333Y-60720057D02*
X150540952Y-60672438D01*
X150540952Y-60672438D02*
X150636190Y-60624819D01*
X150636190Y-60624819D02*
X150874285Y-60624819D01*
X150874285Y-60624819D02*
X150969523Y-60672438D01*
X150969523Y-60672438D02*
X151017142Y-60720057D01*
X151017142Y-60720057D02*
X151064761Y-60815295D01*
X151064761Y-60815295D02*
X151064761Y-60910533D01*
X151064761Y-60910533D02*
X151017142Y-61053390D01*
X151017142Y-61053390D02*
X150445714Y-61624819D01*
X150445714Y-61624819D02*
X151064761Y-61624819D01*
X151683809Y-60624819D02*
X151779047Y-60624819D01*
X151779047Y-60624819D02*
X151874285Y-60672438D01*
X151874285Y-60672438D02*
X151921904Y-60720057D01*
X151921904Y-60720057D02*
X151969523Y-60815295D01*
X151969523Y-60815295D02*
X152017142Y-61005771D01*
X152017142Y-61005771D02*
X152017142Y-61243866D01*
X152017142Y-61243866D02*
X151969523Y-61434342D01*
X151969523Y-61434342D02*
X151921904Y-61529580D01*
X151921904Y-61529580D02*
X151874285Y-61577200D01*
X151874285Y-61577200D02*
X151779047Y-61624819D01*
X151779047Y-61624819D02*
X151683809Y-61624819D01*
X151683809Y-61624819D02*
X151588571Y-61577200D01*
X151588571Y-61577200D02*
X151540952Y-61529580D01*
X151540952Y-61529580D02*
X151493333Y-61434342D01*
X151493333Y-61434342D02*
X151445714Y-61243866D01*
X151445714Y-61243866D02*
X151445714Y-61005771D01*
X151445714Y-61005771D02*
X151493333Y-60815295D01*
X151493333Y-60815295D02*
X151540952Y-60720057D01*
X151540952Y-60720057D02*
X151588571Y-60672438D01*
X151588571Y-60672438D02*
X151683809Y-60624819D01*
X152445714Y-61624819D02*
X152445714Y-60624819D01*
X152540952Y-61243866D02*
X152826666Y-61624819D01*
X152826666Y-60958152D02*
X152445714Y-61339104D01*
X151017142Y-56184819D02*
X150683809Y-55708628D01*
X150445714Y-56184819D02*
X150445714Y-55184819D01*
X150445714Y-55184819D02*
X150826666Y-55184819D01*
X150826666Y-55184819D02*
X150921904Y-55232438D01*
X150921904Y-55232438D02*
X150969523Y-55280057D01*
X150969523Y-55280057D02*
X151017142Y-55375295D01*
X151017142Y-55375295D02*
X151017142Y-55518152D01*
X151017142Y-55518152D02*
X150969523Y-55613390D01*
X150969523Y-55613390D02*
X150921904Y-55661009D01*
X150921904Y-55661009D02*
X150826666Y-55708628D01*
X150826666Y-55708628D02*
X150445714Y-55708628D01*
X151398095Y-55280057D02*
X151445714Y-55232438D01*
X151445714Y-55232438D02*
X151540952Y-55184819D01*
X151540952Y-55184819D02*
X151779047Y-55184819D01*
X151779047Y-55184819D02*
X151874285Y-55232438D01*
X151874285Y-55232438D02*
X151921904Y-55280057D01*
X151921904Y-55280057D02*
X151969523Y-55375295D01*
X151969523Y-55375295D02*
X151969523Y-55470533D01*
X151969523Y-55470533D02*
X151921904Y-55613390D01*
X151921904Y-55613390D02*
X151350476Y-56184819D01*
X151350476Y-56184819D02*
X151969523Y-56184819D01*
X152302857Y-55184819D02*
X152921904Y-55184819D01*
X152921904Y-55184819D02*
X152588571Y-55565771D01*
X152588571Y-55565771D02*
X152731428Y-55565771D01*
X152731428Y-55565771D02*
X152826666Y-55613390D01*
X152826666Y-55613390D02*
X152874285Y-55661009D01*
X152874285Y-55661009D02*
X152921904Y-55756247D01*
X152921904Y-55756247D02*
X152921904Y-55994342D01*
X152921904Y-55994342D02*
X152874285Y-56089580D01*
X152874285Y-56089580D02*
X152826666Y-56137200D01*
X152826666Y-56137200D02*
X152731428Y-56184819D01*
X152731428Y-56184819D02*
X152445714Y-56184819D01*
X152445714Y-56184819D02*
X152350476Y-56137200D01*
X152350476Y-56137200D02*
X152302857Y-56089580D01*
D11*
%TO.C,J1*%
X126670000Y-96825000D02*
X127305000Y-96190000D01*
X126670000Y-98730000D02*
X126670000Y-96825000D01*
X127305000Y-96190000D02*
X146990000Y-96190000D01*
X146990000Y-96190000D02*
X146990000Y-98730000D01*
X146990000Y-98730000D02*
X126670000Y-98730000D01*
%TO.C,J3*%
X149530000Y-96825000D02*
X150165000Y-96190000D01*
X149530000Y-98730000D02*
X149530000Y-96825000D01*
X150165000Y-96190000D02*
X164770000Y-96190000D01*
X164770000Y-96190000D02*
X164770000Y-98730000D01*
X164770000Y-98730000D02*
X149530000Y-98730000D01*
%TO.C,J2*%
X117526000Y-48565000D02*
X118161000Y-47930000D01*
X117526000Y-50470000D02*
X117526000Y-48565000D01*
X118161000Y-47930000D02*
X142926000Y-47930000D01*
X142926000Y-47930000D02*
X142926000Y-50470000D01*
X142926000Y-50470000D02*
X117526000Y-50470000D01*
%TO.C,J4*%
X144450000Y-48565000D02*
X145085000Y-47930000D01*
X144450000Y-50470000D02*
X144450000Y-48565000D01*
X145085000Y-47930000D02*
X164770000Y-47930000D01*
X164770000Y-47930000D02*
X164770000Y-50470000D01*
X164770000Y-50470000D02*
X144450000Y-50470000D01*
%TO.C,R9*%
X130920000Y-63200000D02*
X133460000Y-63200000D01*
X132520000Y-63200000D02*
G75*
G02*
X129320000Y-63200000I-1600000J0D01*
G01*
X129320000Y-63200000D02*
G75*
G02*
X132520000Y-63200000I1600000J0D01*
G01*
%TO.C,R13*%
X137410000Y-58450000D02*
X139950000Y-58450000D01*
X139010000Y-58450000D02*
G75*
G02*
X135810000Y-58450000I-1600000J0D01*
G01*
X135810000Y-58450000D02*
G75*
G02*
X139010000Y-58450000I1600000J0D01*
G01*
%TO.C,R14*%
X137410000Y-63200000D02*
X139950000Y-63200000D01*
X139010000Y-63200000D02*
G75*
G02*
X135810000Y-63200000I-1600000J0D01*
G01*
X135810000Y-63200000D02*
G75*
G02*
X139010000Y-63200000I1600000J0D01*
G01*
%TO.C,R18*%
X143900000Y-58450000D02*
X146440000Y-58450000D01*
X145500000Y-58450000D02*
G75*
G02*
X142300000Y-58450000I-1600000J0D01*
G01*
X142300000Y-58450000D02*
G75*
G02*
X145500000Y-58450000I1600000J0D01*
G01*
%TO.C,R4*%
X124430000Y-63200000D02*
X126970000Y-63200000D01*
X126030000Y-63200000D02*
G75*
G02*
X122830000Y-63200000I-1600000J0D01*
G01*
X122830000Y-63200000D02*
G75*
G02*
X126030000Y-63200000I1600000J0D01*
G01*
%TO.C,R15*%
X137410000Y-67950000D02*
X139950000Y-67950000D01*
X139010000Y-67950000D02*
G75*
G02*
X135810000Y-67950000I-1600000J0D01*
G01*
X135810000Y-67950000D02*
G75*
G02*
X139010000Y-67950000I1600000J0D01*
G01*
%TO.C,R19*%
X143900000Y-63200000D02*
X146440000Y-63200000D01*
X145500000Y-63200000D02*
G75*
G02*
X142300000Y-63200000I-1600000J0D01*
G01*
X142300000Y-63200000D02*
G75*
G02*
X145500000Y-63200000I1600000J0D01*
G01*
%TO.C,C2*%
X155280000Y-66400000D02*
X160280000Y-66400000D01*
X160280000Y-68900000D01*
X155280000Y-68900000D01*
X155280000Y-66400000D01*
%TO.C,R7*%
X124430000Y-77450000D02*
X126970000Y-77450000D01*
X126030000Y-77450000D02*
G75*
G02*
X122830000Y-77450000I-1600000J0D01*
G01*
X122830000Y-77450000D02*
G75*
G02*
X126030000Y-77450000I1600000J0D01*
G01*
%TO.C,R21*%
X143900000Y-72700000D02*
X146440000Y-72700000D01*
X145500000Y-72700000D02*
G75*
G02*
X142300000Y-72700000I-1600000J0D01*
G01*
X142300000Y-72700000D02*
G75*
G02*
X145500000Y-72700000I1600000J0D01*
G01*
%TO.C,SW2*%
X102530000Y-79810000D02*
X105530000Y-79810000D01*
X102530000Y-85810000D02*
X102530000Y-79810000D01*
X105530000Y-79810000D02*
X108530000Y-79810000D01*
X108530000Y-79810000D02*
X108530000Y-85810000D01*
X108530000Y-85810000D02*
X102530000Y-85810000D01*
X107545564Y-82810000D02*
G75*
G02*
X103514436Y-82810000I-2015564J0D01*
G01*
X103514436Y-82810000D02*
G75*
G02*
X107545564Y-82810000I2015564J0D01*
G01*
%TO.C,R20*%
X143900000Y-67950000D02*
X146440000Y-67950000D01*
X145500000Y-67950000D02*
G75*
G02*
X142300000Y-67950000I-1600000J0D01*
G01*
X142300000Y-67950000D02*
G75*
G02*
X145500000Y-67950000I1600000J0D01*
G01*
%TO.C,R6*%
X124430000Y-72700000D02*
X126970000Y-72700000D01*
X126030000Y-72700000D02*
G75*
G02*
X122830000Y-72700000I-1600000J0D01*
G01*
X122830000Y-72700000D02*
G75*
G02*
X126030000Y-72700000I1600000J0D01*
G01*
%TO.C,J7*%
X127670000Y-81485000D02*
X128305000Y-80850000D01*
X127670000Y-88470000D02*
X127670000Y-81485000D01*
X128305000Y-80850000D02*
X130210000Y-80850000D01*
X130210000Y-80850000D02*
X130210000Y-88470000D01*
X130210000Y-88470000D02*
X127670000Y-88470000D01*
%TO.C,R10*%
X130920000Y-67950000D02*
X133460000Y-67950000D01*
X132520000Y-67950000D02*
G75*
G02*
X129320000Y-67950000I-1600000J0D01*
G01*
X129320000Y-67950000D02*
G75*
G02*
X132520000Y-67950000I1600000J0D01*
G01*
%TO.C,J5*%
X125810000Y-53085000D02*
X126445000Y-52450000D01*
X125810000Y-54990000D02*
X125810000Y-53085000D01*
X126445000Y-52450000D02*
X146130000Y-52450000D01*
X146130000Y-52450000D02*
X146130000Y-54990000D01*
X146130000Y-54990000D02*
X125810000Y-54990000D01*
%TO.C,R26*%
X150390000Y-72700000D02*
X152930000Y-72700000D01*
X151990000Y-72700000D02*
G75*
G02*
X148790000Y-72700000I-1600000J0D01*
G01*
X148790000Y-72700000D02*
G75*
G02*
X151990000Y-72700000I1600000J0D01*
G01*
%TO.C,J11*%
X185550000Y-65520000D02*
X197550000Y-65520000D01*
X185550000Y-76520000D02*
X185550000Y-65520000D01*
X187050000Y-76520000D02*
X185550000Y-76520000D01*
X187050000Y-77720000D02*
X187050000Y-76520000D01*
X187050000Y-77720000D02*
X188550000Y-77720000D01*
X188550000Y-77720000D02*
X188550000Y-79520000D01*
X188550000Y-79520000D02*
X194550000Y-79520000D01*
X194550000Y-77720000D02*
X194550000Y-79520000D01*
X196050000Y-76520000D02*
X197550000Y-76520000D01*
X196050000Y-77720000D02*
X194550000Y-77720000D01*
X196050000Y-77720000D02*
X196050000Y-76520000D01*
X197550000Y-76520000D02*
X197550000Y-65520000D01*
%TO.C,R5*%
X124430000Y-67950000D02*
X126970000Y-67950000D01*
X126030000Y-67950000D02*
G75*
G02*
X122830000Y-67950000I-1600000J0D01*
G01*
X122830000Y-67950000D02*
G75*
G02*
X126030000Y-67950000I1600000J0D01*
G01*
%TO.C,C1*%
X156047939Y-59102500D02*
X156847939Y-59102500D01*
X156447939Y-58702500D02*
X156447939Y-59502500D01*
X163474698Y-60850000D02*
G75*
G02*
X155474698Y-60850000I-4000000J0D01*
G01*
X155474698Y-60850000D02*
G75*
G02*
X163474698Y-60850000I4000000J0D01*
G01*
%TO.C,R24*%
X150390000Y-63200000D02*
X152930000Y-63200000D01*
X151990000Y-63200000D02*
G75*
G02*
X148790000Y-63200000I-1600000J0D01*
G01*
X148790000Y-63200000D02*
G75*
G02*
X151990000Y-63200000I1600000J0D01*
G01*
%TO.C,R12*%
X130920000Y-77450000D02*
X133460000Y-77450000D01*
X132520000Y-77450000D02*
G75*
G02*
X129320000Y-77450000I-1600000J0D01*
G01*
X129320000Y-77450000D02*
G75*
G02*
X132520000Y-77450000I1600000J0D01*
G01*
%TO.C,SW1*%
X102530000Y-70460000D02*
X105530000Y-70460000D01*
X102530000Y-76460000D02*
X102530000Y-70460000D01*
X105530000Y-70460000D02*
X108530000Y-70460000D01*
X108530000Y-70460000D02*
X108530000Y-76460000D01*
X108530000Y-76460000D02*
X102530000Y-76460000D01*
X107545564Y-73460000D02*
G75*
G02*
X103514436Y-73460000I-2015564J0D01*
G01*
X103514436Y-73460000D02*
G75*
G02*
X107545564Y-73460000I2015564J0D01*
G01*
%TO.C,R11*%
X130920000Y-72700000D02*
X133460000Y-72700000D01*
X132520000Y-72700000D02*
G75*
G02*
X129320000Y-72700000I-1600000J0D01*
G01*
X129320000Y-72700000D02*
G75*
G02*
X132520000Y-72700000I1600000J0D01*
G01*
%TO.C,R22*%
X143900000Y-77450000D02*
X146440000Y-77450000D01*
X145500000Y-77450000D02*
G75*
G02*
X142300000Y-77450000I-1600000J0D01*
G01*
X142300000Y-77450000D02*
G75*
G02*
X145500000Y-77450000I1600000J0D01*
G01*
%TO.C,J12*%
X131990000Y-85535000D02*
X132625000Y-84900000D01*
X131990000Y-92520000D02*
X131990000Y-85535000D01*
X132625000Y-84900000D02*
X134530000Y-84900000D01*
X134530000Y-84900000D02*
X134530000Y-92520000D01*
X134530000Y-92520000D02*
X131990000Y-92520000D01*
%TO.C,R1*%
X115440000Y-82870000D02*
X117980000Y-82870000D01*
X117040000Y-82870000D02*
G75*
G02*
X113840000Y-82870000I-1600000J0D01*
G01*
X113840000Y-82870000D02*
G75*
G02*
X117040000Y-82870000I1600000J0D01*
G01*
%TO.C,R27*%
X150390000Y-77450000D02*
X152930000Y-77450000D01*
X151990000Y-77450000D02*
G75*
G02*
X148790000Y-77450000I-1600000J0D01*
G01*
X148790000Y-77450000D02*
G75*
G02*
X151990000Y-77450000I1600000J0D01*
G01*
%TO.C,R17*%
X137410000Y-77450000D02*
X139950000Y-77450000D01*
X139010000Y-77450000D02*
G75*
G02*
X135810000Y-77450000I-1600000J0D01*
G01*
X135810000Y-77450000D02*
G75*
G02*
X139010000Y-77450000I1600000J0D01*
G01*
%TO.C,R25*%
X150390000Y-67950000D02*
X152930000Y-67950000D01*
X151990000Y-67950000D02*
G75*
G02*
X148790000Y-67950000I-1600000J0D01*
G01*
X148790000Y-67950000D02*
G75*
G02*
X151990000Y-67950000I1600000J0D01*
G01*
%TO.C,R16*%
X137410000Y-72700000D02*
X139950000Y-72700000D01*
X139010000Y-72700000D02*
G75*
G02*
X135810000Y-72700000I-1600000J0D01*
G01*
X135810000Y-72700000D02*
G75*
G02*
X139010000Y-72700000I1600000J0D01*
G01*
%TO.C,RV1*%
X108432000Y-56456000D02*
X106236000Y-58652000D01*
X108624000Y-56648000D02*
X106428000Y-58844000D01*
X103540000Y-52885000D02*
X113070000Y-52885000D01*
X113070000Y-62415000D01*
X103540000Y-62415000D01*
X103540000Y-52885000D01*
X109005000Y-57650000D02*
G75*
G02*
X105855000Y-57650000I-1575000J0D01*
G01*
X105855000Y-57650000D02*
G75*
G02*
X109005000Y-57650000I1575000J0D01*
G01*
%TO.C,R2*%
X115440000Y-87620000D02*
X117980000Y-87620000D01*
X117040000Y-87620000D02*
G75*
G02*
X113840000Y-87620000I-1600000J0D01*
G01*
X113840000Y-87620000D02*
G75*
G02*
X117040000Y-87620000I1600000J0D01*
G01*
%TO.C,U1*%
X138505000Y-81660000D02*
X139505000Y-80660000D01*
X138505000Y-90820000D02*
X138505000Y-81660000D01*
X139505000Y-80660000D02*
X144855000Y-80660000D01*
X144855000Y-80660000D02*
X144855000Y-90820000D01*
X144855000Y-90820000D02*
X138505000Y-90820000D01*
X136600000Y-80600000D02*
X146760000Y-80600000D01*
X146760000Y-90880000D01*
X136600000Y-90880000D01*
X136600000Y-80600000D01*
%TO.C,J9*%
X159640000Y-81485000D02*
X160275000Y-80850000D01*
X159640000Y-88470000D02*
X159640000Y-81485000D01*
X160275000Y-80850000D02*
X162180000Y-80850000D01*
X162180000Y-80850000D02*
X162180000Y-88470000D01*
X162180000Y-88470000D02*
X159640000Y-88470000D01*
%TO.C,R3*%
X124430000Y-58450000D02*
X126970000Y-58450000D01*
X126030000Y-58450000D02*
G75*
G02*
X122830000Y-58450000I-1600000J0D01*
G01*
X122830000Y-58450000D02*
G75*
G02*
X126030000Y-58450000I1600000J0D01*
G01*
%TO.C,J10*%
X171430000Y-65520000D02*
X183430000Y-65520000D01*
X171430000Y-76520000D02*
X171430000Y-65520000D01*
X172930000Y-76520000D02*
X171430000Y-76520000D01*
X172930000Y-77720000D02*
X172930000Y-76520000D01*
X172930000Y-77720000D02*
X174430000Y-77720000D01*
X174430000Y-77720000D02*
X174430000Y-79520000D01*
X174430000Y-79520000D02*
X180430000Y-79520000D01*
X180430000Y-77720000D02*
X180430000Y-79520000D01*
X181930000Y-76520000D02*
X183430000Y-76520000D01*
X181930000Y-77720000D02*
X180430000Y-77720000D01*
X181930000Y-77720000D02*
X181930000Y-76520000D01*
X183430000Y-76520000D02*
X183430000Y-65520000D01*
%TO.C,RV3*%
X153202000Y-84176000D02*
X151006000Y-86372000D01*
X153394000Y-84368000D02*
X151198000Y-86564000D01*
X148310000Y-80605000D02*
X157840000Y-80605000D01*
X157840000Y-90135000D01*
X148310000Y-90135000D01*
X148310000Y-80605000D01*
X153775000Y-85370000D02*
G75*
G02*
X150625000Y-85370000I-1575000J0D01*
G01*
X150625000Y-85370000D02*
G75*
G02*
X153775000Y-85370000I1575000J0D01*
G01*
%TO.C,RV2*%
X116447000Y-70306000D02*
X114251000Y-72502000D01*
X116639000Y-70498000D02*
X114443000Y-72694000D01*
X111555000Y-66735000D02*
X121085000Y-66735000D01*
X121085000Y-76265000D01*
X111555000Y-76265000D01*
X111555000Y-66735000D01*
X117020000Y-71500000D02*
G75*
G02*
X113870000Y-71500000I-1575000J0D01*
G01*
X113870000Y-71500000D02*
G75*
G02*
X117020000Y-71500000I1575000J0D01*
G01*
%TO.C,R8*%
X130960000Y-58450000D02*
X133500000Y-58450000D01*
X132560000Y-58450000D02*
G75*
G02*
X129360000Y-58450000I-1600000J0D01*
G01*
X129360000Y-58450000D02*
G75*
G02*
X132560000Y-58450000I1600000J0D01*
G01*
%TO.C,J6*%
X123080000Y-81485000D02*
X123715000Y-80850000D01*
X123080000Y-91010000D02*
X123080000Y-81485000D01*
X123715000Y-80850000D02*
X125620000Y-80850000D01*
X125620000Y-80850000D02*
X125620000Y-91010000D01*
X125620000Y-91010000D02*
X123080000Y-91010000D01*
%TO.C,R23*%
X150390000Y-58450000D02*
X152930000Y-58450000D01*
X151990000Y-58450000D02*
G75*
G02*
X148790000Y-58450000I-1600000J0D01*
G01*
X148790000Y-58450000D02*
G75*
G02*
X151990000Y-58450000I1600000J0D01*
G01*
%TD*%
M02*
