M48
; DRILL file {KiCad 9.0.7} date 2026-02-04T13:13:23-0700
; FORMAT={-:-/ absolute / metric / decimal}
; #@! TF.CreationDate,2026-02-04T13:13:23-07:00
; #@! TF.GenerationSoftware,Kicad,Pcbnew,9.0.7
; #@! TF.FileFunction,Plated,1,2,PTH
FMAT,2
METRIC
; #@! TA.AperFunction,Plated,PTH,ComponentDrill
T1C0.400
; #@! TA.AperFunction,Plated,PTH,ComponentDrill
T2C0.800
; #@! TA.AperFunction,Plated,PTH,ComponentDrill
T3C1.000
; #@! TA.AperFunction,Plated,PTH,ComponentDrill
T4C1.100
%
G90
G05
T2
X108.32Y-55.11
X108.32Y-60.19
X110.86Y-57.65
X115.44Y-82.87
X115.44Y-87.62
X116.335Y-68.96
X116.335Y-74.04
X117.98Y-82.87
X117.98Y-87.62
X118.875Y-71.5
X124.43Y-58.45
X124.43Y-63.2
X124.43Y-67.95
X124.43Y-72.7
X124.43Y-77.45
X126.97Y-58.45
X126.97Y-63.2
X126.97Y-67.95
X126.97Y-72.7
X126.97Y-77.45
X130.92Y-63.2
X130.92Y-67.95
X130.92Y-72.7
X130.92Y-77.45
X130.96Y-58.45
X133.46Y-63.2
X133.46Y-67.95
X133.46Y-72.7
X133.46Y-77.45
X133.5Y-58.45
X137.41Y-58.45
X137.41Y-63.2
X137.41Y-67.95
X137.41Y-72.7
X137.41Y-77.45
X137.87Y-81.93
X137.87Y-84.47
X137.87Y-87.01
X137.87Y-89.55
X139.95Y-58.45
X139.95Y-63.2
X139.95Y-67.95
X139.95Y-72.7
X139.95Y-77.45
X143.9Y-58.45
X143.9Y-63.2
X143.9Y-67.95
X143.9Y-72.7
X143.9Y-77.45
X145.49Y-81.93
X145.49Y-84.47
X145.49Y-87.01
X145.49Y-89.55
X146.44Y-58.45
X146.44Y-63.2
X146.44Y-67.95
X146.44Y-72.7
X146.44Y-77.45
X150.39Y-58.45
X150.39Y-63.2
X150.39Y-67.95
X150.39Y-72.7
X150.39Y-77.45
X152.93Y-58.45
X152.93Y-63.2
X152.93Y-67.95
X152.93Y-72.7
X152.93Y-77.45
X153.09Y-82.83
X153.09Y-87.91
X155.63Y-85.37
X156.53Y-67.65
X158.225Y-60.85
X159.03Y-67.65
X160.725Y-60.85
T3
X118.796Y-49.2
X121.336Y-49.2
X123.876Y-49.2
X124.35Y-82.12
X124.35Y-84.66
X124.35Y-87.2
X124.35Y-89.74
X126.416Y-49.2
X127.08Y-53.72
X127.94Y-97.46
X128.94Y-82.12
X128.94Y-84.66
X128.94Y-87.2
X128.956Y-49.2
X129.62Y-53.72
X130.48Y-97.46
X131.496Y-49.2
X132.16Y-53.72
X133.02Y-97.46
X133.26Y-86.17
X133.26Y-88.71
X133.26Y-91.25
X134.036Y-49.2
X134.7Y-53.72
X135.56Y-97.46
X136.576Y-49.2
X137.24Y-53.72
X138.1Y-97.46
X139.116Y-49.2
X139.78Y-53.72
X140.64Y-97.46
X141.656Y-49.2
X142.32Y-53.72
X143.18Y-97.46
X144.86Y-53.72
X145.72Y-49.2
X145.72Y-97.46
X148.26Y-49.2
X150.8Y-49.2
X150.8Y-97.46
X153.34Y-49.2
X153.34Y-97.46
X155.88Y-49.2
X155.88Y-97.46
X158.42Y-49.2
X158.42Y-97.46
X160.91Y-82.12
X160.91Y-84.66
X160.91Y-87.2
X160.96Y-49.2
X160.96Y-97.46
X163.5Y-49.2
X163.5Y-97.46
T4
X102.28Y-71.21
X102.28Y-75.71
X102.28Y-80.56
X102.28Y-85.06
X108.78Y-71.21
X108.78Y-75.71
X108.78Y-80.56
X108.78Y-85.06
T1
G00X172.43Y-67.72
M15
G01X172.43Y-68.72
M16
G05
G00X176.93Y-73.22
M15
G01X177.93Y-73.22
M16
G05
G00X182.43Y-68.72
M15
G01X182.43Y-67.72
M16
G05
G00X186.55Y-67.72
M15
G01X186.55Y-68.72
M16
G05
G00X191.05Y-73.22
M15
G01X192.05Y-73.22
M16
G05
G00X196.55Y-68.72
M15
G01X196.55Y-67.72
M16
G05
T2
G00X174.93Y-67.87
M15
G01X174.93Y-68.57
M16
G05
G00X179.93Y-68.57
M15
G01X179.93Y-67.87
M16
G05
G00X189.05Y-67.87
M15
G01X189.05Y-68.57
M16
G05
G00X194.05Y-68.57
M15
G01X194.05Y-67.87
M16
G05
M30
