%TF.GenerationSoftware,KiCad,Pcbnew,9.0.7*%
%TF.CreationDate,2026-02-04T13:13:08-07:00*%
%TF.ProjectId,Uno_Shield_DSP_Class_v1,556e6f5f-5368-4696-956c-645f4453505f,rev?*%
%TF.SameCoordinates,Original*%
%TF.FileFunction,Legend,Top*%
%TF.FilePolarity,Positive*%
%FSLAX46Y46*%
G04 Gerber Fmt 4.6, Leading zero omitted, Abs format (unit mm)*
G04 Created by KiCad (PCBNEW 9.0.7) date 2026-02-04 13:13:08*
%MOMM*%
%LPD*%
G01*
G04 APERTURE LIST*
%ADD10C,0.150000*%
%ADD11C,0.120000*%
G04 APERTURE END LIST*
D10*
X132023333Y-60934819D02*
X131690000Y-60458628D01*
X131451905Y-60934819D02*
X131451905Y-59934819D01*
X131451905Y-59934819D02*
X131832857Y-59934819D01*
X131832857Y-59934819D02*
X131928095Y-59982438D01*
X131928095Y-59982438D02*
X131975714Y-60030057D01*
X131975714Y-60030057D02*
X132023333Y-60125295D01*
X132023333Y-60125295D02*
X132023333Y-60268152D01*
X132023333Y-60268152D02*
X131975714Y-60363390D01*
X131975714Y-60363390D02*
X131928095Y-60411009D01*
X131928095Y-60411009D02*
X131832857Y-60458628D01*
X131832857Y-60458628D02*
X131451905Y-60458628D01*
X132499524Y-60934819D02*
X132690000Y-60934819D01*
X132690000Y-60934819D02*
X132785238Y-60887200D01*
X132785238Y-60887200D02*
X132832857Y-60839580D01*
X132832857Y-60839580D02*
X132928095Y-60696723D01*
X132928095Y-60696723D02*
X132975714Y-60506247D01*
X132975714Y-60506247D02*
X132975714Y-60125295D01*
X132975714Y-60125295D02*
X132928095Y-60030057D01*
X132928095Y-60030057D02*
X132880476Y-59982438D01*
X132880476Y-59982438D02*
X132785238Y-59934819D01*
X132785238Y-59934819D02*
X132594762Y-59934819D01*
X132594762Y-59934819D02*
X132499524Y-59982438D01*
X132499524Y-59982438D02*
X132451905Y-60030057D01*
X132451905Y-60030057D02*
X132404286Y-60125295D01*
X132404286Y-60125295D02*
X132404286Y-60363390D01*
X132404286Y-60363390D02*
X132451905Y-60458628D01*
X132451905Y-60458628D02*
X132499524Y-60506247D01*
X132499524Y-60506247D02*
X132594762Y-60553866D01*
X132594762Y-60553866D02*
X132785238Y-60553866D01*
X132785238Y-60553866D02*
X132880476Y-60506247D01*
X132880476Y-60506247D02*
X132928095Y-60458628D01*
X132928095Y-60458628D02*
X132975714Y-60363390D01*
X138037142Y-56184819D02*
X137703809Y-55708628D01*
X137465714Y-56184819D02*
X137465714Y-55184819D01*
X137465714Y-55184819D02*
X137846666Y-55184819D01*
X137846666Y-55184819D02*
X137941904Y-55232438D01*
X137941904Y-55232438D02*
X137989523Y-55280057D01*
X137989523Y-55280057D02*
X138037142Y-55375295D01*
X138037142Y-55375295D02*
X138037142Y-55518152D01*
X138037142Y-55518152D02*
X137989523Y-55613390D01*
X137989523Y-55613390D02*
X137941904Y-55661009D01*
X137941904Y-55661009D02*
X137846666Y-55708628D01*
X137846666Y-55708628D02*
X137465714Y-55708628D01*
X138989523Y-56184819D02*
X138418095Y-56184819D01*
X138703809Y-56184819D02*
X138703809Y-55184819D01*
X138703809Y-55184819D02*
X138608571Y-55327676D01*
X138608571Y-55327676D02*
X138513333Y-55422914D01*
X138513333Y-55422914D02*
X138418095Y-55470533D01*
X139322857Y-55184819D02*
X139941904Y-55184819D01*
X139941904Y-55184819D02*
X139608571Y-55565771D01*
X139608571Y-55565771D02*
X139751428Y-55565771D01*
X139751428Y-55565771D02*
X139846666Y-55613390D01*
X139846666Y-55613390D02*
X139894285Y-55661009D01*
X139894285Y-55661009D02*
X139941904Y-55756247D01*
X139941904Y-55756247D02*
X139941904Y-55994342D01*
X139941904Y-55994342D02*
X139894285Y-56089580D01*
X139894285Y-56089580D02*
X139846666Y-56137200D01*
X139846666Y-56137200D02*
X139751428Y-56184819D01*
X139751428Y-56184819D02*
X139465714Y-56184819D01*
X139465714Y-56184819D02*
X139370476Y-56137200D01*
X139370476Y-56137200D02*
X139322857Y-56089580D01*
X138037142Y-60934819D02*
X137703809Y-60458628D01*
X137465714Y-60934819D02*
X137465714Y-59934819D01*
X137465714Y-59934819D02*
X137846666Y-59934819D01*
X137846666Y-59934819D02*
X137941904Y-59982438D01*
X137941904Y-59982438D02*
X137989523Y-60030057D01*
X137989523Y-60030057D02*
X138037142Y-60125295D01*
X138037142Y-60125295D02*
X138037142Y-60268152D01*
X138037142Y-60268152D02*
X137989523Y-60363390D01*
X137989523Y-60363390D02*
X137941904Y-60411009D01*
X137941904Y-60411009D02*
X137846666Y-60458628D01*
X137846666Y-60458628D02*
X137465714Y-60458628D01*
X138989523Y-60934819D02*
X138418095Y-60934819D01*
X138703809Y-60934819D02*
X138703809Y-59934819D01*
X138703809Y-59934819D02*
X138608571Y-60077676D01*
X138608571Y-60077676D02*
X138513333Y-60172914D01*
X138513333Y-60172914D02*
X138418095Y-60220533D01*
X139846666Y-60268152D02*
X139846666Y-60934819D01*
X139608571Y-59887200D02*
X139370476Y-60601485D01*
X139370476Y-60601485D02*
X139989523Y-60601485D01*
X144527142Y-56184819D02*
X144193809Y-55708628D01*
X143955714Y-56184819D02*
X143955714Y-55184819D01*
X143955714Y-55184819D02*
X144336666Y-55184819D01*
X144336666Y-55184819D02*
X144431904Y-55232438D01*
X144431904Y-55232438D02*
X144479523Y-55280057D01*
X144479523Y-55280057D02*
X144527142Y-55375295D01*
X144527142Y-55375295D02*
X144527142Y-55518152D01*
X144527142Y-55518152D02*
X144479523Y-55613390D01*
X144479523Y-55613390D02*
X144431904Y-55661009D01*
X144431904Y-55661009D02*
X144336666Y-55708628D01*
X144336666Y-55708628D02*
X143955714Y-55708628D01*
X145479523Y-56184819D02*
X144908095Y-56184819D01*
X145193809Y-56184819D02*
X145193809Y-55184819D01*
X145193809Y-55184819D02*
X145098571Y-55327676D01*
X145098571Y-55327676D02*
X145003333Y-55422914D01*
X145003333Y-55422914D02*
X144908095Y-55470533D01*
X146050952Y-55613390D02*
X145955714Y-55565771D01*
X145955714Y-55565771D02*
X145908095Y-55518152D01*
X145908095Y-55518152D02*
X145860476Y-55422914D01*
X145860476Y-55422914D02*
X145860476Y-55375295D01*
X145860476Y-55375295D02*
X145908095Y-55280057D01*
X145908095Y-55280057D02*
X145955714Y-55232438D01*
X145955714Y-55232438D02*
X146050952Y-55184819D01*
X146050952Y-55184819D02*
X146241428Y-55184819D01*
X146241428Y-55184819D02*
X146336666Y-55232438D01*
X146336666Y-55232438D02*
X146384285Y-55280057D01*
X146384285Y-55280057D02*
X146431904Y-55375295D01*
X146431904Y-55375295D02*
X146431904Y-55422914D01*
X146431904Y-55422914D02*
X146384285Y-55518152D01*
X146384285Y-55518152D02*
X146336666Y-55565771D01*
X146336666Y-55565771D02*
X146241428Y-55613390D01*
X146241428Y-55613390D02*
X146050952Y-55613390D01*
X146050952Y-55613390D02*
X145955714Y-55661009D01*
X145955714Y-55661009D02*
X145908095Y-55708628D01*
X145908095Y-55708628D02*
X145860476Y-55803866D01*
X145860476Y-55803866D02*
X145860476Y-55994342D01*
X145860476Y-55994342D02*
X145908095Y-56089580D01*
X145908095Y-56089580D02*
X145955714Y-56137200D01*
X145955714Y-56137200D02*
X146050952Y-56184819D01*
X146050952Y-56184819D02*
X146241428Y-56184819D01*
X146241428Y-56184819D02*
X146336666Y-56137200D01*
X146336666Y-56137200D02*
X146384285Y-56089580D01*
X146384285Y-56089580D02*
X146431904Y-55994342D01*
X146431904Y-55994342D02*
X146431904Y-55803866D01*
X146431904Y-55803866D02*
X146384285Y-55708628D01*
X146384285Y-55708628D02*
X146336666Y-55661009D01*
X146336666Y-55661009D02*
X146241428Y-55613390D01*
X125533333Y-60934819D02*
X125200000Y-60458628D01*
X124961905Y-60934819D02*
X124961905Y-59934819D01*
X124961905Y-59934819D02*
X125342857Y-59934819D01*
X125342857Y-59934819D02*
X125438095Y-59982438D01*
X125438095Y-59982438D02*
X125485714Y-60030057D01*
X125485714Y-60030057D02*
X125533333Y-60125295D01*
X125533333Y-60125295D02*
X125533333Y-60268152D01*
X125533333Y-60268152D02*
X125485714Y-60363390D01*
X125485714Y-60363390D02*
X125438095Y-60411009D01*
X125438095Y-60411009D02*
X125342857Y-60458628D01*
X125342857Y-60458628D02*
X124961905Y-60458628D01*
X126390476Y-60268152D02*
X126390476Y-60934819D01*
X126152381Y-59887200D02*
X125914286Y-60601485D01*
X125914286Y-60601485D02*
X126533333Y-60601485D01*
X138037142Y-65684819D02*
X137703809Y-65208628D01*
X137465714Y-65684819D02*
X137465714Y-64684819D01*
X137465714Y-64684819D02*
X137846666Y-64684819D01*
X137846666Y-64684819D02*
X137941904Y-64732438D01*
X137941904Y-64732438D02*
X137989523Y-64780057D01*
X137989523Y-64780057D02*
X138037142Y-64875295D01*
X138037142Y-64875295D02*
X138037142Y-65018152D01*
X138037142Y-65018152D02*
X137989523Y-65113390D01*
X137989523Y-65113390D02*
X137941904Y-65161009D01*
X137941904Y-65161009D02*
X137846666Y-65208628D01*
X137846666Y-65208628D02*
X137465714Y-65208628D01*
X138989523Y-65684819D02*
X138418095Y-65684819D01*
X138703809Y-65684819D02*
X138703809Y-64684819D01*
X138703809Y-64684819D02*
X138608571Y-64827676D01*
X138608571Y-64827676D02*
X138513333Y-64922914D01*
X138513333Y-64922914D02*
X138418095Y-64970533D01*
X139894285Y-64684819D02*
X139418095Y-64684819D01*
X139418095Y-64684819D02*
X139370476Y-65161009D01*
X139370476Y-65161009D02*
X139418095Y-65113390D01*
X139418095Y-65113390D02*
X139513333Y-65065771D01*
X139513333Y-65065771D02*
X139751428Y-65065771D01*
X139751428Y-65065771D02*
X139846666Y-65113390D01*
X139846666Y-65113390D02*
X139894285Y-65161009D01*
X139894285Y-65161009D02*
X139941904Y-65256247D01*
X139941904Y-65256247D02*
X139941904Y-65494342D01*
X139941904Y-65494342D02*
X139894285Y-65589580D01*
X139894285Y-65589580D02*
X139846666Y-65637200D01*
X139846666Y-65637200D02*
X139751428Y-65684819D01*
X139751428Y-65684819D02*
X139513333Y-65684819D01*
X139513333Y-65684819D02*
X139418095Y-65637200D01*
X139418095Y-65637200D02*
X139370476Y-65589580D01*
X144527142Y-60934819D02*
X144193809Y-60458628D01*
X143955714Y-60934819D02*
X143955714Y-59934819D01*
X143955714Y-59934819D02*
X144336666Y-59934819D01*
X144336666Y-59934819D02*
X144431904Y-59982438D01*
X144431904Y-59982438D02*
X144479523Y-60030057D01*
X144479523Y-60030057D02*
X144527142Y-60125295D01*
X144527142Y-60125295D02*
X144527142Y-60268152D01*
X144527142Y-60268152D02*
X144479523Y-60363390D01*
X144479523Y-60363390D02*
X144431904Y-60411009D01*
X144431904Y-60411009D02*
X144336666Y-60458628D01*
X144336666Y-60458628D02*
X143955714Y-60458628D01*
X145479523Y-60934819D02*
X144908095Y-60934819D01*
X145193809Y-60934819D02*
X145193809Y-59934819D01*
X145193809Y-59934819D02*
X145098571Y-60077676D01*
X145098571Y-60077676D02*
X145003333Y-60172914D01*
X145003333Y-60172914D02*
X144908095Y-60220533D01*
X145955714Y-60934819D02*
X146146190Y-60934819D01*
X146146190Y-60934819D02*
X146241428Y-60887200D01*
X146241428Y-60887200D02*
X146289047Y-60839580D01*
X146289047Y-60839580D02*
X146384285Y-60696723D01*
X146384285Y-60696723D02*
X146431904Y-60506247D01*
X146431904Y-60506247D02*
X146431904Y-60125295D01*
X146431904Y-60125295D02*
X146384285Y-60030057D01*
X146384285Y-60030057D02*
X146336666Y-59982438D01*
X146336666Y-59982438D02*
X146241428Y-59934819D01*
X146241428Y-59934819D02*
X146050952Y-59934819D01*
X146050952Y-59934819D02*
X145955714Y-59982438D01*
X145955714Y-59982438D02*
X145908095Y-60030057D01*
X145908095Y-60030057D02*
X145860476Y-60125295D01*
X145860476Y-60125295D02*
X145860476Y-60363390D01*
X145860476Y-60363390D02*
X145908095Y-60458628D01*
X145908095Y-60458628D02*
X145955714Y-60506247D01*
X145955714Y-60506247D02*
X146050952Y-60553866D01*
X146050952Y-60553866D02*
X146241428Y-60553866D01*
X146241428Y-60553866D02*
X146336666Y-60506247D01*
X146336666Y-60506247D02*
X146384285Y-60458628D01*
X146384285Y-60458628D02*
X146431904Y-60363390D01*
X157613333Y-65509580D02*
X157565714Y-65557200D01*
X157565714Y-65557200D02*
X157422857Y-65604819D01*
X157422857Y-65604819D02*
X157327619Y-65604819D01*
X157327619Y-65604819D02*
X157184762Y-65557200D01*
X157184762Y-65557200D02*
X157089524Y-65461961D01*
X157089524Y-65461961D02*
X157041905Y-65366723D01*
X157041905Y-65366723D02*
X156994286Y-65176247D01*
X156994286Y-65176247D02*
X156994286Y-65033390D01*
X156994286Y-65033390D02*
X157041905Y-64842914D01*
X157041905Y-64842914D02*
X157089524Y-64747676D01*
X157089524Y-64747676D02*
X157184762Y-64652438D01*
X157184762Y-64652438D02*
X157327619Y-64604819D01*
X157327619Y-64604819D02*
X157422857Y-64604819D01*
X157422857Y-64604819D02*
X157565714Y-64652438D01*
X157565714Y-64652438D02*
X157613333Y-64700057D01*
X157994286Y-64700057D02*
X158041905Y-64652438D01*
X158041905Y-64652438D02*
X158137143Y-64604819D01*
X158137143Y-64604819D02*
X158375238Y-64604819D01*
X158375238Y-64604819D02*
X158470476Y-64652438D01*
X158470476Y-64652438D02*
X158518095Y-64700057D01*
X158518095Y-64700057D02*
X158565714Y-64795295D01*
X158565714Y-64795295D02*
X158565714Y-64890533D01*
X158565714Y-64890533D02*
X158518095Y-65033390D01*
X158518095Y-65033390D02*
X157946667Y-65604819D01*
X157946667Y-65604819D02*
X158565714Y-65604819D01*
X125533333Y-75184819D02*
X125200000Y-74708628D01*
X124961905Y-75184819D02*
X124961905Y-74184819D01*
X124961905Y-74184819D02*
X125342857Y-74184819D01*
X125342857Y-74184819D02*
X125438095Y-74232438D01*
X125438095Y-74232438D02*
X125485714Y-74280057D01*
X125485714Y-74280057D02*
X125533333Y-74375295D01*
X125533333Y-74375295D02*
X125533333Y-74518152D01*
X125533333Y-74518152D02*
X125485714Y-74613390D01*
X125485714Y-74613390D02*
X125438095Y-74661009D01*
X125438095Y-74661009D02*
X125342857Y-74708628D01*
X125342857Y-74708628D02*
X124961905Y-74708628D01*
X125866667Y-74184819D02*
X126533333Y-74184819D01*
X126533333Y-74184819D02*
X126104762Y-75184819D01*
X144527142Y-70434819D02*
X144193809Y-69958628D01*
X143955714Y-70434819D02*
X143955714Y-69434819D01*
X143955714Y-69434819D02*
X144336666Y-69434819D01*
X144336666Y-69434819D02*
X144431904Y-69482438D01*
X144431904Y-69482438D02*
X144479523Y-69530057D01*
X144479523Y-69530057D02*
X144527142Y-69625295D01*
X144527142Y-69625295D02*
X144527142Y-69768152D01*
X144527142Y-69768152D02*
X144479523Y-69863390D01*
X144479523Y-69863390D02*
X144431904Y-69911009D01*
X144431904Y-69911009D02*
X144336666Y-69958628D01*
X144336666Y-69958628D02*
X143955714Y-69958628D01*
X144908095Y-69530057D02*
X144955714Y-69482438D01*
X144955714Y-69482438D02*
X145050952Y-69434819D01*
X145050952Y-69434819D02*
X145289047Y-69434819D01*
X145289047Y-69434819D02*
X145384285Y-69482438D01*
X145384285Y-69482438D02*
X145431904Y-69530057D01*
X145431904Y-69530057D02*
X145479523Y-69625295D01*
X145479523Y-69625295D02*
X145479523Y-69720533D01*
X145479523Y-69720533D02*
X145431904Y-69863390D01*
X145431904Y-69863390D02*
X144860476Y-70434819D01*
X144860476Y-70434819D02*
X145479523Y-70434819D01*
X146431904Y-70434819D02*
X145860476Y-70434819D01*
X146146190Y-70434819D02*
X146146190Y-69434819D01*
X146146190Y-69434819D02*
X146050952Y-69577676D01*
X146050952Y-69577676D02*
X145955714Y-69672914D01*
X145955714Y-69672914D02*
X145860476Y-69720533D01*
X104196667Y-78967200D02*
X104339524Y-79014819D01*
X104339524Y-79014819D02*
X104577619Y-79014819D01*
X104577619Y-79014819D02*
X104672857Y-78967200D01*
X104672857Y-78967200D02*
X104720476Y-78919580D01*
X104720476Y-78919580D02*
X104768095Y-78824342D01*
X104768095Y-78824342D02*
X104768095Y-78729104D01*
X104768095Y-78729104D02*
X104720476Y-78633866D01*
X104720476Y-78633866D02*
X104672857Y-78586247D01*
X104672857Y-78586247D02*
X104577619Y-78538628D01*
X104577619Y-78538628D02*
X104387143Y-78491009D01*
X104387143Y-78491009D02*
X104291905Y-78443390D01*
X104291905Y-78443390D02*
X104244286Y-78395771D01*
X104244286Y-78395771D02*
X104196667Y-78300533D01*
X104196667Y-78300533D02*
X104196667Y-78205295D01*
X104196667Y-78205295D02*
X104244286Y-78110057D01*
X104244286Y-78110057D02*
X104291905Y-78062438D01*
X104291905Y-78062438D02*
X104387143Y-78014819D01*
X104387143Y-78014819D02*
X104625238Y-78014819D01*
X104625238Y-78014819D02*
X104768095Y-78062438D01*
X105101429Y-78014819D02*
X105339524Y-79014819D01*
X105339524Y-79014819D02*
X105530000Y-78300533D01*
X105530000Y-78300533D02*
X105720476Y-79014819D01*
X105720476Y-79014819D02*
X105958572Y-78014819D01*
X106291905Y-78110057D02*
X106339524Y-78062438D01*
X106339524Y-78062438D02*
X106434762Y-78014819D01*
X106434762Y-78014819D02*
X106672857Y-78014819D01*
X106672857Y-78014819D02*
X106768095Y-78062438D01*
X106768095Y-78062438D02*
X106815714Y-78110057D01*
X106815714Y-78110057D02*
X106863333Y-78205295D01*
X106863333Y-78205295D02*
X106863333Y-78300533D01*
X106863333Y-78300533D02*
X106815714Y-78443390D01*
X106815714Y-78443390D02*
X106244286Y-79014819D01*
X106244286Y-79014819D02*
X106863333Y-79014819D01*
X144527142Y-65684819D02*
X144193809Y-65208628D01*
X143955714Y-65684819D02*
X143955714Y-64684819D01*
X143955714Y-64684819D02*
X144336666Y-64684819D01*
X144336666Y-64684819D02*
X144431904Y-64732438D01*
X144431904Y-64732438D02*
X144479523Y-64780057D01*
X144479523Y-64780057D02*
X144527142Y-64875295D01*
X144527142Y-64875295D02*
X144527142Y-65018152D01*
X144527142Y-65018152D02*
X144479523Y-65113390D01*
X144479523Y-65113390D02*
X144431904Y-65161009D01*
X144431904Y-65161009D02*
X144336666Y-65208628D01*
X144336666Y-65208628D02*
X143955714Y-65208628D01*
X144908095Y-64780057D02*
X144955714Y-64732438D01*
X144955714Y-64732438D02*
X145050952Y-64684819D01*
X145050952Y-64684819D02*
X145289047Y-64684819D01*
X145289047Y-64684819D02*
X145384285Y-64732438D01*
X145384285Y-64732438D02*
X145431904Y-64780057D01*
X145431904Y-64780057D02*
X145479523Y-64875295D01*
X145479523Y-64875295D02*
X145479523Y-64970533D01*
X145479523Y-64970533D02*
X145431904Y-65113390D01*
X145431904Y-65113390D02*
X144860476Y-65684819D01*
X144860476Y-65684819D02*
X145479523Y-65684819D01*
X146098571Y-64684819D02*
X146193809Y-64684819D01*
X146193809Y-64684819D02*
X146289047Y-64732438D01*
X146289047Y-64732438D02*
X146336666Y-64780057D01*
X146336666Y-64780057D02*
X146384285Y-64875295D01*
X146384285Y-64875295D02*
X146431904Y-65065771D01*
X146431904Y-65065771D02*
X146431904Y-65303866D01*
X146431904Y-65303866D02*
X146384285Y-65494342D01*
X146384285Y-65494342D02*
X146336666Y-65589580D01*
X146336666Y-65589580D02*
X146289047Y-65637200D01*
X146289047Y-65637200D02*
X146193809Y-65684819D01*
X146193809Y-65684819D02*
X146098571Y-65684819D01*
X146098571Y-65684819D02*
X146003333Y-65637200D01*
X146003333Y-65637200D02*
X145955714Y-65589580D01*
X145955714Y-65589580D02*
X145908095Y-65494342D01*
X145908095Y-65494342D02*
X145860476Y-65303866D01*
X145860476Y-65303866D02*
X145860476Y-65065771D01*
X145860476Y-65065771D02*
X145908095Y-64875295D01*
X145908095Y-64875295D02*
X145955714Y-64780057D01*
X145955714Y-64780057D02*
X146003333Y-64732438D01*
X146003333Y-64732438D02*
X146098571Y-64684819D01*
X125533333Y-70434819D02*
X125200000Y-69958628D01*
X124961905Y-70434819D02*
X124961905Y-69434819D01*
X124961905Y-69434819D02*
X125342857Y-69434819D01*
X125342857Y-69434819D02*
X125438095Y-69482438D01*
X125438095Y-69482438D02*
X125485714Y-69530057D01*
X125485714Y-69530057D02*
X125533333Y-69625295D01*
X125533333Y-69625295D02*
X125533333Y-69768152D01*
X125533333Y-69768152D02*
X125485714Y-69863390D01*
X125485714Y-69863390D02*
X125438095Y-69911009D01*
X125438095Y-69911009D02*
X125342857Y-69958628D01*
X125342857Y-69958628D02*
X124961905Y-69958628D01*
X126390476Y-69434819D02*
X126200000Y-69434819D01*
X126200000Y-69434819D02*
X126104762Y-69482438D01*
X126104762Y-69482438D02*
X126057143Y-69530057D01*
X126057143Y-69530057D02*
X125961905Y-69672914D01*
X125961905Y-69672914D02*
X125914286Y-69863390D01*
X125914286Y-69863390D02*
X125914286Y-70244342D01*
X125914286Y-70244342D02*
X125961905Y-70339580D01*
X125961905Y-70339580D02*
X126009524Y-70387200D01*
X126009524Y-70387200D02*
X126104762Y-70434819D01*
X126104762Y-70434819D02*
X126295238Y-70434819D01*
X126295238Y-70434819D02*
X126390476Y-70387200D01*
X126390476Y-70387200D02*
X126438095Y-70339580D01*
X126438095Y-70339580D02*
X126485714Y-70244342D01*
X126485714Y-70244342D02*
X126485714Y-70006247D01*
X126485714Y-70006247D02*
X126438095Y-69911009D01*
X126438095Y-69911009D02*
X126390476Y-69863390D01*
X126390476Y-69863390D02*
X126295238Y-69815771D01*
X126295238Y-69815771D02*
X126104762Y-69815771D01*
X126104762Y-69815771D02*
X126009524Y-69863390D01*
X126009524Y-69863390D02*
X125961905Y-69911009D01*
X125961905Y-69911009D02*
X125914286Y-70006247D01*
X128606666Y-79194819D02*
X128606666Y-79909104D01*
X128606666Y-79909104D02*
X128559047Y-80051961D01*
X128559047Y-80051961D02*
X128463809Y-80147200D01*
X128463809Y-80147200D02*
X128320952Y-80194819D01*
X128320952Y-80194819D02*
X128225714Y-80194819D01*
X128987619Y-79194819D02*
X129654285Y-79194819D01*
X129654285Y-79194819D02*
X129225714Y-80194819D01*
X131547142Y-65684819D02*
X131213809Y-65208628D01*
X130975714Y-65684819D02*
X130975714Y-64684819D01*
X130975714Y-64684819D02*
X131356666Y-64684819D01*
X131356666Y-64684819D02*
X131451904Y-64732438D01*
X131451904Y-64732438D02*
X131499523Y-64780057D01*
X131499523Y-64780057D02*
X131547142Y-64875295D01*
X131547142Y-64875295D02*
X131547142Y-65018152D01*
X131547142Y-65018152D02*
X131499523Y-65113390D01*
X131499523Y-65113390D02*
X131451904Y-65161009D01*
X131451904Y-65161009D02*
X131356666Y-65208628D01*
X131356666Y-65208628D02*
X130975714Y-65208628D01*
X132499523Y-65684819D02*
X131928095Y-65684819D01*
X132213809Y-65684819D02*
X132213809Y-64684819D01*
X132213809Y-64684819D02*
X132118571Y-64827676D01*
X132118571Y-64827676D02*
X132023333Y-64922914D01*
X132023333Y-64922914D02*
X131928095Y-64970533D01*
X133118571Y-64684819D02*
X133213809Y-64684819D01*
X133213809Y-64684819D02*
X133309047Y-64732438D01*
X133309047Y-64732438D02*
X133356666Y-64780057D01*
X133356666Y-64780057D02*
X133404285Y-64875295D01*
X133404285Y-64875295D02*
X133451904Y-65065771D01*
X133451904Y-65065771D02*
X133451904Y-65303866D01*
X133451904Y-65303866D02*
X133404285Y-65494342D01*
X133404285Y-65494342D02*
X133356666Y-65589580D01*
X133356666Y-65589580D02*
X133309047Y-65637200D01*
X133309047Y-65637200D02*
X133213809Y-65684819D01*
X133213809Y-65684819D02*
X133118571Y-65684819D01*
X133118571Y-65684819D02*
X133023333Y-65637200D01*
X133023333Y-65637200D02*
X132975714Y-65589580D01*
X132975714Y-65589580D02*
X132928095Y-65494342D01*
X132928095Y-65494342D02*
X132880476Y-65303866D01*
X132880476Y-65303866D02*
X132880476Y-65065771D01*
X132880476Y-65065771D02*
X132928095Y-64875295D01*
X132928095Y-64875295D02*
X132975714Y-64780057D01*
X132975714Y-64780057D02*
X133023333Y-64732438D01*
X133023333Y-64732438D02*
X133118571Y-64684819D01*
X123764819Y-54053333D02*
X124479104Y-54053333D01*
X124479104Y-54053333D02*
X124621961Y-54100952D01*
X124621961Y-54100952D02*
X124717200Y-54196190D01*
X124717200Y-54196190D02*
X124764819Y-54339047D01*
X124764819Y-54339047D02*
X124764819Y-54434285D01*
X123764819Y-53100952D02*
X123764819Y-53577142D01*
X123764819Y-53577142D02*
X124241009Y-53624761D01*
X124241009Y-53624761D02*
X124193390Y-53577142D01*
X124193390Y-53577142D02*
X124145771Y-53481904D01*
X124145771Y-53481904D02*
X124145771Y-53243809D01*
X124145771Y-53243809D02*
X124193390Y-53148571D01*
X124193390Y-53148571D02*
X124241009Y-53100952D01*
X124241009Y-53100952D02*
X124336247Y-53053333D01*
X124336247Y-53053333D02*
X124574342Y-53053333D01*
X124574342Y-53053333D02*
X124669580Y-53100952D01*
X124669580Y-53100952D02*
X124717200Y-53148571D01*
X124717200Y-53148571D02*
X124764819Y-53243809D01*
X124764819Y-53243809D02*
X124764819Y-53481904D01*
X124764819Y-53481904D02*
X124717200Y-53577142D01*
X124717200Y-53577142D02*
X124669580Y-53624761D01*
X151017142Y-70434819D02*
X150683809Y-69958628D01*
X150445714Y-70434819D02*
X150445714Y-69434819D01*
X150445714Y-69434819D02*
X150826666Y-69434819D01*
X150826666Y-69434819D02*
X150921904Y-69482438D01*
X150921904Y-69482438D02*
X150969523Y-69530057D01*
X150969523Y-69530057D02*
X151017142Y-69625295D01*
X151017142Y-69625295D02*
X151017142Y-69768152D01*
X151017142Y-69768152D02*
X150969523Y-69863390D01*
X150969523Y-69863390D02*
X150921904Y-69911009D01*
X150921904Y-69911009D02*
X150826666Y-69958628D01*
X150826666Y-69958628D02*
X150445714Y-69958628D01*
X151398095Y-69530057D02*
X151445714Y-69482438D01*
X151445714Y-69482438D02*
X151540952Y-69434819D01*
X151540952Y-69434819D02*
X151779047Y-69434819D01*
X151779047Y-69434819D02*
X151874285Y-69482438D01*
X151874285Y-69482438D02*
X151921904Y-69530057D01*
X151921904Y-69530057D02*
X151969523Y-69625295D01*
X151969523Y-69625295D02*
X151969523Y-69720533D01*
X151969523Y-69720533D02*
X151921904Y-69863390D01*
X151921904Y-69863390D02*
X151350476Y-70434819D01*
X151350476Y-70434819D02*
X151969523Y-70434819D01*
X152826666Y-69434819D02*
X152636190Y-69434819D01*
X152636190Y-69434819D02*
X152540952Y-69482438D01*
X152540952Y-69482438D02*
X152493333Y-69530057D01*
X152493333Y-69530057D02*
X152398095Y-69672914D01*
X152398095Y-69672914D02*
X152350476Y-69863390D01*
X152350476Y-69863390D02*
X152350476Y-70244342D01*
X152350476Y-70244342D02*
X152398095Y-70339580D01*
X152398095Y-70339580D02*
X152445714Y-70387200D01*
X152445714Y-70387200D02*
X152540952Y-70434819D01*
X152540952Y-70434819D02*
X152731428Y-70434819D01*
X152731428Y-70434819D02*
X152826666Y-70387200D01*
X152826666Y-70387200D02*
X152874285Y-70339580D01*
X152874285Y-70339580D02*
X152921904Y-70244342D01*
X152921904Y-70244342D02*
X152921904Y-70006247D01*
X152921904Y-70006247D02*
X152874285Y-69911009D01*
X152874285Y-69911009D02*
X152826666Y-69863390D01*
X152826666Y-69863390D02*
X152731428Y-69815771D01*
X152731428Y-69815771D02*
X152540952Y-69815771D01*
X152540952Y-69815771D02*
X152445714Y-69863390D01*
X152445714Y-69863390D02*
X152398095Y-69911009D01*
X152398095Y-69911009D02*
X152350476Y-70006247D01*
X190740476Y-63874819D02*
X190740476Y-64589104D01*
X190740476Y-64589104D02*
X190692857Y-64731961D01*
X190692857Y-64731961D02*
X190597619Y-64827200D01*
X190597619Y-64827200D02*
X190454762Y-64874819D01*
X190454762Y-64874819D02*
X190359524Y-64874819D01*
X191740476Y-64874819D02*
X191169048Y-64874819D01*
X191454762Y-64874819D02*
X191454762Y-63874819D01*
X191454762Y-63874819D02*
X191359524Y-64017676D01*
X191359524Y-64017676D02*
X191264286Y-64112914D01*
X191264286Y-64112914D02*
X191169048Y-64160533D01*
X192692857Y-64874819D02*
X192121429Y-64874819D01*
X192407143Y-64874819D02*
X192407143Y-63874819D01*
X192407143Y-63874819D02*
X192311905Y-64017676D01*
X192311905Y-64017676D02*
X192216667Y-64112914D01*
X192216667Y-64112914D02*
X192121429Y-64160533D01*
X125533333Y-65684819D02*
X125200000Y-65208628D01*
X124961905Y-65684819D02*
X124961905Y-64684819D01*
X124961905Y-64684819D02*
X125342857Y-64684819D01*
X125342857Y-64684819D02*
X125438095Y-64732438D01*
X125438095Y-64732438D02*
X125485714Y-64780057D01*
X125485714Y-64780057D02*
X125533333Y-64875295D01*
X125533333Y-64875295D02*
X125533333Y-65018152D01*
X125533333Y-65018152D02*
X125485714Y-65113390D01*
X125485714Y-65113390D02*
X125438095Y-65161009D01*
X125438095Y-65161009D02*
X125342857Y-65208628D01*
X125342857Y-65208628D02*
X124961905Y-65208628D01*
X126438095Y-64684819D02*
X125961905Y-64684819D01*
X125961905Y-64684819D02*
X125914286Y-65161009D01*
X125914286Y-65161009D02*
X125961905Y-65113390D01*
X125961905Y-65113390D02*
X126057143Y-65065771D01*
X126057143Y-65065771D02*
X126295238Y-65065771D01*
X126295238Y-65065771D02*
X126390476Y-65113390D01*
X126390476Y-65113390D02*
X126438095Y-65161009D01*
X126438095Y-65161009D02*
X126485714Y-65256247D01*
X126485714Y-65256247D02*
X126485714Y-65494342D01*
X126485714Y-65494342D02*
X126438095Y-65589580D01*
X126438095Y-65589580D02*
X126390476Y-65637200D01*
X126390476Y-65637200D02*
X126295238Y-65684819D01*
X126295238Y-65684819D02*
X126057143Y-65684819D01*
X126057143Y-65684819D02*
X125961905Y-65637200D01*
X125961905Y-65637200D02*
X125914286Y-65589580D01*
X159308031Y-55959580D02*
X159260412Y-56007200D01*
X159260412Y-56007200D02*
X159117555Y-56054819D01*
X159117555Y-56054819D02*
X159022317Y-56054819D01*
X159022317Y-56054819D02*
X158879460Y-56007200D01*
X158879460Y-56007200D02*
X158784222Y-55911961D01*
X158784222Y-55911961D02*
X158736603Y-55816723D01*
X158736603Y-55816723D02*
X158688984Y-55626247D01*
X158688984Y-55626247D02*
X158688984Y-55483390D01*
X158688984Y-55483390D02*
X158736603Y-55292914D01*
X158736603Y-55292914D02*
X158784222Y-55197676D01*
X158784222Y-55197676D02*
X158879460Y-55102438D01*
X158879460Y-55102438D02*
X159022317Y-55054819D01*
X159022317Y-55054819D02*
X159117555Y-55054819D01*
X159117555Y-55054819D02*
X159260412Y-55102438D01*
X159260412Y-55102438D02*
X159308031Y-55150057D01*
X160260412Y-56054819D02*
X159688984Y-56054819D01*
X159974698Y-56054819D02*
X159974698Y-55054819D01*
X159974698Y-55054819D02*
X159879460Y-55197676D01*
X159879460Y-55197676D02*
X159784222Y-55292914D01*
X159784222Y-55292914D02*
X159688984Y-55340533D01*
X151017142Y-60934819D02*
X150683809Y-60458628D01*
X150445714Y-60934819D02*
X150445714Y-59934819D01*
X150445714Y-59934819D02*
X150826666Y-59934819D01*
X150826666Y-59934819D02*
X150921904Y-59982438D01*
X150921904Y-59982438D02*
X150969523Y-60030057D01*
X150969523Y-60030057D02*
X151017142Y-60125295D01*
X151017142Y-60125295D02*
X151017142Y-60268152D01*
X151017142Y-60268152D02*
X150969523Y-60363390D01*
X150969523Y-60363390D02*
X150921904Y-60411009D01*
X150921904Y-60411009D02*
X150826666Y-60458628D01*
X150826666Y-60458628D02*
X150445714Y-60458628D01*
X151398095Y-60030057D02*
X151445714Y-59982438D01*
X151445714Y-59982438D02*
X151540952Y-59934819D01*
X151540952Y-59934819D02*
X151779047Y-59934819D01*
X151779047Y-59934819D02*
X151874285Y-59982438D01*
X151874285Y-59982438D02*
X151921904Y-60030057D01*
X151921904Y-60030057D02*
X151969523Y-60125295D01*
X151969523Y-60125295D02*
X151969523Y-60220533D01*
X151969523Y-60220533D02*
X151921904Y-60363390D01*
X151921904Y-60363390D02*
X151350476Y-60934819D01*
X151350476Y-60934819D02*
X151969523Y-60934819D01*
X152826666Y-60268152D02*
X152826666Y-60934819D01*
X152588571Y-59887200D02*
X152350476Y-60601485D01*
X152350476Y-60601485D02*
X152969523Y-60601485D01*
X131547142Y-75184819D02*
X131213809Y-74708628D01*
X130975714Y-75184819D02*
X130975714Y-74184819D01*
X130975714Y-74184819D02*
X131356666Y-74184819D01*
X131356666Y-74184819D02*
X131451904Y-74232438D01*
X131451904Y-74232438D02*
X131499523Y-74280057D01*
X131499523Y-74280057D02*
X131547142Y-74375295D01*
X131547142Y-74375295D02*
X131547142Y-74518152D01*
X131547142Y-74518152D02*
X131499523Y-74613390D01*
X131499523Y-74613390D02*
X131451904Y-74661009D01*
X131451904Y-74661009D02*
X131356666Y-74708628D01*
X131356666Y-74708628D02*
X130975714Y-74708628D01*
X132499523Y-75184819D02*
X131928095Y-75184819D01*
X132213809Y-75184819D02*
X132213809Y-74184819D01*
X132213809Y-74184819D02*
X132118571Y-74327676D01*
X132118571Y-74327676D02*
X132023333Y-74422914D01*
X132023333Y-74422914D02*
X131928095Y-74470533D01*
X132880476Y-74280057D02*
X132928095Y-74232438D01*
X132928095Y-74232438D02*
X133023333Y-74184819D01*
X133023333Y-74184819D02*
X133261428Y-74184819D01*
X133261428Y-74184819D02*
X133356666Y-74232438D01*
X133356666Y-74232438D02*
X133404285Y-74280057D01*
X133404285Y-74280057D02*
X133451904Y-74375295D01*
X133451904Y-74375295D02*
X133451904Y-74470533D01*
X133451904Y-74470533D02*
X133404285Y-74613390D01*
X133404285Y-74613390D02*
X132832857Y-75184819D01*
X132832857Y-75184819D02*
X133451904Y-75184819D01*
X104196667Y-69617200D02*
X104339524Y-69664819D01*
X104339524Y-69664819D02*
X104577619Y-69664819D01*
X104577619Y-69664819D02*
X104672857Y-69617200D01*
X104672857Y-69617200D02*
X104720476Y-69569580D01*
X104720476Y-69569580D02*
X104768095Y-69474342D01*
X104768095Y-69474342D02*
X104768095Y-69379104D01*
X104768095Y-69379104D02*
X104720476Y-69283866D01*
X104720476Y-69283866D02*
X104672857Y-69236247D01*
X104672857Y-69236247D02*
X104577619Y-69188628D01*
X104577619Y-69188628D02*
X104387143Y-69141009D01*
X104387143Y-69141009D02*
X104291905Y-69093390D01*
X104291905Y-69093390D02*
X104244286Y-69045771D01*
X104244286Y-69045771D02*
X104196667Y-68950533D01*
X104196667Y-68950533D02*
X104196667Y-68855295D01*
X104196667Y-68855295D02*
X104244286Y-68760057D01*
X104244286Y-68760057D02*
X104291905Y-68712438D01*
X104291905Y-68712438D02*
X104387143Y-68664819D01*
X104387143Y-68664819D02*
X104625238Y-68664819D01*
X104625238Y-68664819D02*
X104768095Y-68712438D01*
X105101429Y-68664819D02*
X105339524Y-69664819D01*
X105339524Y-69664819D02*
X105530000Y-68950533D01*
X105530000Y-68950533D02*
X105720476Y-69664819D01*
X105720476Y-69664819D02*
X105958572Y-68664819D01*
X106863333Y-69664819D02*
X106291905Y-69664819D01*
X106577619Y-69664819D02*
X106577619Y-68664819D01*
X106577619Y-68664819D02*
X106482381Y-68807676D01*
X106482381Y-68807676D02*
X106387143Y-68902914D01*
X106387143Y-68902914D02*
X106291905Y-68950533D01*
X131547142Y-70434819D02*
X131213809Y-69958628D01*
X130975714Y-70434819D02*
X130975714Y-69434819D01*
X130975714Y-69434819D02*
X131356666Y-69434819D01*
X131356666Y-69434819D02*
X131451904Y-69482438D01*
X131451904Y-69482438D02*
X131499523Y-69530057D01*
X131499523Y-69530057D02*
X131547142Y-69625295D01*
X131547142Y-69625295D02*
X131547142Y-69768152D01*
X131547142Y-69768152D02*
X131499523Y-69863390D01*
X131499523Y-69863390D02*
X131451904Y-69911009D01*
X131451904Y-69911009D02*
X131356666Y-69958628D01*
X131356666Y-69958628D02*
X130975714Y-69958628D01*
X132499523Y-70434819D02*
X131928095Y-70434819D01*
X132213809Y-70434819D02*
X132213809Y-69434819D01*
X132213809Y-69434819D02*
X132118571Y-69577676D01*
X132118571Y-69577676D02*
X132023333Y-69672914D01*
X132023333Y-69672914D02*
X131928095Y-69720533D01*
X133451904Y-70434819D02*
X132880476Y-70434819D01*
X133166190Y-70434819D02*
X133166190Y-69434819D01*
X133166190Y-69434819D02*
X133070952Y-69577676D01*
X133070952Y-69577676D02*
X132975714Y-69672914D01*
X132975714Y-69672914D02*
X132880476Y-69720533D01*
X144527142Y-75184819D02*
X144193809Y-74708628D01*
X143955714Y-75184819D02*
X143955714Y-74184819D01*
X143955714Y-74184819D02*
X144336666Y-74184819D01*
X144336666Y-74184819D02*
X144431904Y-74232438D01*
X144431904Y-74232438D02*
X144479523Y-74280057D01*
X144479523Y-74280057D02*
X144527142Y-74375295D01*
X144527142Y-74375295D02*
X144527142Y-74518152D01*
X144527142Y-74518152D02*
X144479523Y-74613390D01*
X144479523Y-74613390D02*
X144431904Y-74661009D01*
X144431904Y-74661009D02*
X144336666Y-74708628D01*
X144336666Y-74708628D02*
X143955714Y-74708628D01*
X144908095Y-74280057D02*
X144955714Y-74232438D01*
X144955714Y-74232438D02*
X145050952Y-74184819D01*
X145050952Y-74184819D02*
X145289047Y-74184819D01*
X145289047Y-74184819D02*
X145384285Y-74232438D01*
X145384285Y-74232438D02*
X145431904Y-74280057D01*
X145431904Y-74280057D02*
X145479523Y-74375295D01*
X145479523Y-74375295D02*
X145479523Y-74470533D01*
X145479523Y-74470533D02*
X145431904Y-74613390D01*
X145431904Y-74613390D02*
X144860476Y-75184819D01*
X144860476Y-75184819D02*
X145479523Y-75184819D01*
X145860476Y-74280057D02*
X145908095Y-74232438D01*
X145908095Y-74232438D02*
X146003333Y-74184819D01*
X146003333Y-74184819D02*
X146241428Y-74184819D01*
X146241428Y-74184819D02*
X146336666Y-74232438D01*
X146336666Y-74232438D02*
X146384285Y-74280057D01*
X146384285Y-74280057D02*
X146431904Y-74375295D01*
X146431904Y-74375295D02*
X146431904Y-74470533D01*
X146431904Y-74470533D02*
X146384285Y-74613390D01*
X146384285Y-74613390D02*
X145812857Y-75184819D01*
X145812857Y-75184819D02*
X146431904Y-75184819D01*
X132450476Y-83244819D02*
X132450476Y-83959104D01*
X132450476Y-83959104D02*
X132402857Y-84101961D01*
X132402857Y-84101961D02*
X132307619Y-84197200D01*
X132307619Y-84197200D02*
X132164762Y-84244819D01*
X132164762Y-84244819D02*
X132069524Y-84244819D01*
X133450476Y-84244819D02*
X132879048Y-84244819D01*
X133164762Y-84244819D02*
X133164762Y-83244819D01*
X133164762Y-83244819D02*
X133069524Y-83387676D01*
X133069524Y-83387676D02*
X132974286Y-83482914D01*
X132974286Y-83482914D02*
X132879048Y-83530533D01*
X133831429Y-83340057D02*
X133879048Y-83292438D01*
X133879048Y-83292438D02*
X133974286Y-83244819D01*
X133974286Y-83244819D02*
X134212381Y-83244819D01*
X134212381Y-83244819D02*
X134307619Y-83292438D01*
X134307619Y-83292438D02*
X134355238Y-83340057D01*
X134355238Y-83340057D02*
X134402857Y-83435295D01*
X134402857Y-83435295D02*
X134402857Y-83530533D01*
X134402857Y-83530533D02*
X134355238Y-83673390D01*
X134355238Y-83673390D02*
X133783810Y-84244819D01*
X133783810Y-84244819D02*
X134402857Y-84244819D01*
X116543333Y-80604819D02*
X116210000Y-80128628D01*
X115971905Y-80604819D02*
X115971905Y-79604819D01*
X115971905Y-79604819D02*
X116352857Y-79604819D01*
X116352857Y-79604819D02*
X116448095Y-79652438D01*
X116448095Y-79652438D02*
X116495714Y-79700057D01*
X116495714Y-79700057D02*
X116543333Y-79795295D01*
X116543333Y-79795295D02*
X116543333Y-79938152D01*
X116543333Y-79938152D02*
X116495714Y-80033390D01*
X116495714Y-80033390D02*
X116448095Y-80081009D01*
X116448095Y-80081009D02*
X116352857Y-80128628D01*
X116352857Y-80128628D02*
X115971905Y-80128628D01*
X117495714Y-80604819D02*
X116924286Y-80604819D01*
X117210000Y-80604819D02*
X117210000Y-79604819D01*
X117210000Y-79604819D02*
X117114762Y-79747676D01*
X117114762Y-79747676D02*
X117019524Y-79842914D01*
X117019524Y-79842914D02*
X116924286Y-79890533D01*
X151017142Y-75184819D02*
X150683809Y-74708628D01*
X150445714Y-75184819D02*
X150445714Y-74184819D01*
X150445714Y-74184819D02*
X150826666Y-74184819D01*
X150826666Y-74184819D02*
X150921904Y-74232438D01*
X150921904Y-74232438D02*
X150969523Y-74280057D01*
X150969523Y-74280057D02*
X151017142Y-74375295D01*
X151017142Y-74375295D02*
X151017142Y-74518152D01*
X151017142Y-74518152D02*
X150969523Y-74613390D01*
X150969523Y-74613390D02*
X150921904Y-74661009D01*
X150921904Y-74661009D02*
X150826666Y-74708628D01*
X150826666Y-74708628D02*
X150445714Y-74708628D01*
X151398095Y-74280057D02*
X151445714Y-74232438D01*
X151445714Y-74232438D02*
X151540952Y-74184819D01*
X151540952Y-74184819D02*
X151779047Y-74184819D01*
X151779047Y-74184819D02*
X151874285Y-74232438D01*
X151874285Y-74232438D02*
X151921904Y-74280057D01*
X151921904Y-74280057D02*
X151969523Y-74375295D01*
X151969523Y-74375295D02*
X151969523Y-74470533D01*
X151969523Y-74470533D02*
X151921904Y-74613390D01*
X151921904Y-74613390D02*
X151350476Y-75184819D01*
X151350476Y-75184819D02*
X151969523Y-75184819D01*
X152302857Y-74184819D02*
X152969523Y-74184819D01*
X152969523Y-74184819D02*
X152540952Y-75184819D01*
X138037142Y-75184819D02*
X137703809Y-74708628D01*
X137465714Y-75184819D02*
X137465714Y-74184819D01*
X137465714Y-74184819D02*
X137846666Y-74184819D01*
X137846666Y-74184819D02*
X137941904Y-74232438D01*
X137941904Y-74232438D02*
X137989523Y-74280057D01*
X137989523Y-74280057D02*
X138037142Y-74375295D01*
X138037142Y-74375295D02*
X138037142Y-74518152D01*
X138037142Y-74518152D02*
X137989523Y-74613390D01*
X137989523Y-74613390D02*
X137941904Y-74661009D01*
X137941904Y-74661009D02*
X137846666Y-74708628D01*
X137846666Y-74708628D02*
X137465714Y-74708628D01*
X138989523Y-75184819D02*
X138418095Y-75184819D01*
X138703809Y-75184819D02*
X138703809Y-74184819D01*
X138703809Y-74184819D02*
X138608571Y-74327676D01*
X138608571Y-74327676D02*
X138513333Y-74422914D01*
X138513333Y-74422914D02*
X138418095Y-74470533D01*
X139322857Y-74184819D02*
X139989523Y-74184819D01*
X139989523Y-74184819D02*
X139560952Y-75184819D01*
X151017142Y-65684819D02*
X150683809Y-65208628D01*
X150445714Y-65684819D02*
X150445714Y-64684819D01*
X150445714Y-64684819D02*
X150826666Y-64684819D01*
X150826666Y-64684819D02*
X150921904Y-64732438D01*
X150921904Y-64732438D02*
X150969523Y-64780057D01*
X150969523Y-64780057D02*
X151017142Y-64875295D01*
X151017142Y-64875295D02*
X151017142Y-65018152D01*
X151017142Y-65018152D02*
X150969523Y-65113390D01*
X150969523Y-65113390D02*
X150921904Y-65161009D01*
X150921904Y-65161009D02*
X150826666Y-65208628D01*
X150826666Y-65208628D02*
X150445714Y-65208628D01*
X151398095Y-64780057D02*
X151445714Y-64732438D01*
X151445714Y-64732438D02*
X151540952Y-64684819D01*
X151540952Y-64684819D02*
X151779047Y-64684819D01*
X151779047Y-64684819D02*
X151874285Y-64732438D01*
X151874285Y-64732438D02*
X151921904Y-64780057D01*
X151921904Y-64780057D02*
X151969523Y-64875295D01*
X151969523Y-64875295D02*
X151969523Y-64970533D01*
X151969523Y-64970533D02*
X151921904Y-65113390D01*
X151921904Y-65113390D02*
X151350476Y-65684819D01*
X151350476Y-65684819D02*
X151969523Y-65684819D01*
X152874285Y-64684819D02*
X152398095Y-64684819D01*
X152398095Y-64684819D02*
X152350476Y-65161009D01*
X152350476Y-65161009D02*
X152398095Y-65113390D01*
X152398095Y-65113390D02*
X152493333Y-65065771D01*
X152493333Y-65065771D02*
X152731428Y-65065771D01*
X152731428Y-65065771D02*
X152826666Y-65113390D01*
X152826666Y-65113390D02*
X152874285Y-65161009D01*
X152874285Y-65161009D02*
X152921904Y-65256247D01*
X152921904Y-65256247D02*
X152921904Y-65494342D01*
X152921904Y-65494342D02*
X152874285Y-65589580D01*
X152874285Y-65589580D02*
X152826666Y-65637200D01*
X152826666Y-65637200D02*
X152731428Y-65684819D01*
X152731428Y-65684819D02*
X152493333Y-65684819D01*
X152493333Y-65684819D02*
X152398095Y-65637200D01*
X152398095Y-65637200D02*
X152350476Y-65589580D01*
X138037142Y-70434819D02*
X137703809Y-69958628D01*
X137465714Y-70434819D02*
X137465714Y-69434819D01*
X137465714Y-69434819D02*
X137846666Y-69434819D01*
X137846666Y-69434819D02*
X137941904Y-69482438D01*
X137941904Y-69482438D02*
X137989523Y-69530057D01*
X137989523Y-69530057D02*
X138037142Y-69625295D01*
X138037142Y-69625295D02*
X138037142Y-69768152D01*
X138037142Y-69768152D02*
X137989523Y-69863390D01*
X137989523Y-69863390D02*
X137941904Y-69911009D01*
X137941904Y-69911009D02*
X137846666Y-69958628D01*
X137846666Y-69958628D02*
X137465714Y-69958628D01*
X138989523Y-70434819D02*
X138418095Y-70434819D01*
X138703809Y-70434819D02*
X138703809Y-69434819D01*
X138703809Y-69434819D02*
X138608571Y-69577676D01*
X138608571Y-69577676D02*
X138513333Y-69672914D01*
X138513333Y-69672914D02*
X138418095Y-69720533D01*
X139846666Y-69434819D02*
X139656190Y-69434819D01*
X139656190Y-69434819D02*
X139560952Y-69482438D01*
X139560952Y-69482438D02*
X139513333Y-69530057D01*
X139513333Y-69530057D02*
X139418095Y-69672914D01*
X139418095Y-69672914D02*
X139370476Y-69863390D01*
X139370476Y-69863390D02*
X139370476Y-70244342D01*
X139370476Y-70244342D02*
X139418095Y-70339580D01*
X139418095Y-70339580D02*
X139465714Y-70387200D01*
X139465714Y-70387200D02*
X139560952Y-70434819D01*
X139560952Y-70434819D02*
X139751428Y-70434819D01*
X139751428Y-70434819D02*
X139846666Y-70387200D01*
X139846666Y-70387200D02*
X139894285Y-70339580D01*
X139894285Y-70339580D02*
X139941904Y-70244342D01*
X139941904Y-70244342D02*
X139941904Y-70006247D01*
X139941904Y-70006247D02*
X139894285Y-69911009D01*
X139894285Y-69911009D02*
X139846666Y-69863390D01*
X139846666Y-69863390D02*
X139751428Y-69815771D01*
X139751428Y-69815771D02*
X139560952Y-69815771D01*
X139560952Y-69815771D02*
X139465714Y-69863390D01*
X139465714Y-69863390D02*
X139418095Y-69911009D01*
X139418095Y-69911009D02*
X139370476Y-70006247D01*
X107709761Y-52089819D02*
X107376428Y-51613628D01*
X107138333Y-52089819D02*
X107138333Y-51089819D01*
X107138333Y-51089819D02*
X107519285Y-51089819D01*
X107519285Y-51089819D02*
X107614523Y-51137438D01*
X107614523Y-51137438D02*
X107662142Y-51185057D01*
X107662142Y-51185057D02*
X107709761Y-51280295D01*
X107709761Y-51280295D02*
X107709761Y-51423152D01*
X107709761Y-51423152D02*
X107662142Y-51518390D01*
X107662142Y-51518390D02*
X107614523Y-51566009D01*
X107614523Y-51566009D02*
X107519285Y-51613628D01*
X107519285Y-51613628D02*
X107138333Y-51613628D01*
X107995476Y-51089819D02*
X108328809Y-52089819D01*
X108328809Y-52089819D02*
X108662142Y-51089819D01*
X109519285Y-52089819D02*
X108947857Y-52089819D01*
X109233571Y-52089819D02*
X109233571Y-51089819D01*
X109233571Y-51089819D02*
X109138333Y-51232676D01*
X109138333Y-51232676D02*
X109043095Y-51327914D01*
X109043095Y-51327914D02*
X108947857Y-51375533D01*
X116543333Y-85354819D02*
X116210000Y-84878628D01*
X115971905Y-85354819D02*
X115971905Y-84354819D01*
X115971905Y-84354819D02*
X116352857Y-84354819D01*
X116352857Y-84354819D02*
X116448095Y-84402438D01*
X116448095Y-84402438D02*
X116495714Y-84450057D01*
X116495714Y-84450057D02*
X116543333Y-84545295D01*
X116543333Y-84545295D02*
X116543333Y-84688152D01*
X116543333Y-84688152D02*
X116495714Y-84783390D01*
X116495714Y-84783390D02*
X116448095Y-84831009D01*
X116448095Y-84831009D02*
X116352857Y-84878628D01*
X116352857Y-84878628D02*
X115971905Y-84878628D01*
X116924286Y-84450057D02*
X116971905Y-84402438D01*
X116971905Y-84402438D02*
X117067143Y-84354819D01*
X117067143Y-84354819D02*
X117305238Y-84354819D01*
X117305238Y-84354819D02*
X117400476Y-84402438D01*
X117400476Y-84402438D02*
X117448095Y-84450057D01*
X117448095Y-84450057D02*
X117495714Y-84545295D01*
X117495714Y-84545295D02*
X117495714Y-84640533D01*
X117495714Y-84640533D02*
X117448095Y-84783390D01*
X117448095Y-84783390D02*
X116876667Y-85354819D01*
X116876667Y-85354819D02*
X117495714Y-85354819D01*
X140918095Y-79054819D02*
X140918095Y-79864342D01*
X140918095Y-79864342D02*
X140965714Y-79959580D01*
X140965714Y-79959580D02*
X141013333Y-80007200D01*
X141013333Y-80007200D02*
X141108571Y-80054819D01*
X141108571Y-80054819D02*
X141299047Y-80054819D01*
X141299047Y-80054819D02*
X141394285Y-80007200D01*
X141394285Y-80007200D02*
X141441904Y-79959580D01*
X141441904Y-79959580D02*
X141489523Y-79864342D01*
X141489523Y-79864342D02*
X141489523Y-79054819D01*
X142489523Y-80054819D02*
X141918095Y-80054819D01*
X142203809Y-80054819D02*
X142203809Y-79054819D01*
X142203809Y-79054819D02*
X142108571Y-79197676D01*
X142108571Y-79197676D02*
X142013333Y-79292914D01*
X142013333Y-79292914D02*
X141918095Y-79340533D01*
X160576666Y-79194819D02*
X160576666Y-79909104D01*
X160576666Y-79909104D02*
X160529047Y-80051961D01*
X160529047Y-80051961D02*
X160433809Y-80147200D01*
X160433809Y-80147200D02*
X160290952Y-80194819D01*
X160290952Y-80194819D02*
X160195714Y-80194819D01*
X161100476Y-80194819D02*
X161290952Y-80194819D01*
X161290952Y-80194819D02*
X161386190Y-80147200D01*
X161386190Y-80147200D02*
X161433809Y-80099580D01*
X161433809Y-80099580D02*
X161529047Y-79956723D01*
X161529047Y-79956723D02*
X161576666Y-79766247D01*
X161576666Y-79766247D02*
X161576666Y-79385295D01*
X161576666Y-79385295D02*
X161529047Y-79290057D01*
X161529047Y-79290057D02*
X161481428Y-79242438D01*
X161481428Y-79242438D02*
X161386190Y-79194819D01*
X161386190Y-79194819D02*
X161195714Y-79194819D01*
X161195714Y-79194819D02*
X161100476Y-79242438D01*
X161100476Y-79242438D02*
X161052857Y-79290057D01*
X161052857Y-79290057D02*
X161005238Y-79385295D01*
X161005238Y-79385295D02*
X161005238Y-79623390D01*
X161005238Y-79623390D02*
X161052857Y-79718628D01*
X161052857Y-79718628D02*
X161100476Y-79766247D01*
X161100476Y-79766247D02*
X161195714Y-79813866D01*
X161195714Y-79813866D02*
X161386190Y-79813866D01*
X161386190Y-79813866D02*
X161481428Y-79766247D01*
X161481428Y-79766247D02*
X161529047Y-79718628D01*
X161529047Y-79718628D02*
X161576666Y-79623390D01*
X125533333Y-56184819D02*
X125200000Y-55708628D01*
X124961905Y-56184819D02*
X124961905Y-55184819D01*
X124961905Y-55184819D02*
X125342857Y-55184819D01*
X125342857Y-55184819D02*
X125438095Y-55232438D01*
X125438095Y-55232438D02*
X125485714Y-55280057D01*
X125485714Y-55280057D02*
X125533333Y-55375295D01*
X125533333Y-55375295D02*
X125533333Y-55518152D01*
X125533333Y-55518152D02*
X125485714Y-55613390D01*
X125485714Y-55613390D02*
X125438095Y-55661009D01*
X125438095Y-55661009D02*
X125342857Y-55708628D01*
X125342857Y-55708628D02*
X124961905Y-55708628D01*
X125866667Y-55184819D02*
X126485714Y-55184819D01*
X126485714Y-55184819D02*
X126152381Y-55565771D01*
X126152381Y-55565771D02*
X126295238Y-55565771D01*
X126295238Y-55565771D02*
X126390476Y-55613390D01*
X126390476Y-55613390D02*
X126438095Y-55661009D01*
X126438095Y-55661009D02*
X126485714Y-55756247D01*
X126485714Y-55756247D02*
X126485714Y-55994342D01*
X126485714Y-55994342D02*
X126438095Y-56089580D01*
X126438095Y-56089580D02*
X126390476Y-56137200D01*
X126390476Y-56137200D02*
X126295238Y-56184819D01*
X126295238Y-56184819D02*
X126009524Y-56184819D01*
X126009524Y-56184819D02*
X125914286Y-56137200D01*
X125914286Y-56137200D02*
X125866667Y-56089580D01*
X174690476Y-56954819D02*
X174690476Y-57669104D01*
X174690476Y-57669104D02*
X174642857Y-57811961D01*
X174642857Y-57811961D02*
X174547619Y-57907200D01*
X174547619Y-57907200D02*
X174404762Y-57954819D01*
X174404762Y-57954819D02*
X174309524Y-57954819D01*
X175690476Y-57954819D02*
X175119048Y-57954819D01*
X175404762Y-57954819D02*
X175404762Y-56954819D01*
X175404762Y-56954819D02*
X175309524Y-57097676D01*
X175309524Y-57097676D02*
X175214286Y-57192914D01*
X175214286Y-57192914D02*
X175119048Y-57240533D01*
X176309524Y-56954819D02*
X176404762Y-56954819D01*
X176404762Y-56954819D02*
X176500000Y-57002438D01*
X176500000Y-57002438D02*
X176547619Y-57050057D01*
X176547619Y-57050057D02*
X176595238Y-57145295D01*
X176595238Y-57145295D02*
X176642857Y-57335771D01*
X176642857Y-57335771D02*
X176642857Y-57573866D01*
X176642857Y-57573866D02*
X176595238Y-57764342D01*
X176595238Y-57764342D02*
X176547619Y-57859580D01*
X176547619Y-57859580D02*
X176500000Y-57907200D01*
X176500000Y-57907200D02*
X176404762Y-57954819D01*
X176404762Y-57954819D02*
X176309524Y-57954819D01*
X176309524Y-57954819D02*
X176214286Y-57907200D01*
X176214286Y-57907200D02*
X176166667Y-57859580D01*
X176166667Y-57859580D02*
X176119048Y-57764342D01*
X176119048Y-57764342D02*
X176071429Y-57573866D01*
X176071429Y-57573866D02*
X176071429Y-57335771D01*
X176071429Y-57335771D02*
X176119048Y-57145295D01*
X176119048Y-57145295D02*
X176166667Y-57050057D01*
X176166667Y-57050057D02*
X176214286Y-57002438D01*
X176214286Y-57002438D02*
X176309524Y-56954819D01*
X152479761Y-79809819D02*
X152146428Y-79333628D01*
X151908333Y-79809819D02*
X151908333Y-78809819D01*
X151908333Y-78809819D02*
X152289285Y-78809819D01*
X152289285Y-78809819D02*
X152384523Y-78857438D01*
X152384523Y-78857438D02*
X152432142Y-78905057D01*
X152432142Y-78905057D02*
X152479761Y-79000295D01*
X152479761Y-79000295D02*
X152479761Y-79143152D01*
X152479761Y-79143152D02*
X152432142Y-79238390D01*
X152432142Y-79238390D02*
X152384523Y-79286009D01*
X152384523Y-79286009D02*
X152289285Y-79333628D01*
X152289285Y-79333628D02*
X151908333Y-79333628D01*
X152765476Y-78809819D02*
X153098809Y-79809819D01*
X153098809Y-79809819D02*
X153432142Y-78809819D01*
X153670238Y-78809819D02*
X154289285Y-78809819D01*
X154289285Y-78809819D02*
X153955952Y-79190771D01*
X153955952Y-79190771D02*
X154098809Y-79190771D01*
X154098809Y-79190771D02*
X154194047Y-79238390D01*
X154194047Y-79238390D02*
X154241666Y-79286009D01*
X154241666Y-79286009D02*
X154289285Y-79381247D01*
X154289285Y-79381247D02*
X154289285Y-79619342D01*
X154289285Y-79619342D02*
X154241666Y-79714580D01*
X154241666Y-79714580D02*
X154194047Y-79762200D01*
X154194047Y-79762200D02*
X154098809Y-79809819D01*
X154098809Y-79809819D02*
X153813095Y-79809819D01*
X153813095Y-79809819D02*
X153717857Y-79762200D01*
X153717857Y-79762200D02*
X153670238Y-79714580D01*
X115724761Y-65939819D02*
X115391428Y-65463628D01*
X115153333Y-65939819D02*
X115153333Y-64939819D01*
X115153333Y-64939819D02*
X115534285Y-64939819D01*
X115534285Y-64939819D02*
X115629523Y-64987438D01*
X115629523Y-64987438D02*
X115677142Y-65035057D01*
X115677142Y-65035057D02*
X115724761Y-65130295D01*
X115724761Y-65130295D02*
X115724761Y-65273152D01*
X115724761Y-65273152D02*
X115677142Y-65368390D01*
X115677142Y-65368390D02*
X115629523Y-65416009D01*
X115629523Y-65416009D02*
X115534285Y-65463628D01*
X115534285Y-65463628D02*
X115153333Y-65463628D01*
X116010476Y-64939819D02*
X116343809Y-65939819D01*
X116343809Y-65939819D02*
X116677142Y-64939819D01*
X116962857Y-65035057D02*
X117010476Y-64987438D01*
X117010476Y-64987438D02*
X117105714Y-64939819D01*
X117105714Y-64939819D02*
X117343809Y-64939819D01*
X117343809Y-64939819D02*
X117439047Y-64987438D01*
X117439047Y-64987438D02*
X117486666Y-65035057D01*
X117486666Y-65035057D02*
X117534285Y-65130295D01*
X117534285Y-65130295D02*
X117534285Y-65225533D01*
X117534285Y-65225533D02*
X117486666Y-65368390D01*
X117486666Y-65368390D02*
X116915238Y-65939819D01*
X116915238Y-65939819D02*
X117534285Y-65939819D01*
X132063333Y-56184819D02*
X131730000Y-55708628D01*
X131491905Y-56184819D02*
X131491905Y-55184819D01*
X131491905Y-55184819D02*
X131872857Y-55184819D01*
X131872857Y-55184819D02*
X131968095Y-55232438D01*
X131968095Y-55232438D02*
X132015714Y-55280057D01*
X132015714Y-55280057D02*
X132063333Y-55375295D01*
X132063333Y-55375295D02*
X132063333Y-55518152D01*
X132063333Y-55518152D02*
X132015714Y-55613390D01*
X132015714Y-55613390D02*
X131968095Y-55661009D01*
X131968095Y-55661009D02*
X131872857Y-55708628D01*
X131872857Y-55708628D02*
X131491905Y-55708628D01*
X132634762Y-55613390D02*
X132539524Y-55565771D01*
X132539524Y-55565771D02*
X132491905Y-55518152D01*
X132491905Y-55518152D02*
X132444286Y-55422914D01*
X132444286Y-55422914D02*
X132444286Y-55375295D01*
X132444286Y-55375295D02*
X132491905Y-55280057D01*
X132491905Y-55280057D02*
X132539524Y-55232438D01*
X132539524Y-55232438D02*
X132634762Y-55184819D01*
X132634762Y-55184819D02*
X132825238Y-55184819D01*
X132825238Y-55184819D02*
X132920476Y-55232438D01*
X132920476Y-55232438D02*
X132968095Y-55280057D01*
X132968095Y-55280057D02*
X133015714Y-55375295D01*
X133015714Y-55375295D02*
X133015714Y-55422914D01*
X133015714Y-55422914D02*
X132968095Y-55518152D01*
X132968095Y-55518152D02*
X132920476Y-55565771D01*
X132920476Y-55565771D02*
X132825238Y-55613390D01*
X132825238Y-55613390D02*
X132634762Y-55613390D01*
X132634762Y-55613390D02*
X132539524Y-55661009D01*
X132539524Y-55661009D02*
X132491905Y-55708628D01*
X132491905Y-55708628D02*
X132444286Y-55803866D01*
X132444286Y-55803866D02*
X132444286Y-55994342D01*
X132444286Y-55994342D02*
X132491905Y-56089580D01*
X132491905Y-56089580D02*
X132539524Y-56137200D01*
X132539524Y-56137200D02*
X132634762Y-56184819D01*
X132634762Y-56184819D02*
X132825238Y-56184819D01*
X132825238Y-56184819D02*
X132920476Y-56137200D01*
X132920476Y-56137200D02*
X132968095Y-56089580D01*
X132968095Y-56089580D02*
X133015714Y-55994342D01*
X133015714Y-55994342D02*
X133015714Y-55803866D01*
X133015714Y-55803866D02*
X132968095Y-55708628D01*
X132968095Y-55708628D02*
X132920476Y-55661009D01*
X132920476Y-55661009D02*
X132825238Y-55613390D01*
X124016666Y-79194819D02*
X124016666Y-79909104D01*
X124016666Y-79909104D02*
X123969047Y-80051961D01*
X123969047Y-80051961D02*
X123873809Y-80147200D01*
X123873809Y-80147200D02*
X123730952Y-80194819D01*
X123730952Y-80194819D02*
X123635714Y-80194819D01*
X124921428Y-79194819D02*
X124730952Y-79194819D01*
X124730952Y-79194819D02*
X124635714Y-79242438D01*
X124635714Y-79242438D02*
X124588095Y-79290057D01*
X124588095Y-79290057D02*
X124492857Y-79432914D01*
X124492857Y-79432914D02*
X124445238Y-79623390D01*
X124445238Y-79623390D02*
X124445238Y-80004342D01*
X124445238Y-80004342D02*
X124492857Y-80099580D01*
X124492857Y-80099580D02*
X124540476Y-80147200D01*
X124540476Y-80147200D02*
X124635714Y-80194819D01*
X124635714Y-80194819D02*
X124826190Y-80194819D01*
X124826190Y-80194819D02*
X124921428Y-80147200D01*
X124921428Y-80147200D02*
X124969047Y-80099580D01*
X124969047Y-80099580D02*
X125016666Y-80004342D01*
X125016666Y-80004342D02*
X125016666Y-79766247D01*
X125016666Y-79766247D02*
X124969047Y-79671009D01*
X124969047Y-79671009D02*
X124921428Y-79623390D01*
X124921428Y-79623390D02*
X124826190Y-79575771D01*
X124826190Y-79575771D02*
X124635714Y-79575771D01*
X124635714Y-79575771D02*
X124540476Y-79623390D01*
X124540476Y-79623390D02*
X124492857Y-79671009D01*
X124492857Y-79671009D02*
X124445238Y-79766247D01*
X151017142Y-56184819D02*
X150683809Y-55708628D01*
X150445714Y-56184819D02*
X150445714Y-55184819D01*
X150445714Y-55184819D02*
X150826666Y-55184819D01*
X150826666Y-55184819D02*
X150921904Y-55232438D01*
X150921904Y-55232438D02*
X150969523Y-55280057D01*
X150969523Y-55280057D02*
X151017142Y-55375295D01*
X151017142Y-55375295D02*
X151017142Y-55518152D01*
X151017142Y-55518152D02*
X150969523Y-55613390D01*
X150969523Y-55613390D02*
X150921904Y-55661009D01*
X150921904Y-55661009D02*
X150826666Y-55708628D01*
X150826666Y-55708628D02*
X150445714Y-55708628D01*
X151398095Y-55280057D02*
X151445714Y-55232438D01*
X151445714Y-55232438D02*
X151540952Y-55184819D01*
X151540952Y-55184819D02*
X151779047Y-55184819D01*
X151779047Y-55184819D02*
X151874285Y-55232438D01*
X151874285Y-55232438D02*
X151921904Y-55280057D01*
X151921904Y-55280057D02*
X151969523Y-55375295D01*
X151969523Y-55375295D02*
X151969523Y-55470533D01*
X151969523Y-55470533D02*
X151921904Y-55613390D01*
X151921904Y-55613390D02*
X151350476Y-56184819D01*
X151350476Y-56184819D02*
X151969523Y-56184819D01*
X152302857Y-55184819D02*
X152921904Y-55184819D01*
X152921904Y-55184819D02*
X152588571Y-55565771D01*
X152588571Y-55565771D02*
X152731428Y-55565771D01*
X152731428Y-55565771D02*
X152826666Y-55613390D01*
X152826666Y-55613390D02*
X152874285Y-55661009D01*
X152874285Y-55661009D02*
X152921904Y-55756247D01*
X152921904Y-55756247D02*
X152921904Y-55994342D01*
X152921904Y-55994342D02*
X152874285Y-56089580D01*
X152874285Y-56089580D02*
X152826666Y-56137200D01*
X152826666Y-56137200D02*
X152731428Y-56184819D01*
X152731428Y-56184819D02*
X152445714Y-56184819D01*
X152445714Y-56184819D02*
X152350476Y-56137200D01*
X152350476Y-56137200D02*
X152302857Y-56089580D01*
D11*
%TO.C,J1*%
X126610000Y-96130000D02*
X127940000Y-96130000D01*
X126610000Y-97460000D02*
X126610000Y-96130000D01*
X129210000Y-96130000D02*
X147050000Y-96130000D01*
X129210000Y-98790000D02*
X129210000Y-96130000D01*
X129210000Y-98790000D02*
X147050000Y-98790000D01*
X147050000Y-98790000D02*
X147050000Y-96130000D01*
%TO.C,J3*%
X149470000Y-96130000D02*
X150800000Y-96130000D01*
X149470000Y-97460000D02*
X149470000Y-96130000D01*
X152070000Y-96130000D02*
X164830000Y-96130000D01*
X152070000Y-98790000D02*
X152070000Y-96130000D01*
X152070000Y-98790000D02*
X164830000Y-98790000D01*
X164830000Y-98790000D02*
X164830000Y-96130000D01*
%TO.C,J2*%
X117466000Y-47870000D02*
X118796000Y-47870000D01*
X117466000Y-49200000D02*
X117466000Y-47870000D01*
X120066000Y-47870000D02*
X142986000Y-47870000D01*
X120066000Y-50530000D02*
X120066000Y-47870000D01*
X120066000Y-50530000D02*
X142986000Y-50530000D01*
X142986000Y-50530000D02*
X142986000Y-47870000D01*
%TO.C,J4*%
X144390000Y-47870000D02*
X145720000Y-47870000D01*
X144390000Y-49200000D02*
X144390000Y-47870000D01*
X146990000Y-47870000D02*
X164830000Y-47870000D01*
X146990000Y-50530000D02*
X146990000Y-47870000D01*
X146990000Y-50530000D02*
X164830000Y-50530000D01*
X164830000Y-50530000D02*
X164830000Y-47870000D01*
%TO.C,R9*%
X132373272Y-64120000D02*
G75*
G02*
X132373272Y-62280000I-1453272J920000D01*
G01*
%TO.C,R13*%
X138863272Y-59370000D02*
G75*
G02*
X138863272Y-57530000I-1453272J920000D01*
G01*
%TO.C,R14*%
X138863272Y-64120000D02*
G75*
G02*
X138863272Y-62280000I-1453272J920000D01*
G01*
%TO.C,R18*%
X145353272Y-59370000D02*
G75*
G02*
X145353272Y-57530000I-1453272J920000D01*
G01*
%TO.C,R4*%
X125883272Y-64120000D02*
G75*
G02*
X125883272Y-62280000I-1453272J920000D01*
G01*
%TO.C,R15*%
X138863272Y-68870000D02*
G75*
G02*
X138863272Y-67030000I-1453272J920000D01*
G01*
%TO.C,R19*%
X145353272Y-64120000D02*
G75*
G02*
X145353272Y-62280000I-1453272J920000D01*
G01*
%TO.C,C2*%
X155160000Y-66280000D02*
X160400000Y-66280000D01*
X155160000Y-69020000D02*
X155160000Y-66280000D01*
X160400000Y-66280000D02*
X160400000Y-69020000D01*
X160400000Y-69020000D02*
X155160000Y-69020000D01*
%TO.C,R7*%
X125883272Y-78370000D02*
G75*
G02*
X125883272Y-76530000I-1453272J920000D01*
G01*
%TO.C,R21*%
X145353272Y-73620000D02*
G75*
G02*
X145353272Y-71780000I-1453272J920000D01*
G01*
%TO.C,SW2*%
X102030000Y-82060000D02*
X102030000Y-83560000D01*
X103280000Y-86060000D02*
X107780000Y-86060000D01*
X107780000Y-79560000D02*
X103280000Y-79560000D01*
X109030000Y-83560000D02*
X109030000Y-82060000D01*
%TO.C,R20*%
X145353272Y-68870000D02*
G75*
G02*
X145353272Y-67030000I-1453272J920000D01*
G01*
%TO.C,R6*%
X125883272Y-73620000D02*
G75*
G02*
X125883272Y-71780000I-1453272J920000D01*
G01*
%TO.C,J7*%
X127560000Y-80740000D02*
X128940000Y-80740000D01*
X127560000Y-82120000D02*
X127560000Y-80740000D01*
X127560000Y-83390000D02*
X127560000Y-88580000D01*
X127560000Y-83390000D02*
X130320000Y-83390000D01*
X127560000Y-88580000D02*
X130320000Y-88580000D01*
X130320000Y-83390000D02*
X130320000Y-88580000D01*
%TO.C,R10*%
X132373272Y-68870000D02*
G75*
G02*
X132373272Y-67030000I-1453272J920000D01*
G01*
%TO.C,J5*%
X125750000Y-52390000D02*
X127080000Y-52390000D01*
X125750000Y-53720000D02*
X125750000Y-52390000D01*
X128350000Y-52390000D02*
X146190000Y-52390000D01*
X128350000Y-55050000D02*
X128350000Y-52390000D01*
X128350000Y-55050000D02*
X146190000Y-55050000D01*
X146190000Y-55050000D02*
X146190000Y-52390000D01*
%TO.C,R26*%
X151843272Y-73620000D02*
G75*
G02*
X151843272Y-71780000I-1453272J920000D01*
G01*
%TO.C,J11*%
X185550000Y-65520000D02*
X197550000Y-65520000D01*
X185550000Y-76520000D02*
X185550000Y-65520000D01*
X187050000Y-76520000D02*
X185550000Y-76520000D01*
X187050000Y-77720000D02*
X187050000Y-76520000D01*
X188550000Y-77720000D02*
X187050000Y-77720000D01*
X188550000Y-79520000D02*
X188550000Y-77720000D01*
X189550000Y-76520000D02*
X189550000Y-79520000D01*
X193550000Y-76520000D02*
X189550000Y-76520000D01*
X193550000Y-79520000D02*
X193550000Y-76520000D01*
X194550000Y-77720000D02*
X194550000Y-79520000D01*
X194550000Y-79520000D02*
X188550000Y-79520000D01*
X196050000Y-76520000D02*
X196050000Y-77720000D01*
X196050000Y-77720000D02*
X194550000Y-77720000D01*
X197550000Y-65520000D02*
X197550000Y-76520000D01*
X197550000Y-76520000D02*
X196050000Y-76520000D01*
%TO.C,R5*%
X125883272Y-68870000D02*
G75*
G02*
X125883272Y-67030000I-1453272J920000D01*
G01*
%TO.C,C1*%
X155065000Y-58535000D02*
X155865000Y-58535000D01*
X155465000Y-58135000D02*
X155465000Y-58935000D01*
X159474698Y-56770000D02*
X159474698Y-64930000D01*
X159514698Y-56770000D02*
X159514698Y-64930000D01*
X159554698Y-56771000D02*
X159554698Y-64929000D01*
X159594698Y-56772000D02*
X159594698Y-64928000D01*
X159634698Y-56773000D02*
X159634698Y-64927000D01*
X159674698Y-56775000D02*
X159674698Y-64925000D01*
X159714698Y-56777000D02*
X159714698Y-59810000D01*
X159714698Y-61890000D02*
X159714698Y-64923000D01*
X159754698Y-56780000D02*
X159754698Y-59810000D01*
X159754698Y-61890000D02*
X159754698Y-64920000D01*
X159794698Y-56782000D02*
X159794698Y-59810000D01*
X159794698Y-61890000D02*
X159794698Y-64918000D01*
X159834698Y-56786000D02*
X159834698Y-59810000D01*
X159834698Y-61890000D02*
X159834698Y-64914000D01*
X159874698Y-56789000D02*
X159874698Y-59810000D01*
X159874698Y-61890000D02*
X159874698Y-64911000D01*
X159914698Y-56794000D02*
X159914698Y-59810000D01*
X159914698Y-61890000D02*
X159914698Y-64906000D01*
X159954698Y-56798000D02*
X159954698Y-59810000D01*
X159954698Y-61890000D02*
X159954698Y-64902000D01*
X159994698Y-56803000D02*
X159994698Y-59810000D01*
X159994698Y-61890000D02*
X159994698Y-64897000D01*
X160034698Y-56808000D02*
X160034698Y-59810000D01*
X160034698Y-61890000D02*
X160034698Y-64892000D01*
X160074698Y-56814000D02*
X160074698Y-59810000D01*
X160074698Y-61890000D02*
X160074698Y-64886000D01*
X160114698Y-56820000D02*
X160114698Y-59810000D01*
X160114698Y-61890000D02*
X160114698Y-64880000D01*
X160154698Y-56827000D02*
X160154698Y-59810000D01*
X160154698Y-61890000D02*
X160154698Y-64873000D01*
X160194698Y-56833000D02*
X160194698Y-59810000D01*
X160194698Y-61890000D02*
X160194698Y-64867000D01*
X160234698Y-56841000D02*
X160234698Y-59810000D01*
X160234698Y-61890000D02*
X160234698Y-64859000D01*
X160274698Y-56848000D02*
X160274698Y-59810000D01*
X160274698Y-61890000D02*
X160274698Y-64852000D01*
X160314698Y-56857000D02*
X160314698Y-59810000D01*
X160314698Y-61890000D02*
X160314698Y-64843000D01*
X160354698Y-56865000D02*
X160354698Y-59810000D01*
X160354698Y-61890000D02*
X160354698Y-64835000D01*
X160394698Y-56874000D02*
X160394698Y-59810000D01*
X160394698Y-61890000D02*
X160394698Y-64826000D01*
X160434698Y-56883000D02*
X160434698Y-59810000D01*
X160434698Y-61890000D02*
X160434698Y-64817000D01*
X160474698Y-56893000D02*
X160474698Y-59810000D01*
X160474698Y-61890000D02*
X160474698Y-64807000D01*
X160514698Y-56903000D02*
X160514698Y-59810000D01*
X160514698Y-61890000D02*
X160514698Y-64797000D01*
X160554698Y-56914000D02*
X160554698Y-59810000D01*
X160554698Y-61890000D02*
X160554698Y-64786000D01*
X160594698Y-56925000D02*
X160594698Y-59810000D01*
X160594698Y-61890000D02*
X160594698Y-64775000D01*
X160634698Y-56937000D02*
X160634698Y-59810000D01*
X160634698Y-61890000D02*
X160634698Y-64763000D01*
X160674698Y-56949000D02*
X160674698Y-59810000D01*
X160674698Y-61890000D02*
X160674698Y-64751000D01*
X160714698Y-56961000D02*
X160714698Y-59810000D01*
X160714698Y-61890000D02*
X160714698Y-64739000D01*
X160754698Y-56974000D02*
X160754698Y-59810000D01*
X160754698Y-61890000D02*
X160754698Y-64726000D01*
X160794698Y-56987000D02*
X160794698Y-59810000D01*
X160794698Y-61890000D02*
X160794698Y-64713000D01*
X160834698Y-57001000D02*
X160834698Y-59810000D01*
X160834698Y-61890000D02*
X160834698Y-64699000D01*
X160874698Y-57015000D02*
X160874698Y-59810000D01*
X160874698Y-61890000D02*
X160874698Y-64685000D01*
X160914698Y-57030000D02*
X160914698Y-59810000D01*
X160914698Y-61890000D02*
X160914698Y-64670000D01*
X160954698Y-57045000D02*
X160954698Y-59810000D01*
X160954698Y-61890000D02*
X160954698Y-64655000D01*
X160994698Y-57061000D02*
X160994698Y-59810000D01*
X160994698Y-61890000D02*
X160994698Y-64639000D01*
X161034698Y-57077000D02*
X161034698Y-59810000D01*
X161034698Y-61890000D02*
X161034698Y-64623000D01*
X161074698Y-57093000D02*
X161074698Y-59810000D01*
X161074698Y-61890000D02*
X161074698Y-64607000D01*
X161114698Y-57110000D02*
X161114698Y-59810000D01*
X161114698Y-61890000D02*
X161114698Y-64590000D01*
X161154698Y-57128000D02*
X161154698Y-59810000D01*
X161154698Y-61890000D02*
X161154698Y-64572000D01*
X161194698Y-57146000D02*
X161194698Y-59810000D01*
X161194698Y-61890000D02*
X161194698Y-64554000D01*
X161234698Y-57165000D02*
X161234698Y-59810000D01*
X161234698Y-61890000D02*
X161234698Y-64535000D01*
X161274698Y-57184000D02*
X161274698Y-59810000D01*
X161274698Y-61890000D02*
X161274698Y-64516000D01*
X161314698Y-57204000D02*
X161314698Y-59810000D01*
X161314698Y-61890000D02*
X161314698Y-64496000D01*
X161354698Y-57224000D02*
X161354698Y-59810000D01*
X161354698Y-61890000D02*
X161354698Y-64476000D01*
X161394698Y-57245000D02*
X161394698Y-59810000D01*
X161394698Y-61890000D02*
X161394698Y-64455000D01*
X161434698Y-57266000D02*
X161434698Y-59810000D01*
X161434698Y-61890000D02*
X161434698Y-64434000D01*
X161474698Y-57288000D02*
X161474698Y-59810000D01*
X161474698Y-61890000D02*
X161474698Y-64412000D01*
X161514698Y-57311000D02*
X161514698Y-59810000D01*
X161514698Y-61890000D02*
X161514698Y-64389000D01*
X161554698Y-57334000D02*
X161554698Y-59810000D01*
X161554698Y-61890000D02*
X161554698Y-64366000D01*
X161594698Y-57357000D02*
X161594698Y-59810000D01*
X161594698Y-61890000D02*
X161594698Y-64343000D01*
X161634698Y-57382000D02*
X161634698Y-59810000D01*
X161634698Y-61890000D02*
X161634698Y-64318000D01*
X161674698Y-57407000D02*
X161674698Y-59810000D01*
X161674698Y-61890000D02*
X161674698Y-64293000D01*
X161714698Y-57432000D02*
X161714698Y-59810000D01*
X161714698Y-61890000D02*
X161714698Y-64268000D01*
X161754698Y-57458000D02*
X161754698Y-59810000D01*
X161754698Y-61890000D02*
X161754698Y-64242000D01*
X161794698Y-57485000D02*
X161794698Y-64215000D01*
X161834698Y-57513000D02*
X161834698Y-64187000D01*
X161874698Y-57541000D02*
X161874698Y-64159000D01*
X161914698Y-57570000D02*
X161914698Y-64130000D01*
X161954698Y-57600000D02*
X161954698Y-64100000D01*
X161994698Y-57631000D02*
X161994698Y-64069000D01*
X162034698Y-57662000D02*
X162034698Y-64038000D01*
X162074698Y-57694000D02*
X162074698Y-64006000D01*
X162114698Y-57727000D02*
X162114698Y-63973000D01*
X162154698Y-57761000D02*
X162154698Y-63939000D01*
X162194698Y-57795000D02*
X162194698Y-63905000D01*
X162234698Y-57831000D02*
X162234698Y-63869000D01*
X162274698Y-57868000D02*
X162274698Y-63832000D01*
X162314698Y-57905000D02*
X162314698Y-63795000D01*
X162354698Y-57944000D02*
X162354698Y-63756000D01*
X162394698Y-57983000D02*
X162394698Y-63717000D01*
X162434698Y-58024000D02*
X162434698Y-63676000D01*
X162474698Y-58066000D02*
X162474698Y-63634000D01*
X162514698Y-58109000D02*
X162514698Y-63591000D01*
X162554698Y-58154000D02*
X162554698Y-63546000D01*
X162594698Y-58199000D02*
X162594698Y-63501000D01*
X162634698Y-58246000D02*
X162634698Y-63454000D01*
X162674698Y-58295000D02*
X162674698Y-63405000D01*
X162714698Y-58345000D02*
X162714698Y-63355000D01*
X162754698Y-58397000D02*
X162754698Y-63303000D01*
X162794698Y-58450000D02*
X162794698Y-63250000D01*
X162834698Y-58506000D02*
X162834698Y-63194000D01*
X162874698Y-58563000D02*
X162874698Y-63137000D01*
X162914698Y-58623000D02*
X162914698Y-63077000D01*
X162954698Y-58685000D02*
X162954698Y-63015000D01*
X162994698Y-58749000D02*
X162994698Y-62951000D01*
X163034698Y-58816000D02*
X163034698Y-62884000D01*
X163074698Y-58886000D02*
X163074698Y-62814000D01*
X163114698Y-58960000D02*
X163114698Y-62740000D01*
X163154698Y-59037000D02*
X163154698Y-62663000D01*
X163194698Y-59119000D02*
X163194698Y-62581000D01*
X163234698Y-59206000D02*
X163234698Y-62494000D01*
X163274698Y-59298000D02*
X163274698Y-62402000D01*
X163314698Y-59397000D02*
X163314698Y-62303000D01*
X163354698Y-59504000D02*
X163354698Y-62196000D01*
X163394698Y-59622000D02*
X163394698Y-62078000D01*
X163434698Y-59753000D02*
X163434698Y-61947000D01*
X163474698Y-59903000D02*
X163474698Y-61797000D01*
X163514698Y-60082000D02*
X163514698Y-61618000D01*
X163554698Y-60317000D02*
X163554698Y-61383000D01*
X163594698Y-60850000D02*
G75*
G02*
X155354698Y-60850000I-4120000J0D01*
G01*
X155354698Y-60850000D02*
G75*
G02*
X163594698Y-60850000I4120000J0D01*
G01*
%TO.C,R24*%
X151843272Y-64120000D02*
G75*
G02*
X151843272Y-62280000I-1453272J920000D01*
G01*
%TO.C,R12*%
X132373272Y-78370000D02*
G75*
G02*
X132373272Y-76530000I-1453272J920000D01*
G01*
%TO.C,SW1*%
X102030000Y-72710000D02*
X102030000Y-74210000D01*
X103280000Y-76710000D02*
X107780000Y-76710000D01*
X107780000Y-70210000D02*
X103280000Y-70210000D01*
X109030000Y-74210000D02*
X109030000Y-72710000D01*
%TO.C,R11*%
X132373272Y-73620000D02*
G75*
G02*
X132373272Y-71780000I-1453272J920000D01*
G01*
%TO.C,R22*%
X145353272Y-78370000D02*
G75*
G02*
X145353272Y-76530000I-1453272J920000D01*
G01*
%TO.C,J12*%
X131880000Y-84790000D02*
X133260000Y-84790000D01*
X131880000Y-86170000D02*
X131880000Y-84790000D01*
X131880000Y-87440000D02*
X131880000Y-92630000D01*
X131880000Y-87440000D02*
X134640000Y-87440000D01*
X131880000Y-92630000D02*
X134640000Y-92630000D01*
X134640000Y-87440000D02*
X134640000Y-92630000D01*
%TO.C,R1*%
X116893272Y-83790000D02*
G75*
G02*
X116893272Y-81950000I-1453272J920000D01*
G01*
%TO.C,R27*%
X151843272Y-78370000D02*
G75*
G02*
X151843272Y-76530000I-1453272J920000D01*
G01*
%TO.C,R17*%
X138863272Y-78370000D02*
G75*
G02*
X138863272Y-76530000I-1453272J920000D01*
G01*
%TO.C,R25*%
X151843272Y-68870000D02*
G75*
G02*
X151843272Y-67030000I-1453272J920000D01*
G01*
%TO.C,R16*%
X138863272Y-73620000D02*
G75*
G02*
X138863272Y-71780000I-1453272J920000D01*
G01*
%TO.C,RV1*%
X103430000Y-52775000D02*
X113180000Y-52775000D01*
X103430000Y-62525000D02*
X103430000Y-52775000D01*
X113180000Y-52775000D02*
X113180000Y-62525000D01*
X113180000Y-62525000D02*
X103430000Y-62525000D01*
%TO.C,R2*%
X116893272Y-88540000D02*
G75*
G02*
X116893272Y-86700000I-1453272J920000D01*
G01*
%TO.C,U1*%
X139430000Y-80600000D02*
X139430000Y-90880000D01*
X139430000Y-90880000D02*
X143930000Y-90880000D01*
X140680000Y-80600000D02*
X139430000Y-80600000D01*
X143930000Y-80600000D02*
X142680000Y-80600000D01*
X143930000Y-90880000D02*
X143930000Y-80600000D01*
X136430000Y-80540000D02*
X146930000Y-80540000D01*
X146930000Y-90940000D01*
X136430000Y-90940000D01*
X136430000Y-80540000D01*
X142680000Y-80600000D02*
G75*
G02*
X140680000Y-80600000I-1000000J0D01*
G01*
%TO.C,J9*%
X159530000Y-80740000D02*
X160910000Y-80740000D01*
X159530000Y-82120000D02*
X159530000Y-80740000D01*
X159530000Y-83390000D02*
X159530000Y-88580000D01*
X159530000Y-83390000D02*
X162290000Y-83390000D01*
X159530000Y-88580000D02*
X162290000Y-88580000D01*
X162290000Y-83390000D02*
X162290000Y-88580000D01*
%TO.C,R3*%
X125883272Y-59370000D02*
G75*
G02*
X125883272Y-57530000I-1453272J920000D01*
G01*
%TO.C,J10*%
X171430000Y-65520000D02*
X183430000Y-65520000D01*
X171430000Y-76520000D02*
X171430000Y-65520000D01*
X172930000Y-76520000D02*
X171430000Y-76520000D01*
X172930000Y-77720000D02*
X172930000Y-76520000D01*
X174430000Y-77720000D02*
X172930000Y-77720000D01*
X174430000Y-79520000D02*
X174430000Y-77720000D01*
X175430000Y-76520000D02*
X175430000Y-79520000D01*
X179430000Y-76520000D02*
X175430000Y-76520000D01*
X179430000Y-79520000D02*
X179430000Y-76520000D01*
X180430000Y-77720000D02*
X180430000Y-79520000D01*
X180430000Y-79520000D02*
X174430000Y-79520000D01*
X181930000Y-76520000D02*
X181930000Y-77720000D01*
X181930000Y-77720000D02*
X180430000Y-77720000D01*
X183430000Y-65520000D02*
X183430000Y-76520000D01*
X183430000Y-76520000D02*
X181930000Y-76520000D01*
%TO.C,RV3*%
X148200000Y-80495000D02*
X157950000Y-80495000D01*
X148200000Y-90245000D02*
X148200000Y-80495000D01*
X157950000Y-80495000D02*
X157950000Y-90245000D01*
X157950000Y-90245000D02*
X148200000Y-90245000D01*
%TO.C,RV2*%
X111445000Y-66625000D02*
X121195000Y-66625000D01*
X111445000Y-76375000D02*
X111445000Y-66625000D01*
X121195000Y-66625000D02*
X121195000Y-76375000D01*
X121195000Y-76375000D02*
X111445000Y-76375000D01*
%TO.C,R8*%
X132413272Y-59370000D02*
G75*
G02*
X132413272Y-57530000I-1453272J920000D01*
G01*
%TO.C,J6*%
X122970000Y-80740000D02*
X124350000Y-80740000D01*
X122970000Y-82120000D02*
X122970000Y-80740000D01*
X122970000Y-83390000D02*
X122970000Y-91120000D01*
X122970000Y-83390000D02*
X125730000Y-83390000D01*
X122970000Y-91120000D02*
X125730000Y-91120000D01*
X125730000Y-83390000D02*
X125730000Y-91120000D01*
%TO.C,R23*%
X151843272Y-59370000D02*
G75*
G02*
X151843272Y-57530000I-1453272J920000D01*
G01*
%TD*%
M02*
