M48
; DRILL file {KiCad 9.0.7} date 2026-03-13T07:39:56-0600
; FORMAT={-:-/ absolute / metric / decimal}
; #@! TF.CreationDate,2026-03-13T07:39:56-06:00
; #@! TF.GenerationSoftware,Kicad,Pcbnew,9.0.7
; #@! TF.FileFunction,Plated,1,2,PTH
FMAT,2
METRIC
; #@! TA.AperFunction,Plated,PTH,ViaDrill
T1C0.300
; #@! TA.AperFunction,Plated,PTH,ComponentDrill
T2C0.800
; #@! TA.AperFunction,Plated,PTH,ComponentDrill
T3C0.900
; #@! TA.AperFunction,Plated,PTH,ComponentDrill
T4C1.000
; #@! TA.AperFunction,Plated,PTH,ComponentDrill
T5C1.016
; #@! TA.AperFunction,Plated,PTH,ComponentDrill
T6C1.100
%
G90
G05
T1
X71.12Y-55.88
X78.232Y-61.468
X79.248Y-55.88
X79.248Y-59.944
X87.376Y-85.852
X87.376Y-87.493
T2
X74.676Y-88.9
X77.176Y-88.9
X82.187Y-81.068
X82.432Y-86.868
X84.187Y-81.068
X84.432Y-86.868
X101.736Y-48.27
X101.736Y-55.89
X105.936Y-47.97
X105.936Y-55.59
X110.036Y-47.96
X110.036Y-55.58
X114.236Y-47.97
X114.236Y-55.59
T3
X73.914Y-80.01
X73.914Y-81.28
X73.914Y-82.55
X98.536Y-58.53
X98.536Y-61.07
X103.136Y-58.6
X103.136Y-61.14
X107.736Y-58.63
X107.736Y-61.17
X112.336Y-58.63
X112.336Y-61.17
T4
X65.436Y-55.83
X65.436Y-58.37
X65.436Y-60.91
X65.436Y-63.45
X65.436Y-65.99
X84.236Y-53.37
X84.236Y-55.91
X84.236Y-58.45
X84.236Y-60.99
X84.236Y-63.53
X84.236Y-66.07
X84.836Y-72.644
X84.836Y-75.184
X94.136Y-53.29
X94.136Y-55.83
X94.136Y-58.37
X94.136Y-60.91
X94.136Y-63.45
X94.136Y-65.99
X99.06Y-84.577
X99.06Y-87.117
T5
X71.126Y-44.014
X73.666Y-44.014
X76.206Y-44.014
X78.746Y-44.014
X80.27Y-92.274
X81.286Y-44.014
X82.81Y-92.274
X83.826Y-44.014
X85.35Y-92.274
X86.366Y-44.014
X87.89Y-92.274
X88.906Y-44.014
X90.43Y-92.274
X91.446Y-44.014
X92.97Y-92.274
X93.986Y-44.014
X95.51Y-92.274
X98.05Y-44.014
X98.05Y-92.274
X100.59Y-44.014
X102.736Y-66.73
X102.736Y-69.27
X102.736Y-71.81
X102.736Y-74.35
X102.736Y-76.89
X102.736Y-79.43
X103.13Y-44.014
X103.13Y-92.274
X105.67Y-44.014
X105.67Y-92.274
X108.21Y-44.014
X108.21Y-92.274
X110.75Y-44.014
X110.75Y-92.274
X113.29Y-44.014
X113.29Y-92.274
X115.83Y-44.014
X115.83Y-92.274
X115.957Y-64.334
X115.957Y-66.874
X115.957Y-69.414
X118.497Y-64.334
X118.497Y-66.874
X118.497Y-69.414
T6
X92.39Y-81.788
X92.39Y-84.328
X92.39Y-86.868
M30
