%TF.GenerationSoftware,KiCad,Pcbnew,9.0.7*%
%TF.CreationDate,2026-02-15T19:22:42-07:00*%
%TF.ProjectId,PCB_Project,5043425f-5072-46f6-9a65-63742e6b6963,rev?*%
%TF.SameCoordinates,Original*%
%TF.FileFunction,Soldermask,Top*%
%TF.FilePolarity,Negative*%
%FSLAX46Y46*%
G04 Gerber Fmt 4.6, Leading zero omitted, Abs format (unit mm)*
G04 Created by KiCad (PCBNEW 9.0.7) date 2026-02-15 19:22:42*
%MOMM*%
%LPD*%
G01*
G04 APERTURE LIST*
G04 Aperture macros list*
%AMRoundRect*
0 Rectangle with rounded corners*
0 $1 Rounding radius*
0 $2 $3 $4 $5 $6 $7 $8 $9 X,Y pos of 4 corners*
0 Add a 4 corners polygon primitive as box body*
4,1,4,$2,$3,$4,$5,$6,$7,$8,$9,$2,$3,0*
0 Add four circle primitives for the rounded corners*
1,1,$1+$1,$2,$3*
1,1,$1+$1,$4,$5*
1,1,$1+$1,$6,$7*
1,1,$1+$1,$8,$9*
0 Add four rect primitives between the rounded corners*
20,1,$1+$1,$2,$3,$4,$5,0*
20,1,$1+$1,$4,$5,$6,$7,0*
20,1,$1+$1,$6,$7,$8,$9,0*
20,1,$1+$1,$8,$9,$2,$3,0*%
G04 Aperture macros list end*
%ADD10C,1.200000*%
%ADD11O,2.200000X1.200000*%
%ADD12O,2.300000X1.600000*%
%ADD13O,1.200000X2.200000*%
%ADD14O,2.500000X1.600000*%
%ADD15R,1.700000X1.700000*%
%ADD16O,1.700000X1.700000*%
%ADD17C,1.600000*%
%ADD18C,1.700000*%
%ADD19C,1.440000*%
%ADD20RoundRect,0.250000X-0.550000X-0.550000X0.550000X-0.550000X0.550000X0.550000X-0.550000X0.550000X0*%
%ADD21RoundRect,0.250000X-0.950000X-0.550000X0.950000X-0.550000X0.950000X0.550000X-0.950000X0.550000X0*%
%ADD22O,2.400000X1.600000*%
%ADD23C,2.000000*%
G04 APERTURE END LIST*
D10*
%TO.C,J11*%
X164516000Y-79520000D03*
X167016000Y-79520000D03*
X159516000Y-74520000D03*
X164516000Y-69520000D03*
X167016000Y-69520000D03*
D11*
X159516000Y-79520000D03*
D12*
X159516000Y-77020000D03*
D13*
X164516000Y-74520000D03*
D11*
X159516000Y-69520000D03*
D14*
X159516000Y-72020000D03*
%TD*%
D10*
%TO.C,J10*%
X164516000Y-92728000D03*
X167016000Y-92728000D03*
X159516000Y-87728000D03*
X164516000Y-82728000D03*
X167016000Y-82728000D03*
D11*
X159516000Y-92728000D03*
D12*
X159516000Y-90228000D03*
D13*
X164516000Y-87728000D03*
D11*
X159516000Y-82728000D03*
D14*
X159516000Y-85228000D03*
%TD*%
D15*
%TO.C,J1*%
X127940000Y-97460000D03*
D16*
X130480000Y-97460000D03*
X133020000Y-97460000D03*
X135560000Y-97460000D03*
X138100000Y-97460000D03*
X140640000Y-97460000D03*
X143180000Y-97460000D03*
X145720000Y-97460000D03*
%TD*%
D15*
%TO.C,J3*%
X150800000Y-97460000D03*
D16*
X153340000Y-97460000D03*
X155880000Y-97460000D03*
X158420000Y-97460000D03*
X160960000Y-97460000D03*
X163500000Y-97460000D03*
%TD*%
D15*
%TO.C,J2*%
X118796000Y-49200000D03*
D16*
X121336000Y-49200000D03*
X123876000Y-49200000D03*
X126416000Y-49200000D03*
X128956000Y-49200000D03*
X131496000Y-49200000D03*
X134036000Y-49200000D03*
X136576000Y-49200000D03*
X139116000Y-49200000D03*
X141656000Y-49200000D03*
%TD*%
D15*
%TO.C,J4*%
X145720000Y-49200000D03*
D16*
X148260000Y-49200000D03*
X150800000Y-49200000D03*
X153340000Y-49200000D03*
X155880000Y-49200000D03*
X158420000Y-49200000D03*
X160960000Y-49200000D03*
X163500000Y-49200000D03*
%TD*%
D17*
%TO.C,R19*%
X115870000Y-62680000D03*
X115870000Y-65220000D03*
%TD*%
D15*
%TO.C,J12*%
X154356000Y-89840000D03*
D18*
X154356000Y-87300000D03*
X154356000Y-84760000D03*
%TD*%
D17*
%TO.C,C2*%
X126924000Y-82180000D03*
X126924000Y-79680000D03*
%TD*%
%TO.C,R17*%
X119820000Y-62640000D03*
X119820000Y-65180000D03*
%TD*%
%TO.C,R6*%
X144100000Y-58520000D03*
X144100000Y-55980000D03*
%TD*%
%TO.C,R25*%
X117780000Y-78156000D03*
X120320000Y-78156000D03*
%TD*%
%TO.C,R21*%
X111880000Y-62680000D03*
X111880000Y-65220000D03*
%TD*%
%TO.C,R3*%
X148130000Y-64450000D03*
X148130000Y-61910000D03*
%TD*%
%TO.C,R27*%
X127940000Y-71552000D03*
X127940000Y-74092000D03*
%TD*%
D19*
%TO.C,RV3*%
X118796000Y-84252000D03*
X116256000Y-86792000D03*
X118796000Y-89332000D03*
%TD*%
D17*
%TO.C,R7*%
X140140000Y-62660000D03*
X140140000Y-65200000D03*
%TD*%
%TO.C,R16*%
X123860000Y-58490000D03*
X123860000Y-55950000D03*
%TD*%
D20*
%TO.C,C1*%
X145045621Y-78156000D03*
D17*
X147545621Y-78156000D03*
%TD*%
%TO.C,R20*%
X115880000Y-58510000D03*
X115880000Y-55970000D03*
%TD*%
%TO.C,R4*%
X148110000Y-58530000D03*
X148110000Y-55990000D03*
%TD*%
D19*
%TO.C,RV1*%
X134544000Y-92380000D03*
X137084000Y-89840000D03*
X134544000Y-87300000D03*
%TD*%
D17*
%TO.C,R5*%
X144160000Y-62690000D03*
X144160000Y-65230000D03*
%TD*%
%TO.C,R14*%
X127920000Y-58460000D03*
X127920000Y-55920000D03*
%TD*%
%TO.C,R11*%
X131970000Y-62610000D03*
X131970000Y-65150000D03*
%TD*%
D15*
%TO.C,J5*%
X105299000Y-66142000D03*
D18*
X102759000Y-66142000D03*
X100219000Y-66142000D03*
X97679000Y-66142000D03*
X95139000Y-66142000D03*
X92599000Y-66142000D03*
X90059000Y-66142000D03*
X87519000Y-66142000D03*
%TD*%
D17*
%TO.C,R15*%
X123860000Y-62650000D03*
X123860000Y-65190000D03*
%TD*%
%TO.C,R8*%
X140160000Y-58530000D03*
X140160000Y-55990000D03*
%TD*%
%TO.C,R24*%
X123368000Y-71698000D03*
X123368000Y-74238000D03*
%TD*%
D21*
%TO.C,U1*%
X133090000Y-74010000D03*
D22*
X133090000Y-76550000D03*
X133090000Y-79090000D03*
X133090000Y-81630000D03*
X140710000Y-81630000D03*
X140710000Y-79090000D03*
X140710000Y-76550000D03*
X140710000Y-74010000D03*
%TD*%
D23*
%TO.C,SW2*%
X165734000Y-65890000D03*
X159234000Y-65890000D03*
X165734000Y-61390000D03*
X159234000Y-61390000D03*
%TD*%
D17*
%TO.C,R12*%
X131970000Y-58460000D03*
X131970000Y-55920000D03*
%TD*%
%TO.C,R23*%
X117780000Y-72568000D03*
X115240000Y-72568000D03*
%TD*%
D15*
%TO.C,J9*%
X126924000Y-91872000D03*
D18*
X126924000Y-89332000D03*
X126924000Y-86792000D03*
%TD*%
D19*
%TO.C,RV2*%
X145600000Y-92380000D03*
X148140000Y-89840000D03*
X145600000Y-87300000D03*
%TD*%
D23*
%TO.C,SW1*%
X165532000Y-57710000D03*
X159032000Y-57710000D03*
X165532000Y-53210000D03*
X159032000Y-53210000D03*
%TD*%
D15*
%TO.C,J7*%
X147244000Y-71760000D03*
D18*
X149784000Y-71760000D03*
X152324000Y-71760000D03*
%TD*%
D17*
%TO.C,R26*%
X117780000Y-95428000D03*
X120320000Y-95428000D03*
%TD*%
D15*
%TO.C,J6*%
X95690000Y-72080000D03*
D18*
X98230000Y-72080000D03*
X100770000Y-72080000D03*
X103310000Y-72080000D03*
%TD*%
D17*
%TO.C,R1*%
X152832000Y-55804000D03*
X152832000Y-58344000D03*
%TD*%
%TO.C,R22*%
X111920000Y-58490000D03*
X111920000Y-55950000D03*
%TD*%
%TO.C,R13*%
X127940000Y-62660000D03*
X127940000Y-65200000D03*
%TD*%
%TO.C,R18*%
X119840000Y-58510000D03*
X119840000Y-55970000D03*
%TD*%
%TO.C,R10*%
X136060000Y-58490000D03*
X136060000Y-55950000D03*
%TD*%
%TO.C,R9*%
X136140000Y-62650000D03*
X136140000Y-65190000D03*
%TD*%
%TO.C,R2*%
X153050000Y-62650000D03*
X153050000Y-65190000D03*
%TD*%
M02*
