%TF.GenerationSoftware,KiCad,Pcbnew,9.0.7*%
%TF.CreationDate,2026-02-15T19:22:42-07:00*%
%TF.ProjectId,PCB_Project,5043425f-5072-46f6-9a65-63742e6b6963,rev?*%
%TF.SameCoordinates,Original*%
%TF.FileFunction,Copper,L1,Top*%
%TF.FilePolarity,Positive*%
%FSLAX46Y46*%
G04 Gerber Fmt 4.6, Leading zero omitted, Abs format (unit mm)*
G04 Created by KiCad (PCBNEW 9.0.7) date 2026-02-15 19:22:42*
%MOMM*%
%LPD*%
G01*
G04 APERTURE LIST*
G04 Aperture macros list*
%AMRoundRect*
0 Rectangle with rounded corners*
0 $1 Rounding radius*
0 $2 $3 $4 $5 $6 $7 $8 $9 X,Y pos of 4 corners*
0 Add a 4 corners polygon primitive as box body*
4,1,4,$2,$3,$4,$5,$6,$7,$8,$9,$2,$3,0*
0 Add four circle primitives for the rounded corners*
1,1,$1+$1,$2,$3*
1,1,$1+$1,$4,$5*
1,1,$1+$1,$6,$7*
1,1,$1+$1,$8,$9*
0 Add four rect primitives between the rounded corners*
20,1,$1+$1,$2,$3,$4,$5,0*
20,1,$1+$1,$4,$5,$6,$7,0*
20,1,$1+$1,$6,$7,$8,$9,0*
20,1,$1+$1,$8,$9,$2,$3,0*%
G04 Aperture macros list end*
%TA.AperFunction,ComponentPad*%
%ADD10O,2.200000X1.200000*%
%TD*%
%TA.AperFunction,ComponentPad*%
%ADD11O,2.300000X1.600000*%
%TD*%
%TA.AperFunction,ComponentPad*%
%ADD12O,1.200000X2.200000*%
%TD*%
%TA.AperFunction,ComponentPad*%
%ADD13O,2.500000X1.600000*%
%TD*%
%TA.AperFunction,ComponentPad*%
%ADD14R,1.700000X1.700000*%
%TD*%
%TA.AperFunction,ComponentPad*%
%ADD15O,1.700000X1.700000*%
%TD*%
%TA.AperFunction,ComponentPad*%
%ADD16C,1.600000*%
%TD*%
%TA.AperFunction,ComponentPad*%
%ADD17C,1.700000*%
%TD*%
%TA.AperFunction,ComponentPad*%
%ADD18C,1.440000*%
%TD*%
%TA.AperFunction,ComponentPad*%
%ADD19RoundRect,0.250000X-0.550000X-0.550000X0.550000X-0.550000X0.550000X0.550000X-0.550000X0.550000X0*%
%TD*%
%TA.AperFunction,ComponentPad*%
%ADD20RoundRect,0.250000X-0.950000X-0.550000X0.950000X-0.550000X0.950000X0.550000X-0.950000X0.550000X0*%
%TD*%
%TA.AperFunction,ComponentPad*%
%ADD21O,2.400000X1.600000*%
%TD*%
%TA.AperFunction,ComponentPad*%
%ADD22C,2.000000*%
%TD*%
%TA.AperFunction,ViaPad*%
%ADD23C,0.600000*%
%TD*%
%TA.AperFunction,Conductor*%
%ADD24C,0.250000*%
%TD*%
G04 APERTURE END LIST*
D10*
%TO.P,J11,R*%
%TO.N,/AUDIO_OUT*%
X159516000Y-79520000D03*
D11*
%TO.P,J11,RN*%
X159516000Y-77020000D03*
D12*
%TO.P,J11,S*%
%TO.N,GND*%
X164516000Y-74520000D03*
D10*
%TO.P,J11,T*%
%TO.N,/AUDIO_OUT*%
X159516000Y-69520000D03*
D13*
%TO.P,J11,TN*%
X159516000Y-72020000D03*
%TD*%
D10*
%TO.P,J10,R*%
%TO.N,/IN_RIGHT*%
X159516000Y-92728000D03*
D11*
%TO.P,J10,RN*%
X159516000Y-90228000D03*
D12*
%TO.P,J10,S*%
%TO.N,GND*%
X164516000Y-87728000D03*
D10*
%TO.P,J10,T*%
%TO.N,/IN_LEFT*%
X159516000Y-82728000D03*
D13*
%TO.P,J10,TN*%
X159516000Y-85228000D03*
%TD*%
D14*
%TO.P,J1,1,Pin_1*%
%TO.N,unconnected-(J1-Pin_1-Pad1)*%
X127940000Y-97460000D03*
D15*
%TO.P,J1,2,Pin_2*%
%TO.N,/IOREF*%
X130480000Y-97460000D03*
%TO.P,J1,3,Pin_3*%
%TO.N,/~{RESET}*%
X133020000Y-97460000D03*
%TO.P,J1,4,Pin_4*%
%TO.N,+3V3*%
X135560000Y-97460000D03*
%TO.P,J1,5,Pin_5*%
%TO.N,+5V*%
X138100000Y-97460000D03*
%TO.P,J1,6,Pin_6*%
%TO.N,GND*%
X140640000Y-97460000D03*
%TO.P,J1,7,Pin_7*%
X143180000Y-97460000D03*
%TO.P,J1,8,Pin_8*%
%TO.N,VCC*%
X145720000Y-97460000D03*
%TD*%
D14*
%TO.P,J3,1,Pin_1*%
%TO.N,/A0*%
X150800000Y-97460000D03*
D15*
%TO.P,J3,2,Pin_2*%
%TO.N,/A1*%
X153340000Y-97460000D03*
%TO.P,J3,3,Pin_3*%
%TO.N,/IN_RIGHT*%
X155880000Y-97460000D03*
%TO.P,J3,4,Pin_4*%
%TO.N,/IN_LEFT*%
X158420000Y-97460000D03*
%TO.P,J3,5,Pin_5*%
%TO.N,/SDA{slash}A4*%
X160960000Y-97460000D03*
%TO.P,J3,6,Pin_6*%
%TO.N,/SCL{slash}A5*%
X163500000Y-97460000D03*
%TD*%
D14*
%TO.P,J2,1,Pin_1*%
%TO.N,/SCL*%
X118796000Y-49200000D03*
D15*
%TO.P,J2,2,Pin_2*%
%TO.N,/SDA*%
X121336000Y-49200000D03*
%TO.P,J2,3,Pin_3*%
%TO.N,/AREF*%
X123876000Y-49200000D03*
%TO.P,J2,4,Pin_4*%
%TO.N,GND*%
X126416000Y-49200000D03*
%TO.P,J2,5,Pin_5*%
%TO.N,/D9*%
X128956000Y-49200000D03*
%TO.P,J2,6,Pin_6*%
%TO.N,/D8*%
X131496000Y-49200000D03*
%TO.P,J2,7,Pin_7*%
%TO.N,/D7*%
X134036000Y-49200000D03*
%TO.P,J2,8,Pin_8*%
%TO.N,/D6*%
X136576000Y-49200000D03*
%TO.P,J2,9,Pin_9*%
%TO.N,/D5*%
X139116000Y-49200000D03*
%TO.P,J2,10,Pin_10*%
%TO.N,/D4*%
X141656000Y-49200000D03*
%TD*%
D14*
%TO.P,J4,1,Pin_1*%
%TO.N,/D3*%
X145720000Y-49200000D03*
D15*
%TO.P,J4,2,Pin_2*%
%TO.N,/D2*%
X148260000Y-49200000D03*
%TO.P,J4,3,Pin_3*%
%TO.N,/D1*%
X150800000Y-49200000D03*
%TO.P,J4,4,Pin_4*%
%TO.N,/D0*%
X153340000Y-49200000D03*
%TO.P,J4,5,Pin_5*%
%TO.N,/BT2*%
X155880000Y-49200000D03*
%TO.P,J4,6,Pin_6*%
%TO.N,/BT1*%
X158420000Y-49200000D03*
%TO.P,J4,7,Pin_7*%
%TO.N,/TX{slash}1*%
X160960000Y-49200000D03*
%TO.P,J4,8,Pin_8*%
%TO.N,/RX{slash}0*%
X163500000Y-49200000D03*
%TD*%
D16*
%TO.P,R19,1*%
%TO.N,Net-(R19-Pad1)*%
X115870000Y-62680000D03*
%TO.P,R19,2*%
%TO.N,Net-(R17-Pad1)*%
X115870000Y-65220000D03*
%TD*%
D14*
%TO.P,J12,1,Pin_1*%
%TO.N,GND*%
X154356000Y-89840000D03*
D17*
%TO.P,J12,2,Pin_2*%
%TO.N,/IN_RIGHT*%
X154356000Y-87300000D03*
%TO.P,J12,3,Pin_3*%
%TO.N,/IN_LEFT*%
X154356000Y-84760000D03*
%TD*%
D16*
%TO.P,C2,1*%
%TO.N,Net-(U1A--)*%
X126924000Y-82180000D03*
%TO.P,C2,2*%
%TO.N,Net-(C2-Pad2)*%
X126924000Y-79680000D03*
%TD*%
%TO.P,R17,1*%
%TO.N,Net-(R17-Pad1)*%
X119820000Y-62640000D03*
%TO.P,R17,2*%
%TO.N,Net-(R15-Pad1)*%
X119820000Y-65180000D03*
%TD*%
%TO.P,R6,1*%
%TO.N,Net-(R5-Pad1)*%
X144100000Y-58520000D03*
%TO.P,R6,2*%
%TO.N,/D1*%
X144100000Y-55980000D03*
%TD*%
%TO.P,R25,1*%
%TO.N,+5V*%
X117780000Y-78156000D03*
%TO.P,R25,2*%
%TO.N,Net-(R25-Pad2)*%
X120320000Y-78156000D03*
%TD*%
%TO.P,R21,1*%
%TO.N,Net-(R21-Pad1)*%
X111880000Y-62680000D03*
%TO.P,R21,2*%
%TO.N,Net-(R19-Pad1)*%
X111880000Y-65220000D03*
%TD*%
%TO.P,R3,1*%
%TO.N,GND*%
X148130000Y-64450000D03*
%TO.P,R3,2*%
%TO.N,Net-(R3-Pad2)*%
X148130000Y-61910000D03*
%TD*%
%TO.P,R27,1*%
%TO.N,/AUDIO_OUT*%
X127940000Y-71552000D03*
%TO.P,R27,2*%
%TO.N,Net-(C2-Pad2)*%
X127940000Y-74092000D03*
%TD*%
D18*
%TO.P,RV3,1,1*%
%TO.N,Net-(R25-Pad2)*%
X118796000Y-84252000D03*
%TO.P,RV3,2,2*%
%TO.N,Net-(J9-Pin_3)*%
X116256000Y-86792000D03*
%TO.P,RV3,3,3*%
%TO.N,Net-(R26-Pad1)*%
X118796000Y-89332000D03*
%TD*%
D16*
%TO.P,R7,1*%
%TO.N,Net-(R7-Pad1)*%
X140140000Y-62660000D03*
%TO.P,R7,2*%
%TO.N,Net-(R5-Pad1)*%
X140140000Y-65200000D03*
%TD*%
%TO.P,R16,1*%
%TO.N,Net-(R15-Pad1)*%
X123860000Y-58490000D03*
%TO.P,R16,2*%
%TO.N,/D6*%
X123860000Y-55950000D03*
%TD*%
D19*
%TO.P,C1,1*%
%TO.N,+5V*%
X145045621Y-78156000D03*
D16*
%TO.P,C1,2*%
%TO.N,GND*%
X147545621Y-78156000D03*
%TD*%
%TO.P,R20,1*%
%TO.N,Net-(R19-Pad1)*%
X115880000Y-58510000D03*
%TO.P,R20,2*%
%TO.N,/D8*%
X115880000Y-55970000D03*
%TD*%
%TO.P,R4,1*%
%TO.N,Net-(R3-Pad2)*%
X148110000Y-58530000D03*
%TO.P,R4,2*%
%TO.N,/D0*%
X148110000Y-55990000D03*
%TD*%
D18*
%TO.P,RV1,1,1*%
%TO.N,+5V*%
X134544000Y-92380000D03*
%TO.P,RV1,2,2*%
%TO.N,/A0*%
X137084000Y-89840000D03*
%TO.P,RV1,3,3*%
%TO.N,GND*%
X134544000Y-87300000D03*
%TD*%
D16*
%TO.P,R5,1*%
%TO.N,Net-(R5-Pad1)*%
X144160000Y-62690000D03*
%TO.P,R5,2*%
%TO.N,Net-(R3-Pad2)*%
X144160000Y-65230000D03*
%TD*%
%TO.P,R14,1*%
%TO.N,Net-(R13-Pad1)*%
X127920000Y-58460000D03*
%TO.P,R14,2*%
%TO.N,/D5*%
X127920000Y-55920000D03*
%TD*%
%TO.P,R11,1*%
%TO.N,Net-(R11-Pad1)*%
X131970000Y-62610000D03*
%TO.P,R11,2*%
%TO.N,Net-(R10-Pad1)*%
X131970000Y-65150000D03*
%TD*%
D14*
%TO.P,J5,1,Pin_1*%
%TO.N,unconnected-(J5-Pin_1-Pad1)*%
X105299000Y-66142000D03*
D17*
%TO.P,J5,2,Pin_2*%
%TO.N,unconnected-(J5-Pin_2-Pad2)*%
X102759000Y-66142000D03*
%TO.P,J5,3,Pin_3*%
%TO.N,unconnected-(J5-Pin_3-Pad3)*%
X100219000Y-66142000D03*
%TO.P,J5,4,Pin_4*%
%TO.N,unconnected-(J5-Pin_4-Pad4)*%
X97679000Y-66142000D03*
%TO.P,J5,5,Pin_5*%
%TO.N,/SDA*%
X95139000Y-66142000D03*
%TO.P,J5,6,Pin_6*%
%TO.N,/SCL*%
X92599000Y-66142000D03*
%TO.P,J5,7,Pin_7*%
%TO.N,GND*%
X90059000Y-66142000D03*
%TO.P,J5,8,Pin_8*%
%TO.N,+5V*%
X87519000Y-66142000D03*
%TD*%
D16*
%TO.P,R15,1*%
%TO.N,Net-(R15-Pad1)*%
X123860000Y-62650000D03*
%TO.P,R15,2*%
%TO.N,Net-(R13-Pad1)*%
X123860000Y-65190000D03*
%TD*%
%TO.P,R8,1*%
%TO.N,Net-(R7-Pad1)*%
X140160000Y-58530000D03*
%TO.P,R8,2*%
%TO.N,/D2*%
X140160000Y-55990000D03*
%TD*%
%TO.P,R24,1*%
%TO.N,Net-(C2-Pad2)*%
X123368000Y-71698000D03*
%TO.P,R24,2*%
%TO.N,Net-(U1A--)*%
X123368000Y-74238000D03*
%TD*%
D20*
%TO.P,U1,1*%
%TO.N,Net-(C2-Pad2)*%
X133090000Y-74010000D03*
D21*
%TO.P,U1,2,-*%
%TO.N,Net-(U1A--)*%
X133090000Y-76550000D03*
%TO.P,U1,3,+*%
%TO.N,Net-(J9-Pin_2)*%
X133090000Y-79090000D03*
%TO.P,U1,4,V-*%
%TO.N,GND*%
X133090000Y-81630000D03*
%TO.P,U1,5,+*%
X140710000Y-81630000D03*
%TO.P,U1,6,-*%
%TO.N,Net-(U1B--)*%
X140710000Y-79090000D03*
%TO.P,U1,7*%
X140710000Y-76550000D03*
%TO.P,U1,8,V+*%
%TO.N,+5V*%
X140710000Y-74010000D03*
%TD*%
D22*
%TO.P,SW2,1,1*%
%TO.N,+5V*%
X165734000Y-65890000D03*
X159234000Y-65890000D03*
%TO.P,SW2,2,2*%
%TO.N,/BT2*%
X165734000Y-61390000D03*
X159234000Y-61390000D03*
%TD*%
D16*
%TO.P,R12,1*%
%TO.N,Net-(R11-Pad1)*%
X131970000Y-58460000D03*
%TO.P,R12,2*%
%TO.N,/D4*%
X131970000Y-55920000D03*
%TD*%
%TO.P,R23,1*%
%TO.N,Net-(U1A--)*%
X117780000Y-72568000D03*
%TO.P,R23,2*%
%TO.N,Net-(R21-Pad1)*%
X115240000Y-72568000D03*
%TD*%
D14*
%TO.P,J9,1,Pin_1*%
%TO.N,GND*%
X126924000Y-91872000D03*
D17*
%TO.P,J9,2,Pin_2*%
%TO.N,Net-(J9-Pin_2)*%
X126924000Y-89332000D03*
%TO.P,J9,3,Pin_3*%
%TO.N,Net-(J9-Pin_3)*%
X126924000Y-86792000D03*
%TD*%
D18*
%TO.P,RV2,1,1*%
%TO.N,+5V*%
X145600000Y-92380000D03*
%TO.P,RV2,2,2*%
%TO.N,/A1*%
X148140000Y-89840000D03*
%TO.P,RV2,3,3*%
%TO.N,GND*%
X145600000Y-87300000D03*
%TD*%
D22*
%TO.P,SW1,1,1*%
%TO.N,+5V*%
X165532000Y-57710000D03*
X159032000Y-57710000D03*
%TO.P,SW1,2,2*%
%TO.N,/BT1*%
X165532000Y-53210000D03*
X159032000Y-53210000D03*
%TD*%
D14*
%TO.P,J7,1,Pin_1*%
%TO.N,/AUDIO_OUT*%
X147244000Y-71760000D03*
D17*
%TO.P,J7,2,Pin_2*%
X149784000Y-71760000D03*
%TO.P,J7,3,Pin_3*%
%TO.N,GND*%
X152324000Y-71760000D03*
%TD*%
D16*
%TO.P,R26,1*%
%TO.N,Net-(R26-Pad1)*%
X117780000Y-95428000D03*
%TO.P,R26,2*%
%TO.N,GND*%
X120320000Y-95428000D03*
%TD*%
D14*
%TO.P,J6,1,Pin_1*%
%TO.N,GND*%
X95690000Y-72080000D03*
D17*
%TO.P,J6,2,Pin_2*%
%TO.N,+5V*%
X98230000Y-72080000D03*
%TO.P,J6,3,Pin_3*%
%TO.N,/SCL*%
X100770000Y-72080000D03*
%TO.P,J6,4,Pin_4*%
%TO.N,/SDA*%
X103310000Y-72080000D03*
%TD*%
D16*
%TO.P,R1,1*%
%TO.N,/BT1*%
X152832000Y-55804000D03*
%TO.P,R1,2*%
%TO.N,GND*%
X152832000Y-58344000D03*
%TD*%
%TO.P,R22,1*%
%TO.N,Net-(R21-Pad1)*%
X111920000Y-58490000D03*
%TO.P,R22,2*%
%TO.N,/D9*%
X111920000Y-55950000D03*
%TD*%
%TO.P,R13,1*%
%TO.N,Net-(R13-Pad1)*%
X127940000Y-62660000D03*
%TO.P,R13,2*%
%TO.N,Net-(R11-Pad1)*%
X127940000Y-65200000D03*
%TD*%
%TO.P,R18,1*%
%TO.N,Net-(R17-Pad1)*%
X119840000Y-58510000D03*
%TO.P,R18,2*%
%TO.N,/D7*%
X119840000Y-55970000D03*
%TD*%
%TO.P,R10,1*%
%TO.N,Net-(R10-Pad1)*%
X136060000Y-58490000D03*
%TO.P,R10,2*%
%TO.N,/D3*%
X136060000Y-55950000D03*
%TD*%
%TO.P,R9,1*%
%TO.N,Net-(R10-Pad1)*%
X136140000Y-62650000D03*
%TO.P,R9,2*%
%TO.N,Net-(R7-Pad1)*%
X136140000Y-65190000D03*
%TD*%
%TO.P,R2,1*%
%TO.N,/BT2*%
X153050000Y-62650000D03*
%TO.P,R2,2*%
%TO.N,GND*%
X153050000Y-65190000D03*
%TD*%
D23*
%TO.N,/BT1*%
X155880000Y-53772000D03*
%TO.N,/AUDIO_OUT*%
X144704000Y-70536000D03*
X142672000Y-69012000D03*
%TD*%
D24*
%TO.N,/AUDIO_OUT*%
X147244000Y-71760000D02*
X149784000Y-71760000D01*
%TO.N,Net-(U1B--)*%
X140710000Y-76550000D02*
X140710000Y-79090000D01*
%TO.N,+5V*%
X144196000Y-80696000D02*
X145045621Y-79846379D01*
X88824000Y-69012000D02*
X87519000Y-67707000D01*
X140640000Y-84252000D02*
X142164000Y-84252000D01*
X140132000Y-86792000D02*
X140132000Y-84760000D01*
X145045621Y-79846379D02*
X145045621Y-78156000D01*
X95936000Y-69012000D02*
X88824000Y-69012000D01*
X98230000Y-71306000D02*
X95936000Y-69012000D01*
X117780000Y-80188000D02*
X116764000Y-81204000D01*
X135560000Y-88824000D02*
X136068000Y-88316000D01*
X98230000Y-72080000D02*
X98230000Y-88578000D01*
X145600000Y-92500000D02*
X145600000Y-91790000D01*
X110668000Y-92380000D02*
X106604000Y-92380000D01*
X116764000Y-81204000D02*
X112700000Y-81204000D01*
X138100000Y-95936000D02*
X137592000Y-95428000D01*
X134544000Y-92380000D02*
X134544000Y-93396000D01*
X112700000Y-81204000D02*
X111684000Y-82220000D01*
X142164000Y-84252000D02*
X144196000Y-82220000D01*
X145045621Y-75957621D02*
X145045621Y-78156000D01*
X124384000Y-95428000D02*
X137084000Y-95428000D01*
X167564000Y-59742000D02*
X167564000Y-64060000D01*
X111684000Y-91364000D02*
X110668000Y-92380000D01*
X117780000Y-78156000D02*
X117780000Y-80188000D01*
X113208000Y-98984000D02*
X106604000Y-92380000D01*
X145600000Y-92380000D02*
X137592000Y-92380000D01*
X138608000Y-88316000D02*
X140132000Y-86792000D01*
X140132000Y-84760000D02*
X140640000Y-84252000D01*
X143098000Y-74010000D02*
X145045621Y-75957621D01*
X136068000Y-88316000D02*
X138608000Y-88316000D01*
X134544000Y-93396000D02*
X136576000Y-95428000D01*
X144196000Y-95428000D02*
X145600000Y-94024000D01*
X87519000Y-67707000D02*
X87519000Y-66142000D01*
X157128000Y-67996000D02*
X145720000Y-67996000D01*
X137084000Y-95428000D02*
X136576000Y-95428000D01*
X165532000Y-57710000D02*
X159032000Y-57710000D01*
X159234000Y-65890000D02*
X157128000Y-67996000D01*
X137592000Y-95428000D02*
X137084000Y-95428000D01*
X106604000Y-92380000D02*
X102032000Y-92380000D01*
X120828000Y-98984000D02*
X113208000Y-98984000D01*
X98230000Y-72080000D02*
X98230000Y-71306000D01*
X141738000Y-74010000D02*
X140710000Y-74010000D01*
X137592000Y-92380000D02*
X135560000Y-90348000D01*
X124384000Y-95428000D02*
X120828000Y-98984000D01*
X144196000Y-82220000D02*
X144196000Y-80696000D01*
X135560000Y-90348000D02*
X135560000Y-88824000D01*
X138100000Y-97460000D02*
X138100000Y-95936000D01*
X138608000Y-95428000D02*
X144196000Y-95428000D01*
X167564000Y-64060000D02*
X165734000Y-65890000D01*
X138100000Y-95936000D02*
X138608000Y-95428000D01*
X145720000Y-67996000D02*
X142672000Y-71044000D01*
X142672000Y-73076000D02*
X141738000Y-74010000D01*
X111684000Y-82220000D02*
X111684000Y-91364000D01*
X98230000Y-88578000D02*
X102032000Y-92380000D01*
X165532000Y-57710000D02*
X167564000Y-59742000D01*
X140710000Y-74010000D02*
X143098000Y-74010000D01*
X159234000Y-65890000D02*
X165734000Y-65890000D01*
X145600000Y-94024000D02*
X145600000Y-92380000D01*
X142672000Y-71044000D02*
X142672000Y-73076000D01*
%TO.N,/A0*%
X137084000Y-89840000D02*
X145212000Y-89840000D01*
X150800000Y-95428000D02*
X150800000Y-97460000D01*
X145212000Y-89840000D02*
X150800000Y-95428000D01*
%TO.N,/A1*%
X153340000Y-95040000D02*
X153340000Y-97460000D01*
X148140000Y-89840000D02*
X153340000Y-95040000D01*
%TO.N,Net-(U1A--)*%
X120320000Y-75108000D02*
X117780000Y-72568000D01*
X121844000Y-76124000D02*
X120828000Y-75108000D01*
X132554000Y-76550000D02*
X126924000Y-82180000D01*
X126924000Y-82180000D02*
X123916000Y-79172000D01*
X121844000Y-78156000D02*
X121844000Y-76124000D01*
X123916000Y-79172000D02*
X122860000Y-79172000D01*
X122860000Y-79172000D02*
X121844000Y-78156000D01*
X133090000Y-76550000D02*
X132554000Y-76550000D01*
X121698000Y-74238000D02*
X123368000Y-74238000D01*
X120828000Y-75108000D02*
X121698000Y-74238000D01*
X120828000Y-75108000D02*
X120320000Y-75108000D01*
%TO.N,Net-(C2-Pad2)*%
X128448000Y-74092000D02*
X128530000Y-74010000D01*
X123368000Y-71698000D02*
X125546000Y-71698000D01*
X126924000Y-74092000D02*
X127940000Y-74092000D01*
X128530000Y-74010000D02*
X133090000Y-74010000D01*
X125546000Y-71698000D02*
X127940000Y-74092000D01*
X126924000Y-79680000D02*
X125400000Y-78156000D01*
X127940000Y-74092000D02*
X128448000Y-74092000D01*
X125400000Y-78156000D02*
X125400000Y-75616000D01*
X125400000Y-75616000D02*
X126924000Y-74092000D01*
%TO.N,/D7*%
X131496000Y-51740000D02*
X126924000Y-51740000D01*
X121336000Y-55804000D02*
X121170000Y-55970000D01*
X134036000Y-49200000D02*
X131496000Y-51740000D01*
X126924000Y-51740000D02*
X125908000Y-52756000D01*
X121170000Y-55970000D02*
X119840000Y-55970000D01*
X123368000Y-52756000D02*
X121336000Y-54788000D01*
X125908000Y-52756000D02*
X123368000Y-52756000D01*
X121336000Y-54788000D02*
X121336000Y-55804000D01*
%TO.N,/SCL*%
X95428000Y-49200000D02*
X118796000Y-49200000D01*
X92599000Y-67707000D02*
X93396000Y-68504000D01*
X92599000Y-66142000D02*
X93904000Y-64837000D01*
X93396000Y-68504000D02*
X97194000Y-68504000D01*
X92599000Y-66142000D02*
X92599000Y-67707000D01*
X93904000Y-64837000D02*
X93904000Y-50724000D01*
X93904000Y-50724000D02*
X95428000Y-49200000D01*
X100770000Y-72080000D02*
X100770000Y-71814000D01*
X97194000Y-68504000D02*
X100770000Y-72080000D01*
%TO.N,/D8*%
X129464000Y-51232000D02*
X126416000Y-51232000D01*
X122352000Y-52248000D02*
X121336000Y-53264000D01*
X131496000Y-49200000D02*
X129464000Y-51232000D01*
X125400000Y-52248000D02*
X122352000Y-52248000D01*
X118586000Y-53264000D02*
X115880000Y-55970000D01*
X121336000Y-53264000D02*
X118586000Y-53264000D01*
X126416000Y-51232000D02*
X125400000Y-52248000D01*
%TO.N,/D9*%
X121844000Y-51740000D02*
X120828000Y-52756000D01*
X127432000Y-50724000D02*
X125908000Y-50724000D01*
X112554000Y-55950000D02*
X111920000Y-55950000D01*
X120828000Y-52756000D02*
X118288000Y-52756000D01*
X125908000Y-50724000D02*
X124892000Y-51740000D01*
X117780000Y-53264000D02*
X114732000Y-53264000D01*
X113208000Y-55296000D02*
X112554000Y-55950000D01*
X124892000Y-51740000D02*
X121844000Y-51740000D01*
X118288000Y-52756000D02*
X117780000Y-53264000D01*
X114732000Y-53264000D02*
X113208000Y-54788000D01*
X113208000Y-54788000D02*
X113208000Y-55296000D01*
X128956000Y-49200000D02*
X127432000Y-50724000D01*
%TO.N,/D6*%
X125908000Y-53772000D02*
X125908000Y-54788000D01*
X124746000Y-55950000D02*
X123860000Y-55950000D01*
X133020000Y-52756000D02*
X126924000Y-52756000D01*
X136576000Y-49200000D02*
X133020000Y-52756000D01*
X125908000Y-54788000D02*
X124746000Y-55950000D01*
X126924000Y-52756000D02*
X125908000Y-53772000D01*
%TO.N,/SDA*%
X109144000Y-52248000D02*
X119304000Y-52248000D01*
X107620000Y-67996000D02*
X107620000Y-53772000D01*
X95139000Y-66691000D02*
X95139000Y-66142000D01*
X103310000Y-72080000D02*
X99226000Y-67996000D01*
X107112000Y-68504000D02*
X107620000Y-67996000D01*
X99226000Y-67996000D02*
X96444000Y-67996000D01*
X103310000Y-72080000D02*
X103310000Y-70782000D01*
X121336000Y-50216000D02*
X121336000Y-49200000D01*
X103310000Y-70782000D02*
X105588000Y-68504000D01*
X107620000Y-53772000D02*
X109144000Y-52248000D01*
X105588000Y-68504000D02*
X107112000Y-68504000D01*
X119304000Y-52248000D02*
X121336000Y-50216000D01*
X96444000Y-67996000D02*
X95139000Y-66691000D01*
%TO.N,/D4*%
X137592000Y-53264000D02*
X141656000Y-49200000D01*
X132904000Y-55920000D02*
X134544000Y-54280000D01*
X134544000Y-54280000D02*
X134544000Y-53772000D01*
X135052000Y-53264000D02*
X137592000Y-53264000D01*
X134544000Y-53772000D02*
X135052000Y-53264000D01*
X131970000Y-55920000D02*
X132904000Y-55920000D01*
%TO.N,/D5*%
X127920000Y-55920000D02*
X128840000Y-55920000D01*
X128840000Y-55920000D02*
X130480000Y-54280000D01*
X133528000Y-53264000D02*
X133979000Y-52813000D01*
X133979000Y-52813000D02*
X135503000Y-52813000D01*
X135503000Y-52813000D02*
X139116000Y-49200000D01*
X130480000Y-53772000D02*
X130988000Y-53264000D01*
X130480000Y-54280000D02*
X130480000Y-53772000D01*
X130988000Y-53264000D02*
X133528000Y-53264000D01*
%TO.N,/IN_RIGHT*%
X156896000Y-87300000D02*
X154356000Y-87300000D01*
X159516000Y-90228000D02*
X159516000Y-89920000D01*
X157056000Y-92728000D02*
X155880000Y-93904000D01*
X155880000Y-93904000D02*
X155880000Y-97460000D01*
X159516000Y-89920000D02*
X156896000Y-87300000D01*
X159516000Y-92728000D02*
X159516000Y-90228000D01*
X159516000Y-92728000D02*
X157056000Y-92728000D01*
%TO.N,/IN_LEFT*%
X159516000Y-82728000D02*
X159516000Y-85228000D01*
X161468000Y-92888000D02*
X158420000Y-95936000D01*
X155332000Y-85228000D02*
X159516000Y-85228000D01*
X154356000Y-84760000D02*
X154864000Y-84760000D01*
X159516000Y-85348000D02*
X161468000Y-87300000D01*
X161468000Y-87300000D02*
X161468000Y-92888000D01*
X158420000Y-95936000D02*
X158420000Y-97460000D01*
X159516000Y-85228000D02*
X159516000Y-85348000D01*
X154864000Y-84760000D02*
X155332000Y-85228000D01*
%TO.N,/BT1*%
X159032000Y-53210000D02*
X156442000Y-53210000D01*
X158420000Y-52598000D02*
X159032000Y-53210000D01*
X159032000Y-53210000D02*
X165532000Y-53210000D01*
X158420000Y-49200000D02*
X158420000Y-52598000D01*
X156442000Y-53210000D02*
X155880000Y-53772000D01*
%TO.N,/D3*%
X145720000Y-49708000D02*
X145720000Y-49200000D01*
X138746000Y-53264000D02*
X142164000Y-53264000D01*
X142164000Y-53264000D02*
X145720000Y-49708000D01*
X136060000Y-55950000D02*
X138746000Y-53264000D01*
%TO.N,/BT2*%
X165734000Y-61390000D02*
X159234000Y-61390000D01*
X155374000Y-61390000D02*
X159234000Y-61390000D01*
X155372000Y-61392000D02*
X155374000Y-61390000D01*
X155880000Y-60884000D02*
X155374000Y-61390000D01*
X153050000Y-62650000D02*
X154308000Y-61392000D01*
X154308000Y-61392000D02*
X155372000Y-61392000D01*
X154864000Y-58852000D02*
X155880000Y-59868000D01*
X154864000Y-50216000D02*
X154864000Y-58852000D01*
X155880000Y-59868000D02*
X155880000Y-60884000D01*
X155880000Y-49200000D02*
X154864000Y-50216000D01*
%TO.N,/D2*%
X144196000Y-53264000D02*
X148260000Y-49200000D01*
X142886000Y-53264000D02*
X144196000Y-53264000D01*
X140160000Y-55990000D02*
X142886000Y-53264000D01*
%TO.N,/D0*%
X148110000Y-55990000D02*
X149090000Y-55990000D01*
X150800000Y-51740000D02*
X153340000Y-49200000D01*
X149090000Y-55990000D02*
X150800000Y-54280000D01*
X150800000Y-54280000D02*
X150800000Y-51740000D01*
%TO.N,/D1*%
X150800000Y-49280000D02*
X150800000Y-49200000D01*
X144100000Y-55980000D02*
X150800000Y-49280000D01*
%TO.N,/AUDIO_OUT*%
X159316000Y-77020000D02*
X157912000Y-75616000D01*
X159516000Y-79520000D02*
X155212000Y-79520000D01*
X159516000Y-72020000D02*
X159516000Y-69520000D01*
X128956000Y-70028000D02*
X129972000Y-69012000D01*
X149784000Y-74092000D02*
X149784000Y-71760000D01*
X158460000Y-72020000D02*
X159516000Y-72020000D01*
X144704000Y-70536000D02*
X145928000Y-71760000D01*
X142046000Y-69012000D02*
X142672000Y-69012000D01*
X129972000Y-69012000D02*
X142046000Y-69012000D01*
X127940000Y-71552000D02*
X127940000Y-71044000D01*
X159516000Y-77020000D02*
X159316000Y-77020000D01*
X127940000Y-71044000D02*
X128956000Y-70028000D01*
X155212000Y-79520000D02*
X149784000Y-74092000D01*
X145928000Y-71760000D02*
X147244000Y-71760000D01*
X157912000Y-72568000D02*
X158460000Y-72020000D01*
X157912000Y-75616000D02*
X157912000Y-72568000D01*
X159516000Y-77020000D02*
X159516000Y-79520000D01*
%TO.N,Net-(J9-Pin_2)*%
X130480000Y-83744000D02*
X130988000Y-83236000D01*
X128448000Y-87808000D02*
X128448000Y-85268000D01*
X130988000Y-83236000D02*
X130988000Y-81192000D01*
X128448000Y-85268000D02*
X129972000Y-83744000D01*
X130988000Y-81192000D02*
X133090000Y-79090000D01*
X129972000Y-83744000D02*
X130480000Y-83744000D01*
X126924000Y-89332000D02*
X128448000Y-87808000D01*
%TO.N,Net-(J9-Pin_3)*%
X126924000Y-86792000D02*
X116256000Y-86792000D01*
%TO.N,Net-(R3-Pad2)*%
X148110000Y-61890000D02*
X148130000Y-61910000D01*
X144160000Y-65230000D02*
X147480000Y-61910000D01*
X147480000Y-61910000D02*
X148130000Y-61910000D01*
X148110000Y-58530000D02*
X148110000Y-61890000D01*
%TO.N,Net-(R5-Pad1)*%
X144100000Y-58520000D02*
X144100000Y-62630000D01*
X141650000Y-65200000D02*
X144160000Y-62690000D01*
X144100000Y-62630000D02*
X144160000Y-62690000D01*
X140140000Y-65200000D02*
X141650000Y-65200000D01*
%TO.N,Net-(R7-Pad1)*%
X140140000Y-62660000D02*
X140140000Y-58550000D01*
X136140000Y-65190000D02*
X137610000Y-65190000D01*
X137610000Y-65190000D02*
X140140000Y-62660000D01*
X140140000Y-58550000D02*
X140160000Y-58530000D01*
%TO.N,Net-(R10-Pad1)*%
X136060000Y-62570000D02*
X136140000Y-62650000D01*
X131970000Y-65150000D02*
X133640000Y-65150000D01*
X133640000Y-65150000D02*
X136140000Y-62650000D01*
X136060000Y-58490000D02*
X136060000Y-62570000D01*
%TO.N,Net-(R11-Pad1)*%
X131970000Y-58460000D02*
X131970000Y-62610000D01*
X129380000Y-65200000D02*
X131970000Y-62610000D01*
X127940000Y-65200000D02*
X129380000Y-65200000D01*
%TO.N,Net-(R13-Pad1)*%
X127920000Y-62640000D02*
X127940000Y-62660000D01*
X123860000Y-65190000D02*
X125410000Y-65190000D01*
X125410000Y-65190000D02*
X127940000Y-62660000D01*
X127920000Y-58460000D02*
X127920000Y-62640000D01*
%TO.N,Net-(R15-Pad1)*%
X123860000Y-58490000D02*
X123860000Y-62650000D01*
X119820000Y-65180000D02*
X121330000Y-65180000D01*
X121330000Y-65180000D02*
X123860000Y-62650000D01*
%TO.N,Net-(R17-Pad1)*%
X119840000Y-58510000D02*
X119840000Y-62620000D01*
X119840000Y-62620000D02*
X119820000Y-62640000D01*
X117240000Y-65220000D02*
X119820000Y-62640000D01*
X115870000Y-65220000D02*
X117240000Y-65220000D01*
%TO.N,Net-(R19-Pad1)*%
X115880000Y-58510000D02*
X115880000Y-62670000D01*
X113602000Y-64948000D02*
X112152000Y-64948000D01*
X115870000Y-62680000D02*
X113602000Y-64948000D01*
X115880000Y-62670000D02*
X115870000Y-62680000D01*
X112152000Y-64948000D02*
X111880000Y-65220000D01*
%TO.N,Net-(R21-Pad1)*%
X111920000Y-58490000D02*
X111920000Y-62640000D01*
X111880000Y-62680000D02*
X110160000Y-64400000D01*
X114732000Y-70028000D02*
X115240000Y-70536000D01*
X111920000Y-62640000D02*
X111880000Y-62680000D01*
X115240000Y-70536000D02*
X115240000Y-72568000D01*
X112700000Y-70028000D02*
X114732000Y-70028000D01*
X110160000Y-64400000D02*
X110160000Y-67488000D01*
X110160000Y-67488000D02*
X112700000Y-70028000D01*
%TO.N,Net-(R25-Pad2)*%
X118796000Y-81712000D02*
X120320000Y-80188000D01*
X118796000Y-84252000D02*
X118796000Y-81712000D01*
X120320000Y-80188000D02*
X120320000Y-78156000D01*
%TO.N,Net-(R26-Pad1)*%
X118796000Y-93904000D02*
X118796000Y-89332000D01*
X117780000Y-94920000D02*
X118796000Y-93904000D01*
X117780000Y-95428000D02*
X117780000Y-94920000D01*
%TD*%
M02*
